<svg xmlns="http://www.w3.org/2000/svg" viewBox="0 0 650 563.33" fill-rule="evenodd"><path d="M593.05 297.38a31.2 31.2 0 0 1-1.38-8.8c.08-9.16-.35-17-5.13-25.3-6.54-11.3-16-20.18-26.86-27.3s-25.26-10.93-33.38-21.2c-11.76-14.87-22.76-31.58-36.65-44.44-2.33-2.15-4.7-4.2-7.1-6.2-7.1-8.23-14.92-16.1-23.67-22-12.2-8.24-26.37-15.2-40.62-18.92-15.72-4.1-31.74-5.14-47.93-4.94-15 .18-31.4 1.87-45.46 7.42-12.75 5-24.12 13.87-35.5 21.77-12.82 8.92-24.75 14.6-40 17.77A232.07 232.07 0 0 0 211.89 176c-46.3 18.2-91 43.72-123.2 82.45-20.6 24.85-40 55.1-40 88.8 0 32.94 7.7 69.05 27.66 95.83 10 13.4 21.73 22.57 37.58 27.9 17 5.72 35.1 7.44 53 7.84 10.7.24 21.43 0 32.15-.28 14.06-.35 28.1.87 42.1 1 15.18.2 30.5-1.07 45.68-1.6l103.2-2.9c16.14 0 32.28.2 48.38-.42 20.15-.76 40.3-1.46 60.4-3.18 20.43-1.75 42.76-2.08 61.53-12 21.84-11.6 28-30.65 34.3-53 5.65-20 9.53-41 9.1-61.84a108.29 108.29 0 0 0-4.91-31.37c-1.7-5.04-4.23-10.43-5.78-15.85z" fill="#f5f5f5"/><path d="M457.67 361.3l5.78.06h.6a32.67 32.67 0 0 1-13.8-11.56c-6.56-9.8-8-20.78-6.67-32.3 1-8.2 4.52-15.26 8.05-22.56a1.5 1.5 0 0 0-2.72-1.26c-4.2 8.7-7.72 16.7-8.63 26.46-1.08 11.57 1.4 22.5 8 32.1a34.19 34.19 0 0 0 9.39 9.06z" fill="#bbb"/><path d="M441.33 322.9a1.49 1.49 0 0 0 1.14-.25l.08-.06a4.51 4.51 0 0 0 .5-.24 2.85 2.85 0 0 0 .38-.31c.22-.18.48-.3.7-.48l.76-.54a14.58 14.58 0 0 0 1.31-1 1.29 1.29 0 0 0 .33-.33l3.28-2.4a29.69 29.69 0 0 0 2.66 3.2 28.82 28.82 0 0 0 .43 6.86 1.23 1.23 0 0 0-.32 1.13 40.58 40.58 0 0 0 2.3 8 1.64 1.64 0 0 0-1 1.54 14.6 14.6 0 0 1-.92 2h-.76c-2.26.08-4.75.4-7-.07-1.9-.4-2.42 2.54-.53 2.95a26.13 26.13 0 0 0 6.5.17c-1.05 1.78-2 3.63-2.86 5.5a1.5 1.5 0 0 0 2.72 1.27c1.06-2.28 2.45-4.44 3.68-6.66a19.47 19.47 0 0 0 4 .06l.4.5a13.18 13.18 0 0 0 2.54 3.42 30.15 30.15 0 0 0 9.34 5.78l2.3 7.16-.15.12-.6.47 4.1-.3 1.2-.1 3.64-3.1a1.19 1.19 0 0 0 .37-1.3 41.67 41.67 0 0 0 14.73-.21l3 2.3 4.28-.52-.06-.05.25-4.1c6.28-2.9 10.78-7.78 14.83-13.23.17-.2.33-.4.5-.6.1 0 .16.06.26.08a167.75 167.75 0 0 1 3.92.48l.13.28c1.1 2.63 1.95 5.33 3.17 7.9a1.17 1.17 0 0 0 .05.11v.1a1.53 1.53 0 0 0 .37.48 36.1 36.1 0 0 1-4.5 5.53 25.31 25.31 0 0 1-1.16 1.08l4.7-.4a44.33 44.33 0 0 0 6.28-9.27c4.6-8.76 9-18 8.45-28.1a1.53 1.53 0 0 0 2.11-1.84c-.15-.43-.2-.87-.4-1.3a3.88 3.88 0 0 1-.41-1.2c-.1-.93-.07-1.83-.25-2.76s-.22-1.9-.48-2.83-.48-1.87-.65-2.83a10.11 10.11 0 0 0-.94-2.43c-.35-.8-.67-1.63-1-2.44a38.56 38.56 0 0 0-2-3.94 1.51 1.51 0 0 0-.08-1.32c-1.27-2.35-2.35-4.94-4.06-7s-3.8-3.35-5.8-4.93a57.57 57.57 0 0 0-6.69-4.61c-2.36-1.37-4.9-2.05-7.37-3.18-2.16-1-4.24-2.25-6.46-3.1a22 22 0 0 0-7.8-1.2c-2.85 0-5.74-.08-8.6 0a42.65 42.65 0 0 0-8.56 1.28 72.06 72.06 0 0 0-9.19 2.79c-2.75 1.06-5.38 2.35-8.08 3.5-1.77.76-.75 3.58 1 2.82h.08a1.42 1.42 0 0 0 1.07.93c1.56.37 3.05-1.55 4.36-2.2a43.34 43.34 0 0 1 5.43-2.13 1.5 1.5 0 0 0 .34.43c1.37 1.22 2.2 3.16 3.13 4.7l.13.2a48.7 48.7 0 0 0-1.25 5.35 53 53 0 0 0-11.65 5.58c-3.7 2.42-5.6 6.15-8 9.8a30.63 30.63 0 0 0-4.36 7.27 1.4 1.4 0 0 0-1.71 0c-1 .65-1.8 1.43-2.7 2.17a58.85 58.85 0 0 1-4.42-4.79c-1.17-1.53-3.63.2-2.45 1.73a55 55 0 0 0 4.43 4.85l-3.65 2.68a1.37 1.37 0 0 0-.39.41h-.06c-.26.17-.5.36-.73.54s-.48.36-.73.52-.27.14-.4.23a1.3 1.3 0 0 0-.31.26l-.12.1a2 2 0 0 0-.66.36 1.67 1.67 0 0 0-.61 1 1.55 1.55 0 0 0 .26 1.14 1.47 1.47 0 0 0 .94.59zm90.2 18.82c-.77 1.48-1.55 2.9-2.35 4.3-.8-1.8-1.5-3.64-2.18-5.5h.3c1.43.2 3 .64 4.44.77-.06.17-.13.3-.2.43zm1.72-3.44c-2 .4-4.55-.55-6.57-.8l-1.08-.15a24 24 0 0 1-1.83-4.6 28.6 28.6 0 0 0 1.61-4.12c1.2-3.28 1.9-6.74 1.14-9.3a46.26 46.26 0 0 0-.52-5.3c.83-.63 1.65-1.28 2.45-1.95.25.12.5.23.74.36a37.76 37.76 0 0 0 3.64 1.86c1.44.55 3.36 1.83 4.95 1.2 1.3 7.83-1.22 15.8-4.53 22.8zm4-25.78a10.64 10.64 0 0 0-1.68-.53 18.63 18.63 0 0 1-4.41-1.87l-.3-.15c.5-.45 1-.9 1.47-1.37.94-.9 2.16-1.82 3.26-2.83.64 2.26 1.18 4.5 1.65 6.75zm-22-32.8c1.15.64 2.28 1.34 3.37 2.07-1.2.72-2.37 1.45-3.5 2.22a18.55 18.55 0 0 1 .13-4.29zm-.17 7.94a81.11 81.11 0 0 1 6.25-4c6.74 4.7 10.7 11.5 13.26 18.92-1.2 1.52-3.33 2.92-4.55 4.1-.68.66-1.37 1.3-2.07 1.9L524.3 307a30 30 0 0 0-10-14.4 32.59 32.59 0 0 0 .76-4.96zm-14 67.63l-.7-.54.75-.24c-.06.26-.07.5-.12.78zm10.66-64.46l-.6-.35.75-.54a9.55 9.55 0 0 0-.21.89zm-26.13-15.54a49.63 49.63 0 0 1 13.91-.23 1.55 1.55 0 0 0 .58-.05c3.05.47 6.3 1.73 9.2 2.33a19.44 19.44 0 0 1 3.25 1 20.13 20.13 0 0 0-.32 5.56v2.1l-4.16 3a32.24 32.24 0 0 0-2.09-.78 39.58 39.58 0 0 0-20.16-1.61c-.8-1.36-1.7-2.65-2.56-4l2.3-7.3zm-3.6 12.17c.07-.34.13-.68.2-1 .2.27.36.55.54.83zm-2.52-10.67c.92-.3 1.85-.56 2.76-.8l-1.06 3.28a17.82 17.82 0 0 0-1.72-2.48zm-.36 78.6c-1 1-2.13 1.86-3.24 2.73l-1.2-3.9c1.45.45 2.94.84 4.43 1.16zm-25.6-40.94c-.18.62-.33 1.24-.46 1.87l-.77-.85c.4-.34.8-.7 1.2-1.02z" fill="#ddd"/><path d="M224.13 350.9c-2.47-3.7-7.53-6.54-10.35-9.67-2.58-2.86-5.07-5.7-7.77-8.47-1.2-1.22-2.3-2.64-4-3.2a1.54 1.54 0 0 0-2.11 1.09c-.9 2.86-1.54 5.84-2.35 8.74-.66 2.35-.5 6.67-1.82 8.68a1.49 1.49 0 0 0-.19.43 191.06 191.06 0 0 1 28.59 2.39z" fill="#444"/><path d="M428.22 214.15l-6.67-19.1a1.4 1.4 0 0 0-1-.9 1.56 1.56 0 0 0-2.38-1.31c-6.57 4.28-25.47 3.08-25.7 14v1.52l-.77.08c-2 .2-3.95.25-5.93.3l-.4-.4-2.5-2.35c-2.05-2.13-4.05-4.32-6-6.5a13.1 13.1 0 0 1-1.45-2.69 1.67 1.67 0 0 0 .16-.12 1.54 1.54 0 0 0 .31-2c.43-2.76.18-6.3-1.7-8.33v-.2l.25-.1c.7-.22 1.3-.28 1.63-1a3.38 3.38 0 0 0-.39-2.47c-.37-1-.9-2-1.33-2.9a2.31 2.31 0 0 0-1.87-1.43c-.83-.1-1.7 0-2.53 0a6.64 6.64 0 0 0-2.55.19 1.29 1.29 0 0 0-.91.9c-1.86.38-4.57 1.16-4.95 3a6.33 6.33 0 0 0 .75 3.53l.18.44-3.06 1a1.53 1.53 0 0 0-.45 2.57l.18.16a1.29 1.29 0 0 0 2-.15l.38-.13a2.38 2.38 0 0 0-.12.32c-.27 1.17-.72 2.3-1 3.47a1.27 1.27 0 0 0-.48 2.07c2.95 3.3 5.55 6.84 8.7 10a22.31 22.31 0 0 1 1.47 1.69 2.83 2.83 0 0 0-.65.57c-1.15 1.5-.5 2.77.64 4.06s3.53 3.78 5.28 3.9a2.43 2.43 0 0 0 .77-.07 22.88 22.88 0 0 0 2.18 2c-1 1.43-1.93 2.95-3 4.34-1.35 1.75-2.4 3-2.85 5.14a1.43 1.43 0 0 0 2 1.61c.5.6 1.12 1.16 1.7 1.8 4.53 5 8.94 10 12.44 15.74a1.51 1.51 0 0 0 1.74.54 24.54 24.54 0 0 0 3.35-2.21 1.52 1.52 0 0 0 .52-.27 4.37 4.37 0 0 0 .49-.12 12.89 12.89 0 0 0 1.21-.51 8.52 8.52 0 0 1 1-.33 2.62 2.62 0 0 0 1.74-1.33 1.69 1.69 0 0 0 .05-1.15 1.55 1.55 0 0 0-.78-.85 1.64 1.64 0 0 0-1.74.33l-.2-.18a4.75 4.75 0 0 0-.73-.54 11 11 0 0 1-1-.77l-.08-.08a1.37 1.37 0 0 0-.19-1.32 27.47 27.47 0 0 1-2.73-3.53 1.52 1.52 0 0 0-1.75-.53 1.4 1.4 0 0 0-.54-.83c-1.62-1.24-3.28-2.43-4.8-3.82a8.39 8.39 0 0 1-1.77-1.94c-.07-.12-.1-.37-.2-.46a8.36 8.36 0 0 1 .29-1.12 4.43 4.43 0 0 1 .51-.92l.15-.1 6.42-5.8a79.97 79.97 0 0 1 2.38-2.16l1.58.92c.66.38 1.15.68 1.72 1.07 1.77 1.63 3.58 3.18 5.44 4.73 2.17 1.8 4.07 3.9 6.16 5.8l2.82 2.57a31.61 31.61 0 0 0 2.94 2.06 19.2 19.2 0 0 1 3.05 2.58c.7.78 1.5 2 2.53 2.34A1.52 1.52 0 0 0 420 238a5.14 5.14 0 0 0 4.39 1c2.78-.83 8.17-5.55 8.44-8.68.16-1.86-1.17-4.23-1.7-6-1.05-3.32-1.78-6.8-2.9-10.17zM151.47 353.7l3.78-.5 1.3-.16a2.49 2.49 0 0 1-.47-.12 2.32 2.32 0 0 0 .56.11 7.29 7.29 0 0 1 1.19-.05c2-.28 4.64-1.34 6-1.58 3.78-.66 7.6-1.17 11.4-1.66 2.4-.3 4.8-.55 7.2-.74 2.38-3.86 2.72-9.37 3.83-13.47a1.33 1.33 0 0 0 0-.74 5.28 5.28 0 0 0 0-3 1.55 1.55 0 0 0-1.93-.9c-12.47 3.4-24 7.36-37 7.53a1.37 1.37 0 0 0-1.2 2c-8.84 4.6-19.63 7.85-26 15.4 9-1 18-1.37 27.07-1.45l4.25-.66zm49.05-28.64a1.71 1.71 0 0 0 .33.54c3.37 3.6 6.4 7.52 9.5 11.33s6.78 6.78 10.27 10c1.47 1.34 2.9 2.72 4.33 4.1 8 1.27 16 2.94 24.05 4.9l14.76 3.58 14.25 1.06v-.38c0-11.85 4.55-23.1 5.9-34.8.6-5.32 1.35-10.57 2.42-15.83.82-4.1 2.53-8.6 1.85-12.82-.4-2.43-1.2-3.62-3.66-4-1.7-.26-3.95.86-5.52 1.24-2.5.6-5.06 1.1-7.56 1.77-12.6 3.4-24.43 10.2-36.43 15.26a158.64 158.64 0 0 1-19.06 7c-2.6.7-5.27.53-7.88 1.13-1.4.32-5.77 3.37-6.8 3.08-1.8-.53-2.35 2.17-.75 2.85z" fill="#999"/><path d="M346.18 364.47q16.88.43 33.75.3l1.38-9.1 1.72-8.46c1.25-8.43 3.53-16.83 4.6-25.24.63-5 3.05-14.05-1.7-17.77-2.87-2.24-6.8-3.5-5.4-8.37s5.75-2.52 9.35-4.3c6-3 3.16-13.63 3.42-18.64a93.69 93.69 0 0 0-.2-12.76c-.2-2.6.23-5.2-2.05-6.83-5.6-4-15.4.2-21 2.07-9.45 3.17-18.73 6.8-28 10.44L316.33 276c-4.43 1.68-8.8 3.57-13.18 5.37-3.34 1.37-7.7 2.76-10.72 4.74-4.45 2.92-4.6 7.65-5.07 12.42-.4 3.9-.85 7.83-1 11.74-.14 4.67-1.24 9.13-1.74 13.77-1 9.45-2.78 19-4.44 28.4-.48 2.73-.87 5.47-1.2 8.2 22.4 1.67 44.76 3.24 67.2 3.83z" fill="#ddd"/><path d="M129.25 355c1.84-1.1 3.95-1.48 5.7-2.8a42 42 0 0 1 6.49-4.13 17.83 17.83 0 0 0 5.49-4.44l2.86-.58a6.14 6.14 0 0 0 1.94-.72 8.33 8.33 0 0 1 1.51-1.08 1.5 1.5 0 0 0-1-2.82l-4.05 1.2c-.18.06-.43.18-.7.3a1.84 1.84 0 0 0-1.13-.13 29.1 29.1 0 0 0-7.69 3.7 1.57 1.57 0 0 0-.81.2l-6.12 3.8-2.33 1.3a26.41 26.41 0 0 0-4.21 2.27 6.62 6.62 0 0 0-1.3 1.29 22.94 22.94 0 0 0-3 2.71l-.56.67q4.42-.42 8.92-.77z" fill="#bbb"/><path d="M551.43 354.73q5.36-4.64 10.68-9.3a59.31 59.31 0 0 0 2.25-6.41c4-14.2 2.3-28.32-2.28-42.1a82.53 82.53 0 0 0-1.83-5 61.84 61.84 0 0 0-8.45-15c-16.37-21.22-44.84-29.83-70.9-26.7-17.9 2.16-33 12.45-44.72 25.78a111.5 111.5 0 0 0-14.36 20.65 113.71 113.71 0 0 0-6.59 15c-4.48 12.27-.14 27.3 5.23 38.65a74.65 74.65 0 0 0 7.75 12.81c7.3-.87 14.62-1.5 22-1.7 3.7-.1 7.4-.1 11.1-.05a42.81 42.81 0 0 1-6.24-4.53 44.29 44.29 0 0 1-13.85-23.32c-2.7-11.5 1.08-24.6 5.72-35.2.75-1.25 1.52-2.5 2.33-3.7a1.2 1.2 0 0 0 .27-.28c5.57-7.37 12.56-13.7 21.24-17.26 13.9-5.72 28-7.26 42.27-1.64a45.24 45.24 0 0 1 27.86 37c1.54 14.8-3.2 30.66-13.66 41.53-.4.43-.85.84-1.28 1.25l7.44-.46a177.55 177.55 0 0 1 18.01.01zm-411.2-.23l7.1-2.94c6-2.8 12.56-3.9 18.83-5.94 5-1.6 9.85-3.7 14.76-5.47a1.5 1.5 0 0 0-1-2.82c-12.57 4.58-25.5 8-37.8 13.35a98.57 98.57 0 0 0-9.14 4.12q3.6-.2 7.23-.3z" fill="#444"/><path d="M198.5 348.52l2.6-14.48c.8-4.84.17-7.8-5.83-7.68-5.37.1-6.24 2.08-7.33 6.86-1.17 5.15-2 10.37-2.88 15.57q6.75-.42 13.44-.27z" fill="#bbb"/><path d="M289.05 341.36l-.32.6c-2.8 5.54-5.16 12.46-5.5 19l3.24.24a45.44 45.44 0 0 1 5.09-18.65 1.36 1.36 0 0 0 .77-.06c7.86-3 15.58-6.05 23.53-8.72 2-.68 5.85-1.5 7.4-2.87 2.45-2.13-.62-4.22-.53-6.6v-.06a1.59 1.59 0 0 0-1.55-1.88c-4.08 0-9.54-2.06-12-5.63a8.06 8.06 0 0 0 0-.9c-.2-2.82-.8-5.62-1.07-8.43-.55-5.6-1.3-11.1-1.18-16.73 0-1.3-1.33-1.6-2.23-1.07a1.4 1.4 0 0 0-1.07 0l-2.16.82a1.38 1.38 0 0 0-1.3.3c-2.62.68-4.9 2.28-7.46 3.24-1.78.66-3.18.62-4.18 2.2-1.15 1.8-.55 5.24-.88 7.33l-1.64 10.83c-1 6.64-2.38 13.1-2.54 19.83-.07 5.2 1.63 6.2 5.57 7.23z" fill="#f5f5f5"/><path d="M386.5 309.2c-.77-1.76-2.24-2.9-3.6-4.18s-2.52-2.94-4.15-3.86c-2.52-1.44-6.14-.47-8.5.9h-.05a1.36 1.36 0 0 0-1.28 1.18c-.63 3.7-1.78 7.35-2.48 11.08-.3 1.6-.4 3.27-.78 4.84-.27 1.1-.88 1.78-.75 3 .37 3.2 3.77 4 6.44 3.88 3.36-.1 8.73-.33 11.78-1.9 2-1.06 2.35-3.25 2.82-5.37.64-2.84 1.8-6.76.56-9.56z" fill="#fff"/><path d="M302.2 362.3l-.16-1.23c-.34-2.57-3.53-10.54-.84-12.35 1.6-1.08-.13-3.53-1.74-2.45-4.94 3.33-1 11.1-.38 15.82z" fill="#444"/><path d="M362.3 266.05c-1.9-1.1-6.9 1.9-7.78 3.65-1.13 2.23-.7 5.3-.6 7.66.2 4.9 1.6 4.74 4.38 8.75 1.18 1.7 5.16 8.12 7.37 3.85 1.15-2.2-.52-5.75-.84-7.94-.66-4.5-.77-9-1.33-13.56a1.55 1.55 0 0 0-.36-.81 1.65 1.65 0 0 0-.84-1.6zm20.7 52.73c0 .22-.07.44-.1.67a1.43 1.43 0 0 0-1.47.46 14.53 14.53 0 0 0-3 4.92c-1.4-1.6-3.22-2.37-5.1-3.62-1.6-1-3.52 1.24-1.9 2.3 2.45 1.62 4.52 2.25 5.8 5.2a29.5 29.5 0 0 1 2.27 7.67 1.52 1.52 0 0 0 .12.36l-.3 2.07c-.23 1.62 2.16 2.53 2.83.9 1.26-3 1.38-6.4 1.9-9.6.56-3.6 1.5-7.18 1.93-10.8.22-1.9-2.73-2.46-2.94-.54z" fill="#fff"/><path d="M354.53 284.15c-13.28 1.3-26.25 5-38.8 9.45a1.5 1.5 0 0 0 1 2.82c12.3-4.37 25-8 38-9.28 1.95-.14 1.7-3.14-.2-3zm4.57 8.02c-6.6-.66-13.32 1.16-19.74 2.44a215.18 215.18 0 0 0-21.36 5.22c-1.84.57-.8 3.4 1 2.82a207 207 0 0 1 20.57-5c6-1.2 12.56-3.06 18.76-2.5a1.59 1.59 0 0 0 .81 0l.17-.05a1.51 1.51 0 0 0-.21-2.94zm-1.32 8.28c-6.67-.57-13.82 1.16-20.28 2.56a147.64 147.64 0 0 0-19.43 5.21 1.5 1.5 0 0 0 1 2.82 144 144 0 0 1 18.64-5c6-1.3 12.75-3 19-2.62a1.31 1.31 0 0 0 1.52-.12l.15-.12c.93-.75.76-2.62-.6-2.73zm6.27 9.05c-2.42-2.63-5-1.65-8.3-1.38-5.1.43-10.1 1.1-15.17 1.86-5.67.84-20.52 2.18-21.1 9.66-.15 1.9 2.8 2.46 2.95.54.42-5.56 16.22-6.82 20.1-7.46 2.66-.44 5.28-.9 8-1.2 2.08-.25 9.76-1.72 11.1-.27s3.7-.32 2.4-1.74zm-4.72 5.42c-3.84 1-8.38.55-12.36 1.25a76.94 76.94 0 0 0-14.86 3.83 1.5 1.5 0 0 0 1 2.81 78.83 78.83 0 0 1 16.41-4c3.55-.55 7.37-.15 10.8-1 1.9-.53.86-3.35-1-2.9z" fill="#999"/><path d="M469.6 241.44a1.55 1.55 0 0 0-.66-2.1 1.46 1.46 0 0 0-1.17-.43 34.91 34.91 0 0 0-12.62 4.82.31.31 0 0 0-.11.08 33.06 33.06 0 0 0-4.67 2.28c-4.45 1.42-9.35 5.76-12 8.17a99.11 99.11 0 0 0-15.25 17.42 110.56 110.56 0 0 0-10 17.34 72.31 72.31 0 0 0-4.13 13.45 20 20 0 0 0-.89 3.39c-.18 1.1-.33 2.16-.44 3.24l-.37 1.92a1.4 1.4 0 0 0 .16 1 31.43 31.43 0 0 0 .46 6.75c.34 1.8.9 4.4 3.2 4.34 3-.07 3.67-5.33 4.3-7.35 2-6.3 5.16-11.68 8.5-17.36 2-3.35 4.32-6.4 6.5-9.6 1.72-2.55 3.37-5.75 5.8-7.7a1.47 1.47 0 0 0 .56-.95 105.66 105.66 0 0 1 18.91-17c3.76-2.55 8.5-4.68 11.9-7.87a20.29 20.29 0 0 0 3.44-2 3.52 3.52 0 0 0 1.51-4.24 36.63 36.63 0 0 0-1.62-4.19c-.5-1.1-.84-2.25-1.3-3.42z" fill="#bbb"/><path d="M351.84 355.1l-8.24 6.92a21.27 21.27 0 0 1-4.1 2.24l6.08.2 3.38-2.84c3.6-3.1 8.7-6.52 11-10.82a12.3 12.3 0 0 0 .36-9.89c-1.44-3.88-3.76-4.76-7.5-6-1.8-.62-3.1 2.1-1.27 2.7 3.23 1.1 5.57 2.18 6.33 5.87 1.05 5.24-2.42 8.52-6.04 11.62zM349 339.55c-1.6-1.06-3.53 1.24-1.92 2.3a5.07 5.07 0 0 1 1.36 2.92c.1 2.2-1.15 3.55-2.64 4.88s-4.3 4.6-6.1 4.8c-3.22.34-4.86-6.33-3.17-8.4 1.34-1.63 3.75-1.4 5-3s-1.1-3.43-2.3-1.92c-.46.6-1.66.63-2.3.95a11.48 11.48 0 0 0-2.78 2.08 4.49 4.49 0 0 0-1.48 4.14c.23 3.25 2.3 10.3 6.74 9.56 1.84-.32 3.9-2.16 5.24-3.3a52.13 52.13 0 0 0 5.6-5.11c2.24-2.48 1.62-8.05-1.24-9.93zm35.73-78.33c-1.87.37-1.65 3.37.24 3 2.24-.46 1.35 2.5 1.3 3.93v5.92l.3 7.3c-.08 1.93-.44 2.25-1.88 2.64a1.6 1.6 0 0 0-1.75 2.35l.1.18a1.52 1.52 0 0 0 1.73.54c2.28-.6 4.37-.75 4.85-3.37.66-3.67-.34-8.1-.37-11.83.01-3.9 1.83-11.95-4.5-10.67z" fill="#999"/><path d="M211.47 323.7a1.6 1.6 0 0 0 .56.6c5.72 3.57 10.35 9.27 14.94 14.12l7.53 7.8a188.58 188.58 0 0 0 6.7 7.9l8.3 1.9c-3.32-3.84-6.47-7.84-9.9-11.58-2.3-2.53-4.22-5.32-6.4-7.95s-4.8-4.72-6.95-7.32c-1.9-2.3-4.16-5.23-7-6.85a3 3 0 0 0-.4-.51 6.55 6.55 0 0 0-.56-.49 1.31 1.31 0 0 0-1-2c-1.95-.13-3.8.92-5.63 1.62a1.57 1.57 0 0 0-.22 2.75zm66.36 36.85c.7-5.7 1.65-11.4 2.56-17 1.57-9.63 2.46-19.37 3.48-29.07.47-4.5 1.35-9 1.86-13.47a34.86 34.86 0 0 0 .4-4.07 1.45 1.45 0 0 0-.05-1.07 4.92 4.92 0 0 0-1-2.61 1.49 1.49 0 0 0-1.34-.63l-.73.16a1.6 1.6 0 0 0-1.36 1.22c-1.24 4.07-1.13 8.58-1.5 12.78s-.84 8.62-1 12.94q-.14 2.9-.38 5.8a36.84 36.84 0 0 0-1.11 4.78c-.67 4.4-1 8.88-1.64 13.3-.82 5.5-1.35 11.08-1.9 16.65z" fill="#bbb"/><path d="M195.3 348.5h3q.63-2.64 1.22-5.3c.94-4.3 2.76-9.47 1.07-13.73-.7-1.8-3.53-.77-2.82 1 1.5 3.78-.6 9.3-1.48 13.1-.3 1.68-.64 3.3-1 4.92z" fill="#fff"/><path d="M424 232.56c-1.8-2.15-2.63-5.76-3.73-8.3l-2.84-6.44c-1-2.48-1.54-5.07-2.6-7.52-1.16-2.7-2.9-5.43-3.75-8.2-.58-1.84-3.4-.8-2.82 1a69.54 69.54 0 0 0 3.47 7.74c1.15 2.55 1.7 5.2 2.78 7.8 2 4.78 3.72 11.66 7 15.62 1.28 1.5 3.74-.27 2.5-1.7z" fill="#bbb"/><path d="M358.44 186.67a4.9 4.9 0 0 0-5.83.08c-4.9 3.38-11.5 3.5-16.63 6.58-2.64 1.58-2.48 4.28-.93 6.65a3.56 3.56 0 0 0 1.27 1.63 3.83 3.83 0 0 0 1.21.61 2.9 2.9 0 0 0 1.32.25 2.63 2.63 0 0 0 .61-.12c.1 0 .2 0 .3-.07a1.43 1.43 0 0 0 .42 0c3.6-.13 7.44-1.43 10.88-2.5a59.2 59.2 0 0 0 7.76-2.48 1.49 1.49 0 0 0 1.86-.29c2.7-3.12 1.8-9.35-2.24-10.33zm-2 5.36a7.77 7.77 0 0 1 .75 1.31c-.5.12-1 .28-1.52.4l-3.83 1.05c-2.92.83-5.8 1.87-8.74 2.7a3 3 0 0 0-.77-1.86l-.06-.06c3.73-1.6 11.52-2.97 14.18-3.6z" fill="#444"/><path d="M359 297.38a6.13 6.13 0 0 1-.1 1.95c0 .73.16 1 .1 1.5a7.38 7.38 0 0 0 .57 3.82 1.46 1.46 0 0 0 .16.39 0 0 0 0 0 0 0 1.13 1.13 0 0 0 .22.27 1.48 1.48 0 0 0 1.08.4c3.15-.1 6.3-2 9.4-2.6l7.33-1.2a13.23 13.23 0 0 0 1.34 1.65c.9.86 2.05 1.4 3 2.24l3.64 3.22c-.65 9.07-2.27 18.25-3.48 27.3-.7 5.32-1.55 10.73-2.76 15.95l-2.08 8.53c-.3 1.2-.5 2.57-.74 3.9l13-.12 1.24-6.3c2.65-12.95 4.73-26 6.44-39.12.6-4.6 2.77-11.2.45-15.67-1-2-3.1-3-4.84-4.24-2.06-1.5-3.75-3.5-5.88-4.9-4.18-2.8-6.9-5.2-12.13-4.13s-10.4 3-15.6 4.54a1.42 1.42 0 0 0-.41 2.51.06.06 0 0 1 .04.11z" fill="#ddd"/><path d="M376.15 332.55a11.75 11.75 0 0 0-1.74-2.17 3.54 3.54 0 0 0-2.61-.89 8.29 8.29 0 0 0-2.2 1 1.55 1.55 0 0 0-.41 2.59 7.29 7.29 0 0 0 2.61 2.84l.75.9a2.48 2.48 0 0 0 2.72 1.05 1.22 1.22 0 0 0 .89-1.72.87.87 0 0 0 .09-.11 2 2 0 0 0 .79-1.34 2.81 2.81 0 0 0-.89-2.14z" fill="#999"/><path d="M201.6 339.9l-.15-.1a1.52 1.52 0 0 0-1.18-.24c-4.8 0-9-5.8-10.36-9.7a1.5 1.5 0 0 0-2.82 1c1.93 5.43 7.26 11.92 13.68 11.66a1.51 1.51 0 0 0 .83-2.62zm-12.24 5.6l3.7 3q3.55 0 7.08.08a1.45 1.45 0 0 0-2-1.33c-1.9.7-5.1-2.74-6.48-3.8-.7-.54-4.35-3.67-4-4.9.5-1.87-2.44-2.4-2.95-.54-.7 2.62 2.87 6 4.66 7.5zm-1.96 3.17l-.3-.47c-.3-.53-.55-2.05-1.2-1.5 1.46-1.23-.26-3.7-1.74-2.44s-1 2.87-.2 4.6l3.43-.2z" fill="#444"/><path d="M471.62 251.25l-.53.28a1.4 1.4 0 0 0-1 0 28.85 28.85 0 0 0-6.53 2.74c-1.9 1.24-3.95 2.24-5.93 3.32a21.8 21.8 0 0 1-3.14 1.24 29.69 29.69 0 0 0-3.38 1.58 6.81 6.81 0 0 1-3.1 1.12h-.7l-2.3-2.2c-1.3-1.2-2.3-2.94-3.95-3.7s-3.08.24-4.2 1.34l-4.08 4.43a75.36 75.36 0 0 0-7.34 9.22 1.63 1.63 0 0 0-1.45 1.65 1.28 1.28 0 0 0 .28 1.91 1.75 1.75 0 0 0 .25.4 23.27 23.27 0 0 1 1.72 2.11 7.48 7.48 0 0 1 1.53 2.64 5.66 5.66 0 0 1-.17 2.42l-.67 3.1c-1.17 3.88-3.42 7.36-5.45 10.85-2.15 3.7-4.24 7.44-6.1 11.3-.94 1.95-1.83 3.93-2.72 5.9a28.71 28.71 0 0 0-2.05 5.28c-.28 1.3-.45 3.3 1.16 3.82s2.36-1.1 2.73-2.25.47-2.45.9-3.63c.63-1.8 1.6-3.47 2.34-5.23a42.49 42.49 0 0 1 2.52-5.33c1.12-1.87 2.1-3.82 3.18-5.7 2.12-3.73 4.3-7.38 6.54-11 .64-1 1.3-2.07 2-3.05a1.38 1.38 0 0 0 .55-.67s0-.1.05-.13a18.94 18.94 0 0 1 1.44-1.67c1.33-1.36 2.17-2.84 1.12-4.64a14.27 14.27 0 0 0-3.68-3.71c-.9-.7-1.92-1.3-2.8-2.05l-.77-.7a67.2 67.2 0 0 1 6.3-8c1.33-1.47 2.57-3 4-4.37.33-.32 1.12-1.48 1.65-1.53.2 0 1.18 1 1.43 1.33.55.6 1.1 1.15 1.68 1.7a1.31 1.31 0 0 0 .39 1.74 7.3 7.3 0 0 0 2.82 1.23 8.52 8.52 0 0 0 2 1.22 3.15 3.15 0 0 0 .51 1.1c1.05 1.4 2.8.8 4 0s2.38-1.76 3.6-2.6l3.94-2.8a1.52 1.52 0 0 0 .55-.78 22.37 22.37 0 0 1 2.59-1.72l3.28-1.68c1.1-.57 2.25-1.1 3.38-1.65.9-.43 1.76-.93 2.64-1.35 1.74-.88.73-3.7-1-2.87z" fill="#999"/><path d="M403.4 251.65c-1.16-1.47-2.5-2.37-4.56-1.7l-.13.06c-3.16.58-4.9 2.67-3.17 6s3 9.2 6.4 11.12c2.83 1.6 6.48.78 7.5-2.47a.09.09 0 0 1 0-.05 1.18 1.18 0 0 0 .29-1.08c0-.14-.07-.26-.1-.4v-.1c0-.1-.06-.2-.08-.3a7 7 0 0 0-.39-1.41 24.38 24.38 0 0 0-5.75-9.69z" fill="#fff"/><path d="M399.57 268c-.8.13-3-5.5-3.2-6.06-.94-2.2-2.44-4.86-2.57-7.26a1.34 1.34 0 0 0-1.21-1.31 1.56 1.56 0 0 0-2.3.49c-1.7 3.1 1.18 7.92 2.46 10.77 1.16 2.6 2.9 6 5.88 6.37a3.88 3.88 0 0 0 1.18 0c1.9-.25 1.68-3.2-.24-3z" fill="#444"/><path d="M296.82 292.4l15.22-5.4q15.18-5.5 30.22-11.34c2.23-.87 5.56-1 7.54.6 2.38 2 2.24 6 3.58 8.6 1.8 3.53 3.66 7 5.13 10.72a40.27 40.27 0 0 1 2.32 8.27l-.6.17c-1.8.54-.86 3.24.92 2.84a21 21 0 0 1-2.42 11.76c-6.74-1.1-13.7.13-20.12 2.27-1.73.57-17.84 6.84-13.13 9.44 1.37.75 3.62-2 5.18-2.3a39.47 39.47 0 0 1 6.61-.53 92.35 92.35 0 0 1 10.52.2c5.3.46 10.38 1.64 14.6 5.2 4.84 4.1 7.4 10.27 5.07 16.44a43 43 0 0 1-2.08 4.77c-2.06 3.94-5.6 6.48-8.86 9.38l-1.32 1.17q11.8.2 23.6.13c1.6-4.16 1.67-9.44 2.62-13.43 2.1-8.86 3.92-17.74 5.32-26.77 1.08-6.94 3.45-14.52-2.43-19.78a14.88 14.88 0 0 0-5.92-3.54c-2.9-.73-5 .62-7.63 1.62a11.21 11.21 0 0 1-1.36.42 1.41 1.41 0 0 1-1.07.54 4.08 4.08 0 0 1-.65-.09 1.63 1.63 0 0 1-1.37 1 4.12 4.12 0 0 1-1.33-.23c-4.58-1.68-4.38-10.94 1-11.08a2 2 0 0 1 .35 0 1.59 1.59 0 0 1 1.79.14 1.86 1.86 0 0 1 .33 0 3.54 3.54 0 0 0-.68-.92c-1.1-1-2.7-1.2-4.13-1.72-5.66-2-13.38-12.6-10.6-18.82 1.5-3.32 5.48-4.73 8.64-5.88a245.35 245.35 0 0 0 24.82-10.59 5 5 0 0 0 2.39-1.87c.48-.9.17-2.3-.83-2.53a2.08 2.08 0 0 0-1.49.35l-.4.25-6.5 4.25c.68-.5.24-1.7-.55-2a3.46 3.46 0 0 0-2.42.37l-84.58 35.24c-.8.33-1.7.78-1.92 1.64-.8 3.55 5.35 1.5 6.63 1.03zm67.8 28.3A158.43 158.43 0 0 0 368 305c6.9-1.58 14.9-2 17 6.06.72 2.77-.27 5.9-.6 8.66a148.24 148.24 0 0 1-1.71 10.85c-1 5.18-1.7 10.36-3 15.45a2.42 2.42 0 0 0-2-.42 1.57 1.57 0 0 0-1.68.4 1.53 1.53 0 0 0-1.35.49 1.65 1.65 0 0 0-.54-.24 16 16 0 0 0-.38-3.27c-.56-2.36-2.63-4.34-3.85-6.36-1.72-2.84-3.84-4.4-6.15-6.64s.16-6.53.9-9.3z" fill="#999"/><path d="M496.48 307.65c-4-3.46-8.37-6.55-12.4-10-11.54-9.77-22.56-20.28-33.74-30.44q-14.16-12.84-28.33-25.7l-15.48-14.5c-2.57-2.37-5-5-7.6-7.3-1.83-1.6-4.64-2.42-6.32-4.1a1.29 1.29 0 0 0-1.19-1.2c-4.45-.58-7.47 4.45-9.32 7.7-.84 1.47-1.85 3.77-1 5.44.48.9 1.56 1.3 2.25 2 .35.37.68.7 1 1a1.48 1.48 0 0 0 .46.89c9.2 8.8 19.2 16.74 28.2 25.78 8.7 8.8 18 17 27.18 25.32l27.73 25.36 10.6 9.64c3 2.66 7 7.2 11 8.1a1.27 1.27 0 0 0 1.21-.29 1.34 1.34 0 0 0 .88-.31 39.92 39.92 0 0 0 6.15-5.76 26.51 26.51 0 0 0 2.29-2.8 1.54 1.54 0 0 0 1-1c1.15-4.03-2-5.6-4.57-7.83z" fill="#bbb"/><path d="M184.38 348.83c.73-2.52 1.05-5.13 1.72-7.65.45-1.7.52-3.52 1-5.22a8.21 8.21 0 0 0 .71-3.28c-.24-1.9-3.23-1.67-3 .24.1.77-.7 2.25-.88 3l-.83 4.8c-.7 2.7-.94 5.7-1.93 8.33l3.2-.22z" fill="#444"/><path d="M497.9 335.05c-6.2 2.5-11.18 2.75-17.32-.16a14.19 14.19 0 0 1-7.7-11.16c-.25-1.9-3.24-1.67-3 .24.7 5.27 3.57 10.67 8.44 13.22 7 3.67 13.37 3.6 20.6.68 1.8-.73.78-3.55-1.02-2.82z" fill="#bbb"/><path d="M366.9 165.56a9.76 9.76 0 0 0-4.12-2.69c-1.84-.62-4.6-.27-6.54-1l-1.1-3c-.6-1.92-.36-4.25-2.6-5.08-1.33-.5-3.8-.48-4.82.65-1.18 1.3-.3 3.06.28 4.43a1.44 1.44 0 0 0 .32.49l.53 1.64a18.1 18.1 0 0 0 2.05 6.92c.37 1.65.85 3.33 1.88 4.26a3.34 3.34 0 0 0 4.1-.08c1.66-1.15 1.5-2.93 1.17-4.72l-.25-1.1c2.64.3 5.9.22 7.18 2.4.74 1.24.92 2.8 1.58 4.1a14.63 14.63 0 0 1 1 2.68 9.11 9.11 0 0 0 .37 1.43 1.15 1.15 0 0 0 .1.23v.15a1.33 1.33 0 0 0 .56.79 1.24 1.24 0 0 1 .19.67c-.12 1.9 2.83 2.46 2.95.53.15-2.44-1.23-5.1-1.9-7.48a16.31 16.31 0 0 0-2.93-6.21z" fill="#444"/><path d="M165.8 307.23c-4.4 2.82-7.07 6.8-10.13 10.86a50.51 50.51 0 0 0-6.9 13.67c-.6 1.8 2.1 3.1 2.72 1.27a54.71 54.71 0 0 1 6.05-12.27c2.72-4.1 5.8-8.4 10-11.08 1.62-1.04-.12-3.5-1.74-2.45z" fill="#fff"/><path d="M378.54 216.17a.23.23 0 0 0-.05-.07l-.3-.35-.6-.66c1.2-1 .16-3.43-1.4-2.6l-.12.06-.23.14a9.36 9.36 0 0 0-1.36 1.31l-.13.14a2 2 0 0 1-.23-.18l-2.86-2.87c-.63-.7-1.83-1.68-1.37-2.68s1.5-1.7 1.3-2.92-1.4-2.05-2.22-2.8a35.43 35.43 0 0 1-2.36-2.67l-2.47-2.57-1.47-1.28a5.43 5.43 0 0 1-.58-.69 3.15 3.15 0 0 1-.22-.29l-.05-.06c.17-1.66-2.52-2.06-3-.3-.35 1.32.88 2.66 1.77 3.5l1.76 1.54c.57.54.93 1.13 1.48 1.64 1.07 1 1.88 2.22 2.93 3.22l1.2 1.17-.17.23a8.08 8.08 0 0 0-.73 1.19c-1.38 2.94 1.7 5.7 3.7 7.44 1 .92 1.9 2.45 3.4 2.7a1.83 1.83 0 0 0 1.33-.27l.06.08.3.34v.06l-1 1.33a10 10 0 0 0-.95 1.73l-.93 1.74-.47.86-.23.4c.12-.2-.13.2-.14.2-.7.94-1.62 1.68-1.3 3a1.51 1.51 0 0 0 1.93.9 1.45 1.45 0 0 0 .85-.9 1.49 1.49 0 0 0 .12-.2l.38-.47a9.64 9.64 0 0 0 1.11-1.64l1-1.9.84-1.67.1-.14.35-.43.6-.8a3.68 3.68 0 0 0 1-1.9 1.86 1.86 0 0 0-.62-1.53zM500.56 307a53.84 53.84 0 0 0-6-5l-6.32-4.73-5.83-4.87-5.7-5.24-5.75-5c-.85-.7-1.82-1.2-2.67-1.9l-2.67-2.35-5.67-5a56.79 56.79 0 0 0-5.55-5l-2.78-2.22-3.12-2.44c-3.63-3.32-7.52-6.3-11.07-9.7-1.77-1.7-3.72-3.2-5.43-4.94s-3.26-3.46-5.05-5c-1.4-1.24-2.73-2.55-4.1-3.8 4.64-1.33 10.48-4.85 12.8-8.64 3.17-5.18 2.42-13 .32-18.34a48.54 48.54 0 0 0-11.3-16.44l-.68-.63a1.87 1.87 0 0 0 .07-.49c0-2.52 1.68-3.4.44-5.9-1.85-3.75-5.44-5.64-8.9-7.6s-.63-1.53-2.07-4.22c-.9-1.68-4.66-2.63-6.22-3.5-2.62-1.44-6.52-4.24-9.63-4.14-2.83.08-5.3 3-7 5-4.86 5.35-9.1 13.23-10.24 20.4a1.4 1.4 0 0 0 .84 1.56 3.16 3.16 0 0 0 1.78 2.27c1.63.92 3.5 1.32 5.16 2.12a46.44 46.44 0 0 0 4.53 1.67l.54.22c-.13.16-.24.3-.38.46a8.23 8.23 0 0 0-1.38 2.12 5.55 5.55 0 0 0-.25.72c-.52-.1-1.14-.1-1.43-.17a12.62 12.62 0 0 0-2.73-.36c-.4 0-.84.16-1.25.15-.1-.13-.18-.26-.28-.38l-1.8-2.3c-1.28-1.5-2.42-3.1-3.56-4.7a13.47 13.47 0 0 0-1.73-1.89 12.34 12.34 0 0 0-1.21-1.07l-.33-.2c.16-.86.56-1.7.7-2.6a12.58 12.58 0 0 0 0-2.81 8.4 8.4 0 0 0-1.37-3.82 2.67 2.67 0 0 0 .32-.24 2.47 2.47 0 0 0 1-2 6.74 6.74 0 0 0-.61-1.89c-.84-2.33-2.63-6.3-5.75-5.53a20.69 20.69 0 0 1-2.06.52 13 13 0 0 0-2.4.5c-1.5.5-2.92 1.33-4.37 2s-2.6 2.1-1.7 3.7a1.56 1.56 0 0 1 .35 1.28 2 2 0 0 0 0 .24l-.5.27c-.5.25-1 .4-1.5.7a1.46 1.46 0 0 0-.62 1.35v.14a1.54 1.54 0 0 0 1.61 1.37 1.64 1.64 0 0 0 1-.53c.14 0 .3-.1.42-.15s.5-.3.76-.42c.52-.25 1.05-.36 1.55-.65a1.51 1.51 0 0 0 .36-2.1c-.25-.27-.2-.55-.23-.9a4.29 4.29 0 0 0-.36-1.45 10.47 10.47 0 0 0 1-.56 22.79 22.79 0 0 1 3.11-1.38c1-.35 2.1-.36 3.15-.62a10 10 0 0 1 1-.36c.1 0 .3.3.43.45a9.46 9.46 0 0 1 1.46 2.41l.56 1.56c-.16.12-.34.23-.52.34a1.75 1.75 0 0 0-1.17.59c-.42.2-.85.36-1.25.5a1.5 1.5 0 0 0 1 2.82 21.23 21.23 0 0 0 1.08-.41 7.07 7.07 0 0 1 1.07 4.61c-.2 1.8-1.66 3.88.15 5.3a21.55 21.55 0 0 1 2.31 2 23.48 23.48 0 0 1 1.68 2.28c1.3 1.75 2.68 3.45 4 5.16a5 5 0 0 0 1.76 1.75c.9.38 1.8 0 2.73 0a12.51 12.51 0 0 1 3 .47c.8.2 1.45.7 2.34.35A2.45 2.45 0 0 0 394 208a5.11 5.11 0 0 1 1-2.19l1.34-1.63c1.5-.06 2.86-1.4 4-2.14 2.5-1.6 5.47-2.22 8.3-3 1.2-.33 2.4-.8 3.58-1.22 0 .1.08.2.1.28l.4-.17c3.07 6.12 4.6 12.8 7.22 19.13 2.45 5.88 5.4 11.5 7 17.68a23.93 23.93 0 0 1-4.82 2.23 1.71 1.71 0 0 0-1.94.43H420c-.45-.45-.9-.9-1.37-1.33-.94-.87-2-1.64-2.9-2.53s-1.95-2.07-2.94-3.1-2.13-1.87-3.2-2.84c-2-1.8-3.86-3.74-5.82-5.55l-3-2.6c-1-.9-2-2.1-3.1-3.1a18.52 18.52 0 0 0-2.57-2.44 8.11 8.11 0 0 0-1.55-.87 15.41 15.41 0 0 1-1.55-.45 1.33 1.33 0 0 0-1.09-.09 2.63 2.63 0 0 0-.57-.05 2.67 2.67 0 0 0-1.37.53c-.78.52-1.6 1-2.33 1.58a23.94 23.94 0 0 0-4.24 4c-1.64 2.12-4.3 6.16-2.66 8.78a1.54 1.54 0 0 0 .39.56c9.1 8.57 18.56 16.75 27.36 25.56 7.74 7.75 14.77 16.14 23.38 22.92 5.13 4 9.62 9 14.33 13.52l16.67 15.66c5.12 4.73 10.48 9.24 15.73 13.82 3.87 3.38 11.14 11.94 16 5.92.68-.84 1.53-1.5 2.28-2.28s1.4-1.65 2.17-2.42a19 19 0 0 0 3.71-5.14 7.79 7.79 0 0 0-1.24-8.47zm-70.95-83.63c.74 2.5 1.67 5 2.58 7.43a18.43 18.43 0 0 1-2.58 2.23c-1.68-5.9-4.5-11.34-6.86-17-2.62-6.3-4.16-13-7.2-19.1a8 8 0 0 1 3.44-.3c3.74 5 4.1 12.2 6.6 17.83 1.33 3.07 3.1 5.8 4.04 8.95zm2.6-11.37c2.1 4 3.55 10.47 2 15.33l-1.9-5.8c-1-3.35-3.3-6.12-4.52-9.4-1.4-3.73-2.1-7.94-3.5-11.8a55.69 55.69 0 0 1 7.93 11.68zm67.65 100.58a9.7 9.7 0 0 1-1 2.07 9.48 9.48 0 0 1-1.17 1.83c-.5.62-1 1.26-1.56 1.83-1.08 1.13-2 2.37-3.2 3.43a16 16 0 0 0-1.76 1.83c-1.92 2.4-6.43-2.3-7.84-3.43-2.6-2.05-5-4.37-7.52-6.5-5.5-4.6-10.84-9.42-16.1-14.32-9.5-8.85-18.46-18.5-28.5-26.7-8.42-6.88-14.95-15.48-22.77-22.93-8.23-7.86-17-15.35-25.33-23.17a1.21 1.21 0 0 0-.38-.46c-.45-.3-.48-.24-.43-.7a5 5 0 0 1 .49-1.68 17.78 17.78 0 0 1 2.29-3.63 21.43 21.43 0 0 1 3.05-2.82A17 17 0 0 1 390 216c.06 0 .58-.35.77-.5a2.67 2.67 0 0 0 .48.08 1.93 1.93 0 0 0 .24 0 7.59 7.59 0 0 1 1.83.67 16 16 0 0 1 2.23 2.13c1.78 1.66 3.43 3.44 5.25 5s3.44 3.1 5.15 4.67c.8.73 1.47 1.57 2.3 2.25a31.38 31.38 0 0 1 2.83 2.57c1.85 1.93 3.78 3.74 5.74 5.53a1.45 1.45 0 0 0 0 .92 1.52 1.52 0 0 0 1.93.9h.05l2.7 2.47c1.83 1.7 3.8 3.3 5.5 5.14 1.47 1.6 3 3.07 4.6 4.57 1.74 1.68 3.57 3.24 5.3 4.92s3.8 3.1 5.66 4.7a67.53 67.53 0 0 0 5.16 4.56c2 1.4 3.9 3 5.78 4.57s3.36 3.18 5.1 4.7l5.6 4.86c.76.66 1.48 1.4 2.27 2s1.95 1.28 2.84 2.05l5.6 4.88c2.1 1.77 4 3.77 6.05 5.54a187.94 187.94 0 0 0 6.41 5.3c2.17 1.7 4.62 3.37 6.87 5.14l3.2 2.58c.9.8 2.62 3.02 2.36 4.42zM123.48 353.2c7.57-4.73 15.6-8.7 23.62-12.7a5.22 5.22 0 0 0 .62.73c2.72 2.63 7.38 1.08 10.55.3 9.68-2.36 19.1-5.9 28.46-9.4l-.18.67c-.5 2.3-1.2 4.46-1.9 6.7-.8 2.5-1 5.2-1.8 7.7a11.29 11.29 0 0 1-.74 1.8l3.77-.26c.55-2.34.66-5 1.32-7.12a76 76 0 0 0 2.31-8.28c.13-.64.42-1.54.7-2.5l5-1.85 3-1.08 7.6 7.65c2.5 2.58 5.88 4.75 8.66 7.27s5.3 5.1 7.84 7.78q2.46.36 4.92.78c-8.26-8.6-17.18-16.46-25.83-24.65l5.66-2.05c4.88 4.25 10.58 7.68 15 12.5s9.07 9.16 13.4 13.94l2.1 2.2 6.14 1.34-9.86-9.85c-4.38-4.14-8.38-8.66-12.7-12.87-3.24-3.16-7.18-5.66-10.78-8.48l24.83-9.3c5.8-2.27 12-4.44 17.6-7.25 5.25-2.65 10.76-4.64 16.14-7a80.33 80.33 0 0 1-1.06 14.36c-1 5.45-.83 11-1.44 16.46-1 9.5-2.88 19-3.47 28.52l.77.18 2.36.18c-.15-9.93 2.43-20 3.4-29.8 1-10.35 2.5-20.65 2.44-31.06a1 1 0 0 0 0-.17l1-.45a1.43 1.43 0 0 0 .41-.29c3.07-1.37 6.14-2.73 9.27-3.95 1.8-.7.77-3.52-1-2.82l-.64.26a1.46 1.46 0 0 0 .12-1.85c-1.55-2.08-3.27-4.65-5.7-5.75h-.12l1.26-.6c1.7-.86.7-3.7-1-2.82q-4.37 2.2-8.8 4.3a10.86 10.86 0 0 1-1.44.2 1.32 1.32 0 0 0-1.27 1.05 175.86 175.86 0 0 1-25.35 9.6 182.44 182.44 0 0 0-19 6.66c-2.24.92-4.63 1.88-6.95 3-10.22 1.66-20.86 1.74-30.83-.95-3.84-1-7.66-1.93-11.48-.45a27.82 27.82 0 0 0-10.46 7.33A61.44 61.44 0 0 0 148 331.49c-.9 2-1.87 4.24-1.73 6.35-3.23 1.74-6.47 3.5-9.75 5-5.5 2.6-11.28 5-16.12 8.75a11.11 11.11 0 0 0-2.66 3.08 1.45 1.45 0 0 0-1.25.14c-1.66 1-3.75 1.3-5.43 2.2 3.26-.5 6.53-.9 9.8-1.25a10.31 10.31 0 0 1 2.65-2.55zM362.24 307a7.5 7.5 0 0 0 4.25-.22 26.12 26.12 0 0 1 5.5-.69c1.5-.07 3-.5 4.5-.52a4.58 4.58 0 0 1 3.71 1.68c.88.9 2.23 1.62 2.42 3a11.43 11.43 0 0 0 .31 2.39 11.56 11.56 0 0 1 .68 2.31 15.06 15.06 0 0 1-.53 4.95l-1 5.3-.83 4.62-.4 5.07-1.4 10.35c-.32 3.15-1.33 6.24-1.9 9.35s-1.24 6.4-2 9.62q-.07.33-.15.63h3.08l2-9.72s1.6-6.33 1.93-9.56c.34-3.53.95-7 1.43-10.55.2-1.54.2-3.1.33-4.66.17-1.8.65-3.54.95-5.3.57-3.37 1.75-6.88 1.4-10.32a9.88 9.88 0 0 0-.57-2.34 6.52 6.52 0 0 1-.41-1.17c-.1-.52 0-1.06-.06-1.6a6.77 6.77 0 0 0-2.64-3.87c-1.17-1-2.12-2.28-3.68-2.75a12.21 12.21 0 0 0-5-.2c-1.9.22-3.8.37-5.67.64a24 24 0 0 0-2.67.45 5.13 5.13 0 0 1-2.79.29c-1.78-.44-2.4-1.6-2.4-3.42a10.78 10.78 0 0 1 .21-2.34 2.57 2.57 0 0 1 .31-.72c.07-.1.64-.8.5-.76a1.33 1.33 0 0 0 .94-1.07 37.22 37.22 0 0 1 3.8-.65l5.44-.77 5-.55a10.4 10.4 0 0 1 2.16 0c.32 0 .6.1.93.1h.4s.06.06.38.15a30.71 30.71 0 0 1 3.85 1.61 17.64 17.64 0 0 1 4.11 2.25c1.26 1 2.68 1.85 3.88 2.94a15.21 15.21 0 0 1 2.85 3.85 7.09 7.09 0 0 1 .9 4.13c0 .65-.06 1.28 0 1.93a12.14 12.14 0 0 1-.44 2.74c-.28 1.54-.32 3.1-.47 4.66-.17 1.76-.48 3.5-.6 5.27l-.4 4.92c-.2 1.8-.67 3.55-1 5.33-.55 3.25-1.55 6.4-2.05 9.64-.24 1.63-.52 3.25-.83 4.87s-.78 3.4-1.12 5.1c-.28 1.45-.34 2.94-.54 4.4-.25 1.9-.57 3.78-.9 5.66-.08.43-.15.86-.22 1.3l3-.05c.44-2.7 1-5.4 1.3-8.13.36-3.5 1.4-6.9 2-10.38 1.1-6.95 3.27-13.72 3.7-20.77.1-1.84.36-3.64.57-5.48s.25-3.6.52-5.4c.12-.83.42-1.62.52-2.45s0-1.5 0-2.27a13 13 0 0 0-.3-4.53 16.73 16.73 0 0 0-2.74-4.8 20.78 20.78 0 0 0-4.54-4 25.83 25.83 0 0 0-4.37-2.85 29.17 29.17 0 0 0-4.71-2.12 8.4 8.4 0 0 0-2.28-.67c-.13 0-1.08 0-.45.1-.47-.05-.9-.14-1.4-.15a50.71 50.71 0 0 0-5.9.53c-2 .2-3.94.53-5.9.8a33 33 0 0 0-6.23 1.23 1.35 1.35 0 0 0-.94 1.57 7.13 7.13 0 0 0-1.11 1.65 10.36 10.36 0 0 0-.67 4.38 6.6 6.6 0 0 0 1.22 4 5.86 5.86 0 0 0 3.25 2.01zm-78.92 15.42c-1.84 8-2.63 16.4-3.93 24.5-.72 4.46-1.2 9.06-1.54 13.64l3.45.26.94-10.85c1.25-17.13 6.4-33.66 7-50.86.2-1.7.33-3.35.66-5a9.73 9.73 0 0 0 0-4.16c-.44-1.88-3.25-.84-2.82 1a8.25 8.25 0 0 1-.46 3.61 15.35 15.35 0 0 0-.28 2.75 2.54 2.54 0 0 0 0 .29v.72c0 .24 0 .56-.07.83a1.76 1.76 0 0 0 0 .52 120.73 120.73 0 0 1-2.95 22.76z" fill="#444"/><path d="M407.64 183c-.46.83-1.8 1.4-2.44 2.15-1.08 1.3-2.1 2.8-3.05 4.2-1.6 2.34-3.27 4.6-3.87 7.42-.4 1.9 2.56 2.42 3 .54.6-2.8 2.9-5.7 4.62-7.94a23 23 0 0 1 2.31-2.94 8.53 8.53 0 0 0 2.19-2.17c.9-1.7-1.83-2.96-2.76-1.26z" fill="#fff"/><path d="M385.8 239.7a37.87 37.87 0 0 0-22.27-16.13 53.55 53.55 0 0 0-9.78-1.7c-5.24-.3-11.43 2.27-16.3 4-5.55 2-11.14 3.56-16.58 5.94-6.22 2.7-12.27 5.82-18.37 8.78-11.64 5.64-24.12 11.87-32.24 22.3-3 3.92-4.54 9.08-5.8 13.82-1.63 6.13-7.34 19.86 1.46 23.26 3.7 1.43 8.3-1.06 11.55-2.54l33.43-15.46c11.52-5.46 23.42-9.72 35.1-14.8 10.94-4.75 23-7.3 34.27-11 3.8-1.25 5.73-2.2 7.08-6.08s.67-7-1.54-10.4z" fill="#fb0"/><path d="M446.7 344.53c-8.07 0-16.67-.82-24.67.27-6.94.94-14 2.7-20.87 4-7.08 1.35-15.18.15-22.3-1.14a38.9 38.9 0 0 0-19.8 1.52c-1.83.6-1.05 3.48.8 2.9a39.36 39.36 0 0 1 11.41-2.24c3.73-.07 7.08 1 10.73 1.43 5.82.68 12.36 2 18.13.8 7.27-1.52 14.77-3.2 22.12-4.25 7.9-1.13 16.48-.28 24.45-.3a1.5 1.5 0 0 0 0-3zm-13 90.3c-9.25.17-17.83 3.7-27 4-4.84.13-9.44-1-14.25-1.4-5.12-.42-10.27-.28-15.4-.26a1.5 1.5 0 0 0 0 3c5.13 0 10.3-.17 15.4.26 4.87.4 9.35 1.54 14.25 1.4 9.18-.26 17.7-3.8 27-4 1.93-.04 1.94-3.04 0-3zm65.05-64.3c-3.8 0-7.64-.3-11.38.44l-11.54 2.35c-8.36 1.44-16.74 2.65-24.93 4.92a1.5 1.5 0 0 0 .8 2.89 225.75 225.75 0 0 1 23.07-4.61c8.15-1.37 15.67-3 24-3a1.5 1.5 0 0 0-.02-2.99zm-350.5 68.12a43.12 43.12 0 0 0-10.24 2 15.43 15.43 0 0 1-8.16.45c-3.24-.5-7.62-1.2-9.07 2.5-.7 1.8 2.2 2.58 2.9.8.9-2.27 8.13.32 10 .37 4.77.13 9.65-2.8 14.55-3.1 1.94-.16 1.96-3.16.03-3.04z" fill="#f5f5f5"/><g fill="#fff"><path d="M541 435.56c-3 1.12-5.74 2.42-8.52 3.7l-1 .2-6.82 1.5c-10.77 2.36-21.68 4-32.55 5.85-11 1.9-22.47.74-33.35 3.42a44.11 44.11 0 0 0-6 2c-4.78 1.1-9.46 2.58-14.4 4.24-5.18.86-11.07 1.54-15.77.73-1.9-.33-2.7 2.56-.8 2.9 5.12.9 11.07.06 16.33-.67a1.42 1.42 0 0 0 .91 0l.54-.2c6-.82 10.94-2.88 16.46-5 3.87-.6 7.7-.68 11.6-1.16 8.63-1.07 17.17-.63 25.8-1.25 8.47-.62 16.38-3 24.68-4.44a58.45 58.45 0 0 0 14.21-4.88c4.4-.82 10-2.24 10.5-5.17.16-.93-.7-2.22-1.84-1.77zm-158.5 23.9c-4.33-.65-8.77.2-13.2 1.22-1.44 0-2.88-.06-4.32-.06-6.7 0-13.36.6-20.05.8-6.42.2-12.34.66-18.77.15-6.83-.55-13.68 1.37-20.18 3.2a1.38 1.38 0 0 0-1.05 1.38c-1.24.32-2.48.63-3.75.86-3.85.7-7.78.5-11.64 1.2-1.9.34-1.1 3.23.8 2.9 3.58-.65 7.22-.45 10.8-1.05 3.3-.55 6.5-1.7 9.77-2.4 4.5-1 9-.84 13.5-1.4 2.43-.3 4.75-.82 7.14-1.13 3 .12 6.05 0 9.1-.14 5.6.27 11.17.9 16.76.7a60.93 60.93 0 0 0 11.37-2h2.74c3.3 0 8.87.58 11.63-1.7a1.51 1.51 0 0 0-.66-2.54zm-154.18 8a194.53 194.53 0 0 0-31.1 0c-9.45.8-18.77 1.92-28.25.93a248.25 248.25 0 0 0-27.95-.85 17.53 17.53 0 0 1-8.74-1.9 34.94 34.94 0 0 0-4.25-2.1c-3.12-1.12-9-2.3-10.75-5.62-.9-1.72-3.48-.2-2.6 1.5 1.28 2.46 4.6 3.95 7 5.05 3.66 1.7 7.37 3.15 11 4.82 4 1.82 8.43 1.18 12.66 1.15 5.33 0 10.78-.37 16.1.07s10.63 1.4 16 1.38 10.7-.6 16-1.1a207.5 207.5 0 0 1 34.81-.35c1.98.15 1.97-2.85.06-3zM62.45 371.82a2.14 2.14 0 0 0-3.25-.2 2.73 2.73 0 0 0-.8 1.69 3.89 3.89 0 0 0-.47 3.95 1.52 1.52 0 0 0 1.69.69 4 4 0 0 0 2-1.41 1.34 1.34 0 0 0 .6-.35 1.4 1.4 0 0 0 .38-1.38 2.48 2.48 0 0 0-.15-2.99zm4.75 19.06a1.51 1.51 0 0 0-1.69.69 3.76 3.76 0 0 0-.3 2.38 1.42 1.42 0 0 0 0 .36 1.53 1.53 0 0 0 1.5 1.5 9.19 9.19 0 0 0 2.4-.17 1.51 1.51 0 0 0 1.1-1.45c-.02-1.68-1.57-2.8-3-3.3zm16.67 42.34a1.21 1.21 0 0 0-.15-1.31 31.37 31.37 0 0 1-3.17-5.67l.12-.16c2.37-3.37-.8-8.5-4.77-7.75a1.25 1.25 0 0 0-.68.43c-.86-1.44-1.3-4.65-1.62-5.67-.6-1.83-3.5-1-2.9.8 1 3 1.06 7.68 3.83 8.56a5.35 5.35 0 0 0 1.08 3.87c1.2 5.28 3.8 10.3 8 13.63a1.54 1.54 0 0 0 2.36-.3c1.3-1.88-.16-4.12-2.1-6.43zm18.67 12.88c-1-1.72-2.6-2.86-4-4.2a1.38 1.38 0 0 0-1.36-.38 1.94 1.94 0 0 0-.1-.17c1.23-1.16-.2-3.46-1.72-2.42-4.23 2.86 2.47 8.07 5.1 9.23 1.32.57 2.87-.64 2.07-2.05zm491-77.45a1.53 1.53 0 0 0-1.1-1.44 1.58 1.58 0 0 0-1.7.69 4.49 4.49 0 0 0-.77 1.86 8.87 8.87 0 0 1-.32 1.63l-.17.4c-.57 1.58 2.07 2.72 2.74 1.16a3.3 3.3 0 0 0 .13-.37 4 4 0 0 1 .69-1.2 1.67 1.67 0 0 0 .42-1.14.68.68 0 0 0 0-.15c.06-.47.07-.96.08-1.45zM595.2 347a1.4 1.4 0 0 0-1.12-.53 1.53 1.53 0 0 0-1.5 1.5v1.6a1.48 1.48 0 0 0 .93 1.37 1.54 1.54 0 0 0 1.63-.31 3.32 3.32 0 0 0 1.11-1.79 1.52 1.52 0 0 0-1.05-1.83zm-20.83 91a14.41 14.41 0 0 0-1.63.42l1.84-1.95c1.32-1.4-.8-3.54-2.12-2.12l-6.22 6.34c-.2 0-.43.1-.65.12a1.18 1.18 0 0 0-1.06 1.46l-.55.48c-3.5 1.67-7.1 2.88-10.6 4.6s-7.6 2.54-11.1 4.55a40.87 40.87 0 0 1-11.41 4.27 167.54 167.54 0 0 1-7.9 1.7c-6.77.6-13.56.68-20.33 1.23-4.27.35-8.53.85-12.8 1.3a50 50 0 0 0-11.61 1 1.51 1.51 0 0 0 .4 2.95c4.25-.2 8.47-.58 12.7-1 5.17.07 10.4.4 15.43-.14 5.36-.58 10.82-1.3 16.2-2.3a76.5 76.5 0 0 0 9.27-1.17 86.6 86.6 0 0 0 11.78-3.54c3.47-1.22 7.27-2.17 10.6-3.7a47.77 47.77 0 0 0 10.78-7.1c1.86-.92 3.6-2.05 5.44-3 1.42-.54 2.83-1.13 4.33-1.55 1.9-.5 1.1-3.2-.78-2.88zM418.6 466.8h-15.64a1.4 1.4 0 0 0-1.43 1.37h-.17a1.5 1.5 0 0 0 0 3h8.45a1.36 1.36 0 0 0 1.33-.88 44.25 44.25 0 0 1 7.46-.48 1.505 1.505 0 0 0 0-3.01zm-355.46-123a3.75 3.75 0 0 1-.4-1.12 11.88 11.88 0 0 0-.22-2 1.51 1.51 0 0 0-2.2-.9c-.1.06-.18.14-.27.2a2.45 2.45 0 0 0-2.7.63l-.17.2c-2 1.13-3.4 3.38-2 5.63.8 1.26 2.3 2.38 3.85 1.95a4 4 0 0 0 1.45-.79 2.63 2.63 0 0 0 2.13-.83 2.66 2.66 0 0 0 .53-2.96z"/><path d="M526.52 436.05a82.28 82.28 0 0 1 8.48-3.85 97.25 97.25 0 0 0 8.09-5.4 64.76 64.76 0 0 0 15.4-16.94c3.85-5.77 11.55-13.47 1.54-15-3.08-.4-3.08-5-.77-6.16 5.4-2.7 12.7-3.47 16.94-8.47 2.7-3.08 5-15 3.85-18.5-.77-1.92-3.46-1.92-5.4-3.08-1.15-.77-8.1-5.4-3.85-6.54 5.4-1.16 11.55-.4 16.56-3.08 9.24-5.4-8.47-7.7-11.55-7.7h-.8a2.13 2.13 0 0 0-1.93-1.16c-6.93-2.7-14.63-1.92-21.56 0l-2.3.77c-5.4-.38-10.4-.77-15.8-.77a33.37 33.37 0 0 0-5.77-1.92c-7.7-1.54-16.18.77-23.88 2.7-4.23 1.16-8.47 1.93-12.7 2.7-4.24.38-8.47.77-13.1.77h-5.78a13.63 13.63 0 0 1-5.39-1.16c-3.46-1.15-6.55-3.46-10-4.62-6.93-2.3-15.4 0-22.33 1.16-3.85.77-7.32 1.92-11.17 2.3-17.7-2.7-35-6.55-53.13-5-8.47.77-16.94 3.08-25 5.4-6.16 1.54-11.94 3.85-18.1 5.78-5.77-.77-11.55-2.3-17.32-3.08a67.2 67.2 0 0 0-24.65 2.31l-1.15.38a109.5 109.5 0 0 0-15.79 0c-8.47.77-16.94 1.93-25.4 5-1.92.77-3.47 1.15-5.4 1.92H237a66.66 66.66 0 0 0-23.1.39 53 53 0 0 0-11.16 3.08 51.21 51.21 0 0 1-12.74 3.07h-.77c-6.93-.77-14.25-1.93-21.18-2.7a55.19 55.19 0 0 0-7.7-1.92c-9.24-2.3-18.86-3.47-28.1-1.93a75.55 75.55 0 0 0-8.86 2.31c-6.93.4-14.25.77-21.18 1.54-7.3.77-15.4.4-22.33 2.7-5.78 1.92-13.1 6.16-3.88 9.65 3.85 1.54 8.1 0 11.94 0-2.7 2.3-5.78 4.24-8.1 7.32-2.7 3.85-1.92 10 2.3 12.32 1.54 1.16 3.85 1.54 5.4 2.7 3.08 1.92 3.08 5.4-.38 7.3-1.54.77-3.85 1.93-3.47 3.85.4 2.3 3.47 2.7 5 4.24 1.92 2.3.38 5.77 1.54 8.47 1.54 3.08 5 5 7.3 7.3 2.7 2.3 4.24 5.78 6.55 8.48 2.7 3.08 7.3 2.3 10 5.4 3.08 3.46 0 7.3.38 10.78.4 5.4 4.24 6.93 8.47 9.62 4.62 3.47 10 6.55 15.8 7.32 15.4 2.3 31.2 4.62 46.6 4.23 11.55-.38 23.5-3.08 35-3.85l6.93.77c13.48 1.16 27 1.93 40.43-.38a5.64 5.64 0 0 0 3.46-2.31h.85c17.7.77 35-1.93 52.37-5.4l6.16-1.16a3.49 3.49 0 0 0 1.92-.38l16.56 2.3a144.37 144.37 0 0 0 25.8 0h.77a100.74 100.74 0 0 0 51.21-5.39c8.08-3.08 15.4-7.32 23.87-8.47a2.83 2.83 0 0 0 1.92-.39c3.85 0 7.7-.38 11.56-.38h2.3a5.26 5.26 0 0 0 4.23.38h.77a33.66 33.66 0 0 0 8.86 0 8 8 0 0 0 5-2.69l39.28-6.55zm-10.4-15.4a56.77 56.77 0 0 1 7.31-2.69c-2.3.77-5 1.92-7.3 2.7zm16.95 21.55l-8.1 3.46-1.15.4c-2.3.38-4.24 1.15-6.55 1.54-10.4 2.3-21.18 3.85-31.57 5.77-10.78 1.93-21.95.77-32.35 3.47a33.37 33.37 0 0 0-5.77 1.92c-4.62 1.16-9.24 2.7-13.86 4.24-5 .77-10.78 1.54-15.4.77-1.93-.4-2.7 2.3-.77 2.7 5 .77 10.78 0 15.78-.77h1.16c5.77-.77 10.78-2.7 16.17-5 3.85-.77 7.3-.77 11.17-1.16 8.47-1.15 16.55-.77 25-1.15 8.1-.77 15.8-3.08 23.87-4.24a96.39 96.39 0 0 0 13.87-4.62c4.23-.77 9.62-2.3 10-5 .42-1.52-.36-2.7-1.5-2.3zm-154.02 23.1c-4.23-.77-8.47.38-12.7 1.15h-4.24c-6.54 0-13.1.4-19.64.77-6.16.4-11.93.77-18.1 0-6.55-.38-13.48 1.16-19.64 3.08a1.22 1.22 0 0 0-1.15 1.16 11.42 11.42 0 0 1-3.47.77c-3.85.77-7.7.38-11.17 1.15-1.92.4-1.15 3.08.77 2.7 3.47-.77 6.94-.4 10.4-1.16 3.08-.38 6.16-1.54 9.63-2.3 4.23-1.15 8.85-.77 13.1-1.54l6.93-1.15h8.85c5.4.38 10.78.77 16.18.77a56.49 56.49 0 0 0 11.2-1.93h2.7c3.08 0 8.47.4 11.16-1.54a1.09 1.09 0 0 0 0-1.92zM229.27 473a195.48 195.48 0 0 0-30 0c-9.24.77-18.1 1.92-27.34.77a209.13 209.13 0 0 0-27-.77 16.16 16.16 0 0 1-8.47-1.93 14 14 0 0 0-4.23-1.92c-3.1-1.16-8.86-2.3-10.4-5.4-.77-1.54-3.47-.4-2.7 1.54 1.16 2.3 4.62 3.85 6.93 5l10.8 4.62c3.85 1.93 8.08 1.16 12.32 1.16 5 0 10.4-.4 15.78 0 5 .38 10.4 1.54 15.4 1.15l15.4-1.15a198.64 198.64 0 0 1 33.88-.39c1.56.4 1.56-2.7-.37-2.7zM68.33 380.22a2.33 2.33 0 0 0-3.08-.39l-.4.4a2.92 2.92 0 0 0-.77 1.54 3.54 3.54 0 0 0-.38 3.85 2.92 2.92 0 0 0 1.54.77 3.84 3.84 0 0 0 1.92-1.54c.4 0 .4 0 .77-.4a1.39 1.39 0 0 0 .39-1.15 2.33 2.33 0 0 0 0-3.08zM73 398.7c-.77 0-1.16 0-1.54.77a4.83 4.83 0 0 0-.39 2.31v.38a1.66 1.66 0 0 0 1.54 1.54h2.3c.77 0 1.16-.77 1.16-1.54A4.75 4.75 0 0 0 73 398.7zm16.12 41.2c.4-.4 0-.77 0-1.16a24.63 24.63 0 0 1-3.12-5.39c2.3-3.08-.77-8.1-4.62-7.7-.38 0-.38.38-.77.38-.77-1.54-1.15-4.62-1.54-5.4-.77-1.92-3.47-1.15-2.7.77 1.15 3.08 1.15 7.32 3.85 8.47a7.45 7.45 0 0 0 1.15 3.86c1.16 5 3.85 10 7.7 13.1a1.75 1.75 0 0 0 1.93 0v-.4c1.2-2.3.04-4.23-1.9-6.54zm18.1 12.32c-1.16-1.54-2.7-2.7-3.85-4.24a1.44 1.44 0 0 0-1.16-.38c1.16-1.16-.38-3.47-1.54-2.3-4.23 2.7 2.3 7.7 5 8.85.78.77 2.33-.38 1.55-1.92z"/><path d="M580.43 393.7H580a2.3 2.3 0 0 0-1.54.39 19.19 19.19 0 0 0-1.92 5 4.17 4.17 0 0 0 0 3.08v2.3l-2.3 4.62a1.39 1.39 0 1 0 2.31 1.54 42.58 42.58 0 0 0 3.08-5.77c1.92-.4 2.3-3.47 2.7-5.4s1.2-5.4-1.88-5.78zM572 419.1c-1.16 1.16-2.32 2.7-3.47 3.85-.4 0-1.16.4-1.16.77l-6.16 6.94a14 14 0 0 1-3.46 3.08 1.81 1.81 0 0 0-2.31.38 1.41 1.41 0 0 0-.39 1.16v1.15a1.42 1.42 0 0 0 .77 1.93h.4c5.4 0 11.16-6.55 12.7-11.94 1.54-1.54 3.1-3.47 4.63-5 1.88-1.93-.04-3.86-1.54-2.32zm11.9-41.96c0-.77-.38-1.16-1.15-1.54-.77 0-1.16 0-1.54.77a2.89 2.89 0 0 0-.77 1.92 2.28 2.28 0 0 1-.39 1.54v.4c-.38 1.54 1.93 2.7 2.7 1.15V381c0-.4.38-.77.77-1.16a1.42 1.42 0 0 0 .38-1.15zm1.53-21.14a1.39 1.39 0 0 0-1.15-.39 1.66 1.66 0 0 0-1.54 1.54v1.54c0 .77.38 1.16.77 1.16.38.38 1.15 0 1.54-.4a8.27 8.27 0 0 0 1.15-1.92c.8-.43 0-1.2-.77-1.54zm-20.03 88.52c-.4 0-1.16.38-1.54.38l1.92-1.92c1.16-1.54-.77-3.47-1.92-1.93l-6.16 6.16h-.77a1.24 1.24 0 0 0-1.16 1.16l-.38.38c-3.47 1.54-6.93 2.7-10.4 4.62-3.46 1.54-7.3 2.3-10.78 4.24a39.35 39.35 0 0 1-11.16 4.23 54 54 0 0 1-7.71 1.54l-19.63 1.16-12.32 1.15a52.34 52.34 0 0 0-11.17 1.16 1.4 1.4 0 0 0-.77 1.92c0 .77.77 1.16 1.54 1.16a66.64 66.64 0 0 0 12.32-1.16c5 0 10 .4 15 0a110.34 110.34 0 0 0 15.79-2.31c3.08-.38 6.16-.38 8.85-1.15a65.87 65.87 0 0 0 11.55-3.47c3.47-1.15 6.93-1.92 10.4-3.46a49.26 49.26 0 0 0 10.39-6.93 38.4 38.4 0 0 0 5.39-3.08c1.54-.4 2.7-1.16 4.24-1.54 1.17 0 .4-2.7-1.52-2.3zm-151.3 27.72h-15a1.72 1.72 0 0 0-1.54 1.15 1.54 1.54 0 1 0 0 3.08h8.1c.38 0 1.16-.38 1.16-.77a47.13 47.13 0 0 1 7.31-.38 1.41 1.41 0 0 0 .77-1.93c-.02-.4-.4-.77-.8-1.15zM68.7 352.88c0-.4-.38-.77-.38-1.16a3.42 3.42 0 0 0-.39-1.92 2.11 2.11 0 0 0-1.94-1.16h-.4l-.38.4a2.55 2.55 0 0 0-2.7.77c-1.92 1.15-3.46 3.46-1.92 5.4.77 1.15 2.3 2.3 3.85 1.92a2.92 2.92 0 0 0 1.54-.77 2.89 2.89 0 0 0 1.92-.77 1.65 1.65 0 0 0 .79-2.69z"/></g><path d="M531.9 389.07h-.38c-9.24.77-16.95 2.3-26.57 1.16-13.1-1.54-25-5.78-38.5-6.16-27.34-.4-53.14 8.47-79.7 13.86-17.32 3.46-33.1 3.08-50.44 0-11.55-1.93-23.87-5.78-35.8-4.24-13.48 1.54-26.2 5.4-39.28 8.1a111.46 111.46 0 0 1-47.74-2.31c-14.25-4.24-26.57-4.24-41.2-.4-15.4 4.24-30 11.17-45.82 14.25-2.3.38-1.54 4.23 1.15 3.85 17.33-3.85 33.5-11.94 50.83-15.4 11.17-2.3 20.8-2.7 31.57.77a110.42 110.42 0 0 0 21.98 4.23c17.7 1.93 33.1-2.3 50.44-5.4 9.24-1.92 18.48-4.23 28.1-3.46s18.83 3.07 28.45 4.62c17.33 3.08 33.5 3.08 50.82-.77 18.5-4.24 36.2-9.63 54.68-11.94 8.85-1.15 17.7-1.92 26.57-1.15s16.94 3.08 25.8 5a113.44 113.44 0 0 0 20 1.93c5.4 0 10-1.54 15-2.3 2.75-.77 2.75-4.24.05-4.24zm-.76-26.95c-11.55-1.16-22.33-6.93-33.88-7.7a177.73 177.73 0 0 0-35 .77c-22 2.7-43.5 9.24-65.46 11.55-11.93 1.15-24.25 1.54-36.2-.4-11.55-1.92-22.72-5.4-34.27-6.93-23.1-2.7-45.43 2.3-66.22 11.55-2.3 1.16-.4 4.24 1.92 3.47 24.26-10.78 50.44-15 76.24-8.86 21.18 5 41.58 7.32 63.14 4.62 21.18-2.7 42-9.24 63.15-11.55a145.39 145.39 0 0 1 36.58 0c10.4 1.54 20.4 6.55 30.8 7.32 1.5.03 1.5-3.85-.8-3.85zm-187.9 68.54c-15.78-1.55-30.4.77-45.43 5-16.94 4.62-35.8 10.78-53.52 9.24-16.56-1.54-33.5-5-50.44-4.23-14.63.77-30 2.3-41.58 12.32-1.93 1.54.77 4.23 2.7 2.7 13.86-11.55 35.8-11.93 53.14-10.78 15 1.16 30.8 5.4 45.43 4.24 30.42-2.7 58.53-16.94 89.7-13.86 2.3-.4 2.3-4.28 0-4.62zm-118.97-59.3c-17.7 2.3-34.65-5-52.37-4.62-17.32.38-31.18 8.47-47 14.63-2.3.77-1.16 4.62 1.15 3.85 17.72-6.54 32.73-15.4 52-13.86 15.8 1.15 30.8 6.55 47 4.24 2.68-1.16 1.53-4.6-.78-4.24zm285.3 48.14c-19.64 7.3-39.66-.4-59.68.38-18.48.77-35.8 7.7-53.14 13.87-2.3.77-1.15 4.62 1.16 3.85 19.25-6.55 38.12-14.25 58.9-13.48 18.1.77 36.2 6.16 53.9-.4 1.93-1.54 1.16-5-1.15-4.23z" fill="#f5f5f5"/></svg>