<svg xmlns="http://www.w3.org/2000/svg" viewBox="0 0 650 563.33" fill-rule="evenodd"><path d="M617.28 399.32c4.48-47.5-15.54-99.82-34.82-139.65-13.75-28.4-33.88-54.32-60.34-71.9-30.47-20.24-65.3-24.56-101.18-22.5a226.42 226.42 0 0 0-77.62 18.5c-24.55 10.75-46.95 25.87-71.82 36-24.1 9.77-49.43 15.77-74.94 20.48-25.27 4.66-52 7.93-74.57 21.08C98.14 275.2 91.66 296.63 91.2 323c-.17 10-.1 20.23-2.46 30.06-8.3 34.54-13.66 68.92 15.5 96 8.17 7.58 18 13.18 27.62 18.7 9.48 5.42 21.46 15.56 32.06 18.08 9.62 2.3 23-.57 32.9-.9l77.85-2.36 161-5.22c40.85-.38 82.4-7.36 123.13-4.2 14.9 1.15 35.43-.2 40.52-17.37a4.33 4.33 0 0 0-.5-3.47 38.39 38.39 0 0 0 2.38-3.39c9.47-15.35 14.42-32.16 16.07-49.62z" fill="#f5f5f5"/><path d="M577.8 459.2a159.08 159.08 0 0 1-19 1.58c2.1-6.8-17.7-4-20.13-3.92-6.86.22-13.62 1.3-20.5 1.34s-14-.2-21 .14c-13.14.64-26.33.48-39.47 1.15-13 .66-26-.35-39 .2-13.63.58-27.2.6-40.84.57-31.15-.1-62.15.45-93.26 2.2-14.87.84-29.92.7-44.8.82-13.26.12-26.54.76-39.8 1.53 1.53-.55.72-3.12-1.07-2.8-5.67 1-11.35.3-17 1.8-7.1 1.9-14 2.1-21.36 2-6.94-.14-13.94-.75-20.87-.28-5 .34-10.93.74-15.5 2.9a1.51 1.51 0 0 0-.68 1.7c1.13 3.6 5.3 3.6 8.58 4a191.81 191.81 0 0 0 21 .79c14.3.1 28.6-.8 42.9-.33 27.63.9 55.15 1.16 82.77-.13 28-1.3 56.17-1.66 84.2-1.5l41.92.64c13.98-.1 27.82-1.05 41.72-2.15l3.5-.27a2 2 0 0 0 1.86.65c9.4-1.2 19.05 0 28.5-.6 9.15-.6 18.27-.86 27.42-1.26 8.8-.4 17.63-1.6 26.42-1.54 5.35 0 12.2 1 17.6-.78 3.3-.17 6.6-.45 9.9-.9l11.44-1.43c2.24-.22 4.38-.36 6.4-1.43 2.75-1.5.74-5.03-1.87-4.64zm-59.14-5.6a61.73 61.73 0 0 1-7.15 1.36 1.56 1.56 0 0 0-.4.12 36.64 36.64 0 0 1-9.79-.92 1.28 1.28 0 0 0-1-.72q-.84-.17-1.7-.3a1.29 1.29 0 0 0-.38-.08c-4.15-.9-8-2.65-12-4.1-4.28-1.55-8.55-3.06-12.68-5a34 34 0 0 1-19.07-22.5c-2.8-11.46-.44-22.28 4.77-32.64 3.73-7.38 9.48-12.8 15.3-18.44 1.38-1.35-.74-3.47-2.12-2.12-6.92 6.73-13 13.06-17.17 21.92-5 10.5-6.37 21.6-3.45 32.9a36.26 36.26 0 0 0 17 21.86 27.43 27.43 0 0 0 1.19.65 1.43 1.43 0 0 0 .66.88 77.56 77.56 0 0 0 13.92 7.08c4.16 1.5 8.5 1.73 12.8 2.4l.4.07c4.48 2.15 10 2.06 14.8 2.06a1.39 1.39 0 0 0 1-.42 56 56 0 0 0 5.82-1.17 1.5 1.5 0 0 0-.72-2.87z" fill="#bbb"/><path d="M334 464.58l-3.6.25v-.17c-1.18-3.4-3.78-6.85-5.6-10a126.68 126.68 0 0 1-5.87-12.27 63.08 63.08 0 0 0-3.54-6.59 50.91 50.91 0 0 0 4-5.31 30 30 0 0 1 3.34-4c1.1-1.23 1.7-2.74 2.76-4s-.3-3.32-1.82-2.36l-.27.2a1.42 1.42 0 0 0-.12-.13c-1.7-1.38-3.67.6-4.84 1.72a32 32 0 0 0-4 4.57c-.78 1.1-1.42 2.23-2.17 3.27-1-2-2-4-2.82-6.12a6.85 6.85 0 0 0-1.89-3.22 1.49 1.49 0 0 0-.31-.2 1.4 1.4 0 0 0-1.43-1.26h-6.72a1.36 1.36 0 0 0-1.16.58 1.41 1.41 0 0 0-.59 2c6.2 10.47 10.45 21.9 15.18 33.1 1.47 3.48 3 8.75 6 11.25 3.87 3.24 11 1.85 15.48 1.63 1.93-.02 2-3.02-.01-2.93z" fill="#999"/><g fill="#ddd"><path d="M189.52 358.44a6.24 6.24 0 0 0-1.32-.21 1.44 1.44 0 0 0-1.44-1.38 14.81 14.81 0 0 1-2.48-.35 1.49 1.49 0 0 0-2.08 0l-.17.2c-.62.78-.58 2.3.66 2.5l.37.06a50.63 50.63 0 0 1-6.1 1.47 1.59 1.59 0 0 0-.59-.1c-10 .14-17.6 6.15-24.8 12.34-6.73 5.8-11.7 15.25-15.1 23.37-3.9 9.35-3.4 21-1 30.56 2.26 9.06 8.37 16.2 15.66 21.73a1.33 1.33 0 0 0 .7.28c6.34 4.26 14.6 6.4 21.6 8.54 1.85.57 2.64-2.33.8-2.9-7.88-2.4-17.73-4.77-23.83-10.58a1.46 1.46 0 0 0-.73-.39c-5.65-5-10-11.35-11.64-18.85-2.07-9.23-1.94-19.9 2-28.62 3.33-7.4 7.6-16 14-21.2 6.12-5 12.18-10.22 20.23-11.14a1.43 1.43 0 0 0 1.28.3c2.25-.47 4.55-.88 6.78-1.46 2-.52 4.34-1.92 6.45-1.34a1.5 1.5 0 0 0 .75-2.86z"/><path d="M212.33 393.17l2.48 1.2c3.78 1.6 8.6 1.28 11.7 4.25 1.4 1.34 3.5-.77 2.12-2.12a9.57 9.57 0 0 0-2.4-1.85 25.19 25.19 0 0 0-3.25-1.17c-2.43-.78-5-1-7.35-2l-.66-.3 1.7-1.35c1-.82 2.14-1.48 3.14-2.3a22.18 22.18 0 0 1 2-1.66c1.1-.7 3.48-2 2.8-3.65a1.55 1.55 0 0 0-1.84-1.05 1.61 1.61 0 0 0-1.07 1.12 1.8 1.8 0 0 1-.21.19 8.82 8.82 0 0 1-.71.48l-1.5 1c-.8.67-1.52 1.38-2.4 2s-1.92 1.45-2.86 2.2l-2.06 1.6a15 15 0 0 0-6.79-1.74 22.89 22.89 0 0 0-1.2-2.18l.34-.63c.44-.75 1-1.43 1.5-2.15a38.18 38.18 0 0 0 2.57-4.59 24.13 24.13 0 0 1 .5-.86 25.91 25.91 0 0 1 2.73-.95c.9-.23 1.8-.24 2.7-.4s1.72-.7 2.6-.66c1.94 0 1.9-2.88 0-3h-.23a1.39 1.39 0 0 0-.3 0 13.4 13.4 0 0 0-2.16.6c-1 .27-2 .22-3 .43.25-.58.46-1.2.77-1.75a7.42 7.42 0 0 0 1.06-2.17c.37-1.9-2.52-2.7-2.9-.8a7.18 7.18 0 0 1-.87 1.67c-.37.75-.6 1.55-1 2.27s-.93 1.52-1.4 2.27c-.6.22-1.2.42-1.83.58-2.12.52-4.28.9-6.4 1.4a17.25 17.25 0 0 0-2.86.85 29.42 29.42 0 0 0-19.83-3.5 22.09 22.09 0 0 1-3.6-2.62c-.53-.47-1.1-.9-1.63-1.38l-.36-.34c.4-1.16.87-2.3 1.3-3.46.3-.86.48-1.75.74-2.63s.7-1.62.87-2.48c.4-1.9-2.48-2.7-2.9-.8-.2.92-.67 1.76-.92 2.67s-.5 1.9-.83 2.8l-.67 1.76a14.16 14.16 0 0 1-1.78-1.77c-.38-.48-.92-1.1-1.23-1.48a4.48 4.48 0 0 0-1.55-1.48 1.55 1.55 0 0 0-2 .54 1.5 1.5 0 0 0 .54 2.05c.38.18.67.68 1 1.1l1.43 1.73a19.1 19.1 0 0 0 2.62 2.39c0 .12-.07.23-.1.35l-1.2 5.58a31.28 31.28 0 0 1-.41 1.67c-5.8 3.44-11.36 7.1-14 13.76-2.38 4.22-4.15 9.2-4.13 14 0 10.48 7.9 20.6 17.2 25.08 8.83 4.23 22.34.25 29.55-5.84 4.47-3.78 7.57-9 10.85-13.75a22.47 22.47 0 0 0 4.6-1.32 103.62 103.62 0 0 0 3.48-1.31 28 28 0 0 0 2.46 2.15 25.79 25.79 0 0 0 3.81 2.37 1.5 1.5 0 1 0 1.51-2.59 24.81 24.81 0 0 1-4-2.52c-.23-.18-.46-.38-.68-.57 2-.7 3.8-1.67 5.8-2.3 1.14-.36 2.34-.4 3.5-.74a7.64 7.64 0 0 0 .94-.37h.1a1.6 1.6 0 0 0 2.18-1.75 1.83 1.83 0 0 0-1.88-1.43 8.34 8.34 0 0 0-2.15.7c-1.22.34-2.48.4-3.7.8s-2.42 1-3.62 1.5-2.28.83-3.4 1.26l-.12.05-.33-.33c-1-1-2.26-1.54-3.26-2.44a7.67 7.67 0 0 0-2.28-1.51 11.51 11.51 0 0 0-.3-1.94 14.14 14.14 0 0 0 .34-2.7c1-.68 1.87-1.43 2.8-2.2.5-.54 1.13-1.04 1.77-1.54zm-43.6-16.43l.74-3.4c.82.73 1.65 1.43 2.5 2.1a28.22 28.22 0 0 0-3.25 1.3zM202 383.2a24.5 24.5 0 0 0-3.19-3.09l1.58-.34c1.45-.35 2.93-.6 4.4-.92a24.6 24.6 0 0 1-1.6 2.68l-1.2 1.67zm5.44 21.67c.3.28.6.6.9.84a14.45 14.45 0 0 0 1.78 1.23c.07.05.12.1.2.15l-.14.05c-1.22.4-2.44.86-3.67 1.23a17.36 17.36 0 0 0 .94-3.5zm1.2-12.6c-.5.42-1 .86-1.55 1.3a2.17 2.17 0 0 0-.07-.24 23.93 23.93 0 0 0-.65-2.32 11.72 11.72 0 0 1 2.93.76z"/></g><path d="M149 407.44c-.7-2.7-3.4-4.5-5.3-6.35l-6.82-6.8c-1.48-1.22-3.6.9-2.12 2.12a69.05 69.05 0 0 1 5.88 5.85c1.25 1.32 3.43 2.72 4.66 4.4-2.23.5-4.42 1.43-6.57 2.1l-8.34 2.7a1.52 1.52 0 0 0 0 2.9l.18.06a1.25 1.25 0 0 0 1.4-.31l6.6-2.15c2.6-.9 5.73-2.3 8.47-2.6h.25a1.51 1.51 0 0 0 1.71-1.9zm9.26 20.06l-2 .2.15-.58c.42-1.88-2.47-2.68-2.9-.8l-.42 1.68a153.71 153.71 0 0 1-16.5.79c-1.93 0-1.93 3 0 3a147.83 147.83 0 0 0 15.64-.72c-1.67 5.46-4 10.83-6.08 16-.66 1.6 1.9 2.6 2.74 1.16l.22-.4a1.42 1.42 0 0 0 .21-.65 163.82 163.82 0 0 0 6.12-16.45l2.84-.27c1.88-.13 1.9-3.13-.02-2.96zm21.98 7.42a1.503 1.503 0 0 0-2.13-2.12 98.65 98.65 0 0 0-7.89 8.83l-.24.3-1.6-7.44a1.51 1.51 0 0 0-2.9.8 87.26 87.26 0 0 1 2 9.7c-2.27 2.6-4.65 5-7.2 7.46-1.4 1.36.74 3.48 2.12 2.13 1.92-1.88 3.8-3.68 5.6-5.6l.76 6.82c.2 1.9 3.2 1.92 3 0l-1.14-9.8.82-1a102.25 102.25 0 0 1 8.78-10.07zm22.66 10.9l-6.74-5.06c0-.23 0-.47-.06-.7a83.16 83.16 0 0 1 .15-13.11c.2-1.92-2.82-1.9-3 0a80.22 80.22 0 0 0-.27 11.18l-7.9-6.62c-1.48-1.22-3.6.9-2.12 2.12l10.2 8.54.1 3.07c0 1.44.45 5.34 0 6.57-.62 1.83 2.27 2.62 2.9.8.74-2.18.62-5 .37-7.74a94.88 94.88 0 0 0 4.83 3.53c1.66 1.13 3.13-1.5 1.54-2.6z" fill="#bbb"/><path d="M253.54 401.72c-3.85-31-26.76-56.85-57.64-62.84-42.46-8.23-83.88 23.5-89.64 65.72a68.79 68.79 0 0 0 2 28.55 9.29 9.29 0 0 0 .49 4 41.35 41.35 0 0 0 2.69 5.76 13.08 13.08 0 0 0 1.59 2.09l.15.3c.9 1.7 1.92 3.35 3 4.94 0 1.6-.23 3.24.36 4.77a11.32 11.32 0 0 0 5.27 5.79c1.13.53 2.76.54 3.68 1.4s1.16 2.22 1.8 3.23a5 5 0 0 0 4.53 2.41l.3.08a10.21 10.21 0 0 0 1.47.22l1.1.8h3.5a29.43 29.43 0 0 0 5.77.68c1.72 0 3.42-.22 5.13-.36a1.17 1.17 0 0 0 1.24.57c1.74-.2 3.47-.3 5.2-.4.62.05 1.25.1 1.88.1 2.22.07 4.42-.1 6.63.1a45.28 45.28 0 0 0 6.89.07 65.55 65.55 0 0 0 6.74-.41 15.3 15.3 0 0 1 1.66-.17 7.18 7.18 0 0 1 .8.06 37.61 37.61 0 0 0 7 .25 54.38 54.38 0 0 1 6.88.32 1.09 1.09 0 0 0 .26 0h.1a13.41 13.41 0 0 0 3.4-.24 23.44 23.44 0 0 1 3.84-.06c2.6.05 5.23 0 7.85 0 2.85 0 5.66-.33 8.5-.34h9.17a1.35 1.35 0 0 0 1.27-.76 3.45 3.45 0 0 0 1.34-.82 2.23 2.23 0 0 0 .57-.92 2.74 2.74 0 0 0 .38-.5c.45-.78.12-1.63.42-2.4.57-1.45 2.07-1.9 3.38-2.4a6.35 6.35 0 0 0 3.57-2.8 15.1 15.1 0 0 0 1.34-4.26 12.14 12.14 0 0 1 .45-1.58c.8-1.1 1.57-2.25 2.3-3.4a13.66 13.66 0 0 0 2.8-2.75 20.44 20.44 0 0 0 1.79-5.17l.06-.28a74.4 74.4 0 0 0 6.69-22.37 66.87 66.87 0 0 0 0-16.96zm-25.64-.6c-.5 3.58-.68 7.2-1.1 10.8-.9 7.65-4.68 14.14-8 20.82-2.1 2.14-3.87 4.82-5.9 7.08a16.66 16.66 0 0 0-4.77 1.75c-1.36.78-2.28 1.86-3.8 2.28-1.84.5-2.82 1.78-4.2 2.95a10.37 10.37 0 0 1-3.73 2.34l-2.54.86a12.16 12.16 0 0 0-1.59-.22 8.59 8.59 0 0 0-3.35.63c-2.1.8-4.23 1.5-6.35 2.24l-1.43.52-5.87 1a35.09 35.09 0 0 1-5.07-1.18 15.92 15.92 0 0 0-7 0c-1 .2-2 .44-3 .55l-2-1.06c-.68-.34-1.74-.63-2.44-1a7 7 0 0 0-2.41-1 23.77 23.77 0 0 0-3.14-.36 6 6 0 0 1-1.87-.34 3.82 3.82 0 0 1-.87-.41 14.6 14.6 0 0 1-1.05-.69 13.53 13.53 0 0 0-2.24-1.39c-.28-.23-.58-.46-.86-.7-21.33-18.44-15.55-52.52 2.08-71.36 12.63-13.5 34-21.44 52-15.23 12.84 4.43 23.16 15.1 28.14 27.45a44.75 44.75 0 0 1 2.63 9.63c0 .18.05.36.07.54-.05 1.16-.17 2.33-.34 3.52z" fill="#444"/><path d="M225.35 416c-4.82.48-9.62 1.24-14.43 1.8-1.53-2.37-3.1-4.7-4.43-7.2-.9-1.7-3.5-.2-2.6 1.5 1.1 2.1 2.4 4.07 3.67 6q-2.83.3-5.7.4c-1.93.06-1.94 3.06 0 3 2.5-.1 5-.3 7.48-.57.43.68.86 1.37 1.26 2.08a90.16 90.16 0 0 1 4.86 10.97c.72 1.76 3.62 1 2.9-.8-1.43-3.54-2.8-7-4.54-10.42-.37-.73-.78-1.45-1.2-2.16l12.7-1.6c1.9-.2 1.92-3.2 0-3.03zm-63.63-33.84a85.44 85.44 0 0 1-8.41-2.8c-1.13-.44-2.27-.78-3.42-1.1l-.65-2.7c-.36-1.9-3.25-1.1-2.9.8l.2.92-1.43-.47c-1.8-.65-2.6 2.25-.8 2.9l3.17 1c1 3.3 2.26 6.5 2.36 10.06 0 1.93 3 1.93 3 0a32.69 32.69 0 0 0-1.93-9c.52.17 1.05.34 1.57.54a85.44 85.44 0 0 0 8.41 2.8 1.523 1.523 0 0 0 .8-2.94z" fill="#bbb"/><path d="M555.1 407.85l-.12-2.64a37.52 37.52 0 0 0-.57-4.4 1.56 1.56 0 0 0 .37-1.28c-.4-2.64-.52-5.44-1.42-8s-2.4-4.44-3.76-6.6a58.07 58.07 0 0 0-4.71-6.63c-1.75-2.1-3.9-3.6-5.84-5.5l-5-5.13a21.91 21.91 0 0 0-6.91-3.8l-8.07-2.93a42.38 42.38 0 0 0-8.49-1.74 71.35 71.35 0 0 0-9.58-.51l-8.8.52c-1.92.1-1.93 3.1 0 3h.1a1.44 1.44 0 0 0 .69 1.24c1.34.88 3.4-.4 4.85-.57a42.09 42.09 0 0 1 5.83-.15 1.92 1.92 0 0 0 .17.53c.87 1.6 1 3.7 1.34 5.47l.06.23a47.74 47.74 0 0 0-3 4.6 52.92 52.92 0 0 0-12.94 1.24c-4.32 1-7.37 3.86-10.84 6.47a30.25 30.25 0 0 0-6.58 5.34 1.4 1.4 0 0 0-1.59-.63c-1.13.28-2.2.72-3.3 1.1a58.59 58.59 0 0 1-2.51-6c-.58-1.84-3.48-1.05-2.9.8A54.5 54.5 0 0 0 464 388l-4.35 1.27a1.86 1.86 0 0 0-.51.25h-.07c-.3.07-.57.18-.87.25s-.57.18-.86.24l-.45.1a2 2 0 0 0-.38.14h-.14a2.05 2.05 0 0 0-.74.12 1.64 1.64 0 0 0-.9.69 1.5 1.5 0 0 0 .54 2 1.42 1.42 0 0 0 1.15.15h.1a5.35 5.35 0 0 0 .55 0 4.34 4.34 0 0 0 .47-.16c.27-.1.55-.13.83-.2l.9-.25a12.4 12.4 0 0 0 1.57-.49 1.33 1.33 0 0 0 .42-.19l3.9-1.14a31 31 0 0 0 1.41 3.91 29.09 29.09 0 0 0-1.94 6.61 1.19 1.19 0 0 0-.69.94 40.72 40.72 0 0 0-.58 8.34 1.62 1.62 0 0 0-1.48 1.1 14.36 14.36 0 0 1-1.55 1.57l-.7-.26c-2.15-.7-4.6-1.25-6.54-2.46-1.64-1-3.15 1.56-1.52 2.6a26.08 26.08 0 0 0 6.06 2.38c-1.6 1.3-3.1 2.73-4.57 4.2a1.5 1.5 0 0 0 2.12 2.12c1.78-1.77 3.82-3.33 5.73-5a20.47 20.47 0 0 0 3.77 1.43c.07.2.14.4.22.6a13 13 0 0 0 1.22 4.08 30 30 0 0 0 6.79 8.63c0 2.52-.13 5-.3 7.5l-.18.06a35.88 35.88 0 0 0-3.86 1.34 1.26 1.26 0 0 0-.47.17l-.22.13a2.85 2.85 0 0 0-.31.12c-.24.1-.47.2-.7.3l-.26.1a2.87 2.87 0 0 0-.51.21l-.12.08a1.11 1.11 0 0 0-.43.28 1.52 1.52 0 0 0-.44 1.06 1.5 1.5 0 0 0 .44 1.06 1.44 1.44 0 0 0 1.06.44 1.93 1.93 0 0 0 .85-.23l.12-.08.43-.1.52-.23.22-.1a1.57 1.57 0 0 0 .81-.33 9.94 9.94 0 0 1 2.87-1l-.32 5.2v.27a1.5 1.5 0 0 0 3 0l.4-6.55h.08c2-.67 3.85-1.27 5.75-2.1a1.16 1.16 0 0 0 .78-1.09 41.63 41.63 0 0 0 13.89 4.78c1 1.45 1.88 2.9 2.8 4.37-1 2.06-1.95 4.1-2.83 6.22a.83.83 0 0 0-.06.21l-.06.14a6.8 6.8 0 0 0-.45 1l-.1.25v.12a1.43 1.43 0 0 0 0 .82 1.58 1.58 0 0 0 .53.78.79.79 0 0 0 .34.2 1.22 1.22 0 0 0 .57.13 1.56 1.56 0 0 0 .77-.21 1.13 1.13 0 0 0 .42-.39 1.06 1.06 0 0 0 .27-.51.5.5 0 0 0 0-.12.49.49 0 0 0 0-.11c0-.07.05-.15.07-.23l.1-.2c.07-.15.13-.3.2-.47l.4-.85-.08.2a1.51 1.51 0 0 1 .15-.28 1.4 1.4 0 0 0 .25-.74l1.35-3 2.12 3.4c-1.4.28-1.83 2.56-.17 2.9 4.95 1 11.8-.35 16.64-1.87 5.43-1.7 9.83-4.87 14-8.64 7.33-6.65 14.64-13.8 17.55-23.5a1.53 1.53 0 0 0 2.61-1c0-.46.1-.9.07-1.35a3.88 3.88 0 0 1 0-1.27c.22-.9.56-1.73.7-2.67s.44-1.86.52-2.82a28.13 28.13 0 0 1 .35-2.89 10.29 10.29 0 0 0 .02-2.59zM468.54 391l-.44-1.06 1.5-.55c-.38.5-.74 1.02-1.07 1.6zm7.16 47.1l.18-4.07c1.24.92 2.5 1.8 3.8 2.6-1.3.52-2.67.97-3.97 1.42zm24.62 5.9l-.48-.75h.78zm39.2-66.15c.87 1 1.7 2 2.46 3.1-1.37.26-2.72.55-4.06.88a18.82 18.82 0 0 1 1.6-3.99zm-29.75-14.8l-2.12 2.7a16.79 16.79 0 0 0-.75-2.91c.98.02 1.93.14 2.87.2zm-3.6 9.8c.08.32.15.64.22 1l-.77-.08.55-.93zm15 77.83a38.33 38.33 0 0 1-14.56 3.2l-4.33-6.92a84.12 84.12 0 0 0 1.64-3.77c6.9-.58 12.8-3.63 18.47-7.35l.66-.4a1.28 1.28 0 0 0 .22.17l3.5 1.8v.3c.13 2.84 0 5.67.3 8.5v.23a1.6 1.6 0 0 0 .19.57 35.27 35.27 0 0 1-6.13 3.65zm-11.64-76.45c-.28-1.55-.68-3.06-1.05-4.6 1.55-2.08 3.2-4.1 4.7-6.1a49.52 49.52 0 0 1 13.15 4.54 1.51 1.51 0 0 0 .56.15c2.7 1.48 5.32 3.77 7.85 5.34a18.58 18.58 0 0 1 2.71 2.08 20.43 20.43 0 0 0-2.21 5.12 32.96 32.96 0 0 1-.71 1.95l-4.92 1.38c-.54-.5-1.1-1-1.7-1.45a39.46 39.46 0 0 0-18.43-8.42zm23.35 12.06c-.14.26-.3.52-.45.77l-.44-.52zm.8 55.4c-1.24 1.13-2.45 2.2-3.68 3.23-.14-2-.15-3.93-.18-5.9l.27.14c1.27.7 2.54 1.62 3.9 2.24zm2.8-2.64c-2.06-.3-4.1-2.08-5.9-3l-1-.5a24.11 24.11 0 0 1-.14-4.95 28.9 28.9 0 0 0 2.92-3.32c2.25-2.68 4.1-5.68 4.25-8.35a47.11 47.11 0 0 0 1.32-5.13 70.28 70.28 0 0 0 3-1c.2.2.4.4.58.6a37.27 37.27 0 0 0 2.78 3c1.16 1 2.53 2.88 4.23 2.83C547 427 541.9 433.6 536.4 439zM549 416.18a10.13 10.13 0 0 0-1.4-1.07 18.39 18.39 0 0 1-3.5-3.27l-.22-.23 1.85-.8c1.2-.53 2.65-1 4-1.54-.15 2.3-.42 4.62-.73 6.9zm.9-10.24c-1.64 1-4.12 1.6-5.68 2.3-.86.38-1.72.73-2.6 1.08l-2.9-2.72a30.06 30.06 0 0 0-4.45-16.94 32.8 32.8 0 0 0 2.39-4.41c2.38-.63 4.78-1.2 7.24-1.62 4.7 6.7 6.1 14.46 5.97 22.32z" fill="#ddd"/><path d="M235.2 332.55l-4.4-10.62c-.7-1.55-1.26-3.26-2.64-4.36a1.55 1.55 0 0 0-2.36.31l-5.2 7.4c-1.43 2-2.75 6.1-4.68 7.54a1.52 1.52 0 0 0-.63 1.05 1.62 1.62 0 0 0 .48 2.71c8.42 3.2 15.68 9 24.22 11.86a1.5 1.5 0 0 0 1.89-1.45c-.2-4.9-4.88-10-6.68-14.44z" fill="#444"/><path d="M480.16 286.48l.26-20.22a1.38 1.38 0 0 0-.62-1.18A1.56 1.56 0 0 0 478 263c-7.63 1.77-25-5.82-28.95 4.4a14.35 14.35 0 0 0-.47 1.45l-.75-.2c-1.92-.48-3.8-1.1-5.68-1.73l-.24-.5-1.55-3.06a219.91 219.91 0 0 1-3.4-8.16 13.15 13.15 0 0 1-.45-3l.2-.06a1.54 1.54 0 0 0 1-1.8c1.35-2.45 2.33-5.87 1.26-8.4a1.17 1.17 0 0 0 .05-.2h.28c.74 0 1.3.17 1.9-.44s.48-1.65.48-2.45c0-1.06-.18-2.14-.26-3.2a2.3 2.3 0 0 0-1.27-2c-.75-.4-1.6-.54-2.38-.87a6.81 6.81 0 0 0-2.45-.69 1.29 1.29 0 0 0-1.17.53c-1.88-.28-4.7-.47-5.7 1.17a6.23 6.23 0 0 0-.51 3.57v.48c-1.1-.06-2.18-.1-3.23-.1a1.51 1.51 0 0 0-1.29 2.25l.1.22a1.3 1.3 0 0 0 1.93.54h.4a1.47 1.47 0 0 0-.23.26c-.65 1-1.45 1.9-2.12 2.92a1.27 1.27 0 0 0-1.16 1.78c1.64 4.1 2.88 8.32 4.77 12.32a22.22 22.22 0 0 1 .8 2.1 2.9 2.9 0 0 0-.8.31c-1.6 1-1.42 2.42-.78 4s2 4.76 3.62 5.47a2.61 2.61 0 0 0 .75.2 20.5 20.5 0 0 0 1.36 2.64c-1.45 1-2.83 2.12-4.3 3.05-1.87 1.18-3.28 2-4.43 3.86a1.43 1.43 0 0 0 1.28 2.19c.26.73.65 1.46 1 2.27 2.55 6.25 5 12.43 6.32 19.05a1.48 1.48 0 0 0 1.44 1.1 25.22 25.22 0 0 0 3.91-.92 1.63 1.63 0 0 0 .58-.08 2.73 2.73 0 0 0 .5.05 11.38 11.38 0 0 0 1.31-.06 9.56 9.56 0 0 1 1.07 0 2.54 2.54 0 0 0 2.08-.66 1.59 1.59 0 0 0 .44-1.06 1.53 1.53 0 0 0-.44-1.06 1.63 1.63 0 0 0-1.75-.28 2.56 2.56 0 0 0-.11-.24 4.81 4.81 0 0 0-.51-.76 9.36 9.36 0 0 1-.7-1.07.54.54 0 0 0-.05-.11 1.33 1.33 0 0 0 .27-1.3 28.79 28.79 0 0 1-1.36-4.25 1.47 1.47 0 0 0-.69-.89 1.5 1.5 0 0 0-.77-.2 1.34 1.34 0 0 0-.22-1c-1.1-1.72-2.25-3.4-3.2-5.22a8.4 8.4 0 0 1-1-2.44 2.77 2.77 0 0 0 0-.5 9.34 9.34 0 0 1 .65-.95 4.56 4.56 0 0 1 .8-.7h.18c2.7-1 5.37-2.12 8-3.26l3-1.22 1.16 1.4c.5.6.85 1 1.25 1.6 1.1 2.13 2.28 4.2 3.5 6.3 1.43 2.44 2.5 5.06 3.8 7.56l1.78 3.4a31.05 31.05 0 0 0 2.06 2.94 19.12 19.12 0 0 1 2 3.46c.4 1 .74 2.36 1.58 3.07a1.51 1.51 0 0 0 1.85.15 5.15 5.15 0 0 0 3.77 2.48c2.9.17 9.58-2.4 10.9-5.26.8-1.7.35-4.38.45-6.2.13-3.47.6-6.98.7-10.5z" fill="#999"/><path d="M179.8 358.37c-3.3-1.1-7.65-.1-11.22 1.23a1.29 1.29 0 0 0-.66-.16c-4.24.12-7.57 3.82-10.73 6.3-.26.2-.53.4-.8.6l-1.85 1.33c-3.5 2.45-7.2 4.7-10 7.92a61.54 61.54 0 0 0-7.38 10.2 53.08 53.08 0 0 0-6 12.4c-3.8 11.84-2.2 23.73 2 35.17 1.64 4.53 3.15 8 6.88 11.17a50.54 50.54 0 0 0 5.49 4.1 7.69 7.69 0 0 0 2.93 2 1.57 1.57 0 0 0 .54.09 77.35 77.35 0 0 0 7.21 3.51 1.64 1.64 0 0 0 1.07.05 27 27 0 0 0 11.73 3c1.93 0 1.93-3 0-3-5-.07-9.83-2.08-14.18-5l-4.33-3.3a67.66 67.66 0 0 1-7.5-7.57c-8.63-10.12-9.1-22.47-7-35a57.33 57.33 0 0 1 3.33-12.37 63.41 63.41 0 0 1 9.25-13.03l1.76-1.84A93.4 93.4 0 0 1 160 368a44.13 44.13 0 0 1 19.39-6.72 1.51 1.51 0 0 0 .4-2.91z" fill="#bbb"/><path d="M212.6 314.26a1.54 1.54 0 0 0-1.5-1.5c-12.88-1.1-25-1.28-37.38-5.6a1.39 1.39 0 0 0-1.83 1.5c-12.5 1.65-27.23.18-35.84 10.84a88.53 88.53 0 0 0-5.41 8.15c-1.36 2.12-4 4.68-4.38 7.4-.57 4.74 7.7 5.16 10.85 4.84 8-.82 15.4-6.13 23-8.44 7.95-2.44 16.3-2.78 24.57-2.76h.22a1.18 1.18 0 0 0 1.08 1.24c3.06.47 6.06.14 9.12.4 2.45.2 3.93 1 6.08 0 4.82-2.25 7.34-8.53 10.22-12.6a1.41 1.41 0 0 0 .26-.68 5.35 5.35 0 0 0 .94-2.8zm105.68-3.08c-1.5-.8-4-.54-5.6-.72l-7.7-.92c-13-1.13-26.47 1.23-39.5 1.85a156.26 156.26 0 0 1-20.3 0c-2.68-.22-5.13-1.3-7.78-1.63-1.44-.18-6.58 1.2-7.44.57-1.5-1.08-2.94 1.27-1.67 2.45a1.65 1.65 0 0 0 .13.63c1.93 4.53 3.44 9.26 5 13.88s4.06 8.7 6.25 12.9c4.6 8.82 8.4 18 12.36 27.16l13.1 30.15c2.08 5.1 7.1 8.86 11.47 3.32 6.15-7.8 9.16-19.32 12.5-28.5 4.05-11.14 12.17-20.14 17.45-30.7 2.4-4.8 4.9-9.47 7.68-14.05 2.18-3.56 5.32-7.2 6.13-11.4.5-2.38.14-3.78-2.04-4.98z" fill="#999"/><path d="M431.85 310.57c-3.88-5.68-14.54-5.08-20.43-5.23-10-.26-19.93 0-29.9.23l-27.66.76c-4.74.06-9.5.34-14.22.53-3.6.15-8.18 0-11.7.8-5.2 1.23-6.94 5.62-9 9.94-1.7 3.52-3.48 7.07-4.93 10.7-1.74 4.33-4.3 8.15-6.35 12.34-4.2 8.53-9.12 16.93-13.9 25.17s-8.44 16.75-12.24 25.38c-1.35 3.08-3 9.28-6.06 11.12-2 1.22-5.56.42-6.2 3.46-1.06 5.1 9.47 7.37 12.7 8 4.4.8 8.43 2.66 12.94 2.9 5.28.26 10.62.33 15.9.13l13.54-.32c5 0 10 1 14.94.58s9.78-.56 14.66-.82 9.85-1.1 14.82-1c3.14.1 7.7-.22 10.18-2.28.07-.05.13-.12.2-.18a1.6 1.6 0 0 0 2.86.68c2.27-3.2 3.7-6.66 5.67-10 1.46-2.5 3.14-4.83 4.5-7.37 4.06-7.5 9.07-14.6 12.95-22.15 2.3-4.5 7.68-12.15 4.5-17.27-1.92-3.1-5.17-5.62-2.2-9.7s6.26-.4 10.26-.86c6.67-.75 7.62-11.72 9.6-16.34a96 96 0 0 0 4.17-12.06c.67-2.5 1.97-4.8.38-7.1z" fill="#ddd"/><path d="M178.3 308.9c-1.4 0-2.8-.23-4.22-.25-.18 0-.47 0-.78.06a1.78 1.78 0 0 0-1-.51 28.74 28.74 0 0 0-8.49.84 1.61 1.61 0 0 0-.8-.03l-7.06 1.48-2.63.43a26.8 26.8 0 0 0-4.74.7 6.85 6.85 0 0 0-1.66.77 22.46 22.46 0 0 0-3.77 1.51c-7.8 4.1-11.8 13.24-16.75 20a1.21 1.21 0 0 0 .18 1.73 1.62 1.62 0 0 0 .37.74 6.07 6.07 0 0 0 2.9 1.75 1.5 1.5 0 0 0 1.69-.69c2-3 2.75-6.57 4.85-9.57 2-2.8 4.1-4.7 5.8-7.68A9 9 0 0 1 143 319c.27-.12.53-.23.83-.33 2.14-.7 4.8-1.5 7-2s4.36 0 6.52-.72a41.6 41.6 0 0 1 7.51-1.66 18.26 18.26 0 0 0 6.68-2.29l2.88.43a6 6 0 0 0 2.07 0 8.93 8.93 0 0 1 1.8-.5 1.5 1.5 0 0 0 0-3.04z" fill="#bbb"/><path d="M577.64 404.68a61.37 61.37 0 0 0-2.81-17c-8.13-25.55-31.93-43.37-57.48-49.33-17.56-4.1-35.3.4-50.85 8.93a107.38 107.38 0 0 0-31.87 26.33c-8.4 10-9.47 25.62-8.3 38.1A75 75 0 0 0 437.09 444a8.59 8.59 0 0 0 .36 3.71c.67 2 2.2 3 3.26 4.75s1.16 4 2.5 5.57a8.25 8.25 0 0 0 5.72 2.55c1.46.06 2.18-.3 2.78 1.2a13.12 13.12 0 0 0 .88 2.36 5.39 5.39 0 0 0 2.06 1.73c.7.42 1.26 1.08 2 1.45a4.88 4.88 0 0 0 3.24.26c2 .73 4.56-.32 6.58-.27 3.56.1 7.14-.07 10.7.1 1.68.08 3.33.4 5 .4 1.85 0 3.72 0 5.57-.16 1.67-.13 3.34-.2 5-.22a3 3 0 0 0 1.08.29c2.6.18 5.2.36 7.8.38s4.9-.32 7.38-.42l5.2-.23a3.05 3.05 0 0 0 1.7.18 20.39 20.39 0 0 1 4.62 0 27.33 27.33 0 0 0 4.7-.14l.78-.07a3.43 3.43 0 0 0 1 .26c1.06.13 2.12-.07 3.17.14a18 18 0 0 0 4.15.35c1.32 0 2.6-.36 3.9-.46s2.5-.36 3.78-.36h4.52c1.37 0 2.75.06 4.12 0A10.14 10.14 0 0 0 555 466a1.56 1.56 0 0 0 .25-.17l.4-.14h.47a2.56 2.56 0 0 0 2.23-3.58.14.14 0 0 1 0-.07 4.58 4.58 0 0 0 .57-.67c.75-1.1 1-2.3 1.6-3.26l.18-.18.42-.25c.53-.3 1.08-.57 1.6-.88a13.61 13.61 0 0 0 3.1-2.38 11.69 11.69 0 0 0 2.32-4.05 27.51 27.51 0 0 0 1.07-4c.27-1.2.6-2.38.8-3.6 5.2-10.1 7.3-21.23 7.64-32.8.04-1.75.04-3.53-.02-5.3zm-25.18 12.65A54.52 54.52 0 0 1 536.59 444a17.86 17.86 0 0 0-1.86.7 17.68 17.68 0 0 1-3 1.4c-1.07.32-2.2.42-3.3.7a15.41 15.41 0 0 0-3.41 1.55l-.4.2a33 33 0 0 1-6 .09 20.77 20.77 0 0 0-6.49.08 58.23 58.23 0 0 0-5.89 1.85 14.47 14.47 0 0 1-6.07.59 61.87 61.87 0 0 0-6.39-.34 21.72 21.72 0 0 0-3.39.38h-.2c-.85-.07-1.68-.33-2.55-.35s-1.82 0-2.73 0a42.24 42.24 0 0 1-5.65-.81c-.27 0-.53-.08-.8-.12-9.16-4.6-17-11.5-21.8-20.2a44.21 44.21 0 0 1-5-26.65C453 391.33 461 380.32 469 371.94q1.7-1.38 3.46-2.7a2.14 2.14 0 0 0 .35-.16c7.75-5 16.48-8.6 25.86-9 15-.62 28.83 2.77 40.28 12.92a45.23 45.23 0 0 1 13.51 44.32zM204.68 317.3c-13.38 0-26.7-1.17-40.07-.38-6.35.37-11.75.14-17.55 3.23-5.07 2.7-10.72 7.9-13.06 13.2-.77 1.75 1.8 3.28 2.6 1.5 2.5-5.64 8.83-11 14.47-13.23s12.1-1.56 18.16-2.1c6.6-.6 13.14.6 19.73.86 5.2.2 10.5-.1 15.73-.1a1.5 1.5 0 0 0 0-3z" fill="#444"/><path d="M222.9 312.25c-5.08-1.73-6.58-.17-9.23 3.94-4.23 6.55-7.7 13.53-11.93 20.07-2.2 3.4-4.3 6.83-6.32 10.34-.77 1.35-1.8 2.84-2.7 4.37a1.24 1.24 0 0 0-1.06.76c-1.33 2.67-2.76 5.27-2.78 7.68-.5.87-1 1.73-1.55 2.6l-3.06 4.92-6.05 10.17c-1.9 3.2-3.62 6.53-5.46 9.78a97.51 97.51 0 0 0-5.41 10c-.6 1.47-1.38 3.15-1 4.78a5.86 5.86 0 0 0 2.88 3.45c2.9 1.6 6.28.2 8.58-1.8s3.66-4.53 5.14-7c1.9-3.2 3.64-6.5 5.4-9.78l6.57-11.9 3.06-6a31.25 31.25 0 0 0 2.29-5.11 11.33 11.33 0 0 0 1.43-1.91l24-40.18c2.5-4.33 2.86-7.23-2.82-9.16z" fill="#bbb"/><path d="M342.58 351.55c-3.84-1.4-8.26-5.2-9.34-9.4.16-.37.3-.67.34-.84.76-2.72 1.17-5.55 1.87-8.3 1.4-5.43 2.57-10.86 4.6-16.12.47-1.2-.7-2-1.72-1.76a1.36 1.36 0 0 0-1-.39h-2.32a1.36 1.36 0 0 0-1.32-.16c-2.7-.26-5.4.46-8.12.5-1.9 0-3.2-.5-4.68.63-1.7 1.3-2.3 4.74-3.33 6.6l-5.25 9.6c-3.23 5.9-6.7 11.5-9.16 17.76-1.9 4.87-.64 6.4 2.72 8.7l-.5.44c-5.6 5.27-11.3 12.75-13.13 20.34-2 8.17-2.8 17.8.54 25.72.74 1.76 3.64 1 2.9-.8-6.15-14.6.27-33 12.16-43.74a1.46 1.46 0 0 0 .75.21c8.4-.1 16.7-.36 25.1-.15 2.14.05 6 .58 7.94-.16 3-1.17.86-4.2 1.77-6.4a1.59 1.59 0 0 0-.8-2.32z" fill="#f5f5f5"/><path d="M408.45 361.53c-.13-1.9-1.12-3.5-2-5.16s-1.36-3.63-2.57-5.05c-1.88-2.2-5.62-2.54-8.3-2.07h-.06a1.35 1.35 0 0 0-1.6.67c-1.86 3.27-4.18 6.3-6.12 9.56-.83 1.4-1.5 2.94-2.4 4.3-.64.95-1.44 1.37-1.72 2.53-.75 3.12 2.2 5 4.73 5.84 3.2 1 8.32 2.67 11.7 2.24 2.28-.3 3.33-2.24 4.5-4.07 1.6-2.44 4-5.73 3.82-8.78z" fill="#fff"/><path d="M314 366.6c-5.85 1.45-4.75 10.27-5.8 14.9-.95 4.23-2 11.57 2.13 14.3a1.46 1.46 0 0 0 1.52 0l.24-.16c1.6-1.08.1-3.68-1.5-2.6.8-.54.13-4 0-5a20.31 20.31 0 0 1 .74-6.68c.56-2.54.3-11.12 3.44-11.9 1.9-.45 1.1-3.32-.76-2.85z" fill="#444"/><path d="M400.48 312.7c-1.42-1.7-7.12-.58-8.56.77-1.82 1.7-2.47 4.73-3.2 7-1.5 4.68-.1 5 1.13 9.72.52 2 2.07 9.4 5.6 6.14 1.82-1.68 1.47-5.58 1.92-7.75.92-4.46 2.37-8.76 3.38-13.2a1.44 1.44 0 0 0 0-.88 1.65 1.65 0 0 0-.29-1.8zm1.38 56.63l-.32.6a1.44 1.44 0 0 0-1.54-.06 14.68 14.68 0 0 0-4.49 3.59c-.77-2-2.22-3.33-3.56-5.14-1.14-1.54-3.74 0-2.6 1.5 1.75 2.36 3.48 3.66 3.68 6.86a29.63 29.63 0 0 1-.49 8 1.16 1.16 0 0 0 0 .37l-1 1.84c-.77 1.45 1.16 3.12 2.35 1.82 2.22-2.42 3.5-5.54 5.06-8.38 1.76-3.2 3.85-6.23 5.5-9.48.86-1.72-1.72-3.24-2.6-1.52z" fill="#fff"/><path d="M387 327.06c-12.92-3.33-26.38-4.3-39.68-4.4a1.5 1.5 0 0 0 0 3c13 .1 26.23 1 38.88 4.28 1.8.48 2.64-2.4.8-2.9zm1.52 9.1c-6-2.87-12.9-3.46-19.38-4.46a216.82 216.82 0 0 0-21.85-2.39c-1.93-.1-1.93 2.9 0 3a206.74 206.74 0 0 1 21 2.29c6.08.93 12.85 1.42 18.5 4.07a1.42 1.42 0 0 0 .76.27h.18a1.51 1.51 0 0 0 .8-2.78zm-4.07 7.33c-6.07-2.82-13.38-3.63-19.93-4.53a146.36 146.36 0 0 0-20-1.74 1.5 1.5 0 0 0 0 3 142.55 142.55 0 0 1 19.24 1.63c6.06.83 13 1.52 18.72 4a1.3 1.3 0 0 0 1.47.41l.18-.06c1.1-.32 1.56-2.14.32-2.7zm2.8 10.65c-1.37-3.3-4.12-3.27-7.32-4.14-4.95-1.35-9.86-2.4-14.9-3.44-5.6-1.15-20-5-23.12 1.86-.8 1.75 1.8 3.27 2.6 1.52 2.3-5.1 17.58-.86 21.45-.13l7.9 1.58c2 .48 9.76 1.73 10.52 3.54s3.64 1 2.9-.8zm-6.25 3.5c-3.93-.4-8.07-2.35-12-3.06a77.36 77.36 0 0 0-15.34-1.56 1.5 1.5 0 0 0 0 3 78.52 78.52 0 0 1 16.8 1.83c3.53.7 7 2.4 10.5 2.76 1.92.23 1.9-2.77.04-2.97z" fill="#999"/><path d="M509.72 326.28a1.55 1.55 0 0 0 .1-2.2 1.45 1.45 0 0 0-.95-.8 34.9 34.9 0 0 0-13.51.21h-.13a33.1 33.1 0 0 0-5.17.56c-4.67-.2-10.75 2.2-14 3.58a98.65 98.65 0 0 0-20.29 11.16 109.26 109.26 0 0 0-15.37 12.86 72.35 72.35 0 0 0-8.48 11.22 20 20 0 0 0-2 2.88l-1.53 2.9-1 1.68a1.41 1.41 0 0 0-.19 1 30.75 30.75 0 0 0-1.87 6.5c-.3 1.8-.68 4.44 1.5 5.18 2.88 1 5.27-3.77 6.56-5.45 4-5.25 8.84-9.2 13.9-13.4 3-2.48 6.25-4.53 9.4-6.8 2.5-1.8 5.13-4.24 8.1-5.24a1.41 1.41 0 0 0 .84-.69A105.67 105.67 0 0 1 489.2 342c4.4-1.1 9.6-1.5 13.87-3.33A19.85 19.85 0 0 0 507 338a3.52 3.52 0 0 0 2.87-3.47 39.59 39.59 0 0 0-.09-4.49c-.1-1.3-.02-2.5-.06-3.76z" fill="#bbb"/><path d="M368 374.13c-1.5-1.2-3.63.9-2.12 2.12 2.66 2.13 4.48 3.95 3.94 7.67-.78 5.32-5.16 7.2-9.63 8.9l-10.12 3.7c-2.32.78-4.87.4-7 1.22-1.78.7-1 3.6.8 2.9 1.14-.44 2.88 0 4.07-.24a56.55 56.55 0 0 0 7.32-2.43c4.45-1.67 10.4-3.16 14-6.42a12.32 12.32 0 0 0 3.72-9.16c.02-4.15-1.9-5.77-4.98-8.23zm-5.13 3.1c-1.13-1.54-3.74-.05-2.6 1.5a5.17 5.17 0 0 1 .28 3.21c-.66 2.1-2.3 3-4.16 3.7-1.68.66-5.62 2.86-7.37 2.43-3.14-.78-2.4-7.6-.1-9 1.8-1.08 4 0 5.75-1.1s.13-3.6-1.52-2.6c-.63.4-1.77 0-2.5.1a11.53 11.53 0 0 0-3.33 1 4.52 4.52 0 0 0-2.8 3.39c-.9 3.13-1.37 10.48 3.06 11.28 1.83.34 4.4-.7 6-1.3a52.32 52.32 0 0 0 7-2.89c2.94-1.52 4.28-6.96 2.27-9.72zm-29.6 22.46c-7.84.83-18.3.34-25.27-3.37-1.7-.9-3.22 1.68-1.5 2.6a26.26 26.26 0 0 0 12.18 3.3c4.8.26 9.8 1 14.6.48 1.9-.2 1.92-3.2 0-3zm89.94-83.87c-1.9-.28-2.7 2.6-.8 2.9 2.26.34.4 2.8-.13 4.14l-2 5.57-2.23 7c-.73 1.8-1.18 2-2.67 1.84a1.6 1.6 0 0 0-2.45 1.6v.2a1.54 1.54 0 0 0 1.45 1.11c2.34.2 4.36.78 5.7-1.52 1.88-3.22 2.46-7.73 3.7-11.24 1.35-3.7 5.8-10.64-.58-11.6z" fill="#999"/><path d="M271.77 373.47a6.55 6.55 0 0 0-.65-1.16c-1.27-2-2.88-3.33-4-5.53-3.58-7.17-5.73-15-8.78-22.36-1.3-3.17-2.15-6.45-3.3-9.66s-2.9-6.07-4-9.25c-1-2.8-2.1-6.34-4.2-8.83a3 3 0 0 0-.2-.62 5.79 5.79 0 0 0-.36-.64 1.31 1.31 0 0 0-.28-2.24c-1.8-.8-3.9-.45-5.84-.4a1.55 1.55 0 0 0-1.14 2.51 1.46 1.46 0 0 0 .32.75c4.15 5.32 6.55 12.26 9.2 18.38q2.16 5 4.4 9.92a117.93 117.93 0 0 0 7.05 17.23c1.84 3.48 3.53 7.53 6 10.8 1.2 2.17 2.65 4 5.5 4.06 1.87.06 1.95-2.66.28-2.96zm46.87-58.82a5 5 0 0 0 0-2.78 1.5 1.5 0 0 0-1.05-1.05l-.74-.1a1.59 1.59 0 0 0-1.69.69c-2.56 3.4-4 7.67-5.78 11.5s-3.73 7.8-5.38 11.8c-.74 1.8-1.53 3.56-2.35 5.33a39.67 39.67 0 0 0-2.68 4.11c-2.13 3.92-3.95 8-6.1 11.94-2.9 5.38-5.52 11-8.2 16.5-2.38 4.3-4.73 8.62-6.75 13.1l-5.4 12.07c-.67 1.54-1.4 2.82-.2 4.2a1.53 1.53 0 0 0 1.82.24 7.43 7.43 0 0 0 2.77-3.37 12.77 12.77 0 0 0 1.42-2.32 121.53 121.53 0 0 0 4.66-11.37c3.8-9.5 9-18.7 14-27.65 4.77-8.5 8.94-17.35 13.2-26.12 2-4.08 4.33-8 6.36-12a34.42 34.42 0 0 0 1.76-3.69 1.43 1.43 0 0 0 .31-1.05zm-150.4 72.7a1.23 1.23 0 0 0-1.37-.91 5 5 0 0 0-.56.09 7.85 7.85 0 0 0-4.06 2.69c-1.24 1.36-2.88 3.18-3.4 5a1.59 1.59 0 0 0-.06.36 4.82 4.82 0 0 0-.51 2c-.05 1.74 2.44 2 2.94.4a9.24 9.24 0 0 1 1.53-2.79 21.77 21.77 0 0 0 1.81-1.21 16.25 16.25 0 0 0 1.58-1.14c.54-.48.9-1.2 1.42-1.7l.5-.35a1.56 1.56 0 0 0 .17-2.45zm-4.7 14.13a1.82 1.82 0 0 0-.3-.21 1.75 1.75 0 0 0-2.57 1 1.14 1.14 0 0 0 0 .66 1.18 1.18 0 0 0 0 .72s0 .07.05.1a2.34 2.34 0 0 0 .59 1.08 2 2 0 0 0 2.16.51 1.82 1.82 0 0 0 1.18-.54c1.17-1.24.22-2.8-1.1-3.33z" fill="#bbb"/><path d="M223.85 317c.12 4.07-3.75 8.52-5.88 11.8-1.44 2.22-2.72 4.54-4.25 6.72s-2.5 4.8-4.23 6.68c-1.3 1.42.8 3.55 2.12 2.12 1.68-1.83 2.5-4.13 3.87-6.18l5.66-8.62c2.36-3.72 5.84-7.95 5.7-12.53-.06-1.9-3.06-1.9-3 0zm-18.93 34l-4.08 6.12a26.9 26.9 0 0 0-1.46 2.34c-.28.52-.8 2.2-1.32 2.48-1.72.9-.2 3.48 1.5 2.6s2.15-3.24 3.1-4.75l4.85-7.26c1.1-1.63-1.5-3.13-2.6-1.52z" fill="#fff"/><path d="M469.9 302.34c-1-2.64-.5-6.3-.68-9.06l-.45-7c-.13-2.68.27-5.3.12-8-.17-2.92-.86-6.08-.73-9 .1-1.93-2.9-1.92-3 0a68.49 68.49 0 0 0 .62 8.46c.2 2.8-.2 5.48-.06 8.27.24 5.17-.48 12.23 1.28 17.1.66 1.84 3.56 1.06 2.9-.76z" fill="#bbb"/><path d="M424 236.8a4.93 4.93 0 0 0-5.51-1.92c-5.76 1.5-12-.64-17.88.5-3 .58-3.8 3.18-3.14 5.93a3.46 3.46 0 0 0 .63 2 4 4 0 0 0 .93 1 3.1 3.1 0 0 0 1.15.69 3.23 3.23 0 0 0 .61.1h.32a1.68 1.68 0 0 0 .38.19c3.44 1.1 7.48 1.2 11.08 1.36 2.58.1 5.46.57 8.13.32a1.48 1.48 0 0 0 1.85.36c3.6-2.06 4.9-8.22 1.45-10.53zm-3.7 4.36a8.28 8.28 0 0 1 .25 1.49c-.52-.07-1.05-.08-1.57-.13-1.32-.13-2.63-.24-4-.33-3-.22-6.1-.23-9.14-.45a3 3 0 0 0-.09-2v-.08c4-.26 11.83 1.14 14.54 1.5z" fill="#444"/><path d="M125.54 468.7zM421 360.1c-.28-2.22-1.9-3.85-3.1-5.64-1.42-2.1-2.34-4.56-3.85-6.62-3-4-4.72-7.26-10-8s-10.83-.7-16.2-1.07a1.42 1.42 0 0 0-1.24 2.22c0 .62-.55 1.24-.76 1.8a14.76 14.76 0 0 1-.43 1.44 7.5 7.5 0 0 0-.78 3.79 1.49 1.49 0 0 0 0 .42v.07a1.18 1.18 0 0 0 .12.33 1.43 1.43 0 0 0 .87.73c3 1 6.6.3 9.73.8 2.46.4 4.85 1 7.3 1.36a12.57 12.57 0 0 0 .7 2c.55 1.12 1.45 2 2 3.12.73 1.4 1.45 2.9 2.32 4.27-3.7 8.3-8.38 16.37-12.6 24.47-2.48 4.76-5.12 9.55-8.05 14q-2.38 3.7-4.87 7.3c-1.33 1.92-2.43 4.54-4 6.23a1.54 1.54 0 0 0-.39.73c-2-.4-4.34.38-6.34.68a80.32 80.32 0 0 1-13.24.66l-24.53-.33-24.3-.8c-4.15-.06-8.3.26-12.47.2-1.35 0-10.2-.74-9.95.2a1.55 1.55 0 0 0-2.07-.86c-5.2-1.54-11-4.06-14.28-8.07-1.64-2-2.9-4.1-4.3-6.13a49 49 0 0 1-13 4 2 2 0 0 1-1.2-.17l-5 1.76c-2.76 1-5.54 1.87-8.35 2.72a42 42 0 0 0-4 1.4l.3.13-2.57.78c-1.9.64-3.9 1-5.8 1.6-3.75 1.14-7.36 2.67-11 4.1-1.94.76-3.93 1.38-5.87 2.17s-3.64 1.65-5.53 2.32a21.34 21.34 0 0 0-4.85 2.3 12.34 12.34 0 0 0-3 3.41c-1.87 2.74-4.44 5.7-7.77 6.6-.9.25-1.85.3-2.77.54l-2.78.78a57.1 57.1 0 0 0-5.66 1.92c-3.8 1.56-7.68 3-11.52 4.43s-7.46 3.32-11.3 4.7c-4.25 1.52-8.43 3.32-12.73 4.7-2.13.68-4.25 1.3-6.34 2.1a45.23 45.23 0 0 0-5.81 2.11 1.4 1.4 0 0 0-.54.51 1.74 1.74 0 0 0-.34.37 7.61 7.61 0 0 0-1.39 3.69 16.52 16.52 0 0 0 .55 4.3 9.87 9.87 0 0 0 1.14 2.93l-.46.12a4.52 4.52 0 0 0-1.69 1 4.92 4.92 0 0 0-1.11 1.54c.14-.27-.26.3-.3.38a1.73 1.73 0 0 0-.29 1 2.16 2.16 0 0 0 .78 1.67c.45.4.76.87 1.2 1.3s.95.72 1.4 1.12a6.27 6.27 0 0 0 1.39 1.12 3.19 3.19 0 0 0 3.36-.93 1.29 1.29 0 0 0 .48-.95c.12-.07.24-.16.37-.23l.58-.3.58.37a4.42 4.42 0 0 1 .52.54l.67.93a5.16 5.16 0 0 0 .59.8 3.75 3.75 0 0 0 .51.38 3.16 3.16 0 0 0 .28.39 1.79 1.79 0 0 0 .7.48 2.5 2.5 0 0 0 .26.07 1.38 1.38 0 0 0 1.94-.09 5.15 5.15 0 0 1 1.34-.62c.63-.3 1.3-.52 1.94-.8a37.43 37.43 0 0 0 3.63-1.7l7.4-3.93c4.83-2.4 9.37-5.32 14.3-7.52a1.19 1.19 0 0 0 .7-.73c2.26-1.05 4.53-2.08 6.83-3 3-1.2 5.82-2.8 8.73-4.16l8.53-3.92a18.24 18.24 0 0 0 1.77-.57 16.67 16.67 0 0 0 4.18-2.34 21.56 21.56 0 0 1 1.36-1l5.26-1.93 20-7.54 3.5-1.06c8.53-2.56 17-5.48 25.46-8.14l3.54-1.08c1.18-.34 2.12-.44 3.14-.8a3.52 3.52 0 0 0 2.13-2.37 4.32 4.32 0 0 0 .76-.53 1.4 1.4 0 0 0 .42-.62c3.35 1 6.7 1.8 10 3a51.16 51.16 0 0 0 17.42 3.46 1.34 1.34 0 0 0 .82-.21c12.72.8 25.36 1.74 38.15 1.75 6.85 0 13.85.23 20.7.6 6.42.35 12.8-.1 19.2-.1h2.26a1.31 1.31 0 0 0 1.33-.86c4.77-1.4 9.6-3.4 12.35-7.7s5.18-8.5 7.76-12.7c6.92-11.27 13.33-22.8 19.43-34.56 2.12-4.06 6.4-9.5 5.78-14.5z" fill="#ddd"/><path d="M207.1 406.45l-.22-.06a1.51 1.51 0 0 0-1.87 1.71c-4.35 11.6-13.37 21.4-26.06 23.68-7.7 1.38-15.84-.22-21.53-5.8-4.1-4-7.92-11.83-7.88-17.64a1.5 1.5 0 0 0-3 0c0 6.36 3.44 14.3 7.9 18.82 6.2 6.3 13.77 8.58 22.55 7.9 15.18-1.16 26.3-13.24 31.15-26.77a1.52 1.52 0 0 0-1.03-1.85z" fill="#bbb"/><path d="M390.74 379.94a12.36 12.36 0 0 0-.9-2.65 3.56 3.56 0 0 0-2.14-1.72 8.4 8.4 0 0 0-2.4.16A1.55 1.55 0 0 0 384 378a7.15 7.15 0 0 0 1.48 3.55l.4 1.1a2.5 2.5 0 0 0 2.19 1.93 1.23 1.23 0 0 0 1.43-1.32l.12-.07a2 2 0 0 0 1.2-1 2.79 2.79 0 0 0-.08-2.24z" fill="#999"/><path d="M224.2 327.14l-.1-.16a1.51 1.51 0 0 0-1-.63c-4.5-1.65-6.45-8.5-6.43-12.64a1.5 1.5 0 0 0-3 0c0 5.76 2.75 13.7 8.87 15.63 1.16.37 2.47-1.13 1.67-2.2zm-5.74 5.73c-2 0-3.85-4.32-4.8-5.8-.48-.74-2.83-4.93-2.08-6 1.12-1.58-1.48-3.08-2.6-1.52-1.57 2.22.6 6.64 1.8 8.63 1.7 2.84 3.84 7.7 7.67 7.66a1.5 1.5 0 0 0 0-2.98zm-4.86 7.38c-.18.25-4.44-6.08-4.76-6.8a13.68 13.68 0 0 1-1.07-3.47c-.1-.6.18-2.12-.64-1.82 1.8-.66 1-3.56-.8-2.9-3.62 1.33-.9 8.18.2 10.35 1.3 2.56 6.4 10.72 9.64 6.14 1.12-1.58-1.48-3.08-2.6-1.5zm-3.78 6.1c0-.7-1.78-1.35-2.35-1.94a11.13 11.13 0 0 1-2-3.3 13.68 13.68 0 0 1-1.12-7.62c.27-1.9-2.62-2.7-2.9-.8-.7 4.8.5 10.7 4.22 14.13 1.32 1.2 2.76 2.17 4.6 2 1.42-.14 2.6-.92 2.54-2.46-.07-1.93-3.07-1.94-3-.01zm-2.32 5.08c-.75.57-2.2-.25-2.84-.68a7.83 7.83 0 0 1-2.61-3.41c-1.35-2.7-2.34-4.5-2-7.62.22-1.92-2.78-1.9-3 0a12.41 12.41 0 0 0 .58 5.8 23.91 23.91 0 0 0 3.12 5.64c1.6 2 5.64 4.84 8.25 2.86 1.54-1.14 0-3.75-1.5-2.6zm-3.07 6.18c-2.75-.1-4.46-2.1-5.8-4.33-1.08-1.78-3-4.83-1.83-6.94.93-1.7-1.66-3.2-2.6-1.5-1.8 3.25.1 7.08 1.83 10 2 3.27 4.47 5.66 8.4 5.82 1.93.03 1.93-2.97 0-3.04zm-3.27 5.32a1.39 1.39 0 0 0-2.38-.55c-1.38 1.6-4.55-3-5.16-3.9-1.6-2.3-1.48-4.76-1-7.4.34-1.9-2.55-2.7-2.9-.8a17.08 17.08 0 0 0-.28 4.18 1.38 1.38 0 0 0-.76.65 23.46 23.46 0 0 0-2.09 5 25 25 0 0 1-2.85 5.15c-2.16 3.5-4.6 6.87-6.58 10.48s-3.7 7.1-5.92 10.43c-1.07 1.62-1.82 3.44-2.87 5.07a24.77 24.77 0 0 0-2.67 5.32c-1.12 3.3-1.27 7.4 1.92 9.6a8.09 8.09 0 0 0 5.23 1.11 9.36 9.36 0 0 0 5-2.2c5.9-4.54 8-12.3 12.33-18.07a90.44 90.44 0 0 0 6.81-11.45c1.88-3.45 3.34-7.1 5.46-10.42a1.45 1.45 0 0 0-1.3-2.21zm-10.8 18.34c-1 1.47-1.88 3-3 4.43a45 45 0 0 0-2.9 4.68c-1.7 3-3.24 6.06-5.22 8.84-1.8 2.5-4.45 5.3-7.77 5.1-4.15-.24-4-4.33-2.78-7.37a32.49 32.49 0 0 1 2.56-4.71c1-1.6 1.7-3.33 2.76-4.88a102.31 102.31 0 0 0 5.35-9.47c2-3.7 4.47-7.13 6.67-10.7a47 47 0 0 0 3.08-5.38 24.65 24.65 0 0 0 .78-2.53 9.53 9.53 0 0 1 .38-.93 16.73 16.73 0 0 0 2.34 3.86c1.3 1.64 3.8 3.62 6 3.46-2.86 5.1-4.98 10.66-8.25 15.6z" fill="#444"/><path d="M508.26 336.2l-.6.08a1.44 1.44 0 0 0-.93-.34 29.42 29.42 0 0 0-7.08.34c-2.2.52-4.47.75-6.7 1.1a21.09 21.09 0 0 1-3.37.09 30.94 30.94 0 0 0-3.73.33 6.78 6.78 0 0 1-3.29 0l-.65-.3-1.4-2.84c-.82-1.56-1.16-3.55-2.45-4.84s-3-.82-4.4-.17l-5.35 2.77a73.08 73.08 0 0 0-10.05 6.15 1.65 1.65 0 0 0-1.93 1.06 1.28 1.28 0 0 0-.39 1.89 1.42 1.42 0 0 0 .1.47 22.94 22.94 0 0 1 .89 2.57 7.41 7.41 0 0 1 .54 3 5.56 5.56 0 0 1-1 2.22l-1.7 2.7c-2.43 3.25-5.74 5.75-8.83 8.33-3.3 2.75-6.53 5.55-9.6 8.54-1.56 1.52-3.07 3.07-4.58 4.63a27.38 27.38 0 0 0-3.73 4.25c-.72 1.13-1.56 3-.22 4s2.6-.2 3.33-1.18 1.28-2.14 2.08-3.1c1.2-1.47 2.68-2.7 4-4.1a40.14 40.14 0 0 1 4.19-4.16c1.7-1.37 3.28-2.86 4.93-4.27a385.46 385.46 0 0 1 9.92-8.12c1-.76 1.92-1.5 2.92-2.2a1.42 1.42 0 0 0 .75-.43.48.48 0 0 1 .09-.11 17.9 17.9 0 0 1 1.92-1.08c1.7-.82 3-1.93 2.64-4a14.22 14.22 0 0 0-2.19-4.74c-.6-1-1.36-1.88-1.93-2.9-.17-.3-.32-.6-.48-.9a65.66 65.66 0 0 1 8.65-5.35c1.75-.93 3.44-1.94 5.24-2.74.4-.2 1.56-1 2.07-.88a7.19 7.19 0 0 1 .89 1.74c.3.75.65 1.47 1 2.18a1.31 1.31 0 0 0-.24 1.77 7.24 7.24 0 0 0 2.24 2.12 8.07 8.07 0 0 0 1.45 1.83 3.06 3.06 0 0 0 .1 1.2c.5 1.67 2.36 1.72 3.77 1.35s2.84-.84 4.28-1.22l4.65-1.27a1.52 1.52 0 0 0 .79-.56 23.7 23.7 0 0 1 3-.72l3.65-.46c1.2-.16 2.5-.27 3.75-.4 1-.1 2-.26 2.94-.36 1.94-.15 1.96-3.15.04-2.96zm-116.54 80.53a1.53 1.53 0 0 0-2.13 0 4.33 4.33 0 0 1-.62.59l-2 1.37a7.14 7.14 0 0 0-1.26 1l-.86 1a1.58 1.58 0 0 0-.41 1.3l-.64.6-.93 1.1-.47.55-.3.3-.05.06-.35.2a8.74 8.74 0 0 0-.78.51l-.74.58-.05.05c-3.7 0-17.23.58-18.62.57-9.14 0-18.4-1.15-27.52-.52-7.57.53-15.1-.85-22.62-.5a119.05 119.05 0 0 1-17.79-.57L275.35 419l-1.2-.36a1.65 1.65 0 0 0 0-.31 1.53 1.53 0 0 0-1.5-1.5c-1.5-.13-3-.3-4.5-.56a20 20 0 0 0-4.36-.63 2.34 2.34 0 0 0-2 1 7.83 7.83 0 0 0-.52 1.5 2.17 2.17 0 0 0-.07.24c-.32.63-.4 1.3-.7 2l-.37.6a6.2 6.2 0 0 1-2.47 1.86 29 29 0 0 0-3.19 1.51 21.89 21.89 0 0 1-3.88 1.85l-3.87 1.34a14.86 14.86 0 0 1-4 1.11c-1.45.08-2.86-.34-4.3-.14a6.24 6.24 0 0 0-1.54.4c-.73.3-1.33.9-2.06 1.16a17.81 17.81 0 0 1-2 .34c-.68.14-1.35.32-2 .52-1.56.46-3.1 1-4.6 1.6-2.9 1.06-5.76 2.15-8.6 3.34l-8.73 3.75c-2.87 1.22-5.66 2.67-8.6 3.68-1.37.47-2 1.52-3.06 2.42a12.47 12.47 0 0 1-2.11 1.4A1.3 1.3 0 0 0 194 447l-12.4 4a12.81 12.81 0 0 0-2.82 1.07c-.9.5-1.7 1.2-2.6 1.77a61 61 0 0 1-5.61 3.07c-3.88 1.92-7.86 3.66-11.77 5.5s-7.6 3.75-11.4 5.6c-1 .48-1.9 1.1-2.9 1.57A11.11 11.11 0 0 0 142 471c-.8.68-1.34 1.5-2.42 1.7h-.24a1.74 1.74 0 0 0-.69-.44c-.44-.17-.9-.3-1.35-.45l-.7-.22-.37-.13h-.1c-.44-.2-.84-.46-1.28-.64l-.13-.05-.16-.1a1.8 1.8 0 0 0-.2-.19 2.85 2.85 0 0 0-3.4 0c-.37.2-.7.46-1.06.7a5.19 5.19 0 0 0-1.18.9 1.5 1.5 0 0 0 2.12 2.12l.17-.18.44-.28c.32-.2.6-.43.94-.6l.2-.1a3 3 0 0 0 .59.41c.22.1.46.2.7.3a1.83 1.83 0 0 0 .24.13 9.58 9.58 0 0 0 1.26.58l.2.07a.19.19 0 0 0 0 .07c.6 1.4 2.3 1.37 3.6 1.26a6.38 6.38 0 0 0 2.68-.66 15.23 15.23 0 0 0 2.11-1.82 13.17 13.17 0 0 1 2.54-1.43l2.78-1.5 6-3 12.84-6.12q2.34-1 4.64-2.2a1.52 1.52 0 0 0 .73 0 61 61 0 0 0 8.51-3.37c1.86-.8 3.76-1.56 5.66-2.27 1.25.4 2.6-.2 3.74-.75 1.78-.84 3.54-1.7 5.24-2.68 1.95-1.12 3.82-2.4 5.8-3.45a46.51 46.51 0 0 1 5.7-2.36c4.33-1.62 8.72-3 13.1-4.48a63.68 63.68 0 0 0 6.11-2.36c2.1-.93 4.3-1.67 6.34-2.75a1.31 1.31 0 0 0 .73-1.39 11.11 11.11 0 0 0 1.29-.34c1.24-.4 2.05-1.4 3.42-1.46s2.87.33 4.34.14c2.62-.35 5.16-1.6 7.65-2.4a32.25 32.25 0 0 0 4.07-1.83c.54-.27 1-.6 1.54-.9a1.27 1.27 0 0 0 1.6.63l3.08-1.24a7.12 7.12 0 0 0 2.48-1.27 3.89 3.89 0 0 0 1-2.51c.07-.64.16-1.26.24-1.9a3.31 3.31 0 0 0 .42.12 13 13 0 0 1-.32 1.53q2.44.87 4.85 1.84a1.45 1.45 0 0 0 .62.12l1.9.76a49.05 49.05 0 0 0 12.81 3.26 1.15 1.15 0 0 0 1 .71 123.07 123.07 0 0 0 6.6.7 1.36 1.36 0 0 0 1.21.64l47.52.52c1.92 0 3.83 0 5.74.1l10.16.74a81 81 0 0 0 9.5.27 62.35 62.35 0 0 0 9.48-.5l.72-.1a1.35 1.35 0 0 0 1.2.18l.2-.07v.5l1.3-1.83c.33-.2.65-.42 1-.65a17.54 17.54 0 0 0 1.38-1.05l.07-.07h.07l.35-.22c.2-.12.43-.23.63-.37a13.08 13.08 0 0 0 2.33-2.43c.34-.37.73-.67 1.07-1a4.3 4.3 0 0 0 .59-.76 3.61 3.61 0 0 0 .26-.61v-.12a1.46 1.46 0 0 0 .18-.58l.14-.14.8-.52.92-.62a8.94 8.94 0 0 0 1.86-1.5 1.6 1.6 0 0 0 .43-1.06 1.53 1.53 0 0 0-.42-1.18zm38-109.03a2 2 0 0 0-1.52-.18l-.47.1-7.57 1.76c.8-.22.8-1.5.16-2a3.49 3.49 0 0 0-2.41-.48l-91.52 4.2a2.87 2.87 0 0 0-2.37.88c-1.94 2.95 4.55 3.12 5.9 3.13l16.14.13q16.14 0 32.28-.32c2.4-.05 5.58.94 6.88 3.15 1.56 2.67.06 6.4.42 9.3.5 3.93 1 7.87 1.16 11.83a39.89 39.89 0 0 1-.65 8.57h-.6c-1.9-.12-1.9 2.75-.1 3a22.69 22.69 0 0 1-3.92 7.75 1.74 1.74 0 0 0-.79 0l-1.57.3c-.07 0-.6.08-.2.05l-.65.08h-.16l-.43.05a8.62 8.62 0 0 1-1.52.09 5 5 0 0 0-1 .06 46.82 46.82 0 0 0-15.71-2.89c-1.82-.05-19.1.33-15.56 4.38 1 1.17 4.08-.63 5.65-.38a40.59 40.59 0 0 1 6.39 1.76 93.43 93.43 0 0 1 9.82 3.79c4.8 2.24 9.2 5.1 11.93 9.88 3.14 5.52 3.44 12.2-.86 17.2a42.64 42.64 0 0 1-3.59 3.77c-3.3 3-7.48 4.17-11.53 5.78-4.73 1.88-8.66 3.43-13.78 3.95-8.74.87-18 1.87-26.7.67a42.2 42.2 0 0 1-11.75-3c-2.1-.9-4.4-1.7-6.08-3.24a22.45 22.45 0 0 1-5-6.82c-.84-1.8-1.17-6.84-2.9-7.77a1.5 1.5 0 0 0-2.05 1.38 62.12 62.12 0 0 0 .9 11c.22 1.34 2.63 9 1.8 9.88a1.48 1.48 0 0 0-.35.67 3.68 3.68 0 0 1-1.5 2.47 8.75 8.75 0 0 0-2.69-.71 31.21 31.21 0 0 1-7.32-1.79c-2.48-1.08-3.66-3.1-5.86-4.42a3.65 3.65 0 0 0-3.71-.22c-.56.34-1.06.9-1.72.92-.94 0-1.54-1.1-2.47-1.25l-.06-.05-.3-.27c-.52-.47-.9-.7-1.4-1.2a8.1 8.1 0 0 0-.85-.8l-.5-.3c.18.13-.12-.12-.16-.16s-.2-.22-.3-.32a10.44 10.44 0 0 0-.83-.66 2.82 2.82 0 0 1-.79-.88 7.1 7.1 0 0 0-.55-.78 3 3 0 0 1-2.29 2.14 15.27 15.27 0 0 0 1 1.32c1.45 1.88 3 3.7 5.3 4.5a1.07 1.07 0 0 0 .3.06l.1.06a3 3 0 0 0 1.29 1.19c1.38.68 3 .5 4.26 1.54 9 7.35 21.2 5.13 31.84 5.85 11.7.8 23.4 1.32 35.12 1.46 7.95.1 15.92.2 23.85-.5 4.44-.38 9.5-.2 13.6-2.43 4.9-2.7 7.2-9.8 10.15-14.3 5-7.6 9.75-15.33 14.16-23.33 3.4-6.16 8.2-12.47 4.48-19.42a14.93 14.93 0 0 0-4.35-5.36c-2.47-1.67-4.93-1.13-7.73-1.08a9.45 9.45 0 0 1-1.41-.08 1.37 1.37 0 0 1-1.19.15 4.61 4.61 0 0 1-.59-.31 1.64 1.64 0 0 1-1.63.48 4.23 4.23 0 0 1-1.17-.68c-3.73-3.14-.37-11.77 4.75-10.06a1.46 1.46 0 0 1 .31.14 1.58 1.58 0 0 1 1.63.75 1.68 1.68 0 0 1 .3.15 3.86 3.86 0 0 0-.32-1.1c-.68-1.35-2.14-2.07-3.3-3-4.63-3.82-8.26-16.43-3.52-21.3 2.53-2.6 6.77-2.57 10.13-2.56a247.64 247.64 0 0 0 26.95-1.47 5.05 5.05 0 0 0 2.88-.94 1.77 1.77 0 0 0 0-2.86zm-37.24 43.54c7 .88 14.67 3.26 13.88 11.5-.27 2.85-2.27 5.44-3.53 7.93a163.7 163.7 0 0 1-5.32 9.61c-2.7 4.53-5.13 9.15-8.07 13.5a2.41 2.41 0 0 0-1.71-1.08 1.6 1.6 0 0 0-1.77-.16 1.51 1.51 0 0 0-1.43 0 1.4 1.4 0 0 0-.42-.42 16.54 16.54 0 0 0 .76-3.21c.27-2.4-1-5-1.45-7.28-.64-3.26-2.1-5.47-3.5-8.35s2.4-6.1 4-8.44a158.31 158.31 0 0 0 8.56-13.61z" fill="#999"/><path d="M512.33 397.68c-2.55-4.6-5.63-9-8.26-13.6-7.5-13.13-14.26-26.76-21.3-40.14l-17.82-33.86-9.6-18.92c-1.6-3.1-3-6.4-4.64-9.45-1.17-2.13-3.53-3.86-4.54-6a1.27 1.27 0 0 0-.7-1.53c-4-2.07-8.54 1.62-11.4 4.05-1.28 1.1-3 2.9-2.76 4.78.14 1 1 1.75 1.42 2.66.2.47.4.9.6 1.3a1.47 1.47 0 0 0 .13 1c5.63 11.38 12.3 22.25 17.62 33.8 5.16 11.23 11.12 22.15 16.88 33.1l17.38 33.3 6.68 12.7c1.9 3.52 4.1 9.15 7.54 11.36a1.31 1.31 0 0 0 1.24.14 1.37 1.37 0 0 0 .94 0 40.26 40.26 0 0 0 7.74-3.31 24.78 24.78 0 0 0 3.11-1.85 1.55 1.55 0 0 0 1.27-.63c2.5-3.36.1-5.9-1.56-8.9z" fill="#bbb"/><path d="M210.8 314.84c-.17.75-1.44 1.87-1.87 2.55l-2.42 4.23c-1.6 2.3-2.83 5-4.68 7.18-1.26 1.46.86 3.6 2.12 2.13 2.08-2.42 3.44-5.3 5.24-7.9 1-1.45 1.68-3.13 2.7-4.57.67-.94 1.53-1.67 1.8-2.83.43-1.88-2.47-2.64-2.9-.8z" fill="#444"/><path d="M504.3 423.92c-6.68.24-11.45-1.24-16.22-6.06a14.2 14.2 0 0 1-3.42-13.13c.4-1.88-2.48-2.68-2.9-.8-1.15 5.18-.3 11.24 3.4 15.3 5.33 5.84 11.34 8 19.13 7.68 1.93-.06 1.93-3.06 0-3z" fill="#bbb"/><path d="M439.15 219.85a9.62 9.62 0 0 0-3-3.94c-1.5-1.2-4.22-1.82-5.8-3.17v-3.23c.1-2 1.1-4.1-.7-5.66-1.08-.92-3.4-1.75-4.76-1-1.55.83-1.34 2.77-1.25 4.26a1.4 1.4 0 0 0 .14.56l-.07 1.73a18.11 18.11 0 0 0-.44 7.2c-.2 1.68-.34 3.42.3 4.65a3.33 3.33 0 0 0 3.88 1.32c2-.5 2.43-2.23 2.72-4l.14-1.12c2.38 1.18 5.47 2.23 5.93 4.7.26 1.42-.1 2.94.08 4.4a15.33 15.33 0 0 1 0 2.86 8.93 8.93 0 0 0-.15 1.47 1.1 1.1 0 0 0 0 .25v.16a1.31 1.31 0 0 0 .26.93 1.23 1.23 0 0 1 0 .69c-.77 1.75 1.82 3.28 2.6 1.5 1-2.24.58-5.2.78-7.67a16.52 16.52 0 0 0-.68-6.9z" fill="#444"/><path d="M201.74 284.2c-5.1 1.14-9 4-13.23 6.74a50.26 50.26 0 0 0-11.16 10.48c-1.2 1.5.92 3.64 2.12 2.12a54.93 54.93 0 0 1 9.88-9.45c4-2.94 8.32-5.9 13.18-7 1.9-.42 1.1-3.3-.8-2.9z" fill="#fff"/><path d="M125.77 336.23c-2.87-.78-3.8.62-4.13 2.55-.88 1.46-.5 4-.23 6l.13 4.28a4 4 0 0 0 1.42 3 1.52 1.52 0 0 0 1.37 1.15c3.4.3 3.28-5.3 3.5-7.5.24-2.48 1.4-8.54-2.05-9.48z" fill="#fb0"/><g fill="#444"><path d="M133.27 337.22a1.29 1.29 0 0 0-1.18-1.07 1.55 1.55 0 0 0-2.74-.18 1.35 1.35 0 0 0-.2 1.71 1 1 0 0 1 .11.24 46.61 46.61 0 0 1-.14 9.81c-.25 1.5-1 3.78 1.27 4.08 5.04.66 3.46-12.1 2.88-14.6zM432.8 271.4v-.08c0-.03-.1-.3-.16-.44l-.33-.8c1.48-.52 1.32-3.17-.42-2.94h-.13l-.27.05a8.94 8.94 0 0 0-1.73.77l-.17.08a2.07 2.07 0 0 1-.15-.25l-1.7-3.67c-.36-.87-1.14-2.2-.38-3s2-1.07 2.24-2.3-.6-2.4-1.13-3.4a35.14 35.14 0 0 1-1.3-3.32l-1.45-3.26-.94-1.7a6 6 0 0 1-.31-.84l-.1-.35a.14.14 0 0 0 0-.07c.73-1.5-1.67-2.8-2.7-1.3-.78 1.13-.1 2.8.47 3.9l1.12 2.05c.35.7.48 1.4.83 2.05.67 1.3 1 2.73 1.65 4l.73 1.5-.24.16a8.24 8.24 0 0 0-1.09.86c-2.3 2.3-.34 5.94.92 8.26.66 1.22.95 3 2.26 3.7a1.83 1.83 0 0 0 1.35.2v.1l.15.42a.19.19 0 0 1 0 .07l-1.4.9a9.78 9.78 0 0 0-1.49 1.31l-1.47 1.32-.73.64-.36.3c.18-.15-.18.13-.2.13-1 .65-2.1 1-2.25 2.36a1.5 1.5 0 0 0 1.5 1.5 1.47 1.47 0 0 0 1.12-.55l.18-.15.5-.3a10.84 10.84 0 0 0 1.61-1.17l1.62-1.44c.54-.44.9-.87 1.36-1.3l.14-.1.5-.3.83-.54c.6-.4 1.3-.72 1.6-1.43a1.88 1.88 0 0 0-.06-1.65s.02.01.01.01zm83.57 127.12a56 56 0 0 0-4-6.72l-4.32-6.6-3.8-6.57-3.58-6.88-3.68-6.67c-.56-.95-1.3-1.76-1.87-2.7l-1.7-3.12-3.63-6.6a56.73 56.73 0 0 0-3.53-6.56l-1.85-3-2.1-3.35c-2.28-4.36-4.9-8.5-7.1-12.92-1.08-2.2-2.4-4.27-3.4-6.5s-1.9-4.37-3-6.45c-.9-1.64-1.7-3.33-2.57-5 4.82.33 11.52-1 15-3.75 4.75-3.78 6.7-11.34 6.57-17.12a48.28 48.28 0 0 0-5-19.31l-.4-.83a1.8 1.8 0 0 0 .22-.44c.86-2.36 2.74-2.62 2.44-5.4-.46-4.15-3.2-7.15-5.75-10.2s-.07-1.65-.5-4.67c-.27-1.9-3.47-4.07-4.64-5.4-2-2.25-4.68-6.2-7.64-7.2-2.7-.88-6 1-8.3 2.26-6.4 3.36-13.08 9.3-16.6 15.66a1.41 1.41 0 0 0 .25 1.76 3.18 3.18 0 0 0 .89 2.74c1.22 1.4 2.83 2.43 4.13 3.76a45.47 45.47 0 0 0 3.68 3.11l.43.4-.5.3a8.62 8.62 0 0 0-2 1.52c-.17.2-.32.4-.47.6-.45-.27-1-.5-1.3-.64a13.19 13.19 0 0 0-2.44-1.28c-.4-.12-.85-.13-1.23-.28 0-.16-.08-.3-.13-.45-.3-.93-.58-1.86-.92-2.77-.7-1.85-1.2-3.73-1.74-5.63a20 20 0 0 0-1.75-3.79l-.23-.3c.44-.76 1.1-1.43 1.53-2.2a12.23 12.23 0 0 0 .95-2.64 8.41 8.41 0 0 0 0-4.05c.12 0 .26-.07.38-.12a2.46 2.46 0 0 0 1.66-1.52 6.9 6.9 0 0 0 .08-2c0-2.48-.32-6.83-3.52-7.17a19 19 0 0 1-2.12-.22 14 14 0 0 0-2.42-.35c-1.58 0-3.2.26-4.77.36s-3.16 1.08-2.86 2.88a3.47 3.47 0 0 1 .1.62 3.73 3.73 0 0 1-.21.7c0 .08 0 .17-.05.25l-.55.08c-.55.07-1.1 0-1.64.14a1.44 1.44 0 0 0-1 1v.14a1.53 1.53 0 0 0 1 1.84 1.66 1.66 0 0 0 1.15-.14h.45c.28 0 .57-.1.86-.14.57-.05 1.1 0 1.68-.08a1.5 1.5 0 0 0 1.05-1.84c-.14-.35 0-.6.1-.94a4.14 4.14 0 0 0 .16-1.48 9.69 9.69 0 0 0 1.16-.17 24.29 24.29 0 0 1 3.4-.24c1.07 0 2.1.4 3.18.5a9.11 9.11 0 0 1 1.08 0c.1.06.2.37.26.57a9.32 9.32 0 0 1 .54 2.76v1.66a5.82 5.82 0 0 1-.6.14 1.68 1.68 0 0 0-1.3.16h-1.35a1.5 1.5 0 0 0 0 3h1.15a7.1 7.1 0 0 1-.57 4.71c-.8 1.6-2.88 3.08-1.68 5a21.33 21.33 0 0 1 1.51 2.63 25 25 0 0 1 .8 2.72c.62 2.1 1.33 4.16 2 6.23a5.06 5.06 0 0 0 1.06 2.24c.73.68 1.68.66 2.56 1a13.19 13.19 0 0 1 2.62 1.45c.68.48 1.12 1.17 2.08 1.13a2.39 2.39 0 0 0 1.84-1.18 5.21 5.21 0 0 1 1.68-1.72c.6-.36 1.22-.7 1.8-1.08 1.42.46 3.17-.33 4.52-.63 2.9-.64 5.9-.2 8.82 0 1.26.1 2.53.08 3.8.08v.3h.45c.8 6.8-.07 13.6.24 20.45.3 6.36 1.13 12.66.57 19a23.75 23.75 0 0 1-5.29.45 1.71 1.71 0 0 0-2-.27l-.15-.07c-.28-.57-.54-1.15-.84-1.72-.58-1.14-1.28-2.22-1.85-3.37s-1.13-2.6-1.7-3.9-1.37-2.5-2-3.76c-1.24-2.38-2.34-4.83-3.57-7.2-.6-1.16-1.32-2.27-1.9-3.45s-1.2-2.67-1.86-4a19.94 19.94 0 0 0-1.58-3.05 7.93 7.93 0 0 0-1.17-1.35 13.62 13.62 0 0 1-1.3-1 1.33 1.33 0 0 0-1-.45 2.25 2.25 0 0 0-.52-.24 2.59 2.59 0 0 0-1.46 0c-.92.22-1.85.4-2.74.68a23.89 23.89 0 0 0-5.34 2.31c-2.27 1.43-6.15 4.3-5.5 7.33a1.52 1.52 0 0 0 .18.66c5.6 11.16 11.7 22.1 17 33.38 4.63 9.93 8.36 20.2 14.14 29.53 3.44 5.55 6 11.75 8.83 17.6l10.3 20.42c3.2 6.2 6.7 12.27 10.06 18.37 2.48 4.5 6.4 15 13 11 .93-.56 2-.9 2.92-1.36s1.9-1.07 2.87-1.53a19.2 19.2 0 0 0 5.25-3.57 7.8 7.8 0 0 0 1.65-8.27zM478.3 295.66c-.16 2.6-.13 5.25-.12 7.86a17.27 17.27 0 0 1-3.18 1.21c.44-6.12-.36-12.2-.64-18.3-.3-6.83.54-13.63-.24-20.4a8 8 0 0 1 3.33.89c1.8 6-.3 12.87.1 19 .2 3.3.95 6.5.75 9.76zm6.3-9.8c.6 4.52-.24 11.06-3.4 15.08 0-2 .1-4.07.2-6.1.16-3.5-1-6.87-1-10.38-.05-4 .74-8.2.75-12.28a55.74 55.74 0 0 1 3.44 13.69zm29.17 117.66a9.09 9.09 0 0 1-1.61 1.61 9.64 9.64 0 0 1-1.72 1.33c-.67.4-1.4.83-2.1 1.18-1.4.7-2.73 1.53-4.18 2.13a15.89 15.89 0 0 0-2.27 1.11c-2.62 1.6-5.25-4.37-6.2-5.9-1.74-2.83-3.17-5.82-4.84-8.68-3.6-6.2-7-12.56-10.23-19-5.9-11.56-11-23.7-17.63-34.84-5.56-9.35-8.76-19.66-13.55-29.34-5.06-10.2-10.7-20.22-15.88-30.44a1.28 1.28 0 0 0-.21-.55c-.3-.45-.37-.4-.16-.8a5.12 5.12 0 0 1 1-1.41 17.66 17.66 0 0 1 3.4-2.63 22.64 22.64 0 0 1 3.83-1.61 16.83 16.83 0 0 1 2.11-.57 8.27 8.27 0 0 0 .9-.2 3.5 3.5 0 0 0 .42.24l.23.07a7.43 7.43 0 0 1 1.49 1.26 15.77 15.77 0 0 1 1.43 2.82c1.1 2.17 2 4.4 3.2 6.54s2.17 4.1 3.25 6.15c.5 1 .84 2 1.4 2.9a28.72 28.72 0 0 1 1.79 3.38c1.07 2.44 2.27 4.8 3.5 7.16a1.33 1.33 0 0 0-.3.87 1.51 1.51 0 0 0 1.5 1.5h.05l1.7 3.24c1.14 2.23 2.45 4.4 3.4 6.7.84 2 1.8 3.93 2.76 5.87 1.06 2.17 2.24 4.27 3.3 6.44s2.52 4.2 3.7 6.34c1.12 2 2 4.18 3.3 6.05s2.63 4.18 3.87 6.28 2.08 4.13 3.2 6.16l3.6 6.48c.5.9.9 1.8 1.45 2.67s1.4 1.87 2 2.9l3.6 6.5c1.36 2.38 2.44 4.9 3.8 7.28l4.22 7.17c1.46 2.35 3.18 4.74 4.7 7.18.7 1.17 1.46 2.33 2.13 3.52.53 1.02 1.4 3.68.67 4.9zm-390.5 66.9z"/><path d="M420.56 356.63a20.65 20.65 0 0 0-2.9-5.29 25.46 25.46 0 0 0-3.13-4.18 29.93 29.93 0 0 0-3.7-3.6c-.65-.45-1.15-1.15-1.9-1.4-.13 0-1-.34-.47-.06a13.14 13.14 0 0 0-1.25-.61 48.84 48.84 0 0 0-5.73-1.53l-5.8-1.25a33.37 33.37 0 0 0-6.28-1 1.35 1.35 0 0 0-1.42 1.15 7.21 7.21 0 0 0-1.6 1.18 10.16 10.16 0 0 0-2.14 3.89 6.67 6.67 0 0 0-.23 4.21 5.81 5.81 0 0 0 2.41 3 7.57 7.57 0 0 0 4.07 1.26 25.6 25.6 0 0 1 5.4 1.22c1.44.45 3 .56 4.4 1.05a4.64 4.64 0 0 1 2.92 2.85c.52 1.13 1.53 2.3 1.25 3.6a13.12 13.12 0 0 0-.52 2.35 12.05 12.05 0 0 1-.15 2.4 15 15 0 0 1-2.18 4.47c-1 1.5-1.83 3.1-2.72 4.64l-2.36 4.06-2.1 4.64c-1.66 3.05-3.34 6.12-4.85 9.25-1.37 2.85-3.38 5.4-5 8.12s-3.36 5.6-5.17 8.36c-.36.55-.63 1.1-1.3 1.24s-1.2 0-1.76.07c-.77.13-1.5.38-2.27.44s-1.83.1-2.75.16c-3.45.28-6.88.3-10.35.38s-7.06.38-10.6.32-7.3-.08-11 .1c-1.56.07-3.14.14-4.7.06-1.86-.1-3.7-.4-5.57-.5l-10.92-.52c-3.92-.17-7.9-.36-11.8-.72-1.93-.17-3.86-.5-5.8-.55s-4 .13-6.06.05-4.06-.42-6.1-.53a13.65 13.65 0 0 1-2.56-.07 4.75 4.75 0 0 1-1.81-1.09 30.46 30.46 0 0 0-4.5-3.14c-.56-.3-1.12-.6-1.7-.86a9.67 9.67 0 0 0 1.78-3.44c1.58-4 3.42-7.68 5.2-11.6l11.68-25c7-15.67 17.53-29.44 24-45.4.75-1.52 1.46-3 2.33-4.48a9.84 9.84 0 0 0 1.44-3.91c.23-1.9-2.78-1.9-3 0a8.38 8.38 0 0 1-1.67 3.23 15.11 15.11 0 0 0-1.21 2.49 2.1 2.1 0 0 0-.13.26l-.24.62c-.1.26-.22.52-.34.76a1.65 1.65 0 0 0-.16.49 121 121 0 0 1-10.5 20.42c-4.47 6.88-8.08 14.5-12.07 21.66a203.11 203.11 0 0 0-9.62 20.41c-1.85 4.43-3.86 8.77-6.07 13a38.8 38.8 0 0 0-1.59 4.34 21.57 21.57 0 0 1-1 2.48 4 4 0 0 1-1.62 1.72 1.71 1.71 0 0 0-1.4.39l-.77.16a6.52 6.52 0 0 1-4.49-1.87c-2.3-2.3-3.55-5.6-4.62-8.62-1.28-3.6-2.94-7-4.5-10.5-4.28-9.57-8.32-19.22-12.2-29-5.28-13.2-12.14-25.55-18.48-38.2h6c3.14 5.67 7.32 10.83 9.85 16.88s5.4 11.72 7.83 17.7c2.66 6.5 6.28 12.76 9.46 19 1.27 2.52 2 5.7 4.06 7.73 2.56 2.56 7.22 2.62 9.32-.42 1.3-1.9 1.82-4.14 2.5-6.32 3.12-10 9.4-19 13.9-28.38s9.42-18.55 12.92-28.34v-.17l1.06-.1a1.69 1.69 0 0 0 .48-.13c3.36-.24 6.7-.48 10.06-.55 1.93-.05 1.94-3.05 0-3h-.68a1.46 1.46 0 0 0 .74-1.7c-.75-2.48-1.48-5.48-3.4-7.34l-.1-.08 1.4-.15c1.9-.22 1.92-3.22 0-3q-4.84.58-9.74 1a10.58 10.58 0 0 1-1.42-.3 1.32 1.32 0 0 0-1.56.55 175.42 175.42 0 0 1-27.11.35 185.55 185.55 0 0 0-20.15-.25c-2.43.1-5 .2-7.56.44-10.17-2-20.2-5.5-28.65-11.45-3.25-2.3-6.53-4.43-10.63-4.34a27.85 27.85 0 0 0-12.33 3.31 61.26 61.26 0 0 0-18.22 15.1c-1.52 1.55-3.2 3.36-3.8 5.4-3.63.52-7.27 1.06-10.88 1.4-6.05.56-12.3.82-18.14 2.7a11.3 11.3 0 0 0-3.55 2A1.5 1.5 0 0 0 139 312c-2.83.5-6.12-.67-8.53 1.3a13.52 13.52 0 0 0-2.49 3.18c-1.36 2-2.87 3.94-4.37 5.86-1.33 1.7-2.62 3.46-1.73 5.74a3.28 3.28 0 0 0 .48.82c-.84 1-1.55 2-2.4 3-1.56 1.7-2.92 3.5-4.37 5.3s-2.8 3.7-4.13 5.7c-.76 1.14-2.2 2.3-1.75 3.8.8 2.67 4.77 3.3 6.77 1.85 1.64-1.2 2.92-3.34 4.08-4.93 1.35-1.86 2.8-3.63 4.24-5.42 1.55 2 4.7 3 7.27 3.4a24.64 24.64 0 0 0 8.08.18c3.82-.83 7.66-3.6 11.26-5.12 8-3.4 15.7-6.18 24.58-5.62 7.48.48 14.76 1.45 22.17 2.27 2.36.25 4.5.65 6.44-1 2.38-2.05 3.6-5.9 5.5-8.42a77.5 77.5 0 0 0 5-7c.34-.55.92-1.3 1.5-2.1h8.53l4.53 9.8c1.46 3.28 3.9 6.47 5.65 9.8 5.28 10.1 9 20.86 13.5 31.3 3.8 8.8 8.06 17.5 11.54 26.45l-.22-.1a20.11 20.11 0 0 1 1.81 5 1.71 1.71 0 0 1 0 .45 1 1 0 0 0 .08.11 12.67 12.67 0 0 1 1 1.68 43.92 43.92 0 0 0-7.09 1.54l-8.4 2.4c-5.6 1.58-11.17 3.23-16.7 5.07s-11 3.82-16.44 6l-8.1 3.25c-1.24.48-2.5.94-3.76 1.36a11.91 11.91 0 0 0-3.3 1.41 36 36 0 0 0-5.48 5.35c-1 1.06-1.9 2.13-2.85 3.2-.37.42-.72.86-1.1 1.26a7 7 0 0 1-1.37 1.3c-.63.3-2-.28-2.84-.4a6.42 6.42 0 0 0-3.92.38c-1 .52-1.84 1.35-2.84 1.9a24.89 24.89 0 0 1-4 1.65l-16.35 5.7c-5.45 1.9-11 4.17-16.44 6.34-5.23 2.08-10.5 4.16-15.53 6.65a2.46 2.46 0 0 0-1.67 2.22 24.24 24.24 0 0 0 .79 4.18 37.94 37.94 0 0 0 1.17 5.39 4.18 4.18 0 0 0-1.2.7l-1.55 1.27a3.16 3.16 0 0 0-1.29 2.09 1.63 1.63 0 0 0 .22.82 1.84 1.84 0 0 0 .17.22l.07.07c0 .06 0 0-.06-.06a1.38 1.38 0 0 0 .06.16 5.51 5.51 0 0 0 .36.78 8.41 8.41 0 0 0 1.52 1.89c.52.5 1.13.87 1.63 1.4a3.33 3.33 0 0 1 .46.62 5.86 5.86 0 0 0 .76.89 3.79 3.79 0 0 0 2.43 1.05 4.9 4.9 0 0 0 2.38-.95 11.86 11.86 0 0 0 1.53-1.1 14.26 14.26 0 0 0 4.11 2.72 3.54 3.54 0 0 0 3.17 0 34.12 34.12 0 0 0 3-2.34 37.57 37.57 0 0 1 7.13-4.26c2.62-1.15 5.15-2.4 7.82-3.44s5.1-2.16 7.62-3.32c5.05-2.33 10.35-4.13 15.3-6.67 1.07-.54 2.18-1 3.26-1.5.6-.3 1.15-.72 1.76-1a8.92 8.92 0 0 1 2-.4c1.32-.2 2.65-.3 4-.43s2.83-.5 4.25-.58a4.79 4.79 0 0 0 2.88-.78c1-.73 1.92-1.55 2.85-2.33a15.33 15.33 0 0 0 2.35-2.73c.76-1 2.1-1.27 3.25-1.75 5.2-2.18 10.36-4.33 15.44-6.74 2.6-1.24 5.33-2.2 8-3.2s5.05-2.06 7.67-2.8a10.69 10.69 0 0 1 4.1-.28c1.18.13 2.58.56 3.74.16a20.71 20.71 0 0 0 2.74-1.7 20.13 20.13 0 0 1 3.47-1.82 58.41 58.41 0 0 1 8.06-1.73 6.44 6.44 0 0 0 3.08-1.19 4.36 4.36 0 0 0 1.23-3c2.12.53 4.25 1 6.34 1.76 2.64.9 5.23 2.07 7.92 2.8 1.26.34 2.55.57 3.82.85a16.68 16.68 0 0 0 3.65.61 32.42 32.42 0 0 1 3.69.13l.07.15h.24a8.34 8.34 0 0 1 2.64.23 1.27 1.27 0 0 0 1.17-.1l.85.06a1.2 1.2 0 0 0 1.11-.39c1.63-.06 3.28 0 4.9 0 3.82 0 7.64-.1 11.45.08l22.94.75c3.72.1 7.43.44 11.16.44 1.87 0 3.74.14 5.6.23 1.72.07 3.42-.1 5.13-.08s3.4.6 5.15.66 3.68-.12 5.53.08a20 20 0 0 0 4.7.24c.83-.1 1.65-.08 2.48-.18a13.21 13.21 0 0 0 2.62-.72 16 16 0 0 0 7.29-5.71 33.6 33.6 0 0 0 2.46-4.07c.87-1.57 1.8-3.13 2.6-4.73 1.6-3.2 3.6-6.16 5.17-9.38s3.7-6 5.4-9.08c3.4-6.15 7.76-11.77 10.57-18.25.73-1.7 1.58-3.3 2.4-5s1.46-3.3 2.32-4.9c.4-.74.95-1.38 1.34-2.12s.47-1.44.76-2.15a12.67 12.67 0 0 0 1.26-4.35 16.39 16.39 0 0 0-.79-5.39zm-156-42.16c6.24-.15 12.82-.06 19-.8 5.84-.7 11.7-.68 17.56-1a81 81 0 0 1-5.92 13.13c-2.77 4.8-4.53 10-7 15-4.3 8.7-9.4 17.14-13.23 26.08a10.03 10.03 0 0 0-.43 1c-.94 2.4-2.2 8.42-5.8 6.57-1.87-.95-2.38-3.4-3.2-5.14-1.38-3-3.14-5.83-4.55-8.82l-8.2-17.62c-2.7-5.4-4.9-11-7.54-16.44-2-4.08-4.8-7.78-7.23-11.66l26.55-.3zm-141.3 19.6a1.52 1.52 0 0 0-.25 1.52c-1.33 1.64-2.76 3.22-4 4.9-.66.88-4.3 6.76-6.16 5.4 1.6-2.95 4.16-5.6 6.18-8.18 1.12-1.42 2.2-2.8 3.42-4.14.8-.9 1.66-2.52 2.62-3.26.3.05.63.1 1 .12l-2.8 3.63zm1.65-8.6c.18-.63 1.12-1.43 1.53-2 1.16-1.5 2.35-3 3.44-4.55 1.5-2.17 2.68-3.86 5.58-3.8h1.85c-1.08 1.26-2.08 2.6-3 3.8-2.18 2.78-4.2 5.7-6.24 8.6a2.37 2.37 0 0 0-.41-.06c-1.5.02-3.44.42-2.75-2zm87.56-10.15c-1.25 2-2.66 3.78-4.1 5.65-1.6 2.1-2.74 4.55-4.32 6.6-3.2 4.14-5.2 2.6-9.4 1.93a157.53 157.53 0 0 0-16.28-1.24 55.35 55.35 0 0 0-15.68 1c-5.9 1.35-11.36 3.77-16.84 6.3-3.63 1.68-6.17 3.32-10.3 3.13-2.22-.1-10-.3-8.5-4.22a1.6 1.6 0 0 0 .1-.62c2.62-3.5 5.1-7.16 7.63-10.66 2.9-4 6.4-9.23 11.46-10.3 8.73-1.86 17.65-2.84 26.53-3.84a5.77 5.77 0 0 0 .34.89c1.65 3.4 6.56 3.54 9.8 3.9 9.9 1.1 20 1 30 .9zm-82 158.9l-.24-.14-.13-.1-.2-.2s-.08-.1-.1-.16a6.17 6.17 0 0 0-.22-.33 22.47 22.47 0 0 0-2.4-2.28 4.67 4.67 0 0 1-.91-1.17s-.1-.16-.1-.2v-.07c.27-.26.57-.5.86-.72l.4-.32.22-.2.1-.08h.06l.15-.1h.3a28.45 28.45 0 0 0 4.08 5l-.43.3c-.5.24-.97.47-1.43.77zM417.8 364.6a18.63 18.63 0 0 0-.7 1.8 12 12 0 0 1-1.36 2.42c-.78 1.35-1.36 2.8-2 4.22-.76 1.6-1.65 3.13-2.37 4.74l-2.07 4.5c-.73 1.5-1.84 3.1-2.74 4.67-1.63 2.86-3.64 5.47-5.22 8.36l-2.45 4.3c-.85 1.42-1.9 2.93-2.8 4.42-.76 1.27-1.33 2.64-2 3.95a115.81 115.81 0 0 1-2.78 5l-4.76 8.47a19.49 19.49 0 0 1-2.37 3.58c-.58.62-1.15 1.26-1.76 1.85a11.32 11.32 0 0 1-2.13 1.36 7.92 7.92 0 0 1-3.76 1.33 22.66 22.66 0 0 1-4.87.06 28.59 28.59 0 0 0-4.71-.3c-.93 0-1.86.06-2.8 0a21.59 21.59 0 0 1-2.65-.46 21.07 21.07 0 0 0-4.56-.1c-1.64.06-3.27 0-4.9-.14s-3.53-.05-5.3-.1c-1.93 0-3.85-.23-5.77-.32l-12.2-.4c-2-.1-4.05.05-6.07-.05s-3.78-.28-5.68-.33l-11.92-.16h-6.27c-1.64 0-3.35.35-4.94-.2a1.23 1.23 0 0 0-1.35.28 17.23 17.23 0 0 0-1.43-.12l-.65-.16.08.13h-1.66a18.13 18.13 0 0 1-3.72-.59c-1.27-.27-2.57-.5-3.8-.9-2.54-.77-5-1.8-7.5-2.68-1.3-.44-2.6-.86-3.92-1.2l-2.66-.63.2-.88a12.77 12.77 0 0 0 .68-3.21c-.06-1.93-3.06-1.93-3 0a13.52 13.52 0 0 1-.73 3.08c-.28 1.27-.5 2.54-.7 3.8-.1.58 0 .76-.55 1a5.63 5.63 0 0 1-1.58.39c-1.28.2-2.56.33-3.83.6a21.5 21.5 0 0 0-7.22 2.53c-1 .62-2 1.06-2.92 1.77-.5.4-.36.32-1 .36a14.69 14.69 0 0 1-2.26-.28 17 17 0 0 0-7.51 1.23c-2.54.87-5 1.93-7.54 2.87-5 1.87-9.7 4.33-14.64 6.3-2.57 1-5.06 2.2-7.63 3.24a7.9 7.9 0 0 0-2.82 1.38c-.85.84-1.37 2-2.22 2.82s-1.78 1.4-2.62 2.14a1.75 1.75 0 0 1-1.08.61c-.6.1-1.23.06-1.85.16-2.62.43-5.28.6-7.9 1-2.35.37-4.43 1.66-6.57 2.68q-3.66 1.74-7.38 3.38c-2.35 1-4.75 1.9-7.1 3-2.52 1.15-5 2.32-7.57 3.38-4.78 2-9.74 3.8-14.1 6.63-1.1.7-2.16 1.44-3.2 2.22l-1.58 1.22c-.46.37-.67.68-1.22.6-1.08-.16-2.16-1.26-3-1.92a30.47 30.47 0 0 1-2.81-2.64 19.72 19.72 0 0 1-4.27-5.9c-1-2.4-1.1-5.22-1.6-7.74 0-.22-.07-.57-.14-.8l.7-.4c1.28-.65 2.58-1.17 3.9-1.72l7.8-3.3c5.07-2 10.1-4.18 15.26-6l16-5.67c2.52-.9 5.1-1.6 7.56-2.7a17 17 0 0 0 3-1.81 3.78 3.78 0 0 1 3.4-.58 10.68 10.68 0 0 0 3.12.47c1.13-.12 1.63-.87 2.42-1.56 2-1.75 3.56-4 5.36-5.9 1.47-1.58 3.16-3.88 5.18-4.76 2.38-1 5-1.7 7.37-2.67l15.26-6c10.52-3.86 21.36-6.95 32.17-9.9a33.45 33.45 0 0 1 7.9-1.58 1.18 1.18 0 0 0 .27 0 8.33 8.33 0 0 0 1.1 1.35 13.42 13.42 0 0 0 2.67 1.73 6.23 6.23 0 0 0 4.68.66c.24 0 .47 0 .7-.07a8.83 8.83 0 0 0 1.92.86 20.82 20.82 0 0 1 4.48 2.47 43.08 43.08 0 0 0 3.44 2.6c1.53.85 3 .64 4.7.74s3.42.35 5.13.48c1.93.15 3.87 0 5.8 0 3.6 0 7.17.63 10.77.78s7.28.47 10.93.62 7.26.24 10.84.65a73.45 73.45 0 0 0 10.8.05c3.67-.12 7.34.16 11 .05s7.33-.4 11-.33c1.6 0 3.15-.22 4.75-.27s3.46-.12 5.17-.3c.7-.07 1.38-.32 2.08-.43a15.71 15.71 0 0 1 1.68-.05c1.65-.12 2.6-1.26 3.45-2.55 1.88-2.8 3.57-5.62 5.28-8.52s3.68-5.4 5.08-8.33c1.53-3.2 3.3-6.3 4.95-9.42.73-1.38 1.25-2.86 1.9-4.26.77-1.63 1.82-3.1 2.7-4.67 1.68-3 4-5.87 4.85-9.22a9.7 9.7 0 0 0 .26-2.4 7.22 7.22 0 0 1 0-1.23c.1-.52.38-1 .5-1.52a6.74 6.74 0 0 0-1.16-4.53c-.75-1.38-1.2-2.87-2.52-3.85a12.24 12.24 0 0 0-4.63-1.9c-1.85-.44-3.68-.95-5.55-1.34a26.29 26.29 0 0 0-2.65-.49 5.08 5.08 0 0 1-2.73-.67c-1.52-1-1.7-2.33-1.08-4a11.22 11.22 0 0 1 1-2.13 2.44 2.44 0 0 1 .54-.57c.1-.07.87-.54.72-.55a1.33 1.33 0 0 0 1.24-.68 37.65 37.65 0 0 1 3.79.69l5.38 1.14 4.88 1.2a9.78 9.78 0 0 1 2 .71c.3.14.54.3.85.42a3.12 3.12 0 0 0 .36.14s0 .08.3.28a29.23 29.23 0 0 1 3.07 2.82 18.26 18.26 0 0 1 3.1 3.53c.83 1.38 1.88 2.65 2.63 4.08a15.37 15.37 0 0 1 1.37 4.6 7.19 7.19 0 0 1-.44 4.11z"/></g><path d="M471.48 250.15c-.72.62-2.17.7-3 1.2-1.47.85-2.93 1.92-4.3 2.9-2.3 1.65-4.64 3.2-6.17 5.64-1 1.64 1.57 3.15 2.6 1.5 1.52-2.43 4.68-4.35 7.06-5.87a22 22 0 0 1 3.18-2 8.56 8.56 0 0 0 2.79-1.29c1.44-1.24-.68-3.35-2.14-2.1z" fill="#fff"/><path d="M416.15 273.2l-.78-.53a47 47 0 0 0-5-.48c-4.7-.15-9.07 1.8-13.65 1.6-6.6-.28-11.26-5-17.3-6.57-5.77-1.52-11.27.63-16.36 3.2s-10.25 5.6-15.87 7.16c-4.95 1.4-10.12 1.34-15.18 1.4-8.86.1-20.14-.5-24.83 8.55a4.91 4.91 0 0 1-2.9 2.56c-4 5.46-12.75 15.64-6 21.54 3 2.6 8.17 1.85 11.73 1.57l36.7-3.1c12.7-1.2 25.34-1.13 38-1.9 11.9-.72 24.07 1 36 1.37 4 .12 6.13-.1 8.73-3.3s3-6.37 2.1-10.3a37.81 37.81 0 0 0-15.39-22.78z" fill="#fb0"/><path d="M177.56 397a2.88 2.88 0 0 0-1.34-1.59 6.62 6.62 0 0 0-1.49-.53 1.09 1.09 0 0 0-.4 0 2.14 2.14 0 0 0-.68-.19 2.85 2.85 0 0 0-2.54 1.48 5.87 5.87 0 0 0-.56 1.19 4.51 4.51 0 0 0-.21.78 4.56 4.56 0 0 0 .24 2.61 2.74 2.74 0 0 0 2.56 1.73 5.3 5.3 0 0 0 2-.59 3.09 3.09 0 0 0 1.15-1l-.14.2a1.55 1.55 0 0 1 .24-.27 2.15 2.15 0 0 0 .24-.18 2.93 2.93 0 0 0 .46-.54 3.43 3.43 0 0 0 .45-1 3.27 3.27 0 0 0 .02-2.09zm-3.73 2.15l.1-.13a1 1 0 0 1-.14.15h-.1l-.4.14v-.1a4.17 4.17 0 0 1 0-.5 4.44 4.44 0 0 1 .21-.71 2.71 2.71 0 0 1 .21-.37 1.34 1.34 0 0 0 .24.09l.7.2h.07a2.33 2.33 0 0 1-.07.25.41.41 0 0 1 0 .09h-.05a2.38 2.38 0 0 0-.38.32l-.4.62zm221.4 9.6a2.22 2.22 0 0 0-.8-.22 1.6 1.6 0 0 1-.19.71l-3.4 5.74v.15a.32.32 0 0 1 0 .16.94.94 0 0 1 0-.12v.2a.35.35 0 0 0-.06.12c-.14.17-.4.42-.46.5a4 4 0 0 0-.59 1.09 5.13 5.13 0 0 0-.22.61l-.12.15a2.79 2.79 0 0 0-.51 1.07 7.51 7.51 0 0 0-.7 1.77A26.28 26.28 0 0 0 387 424a9.19 9.19 0 0 1-.64 2.89l-.2.28a6.74 6.74 0 0 0-1.39.18c-1.7.5-2.73 2.67-4.6 2.56-1.2-.07-2.34-.4-3.57-.35s-2.5.22-3.76.36a2 2 0 1 0 0 4l4.1-.37c1.37-.02 2.44.43 3.66.35a6.77 6.77 0 0 0 2.45-.63l.06 1.83a5.93 5.93 0 0 1 0 1.4v.45a2.69 2.69 0 0 1-.11.45 5.53 5.53 0 0 0-.23 3 3 3 0 0 0 1.25 1.74 2.44 2.44 0 0 0 2.38-.11 3.85 3.85 0 0 0 1.65-2.09 10.53 10.53 0 0 0 .37-3.79 11.4 11.4 0 0 0-.34-2.85l-.24-.83V432a.41.41 0 0 1 0-.07l.17-.84a2.3 2.3 0 0 0 0-.26h.1a4.06 4.06 0 0 0 1.21-1.23 7 7 0 0 0 1.29-3.08 14.75 14.75 0 0 1 .93-3.58c.06-.14.1-.3.15-.44a1.92 1.92 0 0 0 1.13-1.77v-.44a4.94 4.94 0 0 0 .43-.59 1.83 1.83 0 0 0 .28-1.3l.1-.13a4.6 4.6 0 0 0 1-1.74 6.05 6.05 0 0 0 .19-1.53v-.43a.77.77 0 0 0 0-.12l.1-.34.5-1.48.14-.34.35-.72a2 2 0 0 0-.65-2.82zm-4.4 6.38zm-3.33 40.1c-.1-.53-.34-1-.47-1.55l.27-1.5a2.14 2.14 0 0 0-.2-1.55 2 2 0 0 0-3.66.48 25.81 25.81 0 0 0-.48 3 7.93 7.93 0 0 0 .2 3.07 2.06 2.06 0 0 0 1.93 1.47 2.43 2.43 0 0 0 2.19-1.21 3.21 3.21 0 0 0 .22-2.21zm34.9 11.55c-.9-1.8-3.28-1.36-4.92-1.32h-.52a1.73 1.73 0 0 0-.9 0c-1.8.12-3.6.38-5.37.67a1 1 0 0 0-.34.1s-.07 0-.12-.05a13.56 13.56 0 0 0-3.13-.16l-6.52-.3a63.07 63.07 0 0 1-7.14-.6c-.78-.1-1.66.16-2.3-.27s-1.06-1.12-1.72-1.55a5.11 5.11 0 0 0-5.77.59 3.43 3.43 0 0 1-2.27.89 28.82 28.82 0 0 0-3.22 0l-7.13.94-2.2.1a8 8 0 0 0-1.1-.09h-.45a10.94 10.94 0 0 1-1.66-.3c-1.57-.4-3.6-.9-5 .16-1.27.9-1.37 3.28.47 3.65a28.41 28.41 0 0 0 5.5.49 16.68 16.68 0 0 0 2.34.12l1.5.2a24 24 0 0 0 3.17 0 46.3 46.3 0 0 1 6.12.08l6.4.56 6.44.07 6.45.32c3.7 0 8.23.78 11.6-1.17a2.4 2.4 0 0 0 1.17.07l1.44-.22.5-.07.57-.07.72-.07a4.71 4.71 0 0 0 3.25.92 5.35 5.35 0 0 0 4.17-1.75 2 2 0 0 0-.04-1.92zm11 .28a2.11 2.11 0 0 0-1.42-.59h-3.4a2.07 2.07 0 0 0-1.41.59 2 2 0 0 0 0 2.83 2.06 2.06 0 0 0 1.41.58H432a2 2 0 0 0 1.4-3.41zM441.2 333a33 33 0 0 1-.92-7.06c-.16-3.13.72-8.57-1.26-11.28a4.81 4.81 0 0 0-3.42-1.78l-.23-.26a1.58 1.58 0 0 0-2.57.73 2.74 2.74 0 0 0-1.38 3.4 39.19 39.19 0 0 1 1.31 10.8 21.58 21.58 0 0 0-.15 4.38 6.82 6.82 0 0 0 .33 3 7.1 7.1 0 0 0-2.79 4.67c-.5 2.54-1.08 8.35.3 11a3.7 3.7 0 0 0 1.43 1.52 5.58 5.58 0 0 0 .54 1 1.57 1.57 0 0 0 2.84-.68 1.54 1.54 0 0 0 1-1c.7-1.86.6-4.1.7-6.08.06-1.17-.68-5.86-.38-7.62h.54c2.1-.05 3.83.18 4.45-2.4.23-1.13-.1-1.48-.34-2.33z" fill="#444"/><path d="M443.15 339.14a3.83 3.83 0 0 0-2.79-1 1.56 1.56 0 0 0-2.74.91v.94a1.37 1.37 0 0 0-.18.45 8.83 8.83 0 0 0 .09 2.62l-.18 9.85a1.52 1.52 0 0 0 2.26 1.3 8.61 8.61 0 0 0 4.78-6.45c.28-2.3.6-6.83-1.24-8.62z" fill="#fb0"/><path d="M463.17 347.22a1.54 1.54 0 0 0-1.69-.66 1.47 1.47 0 0 0-.66-.4l-.2-.05a1.52 1.52 0 0 0-1.86 1.59c-1.86 4-6.05 7.13-9 10.34-2.4 2.63-5.45 4.88-7.42 7.87a1.31 1.31 0 0 0-.21.45c-4.56 3.4-9.23 8-11.78 13.1-.87 1.72 1.72 3.24 2.6 1.5 2.67-5.35 7.32-9.46 12.1-13.2a21 21 0 0 0 3.3-2.49c3-2.3 6.1-4.48 9.06-6.87 1.64-1.34 6.67-4 7.4-6s-.66-3.55-1.6-5.2z" fill="#999"/></svg>