<svg xmlns="http://www.w3.org/2000/svg" viewBox="0 0 650 563.33" fill-rule="evenodd"><path d="M89.13 448.87l.18.23c20.7 26 54.07 31.77 85.6 33.46 40.1 2.14 80.23-1.2 120.3-2.87 40.53-1.7 81.2-.68 121.76-1.1 20.83-.2 41.5-.74 62.26-2.68l60.88-6.13c21.85-1.85 52.6 1.7 62.1-23.53 5.27-14 2.87-29.5 5.8-43.95 2.86-14.1 6.32-28.1 8.7-42.3a222.07 222.07 0 0 0-1.24-81.35c-5.23-25.4-23.06-43.22-43.1-58.32-11.94-9-24.62-16.9-36.4-26.13q-17.4-13.66-34.07-28.24c-22.3-19.46-44.43-39.38-67.53-57.9-11.07-8.87-21.5-18.47-32.64-27.25q-15.6-12.3-32.22-23.12c-21.93-14.2-46.67-26.25-73.22-27.6-27.12-1.38-54.24 6.4-78.27 18.4-25.42 12.72-49.32 28.8-71.8 46.15a224 224 0 0 0-52.84 58.66C64.54 199.2 49.7 255.7 50 309.72c.13 21.86 4.8 43.32 10.33 64.36 6.76 25.66 11.96 53.45 28.8 74.8z" fill="#f5f5f5"/><path d="M528.5 267.37c-.2-5.53-1.18-11-1.43-16.5-.22-4.72.66-9.27-.27-14a2.52 2.52 0 0 0-3.68-1.49 16.24 16.24 0 0 0-5.31 6.57c-1.26 2.6-2.16 5.5-4.57 7-.72-2.08-.2-4.83-.4-6.85a45.64 45.64 0 0 0-1.66-7.37c-1.36-5.18-2.83-9.94-5.8-14.46-6.83-10.44-15.13-19.7-23.2-29.14s-17-19.73-26.6-27.92c-3.65-3.1-7.92-5.27-11.52-8.44-2.47-2.17-5-4.36-8.44-3.76a2.54 2.54 0 0 0-1.75 3.07 53.46 53.46 0 0 0 3.19 9.62 64.39 64.39 0 0 0-7.66-4.59c-5.65-3-11.6-5.5-17.4-8.27-11.2-5.37-22.2-11.3-32.18-18.74a375.45 375.45 0 0 1-31.58-26.84c-9.3-8.7-18.63-17.7-24.92-28.9-2.93-5.22-5.3-10.5-7.78-15.94-1.42-3.1-4.1-8.6-8.1-9-3.7-.34-5.53 3.72-7.14 6.37-3.4 5.64-7.72 9.82-12.38 14.45-9.55 9.48-19.17 18.84-29.72 27.22a185 185 0 0 0-25.85 25.37c-8.5 10-17.2 20.67-23.94 32a84.1 84.1 0 0 0-7.36 16.57c-.75 2.26-1.23 6.1-2.2 9.3a52.47 52.47 0 0 1-.91-13c.16-3.87.32-7.22-3.43-9.36a2.5 2.5 0 0 0-2.52 0c-3.42 2.05-5.06 5.76-7 9.08-3.36 5.74-6.65 11.52-9.75 17.4-5.85 11.13-9.45 23.2-12.64 35.3a182.16 182.16 0 0 0-6.13 37.53 157 157 0 0 0 0 19.16 38.1 38.1 0 0 0 1.05 7.13c.4 1.45 1.2 3.18 1.54 4.84-5-1.66-8.87-6.75-12.94-9.7-3.25-2.36-8.64-5.74-12.85-5.1-5.66.85-3.76 8.15-3.27 12.23a84.7 84.7 0 0 0 5.24 20.21c5 13.15 12.2 25.36 18.6 37.9a222.56 222.56 0 0 0 23.94 36.87c9.2 11.64 19.35 22.37 29.57 33.1 10.77 11.3 21 22.38 33.38 32 11.14 8.68 22.42 17.52 35.47 23.2a104.62 104.62 0 0 0 21.52 6.54c7.36 1.44 15.22 3 22.74 3.1a210.2 210.2 0 0 0 26.62-1.91c8.33-1 16.27-3.57 24.52-4.74 6.5-.92 22.28.85 27.94-5.25a2.39 2.39 0 0 0 3.95-.35 50.49 50.49 0 0 1 2.23-3.67c6.76-6.8 13.38-13.34 20.8-19.54 2.2-1.84 4.3-3.64 6.3-5.48 2.1-1.58 4.16-3.18 6.17-4.85 14.63-12.1 25.88-26.92 37.67-41.66 22.2-27.73 43.5-59.54 50-95.15a142.47 142.47 0 0 0 1.8-31.12z" fill="#fb0"/><path d="M568.93 460.8l-1.32.34c-3.25-.58-7.06.7-10.32 1.44-5.07.34-10.2.37-15.12 1-9.6 1.15-19 3.44-28.62 4.47a3.26 3.26 0 0 0-1.12.34l-3.54.26a3.22 3.22 0 0 0-3.67-3.91c-11.5 2.14-23 0-34.6-.16s-23.4.32-35.1.7c-12.48.4-24.9 1.32-37.34 2.28l-8.25.4-52.53 1.22-38.6 2.2c-1.26 0-2.5.06-3.76.1-4.26.15-8.5.45-12.75.78q-7.5.36-15 .65c-5-1.17-11.9.1-16.1.38l-2.7.16c-8.5 0-17-.6-25.52-.14a3.38 3.38 0 0 0-1.33.33c-4.2 0-8.38.2-12.57.4a2.83 2.83 0 0 0-1.67-.5c-11.82 0-23.62.8-35.45.66-5.56-.07-11 .26-16.54.62-4.66.3-8.66 0-13 1.9a3 3 0 0 0-1.07 4.1 5.16 5.16 0 0 0 4.08 2.18l.28.25c3.08 2.42 6.62 1.62 10.3 1.93l18.74 1.33c13.33.94 27.06-.4 40.36-1.33l38.94-3a2.76 2.76 0 0 0 2 .76l79.7-.54c5.75 0 11.4-.83 17.13-.84l18.32.1c5.9 0 11.86-.94 17.78-1.2 3.55-.17 7.1-.4 10.63-.7a2.63 2.63 0 0 0 2.34 1.12c18.15-.47 36.3-1.9 54.42-2 8.4-.07 17-.4 25.54-1a87.12 87.12 0 0 0 14.2 1c6.87-.18 13.63-1.1 20.45-1.86 4-.45 8.17-.62 12.34-.78 7.35 1.44 16.44-.57 23.7-2A68.61 68.61 0 0 0 563 471c4-.92 7.8-2.47 9.28-5.76 1.07-2.3-.63-5.24-3.35-4.44z" fill="#ddd"/><path d="M518.66 453.6a61.73 61.73 0 0 1-7.15 1.36 1.56 1.56 0 0 0-.4.12 36.64 36.64 0 0 1-9.79-.92 1.28 1.28 0 0 0-1-.72q-.84-.17-1.7-.3a1.29 1.29 0 0 0-.38-.08c-4.15-.9-8-2.65-12-4.1-4.28-1.55-8.55-3.06-12.68-5a34 34 0 0 1-19.07-22.5c-2.8-11.46-.44-22.28 4.77-32.64 3.73-7.38 9.48-12.8 15.3-18.44 1.38-1.35-.74-3.47-2.12-2.12-6.92 6.73-13 13.06-17.17 21.92-5 10.5-6.37 21.6-3.45 32.9a36.26 36.26 0 0 0 17 21.86 27.43 27.43 0 0 0 1.19.65 1.43 1.43 0 0 0 .66.88 77.56 77.56 0 0 0 13.92 7.08c4.16 1.5 8.5 1.73 12.8 2.4l.4.07c4.48 2.15 10 2.06 14.8 2.06a1.39 1.39 0 0 0 1-.42 56 56 0 0 0 5.82-1.17 1.5 1.5 0 0 0-.72-2.87zM149 407.44c-.7-2.7-3.4-4.5-5.3-6.35l-6.82-6.8c-1.48-1.22-3.6.9-2.12 2.12a69.05 69.05 0 0 1 5.88 5.85c1.25 1.32 3.43 2.72 4.66 4.4-2.23.5-4.42 1.43-6.57 2.1l-8.34 2.7a1.52 1.52 0 0 0 0 2.9l.18.06a1.25 1.25 0 0 0 1.4-.31l6.6-2.15c2.6-.9 5.73-2.3 8.47-2.6h.25a1.51 1.51 0 0 0 1.71-1.9zm9.26 20.06l-2 .2.15-.58c.42-1.88-2.47-2.68-2.9-.8l-.42 1.68a153.71 153.71 0 0 1-16.5.79c-1.93 0-1.93 3 0 3a147.83 147.83 0 0 0 15.64-.72c-1.67 5.46-4 10.83-6.08 16-.66 1.6 1.9 2.6 2.74 1.16l.22-.4a1.42 1.42 0 0 0 .21-.65 163.82 163.82 0 0 0 6.12-16.45l2.84-.27c1.88-.13 1.9-3.13-.02-2.96zm21.98 7.42a1.503 1.503 0 0 0-2.13-2.12 98.65 98.65 0 0 0-7.89 8.83l-.24.3-1.6-7.44a1.51 1.51 0 0 0-2.9.8 87.26 87.26 0 0 1 2 9.7c-2.27 2.6-4.65 5-7.2 7.46-1.4 1.36.74 3.48 2.12 2.13 1.92-1.88 3.8-3.68 5.6-5.6l.76 6.82c.2 1.9 3.2 1.92 3 0l-1.14-9.8.82-1a102.25 102.25 0 0 1 8.78-10.07zm22.66 10.9l-6.74-5.06c0-.23 0-.47-.06-.7a83.16 83.16 0 0 1 .15-13.11c.2-1.92-2.82-1.9-3 0a80.22 80.22 0 0 0-.27 11.18l-7.9-6.62c-1.48-1.22-3.6.9-2.12 2.12l10.2 8.54.1 3.07c0 1.44.45 5.34 0 6.57-.62 1.83 2.27 2.62 2.9.8.74-2.18.62-5 .37-7.74a94.88 94.88 0 0 0 4.83 3.53c1.66 1.13 3.13-1.5 1.54-2.6zM225.35 416c-4.82.48-9.62 1.24-14.43 1.8-1.53-2.37-3.1-4.7-4.43-7.2-.9-1.7-3.5-.2-2.6 1.5 1.1 2.1 2.4 4.07 3.67 6q-2.83.3-5.7.4c-1.93.06-1.94 3.06 0 3 2.5-.1 5-.3 7.48-.57.43.68.86 1.37 1.26 2.08a90.16 90.16 0 0 1 4.86 10.97c.72 1.76 3.62 1 2.9-.8-1.43-3.54-2.8-7-4.54-10.42-.37-.73-.78-1.45-1.2-2.16l12.7-1.6c1.9-.2 1.92-3.2 0-3.03zm-63.63-33.84a85.44 85.44 0 0 1-8.41-2.8c-1.13-.44-2.27-.78-3.42-1.1l-.65-2.7c-.36-1.9-3.25-1.1-2.9.8l.2.92-1.43-.47c-1.8-.65-2.6 2.25-.8 2.9l3.17 1c1 3.3 2.26 6.5 2.36 10.06 0 1.93 3 1.93 3 0a32.69 32.69 0 0 0-1.93-9c.52.17 1.05.34 1.57.54a85.44 85.44 0 0 0 8.41 2.8 1.523 1.523 0 0 0 .8-2.94z" fill="#bbb"/><path d="M555.1 407.85l-.12-2.64a37.52 37.52 0 0 0-.57-4.4 1.56 1.56 0 0 0 .37-1.28c-.4-2.64-.52-5.44-1.42-8s-2.4-4.44-3.76-6.6a58.07 58.07 0 0 0-4.71-6.63c-1.75-2.1-3.9-3.6-5.84-5.5l-5-5.13a21.91 21.91 0 0 0-6.91-3.8l-8.07-2.93a42.38 42.38 0 0 0-8.49-1.74 71.35 71.35 0 0 0-9.58-.51l-8.8.52c-1.92.1-1.93 3.1 0 3h.1a1.44 1.44 0 0 0 .69 1.24c1.34.88 3.4-.4 4.85-.57a42.09 42.09 0 0 1 5.83-.15 1.92 1.92 0 0 0 .17.53c.87 1.6 1 3.7 1.34 5.47l.06.23a47.74 47.74 0 0 0-3 4.6 52.92 52.92 0 0 0-12.94 1.24c-4.32 1-7.37 3.86-10.84 6.47a30.25 30.25 0 0 0-6.58 5.34 1.4 1.4 0 0 0-1.59-.63c-1.13.28-2.2.72-3.3 1.1a58.59 58.59 0 0 1-2.51-6c-.58-1.84-3.48-1.05-2.9.8A54.5 54.5 0 0 0 464 388l-4.35 1.27a1.86 1.86 0 0 0-.51.25h-.07c-.3.07-.57.18-.87.25s-.57.18-.86.24l-.45.1a2 2 0 0 0-.38.14h-.14a2.05 2.05 0 0 0-.74.12 1.64 1.64 0 0 0-.9.69 1.5 1.5 0 0 0 .54 2 1.42 1.42 0 0 0 1.15.15h.1a5.35 5.35 0 0 0 .55 0 4.34 4.34 0 0 0 .47-.16c.27-.1.55-.13.83-.2l.9-.25a12.4 12.4 0 0 0 1.57-.49 1.33 1.33 0 0 0 .42-.19l3.9-1.14a31 31 0 0 0 1.41 3.91 29.09 29.09 0 0 0-1.94 6.61 1.19 1.19 0 0 0-.69.94 40.72 40.72 0 0 0-.58 8.34 1.62 1.62 0 0 0-1.48 1.1 14.36 14.36 0 0 1-1.55 1.57l-.7-.26c-2.15-.7-4.6-1.25-6.54-2.46-1.64-1-3.15 1.56-1.52 2.6a26.08 26.08 0 0 0 6.06 2.38c-1.6 1.3-3.1 2.73-4.57 4.2a1.5 1.5 0 0 0 2.12 2.12c1.78-1.77 3.82-3.33 5.73-5a20.47 20.47 0 0 0 3.77 1.43c.07.2.14.4.22.6a13 13 0 0 0 1.22 4.08 30 30 0 0 0 6.79 8.63c0 2.52-.13 5-.3 7.5l-.18.06a35.88 35.88 0 0 0-3.86 1.34 1.26 1.26 0 0 0-.47.17l-.22.13a2.85 2.85 0 0 0-.31.12c-.24.1-.47.2-.7.3l-.26.1a2.87 2.87 0 0 0-.51.21l-.12.08a1.11 1.11 0 0 0-.43.28 1.52 1.52 0 0 0-.44 1.06 1.5 1.5 0 0 0 .44 1.06 1.44 1.44 0 0 0 1.06.44 1.93 1.93 0 0 0 .85-.23l.12-.08.43-.1.52-.23.22-.1a1.57 1.57 0 0 0 .81-.33 9.94 9.94 0 0 1 2.87-1l-.32 5.2v.27a1.5 1.5 0 0 0 3 0l.4-6.55h.08c2-.67 3.85-1.27 5.75-2.1a1.16 1.16 0 0 0 .78-1.09 41.63 41.63 0 0 0 13.89 4.78c1 1.45 1.88 2.9 2.8 4.37-1 2.06-1.95 4.1-2.83 6.22a.83.83 0 0 0-.06.21l-.06.14a6.8 6.8 0 0 0-.45 1l-.1.25v.12a1.43 1.43 0 0 0 0 .82 1.58 1.58 0 0 0 .53.78.79.79 0 0 0 .34.2 1.22 1.22 0 0 0 .57.13 1.56 1.56 0 0 0 .77-.21 1.13 1.13 0 0 0 .42-.39 1.06 1.06 0 0 0 .27-.51.5.5 0 0 0 0-.12.49.49 0 0 0 0-.11c0-.07.05-.15.07-.23l.1-.2c.07-.15.13-.3.2-.47l.4-.85-.08.2a1.51 1.51 0 0 1 .15-.28 1.4 1.4 0 0 0 .25-.74l1.35-3 2.12 3.4c-1.4.28-1.83 2.56-.17 2.9 4.95 1 11.8-.35 16.64-1.87 5.43-1.7 9.83-4.87 14-8.64 7.33-6.65 14.64-13.8 17.55-23.5a1.53 1.53 0 0 0 2.61-1c0-.46.1-.9.07-1.35a3.88 3.88 0 0 1 0-1.27c.22-.9.56-1.73.7-2.67s.44-1.86.52-2.82a28.13 28.13 0 0 1 .35-2.89 10.29 10.29 0 0 0 .02-2.59zM468.54 391l-.44-1.06 1.5-.55c-.38.5-.74 1.02-1.07 1.6zm7.16 47.1l.18-4.07c1.24.92 2.5 1.8 3.8 2.6-1.3.52-2.67.97-3.97 1.42zm24.62 5.9l-.48-.75h.78zm39.2-66.15c.87 1 1.7 2 2.46 3.1-1.37.26-2.72.55-4.06.88a18.82 18.82 0 0 1 1.6-3.99zm-29.75-14.8l-2.12 2.7a16.79 16.79 0 0 0-.75-2.91c.98.02 1.93.14 2.87.2zm-3.6 9.8c.08.32.15.64.22 1l-.77-.08.55-.93zm15 77.83a38.33 38.33 0 0 1-14.56 3.2l-4.33-6.92a84.12 84.12 0 0 0 1.64-3.77c6.9-.58 12.8-3.63 18.47-7.35l.66-.4a1.28 1.28 0 0 0 .22.17l3.5 1.8v.3c.13 2.84 0 5.67.3 8.5v.23a1.6 1.6 0 0 0 .19.57 35.27 35.27 0 0 1-6.13 3.65zm-11.64-76.45c-.28-1.55-.68-3.06-1.05-4.6 1.55-2.08 3.2-4.1 4.7-6.1a49.52 49.52 0 0 1 13.15 4.54 1.51 1.51 0 0 0 .56.15c2.7 1.48 5.32 3.77 7.85 5.34a18.58 18.58 0 0 1 2.71 2.08 20.43 20.43 0 0 0-2.21 5.12 32.96 32.96 0 0 1-.71 1.95l-4.92 1.38c-.54-.5-1.1-1-1.7-1.45a39.46 39.46 0 0 0-18.43-8.42zm23.35 12.06c-.14.26-.3.52-.45.77l-.44-.52zm.8 55.4c-1.24 1.13-2.45 2.2-3.68 3.23-.14-2-.15-3.93-.18-5.9l.27.14c1.27.7 2.54 1.62 3.9 2.24zm2.8-2.64c-2.06-.3-4.1-2.08-5.9-3l-1-.5a24.11 24.11 0 0 1-.14-4.95 28.9 28.9 0 0 0 2.92-3.32c2.25-2.68 4.1-5.68 4.25-8.35a47.11 47.11 0 0 0 1.32-5.13 70.28 70.28 0 0 0 3-1c.2.2.4.4.58.6a37.27 37.27 0 0 0 2.78 3c1.16 1 2.53 2.88 4.23 2.83C547 427 541.9 433.6 536.4 439zM549 416.18a10.13 10.13 0 0 0-1.4-1.07 18.39 18.39 0 0 1-3.5-3.27l-.22-.23 1.85-.8c1.2-.53 2.65-1 4-1.54-.15 2.3-.42 4.62-.73 6.9zm.9-10.24c-1.64 1-4.12 1.6-5.68 2.3-.86.38-1.72.73-2.6 1.08l-2.9-2.72a30.06 30.06 0 0 0-4.45-16.94 32.8 32.8 0 0 0 2.39-4.41c2.38-.63 4.78-1.2 7.24-1.62 4.7 6.7 6.1 14.46 5.97 22.32z" fill="#ddd"/><path d="M235.2 332.55l-4.4-10.62c-.7-1.55-1.26-3.26-2.64-4.36a1.55 1.55 0 0 0-2.36.31l-5.2 7.4c-1.43 2-2.75 6.1-4.68 7.54a1.52 1.52 0 0 0-.63 1.05 1.62 1.62 0 0 0 .48 2.71c8.42 3.2 15.68 9 24.22 11.86a1.5 1.5 0 0 0 1.89-1.45c-.2-4.9-4.88-10-6.68-14.44z" fill="#444"/><path d="M480.16 286.48l.26-20.22a1.38 1.38 0 0 0-.62-1.18A1.56 1.56 0 0 0 478 263c-7.63 1.77-25-5.82-28.95 4.4a14.35 14.35 0 0 0-.47 1.45l-.75-.2c-1.92-.48-3.8-1.1-5.68-1.73l-.24-.5-1.55-3.06a219.91 219.91 0 0 1-3.4-8.16 13.15 13.15 0 0 1-.45-3l.2-.06a1.54 1.54 0 0 0 1-1.8c1.35-2.45 2.33-5.87 1.26-8.4a1.17 1.17 0 0 0 .05-.2h.28c.74 0 1.3.17 1.9-.44s.48-1.65.48-2.45c0-1.06-.18-2.14-.26-3.2a2.3 2.3 0 0 0-1.27-2c-.75-.4-1.6-.54-2.38-.87a6.81 6.81 0 0 0-2.45-.69 1.29 1.29 0 0 0-1.17.53c-1.88-.28-4.7-.47-5.7 1.17a6.23 6.23 0 0 0-.51 3.57v.48c-1.1-.06-2.18-.1-3.23-.1a1.51 1.51 0 0 0-1.29 2.25l.1.22a1.3 1.3 0 0 0 1.93.54h.4a1.47 1.47 0 0 0-.23.26c-.65 1-1.45 1.9-2.12 2.92a1.27 1.27 0 0 0-1.16 1.78c1.64 4.1 2.88 8.32 4.77 12.32a22.22 22.22 0 0 1 .8 2.1 2.9 2.9 0 0 0-.8.31c-1.6 1-1.42 2.42-.78 4s2 4.76 3.62 5.47a2.61 2.61 0 0 0 .75.2 20.5 20.5 0 0 0 1.36 2.64c-1.45 1-2.83 2.12-4.3 3.05-1.87 1.18-3.28 2-4.43 3.86a1.43 1.43 0 0 0 1.28 2.19c.26.73.65 1.46 1 2.27 2.55 6.25 5 12.43 6.32 19.05a1.48 1.48 0 0 0 1.44 1.1 25.22 25.22 0 0 0 3.91-.92 1.63 1.63 0 0 0 .58-.08 2.73 2.73 0 0 0 .5.05 11.38 11.38 0 0 0 1.31-.06 9.56 9.56 0 0 1 1.07 0 2.54 2.54 0 0 0 2.08-.66 1.59 1.59 0 0 0 .44-1.06 1.53 1.53 0 0 0-.44-1.06 1.63 1.63 0 0 0-1.75-.28 2.56 2.56 0 0 0-.11-.24 4.81 4.81 0 0 0-.51-.76 9.36 9.36 0 0 1-.7-1.07.54.54 0 0 0-.05-.11 1.33 1.33 0 0 0 .27-1.3 28.79 28.79 0 0 1-1.36-4.25 1.47 1.47 0 0 0-.69-.89 1.5 1.5 0 0 0-.77-.2 1.34 1.34 0 0 0-.22-1c-1.1-1.72-2.25-3.4-3.2-5.22a8.4 8.4 0 0 1-1-2.44 2.77 2.77 0 0 0 0-.5 9.34 9.34 0 0 1 .65-.95 4.56 4.56 0 0 1 .8-.7h.18c2.7-1 5.37-2.12 8-3.26l3-1.22 1.16 1.4c.5.6.85 1 1.25 1.6 1.1 2.13 2.28 4.2 3.5 6.3 1.43 2.44 2.5 5.06 3.8 7.56l1.78 3.4a31.05 31.05 0 0 0 2.06 2.94 19.12 19.12 0 0 1 2 3.46c.4 1 .74 2.36 1.58 3.07a1.51 1.51 0 0 0 1.85.15 5.15 5.15 0 0 0 3.77 2.48c2.9.17 9.58-2.4 10.9-5.26.8-1.7.35-4.38.45-6.2.13-3.47.6-6.98.7-10.5z" fill="#999"/><path d="M206.9 398.26a1.59 1.59 0 0 0-3 0l-1.72-.5c-4.36-1.53-8.38-3.9-12.66-5.57-8.56-3.34-17.36-6.16-25.95-9.45a1.32 1.32 0 0 0-2-.65c-4 2.7-7.17 5-9.73 9.16-2.73 4.46-4.85 9.94-4.83 15.2 0 10.48 7.9 20.6 17.2 25.08 8.83 4.23 22.34.25 29.55-5.84 4.55-3.84 7.68-9.18 11-14 2.6-3.76 3.74-9.12 2.13-13.43z" fill="#ddd"/><path d="M179.8 358.37c-3.3-1.1-7.65-.1-11.22 1.23a1.29 1.29 0 0 0-.66-.16c-4.24.12-7.57 3.82-10.73 6.3-.26.2-.53.4-.8.6l-1.85 1.33c-3.5 2.45-7.2 4.7-10 7.92a61.54 61.54 0 0 0-7.38 10.2 53.08 53.08 0 0 0-6 12.4c-3.8 11.84-2.2 23.73 2 35.17 1.64 4.53 3.15 8 6.88 11.17a50.54 50.54 0 0 0 5.49 4.1 7.69 7.69 0 0 0 2.93 2 1.57 1.57 0 0 0 .54.09 77.35 77.35 0 0 0 7.21 3.51 1.64 1.64 0 0 0 1.07.05 27 27 0 0 0 11.73 3c1.93 0 1.93-3 0-3-5-.07-9.83-2.08-14.18-5l-4.33-3.3a67.66 67.66 0 0 1-7.5-7.57c-8.63-10.12-9.1-22.47-7-35a57.33 57.33 0 0 1 3.33-12.37 63.41 63.41 0 0 1 9.25-13.03l1.76-1.84A93.4 93.4 0 0 1 160 368a44.13 44.13 0 0 1 19.39-6.72 1.51 1.51 0 0 0 .4-2.91z" fill="#bbb"/><path d="M189.52 358.44a6.24 6.24 0 0 0-1.32-.21 1.44 1.44 0 0 0-1.44-1.38 14.81 14.81 0 0 1-2.48-.35 1.49 1.49 0 0 0-2.08 0l-.17.2c-.62.78-.58 2.3.66 2.5l.37.06a50.63 50.63 0 0 1-6.1 1.47 1.59 1.59 0 0 0-.59-.1c-10 .14-17.6 6.15-24.8 12.34-6.73 5.8-11.7 15.25-15.1 23.37-3.9 9.35-3.4 21-1 30.56 2.26 9.06 8.37 16.2 15.66 21.73a1.33 1.33 0 0 0 .7.28c6.34 4.26 14.6 6.4 21.6 8.54 1.85.57 2.64-2.33.8-2.9-7.88-2.4-17.73-4.77-23.83-10.58a1.46 1.46 0 0 0-.73-.39c-5.65-5-10-11.35-11.64-18.85-2.07-9.23-1.94-19.9 2-28.62 3.33-7.4 7.6-16 14-21.2 6.12-5 12.18-10.22 20.23-11.14a1.43 1.43 0 0 0 1.28.3c2.25-.47 4.55-.88 6.78-1.46 2-.52 4.34-1.92 6.45-1.34a1.5 1.5 0 0 0 .75-2.86z" fill="#ddd"/><path d="M212.6 314.26a1.54 1.54 0 0 0-1.5-1.5c-12.88-1.1-25-1.28-37.38-5.6a1.39 1.39 0 0 0-1.83 1.5c-12.5 1.65-27.23.18-35.84 10.84a88.53 88.53 0 0 0-5.41 8.15c-1.36 2.12-4 4.68-4.38 7.4-.57 4.74 7.7 5.16 10.85 4.84 8-.82 15.4-6.13 23-8.44 7.95-2.44 16.3-2.78 24.57-2.76h.22a1.18 1.18 0 0 0 1.08 1.24c3.06.47 6.06.14 9.12.4 2.45.2 3.93 1 6.08 0 4.82-2.25 7.34-8.53 10.22-12.6a1.41 1.41 0 0 0 .26-.68 5.35 5.35 0 0 0 .94-2.8zm105.68-3.08c-1.5-.8-4-.54-5.6-.72l-7.7-.92c-13-1.13-26.47 1.23-39.5 1.85a156.26 156.26 0 0 1-20.3 0c-2.68-.22-5.13-1.3-7.78-1.63-1.44-.18-6.58 1.2-7.44.57-1.5-1.08-2.94 1.27-1.67 2.45a1.65 1.65 0 0 0 .13.63c1.93 4.53 3.44 9.26 5 13.88s4.06 8.7 6.25 12.9c4.6 8.82 8.4 18 12.36 27.16l13.1 30.15c2.08 5.1 7.1 8.86 11.47 3.32 6.15-7.8 9.16-19.32 12.5-28.5 4.05-11.14 12.17-20.14 17.45-30.7 2.4-4.8 4.9-9.47 7.68-14.05 2.18-3.56 5.32-7.2 6.13-11.4.5-2.38.14-3.78-2.04-4.98z" fill="#999"/><path d="M431.85 310.57c-3.88-5.68-14.54-5.08-20.43-5.23-10-.26-19.93 0-29.9.23l-27.66.76c-4.74.06-9.5.34-14.22.53-3.6.15-8.18 0-11.7.8-5.2 1.23-6.94 5.62-9 9.94-1.7 3.52-3.48 7.07-4.93 10.7-1.74 4.33-4.3 8.15-6.35 12.34-4.2 8.53-9.12 16.93-13.9 25.17s-8.44 16.75-12.24 25.38c-1.35 3.08-3 9.28-6.06 11.12-2 1.22-5.56.42-6.2 3.46-1.06 5.1 9.47 7.37 12.7 8 4.4.8 8.43 2.66 12.94 2.9 5.28.26 10.62.33 15.9.13l13.54-.32c5 0 10 1 14.94.58s9.78-.56 14.66-.82 9.85-1.1 14.82-1c3.14.1 7.7-.22 10.18-2.28.07-.05.13-.12.2-.18a1.6 1.6 0 0 0 2.86.68c2.27-3.2 3.7-6.66 5.67-10 1.46-2.5 3.14-4.83 4.5-7.37 4.06-7.5 9.07-14.6 12.95-22.15 2.3-4.5 7.68-12.15 4.5-17.27-1.92-3.1-5.17-5.62-2.2-9.7s6.26-.4 10.26-.86c6.67-.75 7.62-11.72 9.6-16.34a96 96 0 0 0 4.17-12.06c.67-2.5 1.97-4.8.38-7.1z" fill="#ddd"/><path d="M178.3 308.9c-1.4 0-2.8-.23-4.22-.25-.18 0-.47 0-.78.06a1.78 1.78 0 0 0-1-.51 28.74 28.74 0 0 0-8.49.84 1.61 1.61 0 0 0-.8-.03l-7.06 1.48-2.63.43a26.8 26.8 0 0 0-4.74.7 6.85 6.85 0 0 0-1.66.77 22.46 22.46 0 0 0-3.77 1.51c-7.8 4.1-11.8 13.24-16.75 20a1.21 1.21 0 0 0 .18 1.73 1.62 1.62 0 0 0 .37.74 6.07 6.07 0 0 0 2.9 1.75 1.5 1.5 0 0 0 1.69-.69c2-3 2.75-6.57 4.85-9.57 2-2.8 4.1-4.7 5.8-7.68A9 9 0 0 1 143 319c.27-.12.53-.23.83-.33 2.14-.7 4.8-1.5 7-2s4.36 0 6.52-.72a41.6 41.6 0 0 1 7.51-1.66 18.26 18.26 0 0 0 6.68-2.29l2.88.43a6 6 0 0 0 2.07 0 8.93 8.93 0 0 1 1.8-.5 1.5 1.5 0 0 0 0-3.04z" fill="#bbb"/><path d="M253.54 401.72c-3.85-31-26.76-56.85-57.64-62.84-42.46-8.23-83.88 23.5-89.64 65.72a67.5 67.5 0 0 0 7 40.7c20.15 38 76.65 49.34 110.6 24a76.32 76.32 0 0 0 29.68-50.6 66.87 66.87 0 0 0 0-16.98zm-25.64-.6c-.5 3.58-.68 7.2-1.1 10.8-.9 7.65-4.68 14.14-8 20.82-2.54 2.58-4.58 6-7.18 8.43a47.86 47.86 0 0 1-4.13 3.22c-4.2 2.9-8.87 6.55-13.65 8.36a76.38 76.38 0 0 1-12.19 3.58c-10 1.3-20.3.16-29.1-3.82a37.86 37.86 0 0 1-9.17-5.92c-21.33-18.44-15.55-52.52 2.08-71.36 12.63-13.5 34-21.44 52-15.23 12.84 4.43 23.16 15.1 28.14 27.45a44.75 44.75 0 0 1 2.63 9.63c0 .18.05.36.07.54a62.55 62.55 0 0 1-.4 3.5zm349.74 3.56a61.37 61.37 0 0 0-2.81-17c-8.13-25.55-31.93-43.37-57.48-49.33-17.56-4.1-35.3.4-50.85 8.93a107.38 107.38 0 0 0-31.87 26.33c-8.4 10-9.47 25.62-8.3 38.1a73.68 73.68 0 0 0 25 49c25.2 21.62 64.52 23.85 93.17 7.85a64.27 64.27 0 0 0 20.87-18.24c8.65-11.95 11.86-25.82 12.27-40.35.07-1.74.07-3.52.01-5.3zm-62.57 50.58c-21.4 4.52-47.74-6-58.47-25.54a44.21 44.21 0 0 1-5-26.65c1.4-11.74 9.4-22.75 17.4-31.13q1.7-1.38 3.46-2.7a2.14 2.14 0 0 0 .35-.16c7.75-5 16.48-8.6 25.86-9 15-.62 28.83 2.77 40.28 12.92a45.23 45.23 0 0 1 13.53 44.29c-3.62 14.44-13.48 27.72-27 34.36a45.13 45.13 0 0 1-10.41 3.6zM204.68 317.3c-13.38 0-26.7-1.17-40.07-.38-6.35.37-11.75.14-17.55 3.23-5.07 2.7-10.72 7.9-13.06 13.2-.77 1.75 1.8 3.28 2.6 1.5 2.5-5.64 8.83-11 14.47-13.23s12.1-1.56 18.16-2.1c6.6-.6 13.14.6 19.73.86 5.2.2 10.5-.1 15.73-.1a1.5 1.5 0 0 0 0-3z" fill="#444"/><path d="M222.9 312.25c-5.08-1.73-6.58-.17-9.23 3.94-4.23 6.55-7.7 13.53-11.93 20.07-2.2 3.4-4.3 6.83-6.32 10.34-.77 1.35-1.8 2.84-2.7 4.37a1.24 1.24 0 0 0-1.06.76c-2.34 4.7-5 9.2.35 12.8 4 2.64 7.46.82 9.7-2.88l24-40.18c2.5-4.38 2.85-7.28-2.83-9.2z" fill="#bbb"/><path d="M342.58 351.55c-3.84-1.4-8.26-5.2-9.34-9.4.16-.37.3-.67.34-.84.76-2.72 1.17-5.55 1.87-8.3 1.4-5.43 2.57-10.86 4.6-16.12.47-1.2-.7-2-1.72-1.76a1.36 1.36 0 0 0-1-.39h-2.32a1.36 1.36 0 0 0-1.32-.16c-2.7-.26-5.4.46-8.12.5-1.9 0-3.2-.5-4.68.63-1.7 1.3-2.3 4.74-3.33 6.6l-5.25 9.6c-3.23 5.9-6.7 11.5-9.16 17.76-1.9 4.87-.64 6.4 2.72 8.7l-.5.44c-5.6 5.27-11.3 12.75-13.13 20.34-2 8.17-2.8 17.8.54 25.72.74 1.76 3.64 1 2.9-.8-6.15-14.6.27-33 12.16-43.74a1.46 1.46 0 0 0 .75.21c8.4-.1 16.7-.36 25.1-.15 2.14.05 6 .58 7.94-.16 3-1.17.86-4.2 1.77-6.4a1.59 1.59 0 0 0-.8-2.32z" fill="#fb0"/><path d="M408.45 361.53c-.13-1.9-1.12-3.5-2-5.16s-1.36-3.63-2.57-5.05c-1.88-2.2-5.62-2.54-8.3-2.07h-.06a1.35 1.35 0 0 0-1.6.67c-1.86 3.27-4.18 6.3-6.12 9.56-.83 1.4-1.5 2.94-2.4 4.3-.64.95-1.44 1.37-1.72 2.53-.75 3.12 2.2 5 4.73 5.84 3.2 1 8.32 2.67 11.7 2.24 2.28-.3 3.33-2.24 4.5-4.07 1.6-2.44 4-5.73 3.82-8.78z" fill="#fff"/><path d="M314 366.6c-5.85 1.45-4.75 10.27-5.8 14.9-.95 4.23-2 11.57 2.13 14.3a1.46 1.46 0 0 0 1.52 0l.24-.16c1.6-1.08.1-3.68-1.5-2.6.8-.54.13-4 0-5a20.31 20.31 0 0 1 .74-6.68c.56-2.54.3-11.12 3.44-11.9 1.9-.45 1.1-3.32-.76-2.85z" fill="#444"/><path d="M400.48 312.7c-1.42-1.7-7.12-.58-8.56.77-1.82 1.7-2.47 4.73-3.2 7-1.5 4.68-.1 5 1.13 9.72.52 2 2.07 9.4 5.6 6.14 1.82-1.68 1.47-5.58 1.92-7.75.92-4.46 2.37-8.76 3.38-13.2a1.44 1.44 0 0 0 0-.88 1.65 1.65 0 0 0-.29-1.8zm1.38 56.63l-.32.6a1.44 1.44 0 0 0-1.54-.06 14.68 14.68 0 0 0-4.49 3.59c-.77-2-2.22-3.33-3.56-5.14-1.14-1.54-3.74 0-2.6 1.5 1.75 2.36 3.48 3.66 3.68 6.86a29.63 29.63 0 0 1-.49 8 1.16 1.16 0 0 0 0 .37l-1 1.84c-.77 1.45 1.16 3.12 2.35 1.82 2.22-2.42 3.5-5.54 5.06-8.38 1.76-3.2 3.85-6.23 5.5-9.48.86-1.72-1.72-3.24-2.6-1.52z" fill="#fff"/><path d="M387 327.06c-12.92-3.33-26.38-4.3-39.68-4.4a1.5 1.5 0 0 0 0 3c13 .1 26.23 1 38.88 4.28 1.8.48 2.64-2.4.8-2.9zm1.52 9.1c-6-2.87-12.9-3.46-19.38-4.46a216.82 216.82 0 0 0-21.85-2.39c-1.93-.1-1.93 2.9 0 3a206.74 206.74 0 0 1 21 2.29c6.08.93 12.85 1.42 18.5 4.07a1.42 1.42 0 0 0 .76.27h.18a1.51 1.51 0 0 0 .8-2.78zm-4.07 7.33c-6.07-2.82-13.38-3.63-19.93-4.53a146.36 146.36 0 0 0-20-1.74 1.5 1.5 0 0 0 0 3 142.55 142.55 0 0 1 19.24 1.63c6.06.83 13 1.52 18.72 4a1.3 1.3 0 0 0 1.47.41l.18-.06c1.1-.32 1.56-2.14.32-2.7zm2.8 10.65c-1.37-3.3-4.12-3.27-7.32-4.14-4.95-1.35-9.86-2.4-14.9-3.44-5.6-1.15-20-5-23.12 1.86-.8 1.75 1.8 3.27 2.6 1.52 2.3-5.1 17.58-.86 21.45-.13l7.9 1.58c2 .48 9.76 1.73 10.52 3.54s3.64 1 2.9-.8zm-6.25 3.5c-3.93-.4-8.07-2.35-12-3.06a77.36 77.36 0 0 0-15.34-1.56 1.5 1.5 0 0 0 0 3 78.52 78.52 0 0 1 16.8 1.83c3.53.7 7 2.4 10.5 2.76 1.92.23 1.9-2.77.04-2.97z" fill="#999"/><path d="M509.72 326.28a1.55 1.55 0 0 0 .1-2.2 1.45 1.45 0 0 0-.95-.8 34.9 34.9 0 0 0-13.51.21h-.13a33.1 33.1 0 0 0-5.17.56c-4.67-.2-10.75 2.2-14 3.58a98.65 98.65 0 0 0-20.29 11.16 109.26 109.26 0 0 0-15.37 12.86 72.35 72.35 0 0 0-8.48 11.22 20 20 0 0 0-2 2.88l-1.53 2.9-1 1.68a1.41 1.41 0 0 0-.19 1 30.75 30.75 0 0 0-1.87 6.5c-.3 1.8-.68 4.44 1.5 5.18 2.88 1 5.27-3.77 6.56-5.45 4-5.25 8.84-9.2 13.9-13.4 3-2.48 6.25-4.53 9.4-6.8 2.5-1.8 5.13-4.24 8.1-5.24a1.41 1.41 0 0 0 .84-.69A105.67 105.67 0 0 1 489.2 342c4.4-1.1 9.6-1.5 13.87-3.33A19.85 19.85 0 0 0 507 338a3.52 3.52 0 0 0 2.87-3.47 39.59 39.59 0 0 0-.09-4.49c-.1-1.3-.02-2.5-.06-3.76z" fill="#bbb"/><path d="M368 374.13c-1.5-1.2-3.63.9-2.12 2.12 2.66 2.13 4.48 3.95 3.94 7.67-.78 5.32-5.16 7.2-9.63 8.9l-10.12 3.7c-2.32.78-4.87.4-7 1.22-1.78.7-1 3.6.8 2.9 1.14-.44 2.88 0 4.07-.24a56.55 56.55 0 0 0 7.32-2.43c4.45-1.67 10.4-3.16 14-6.42a12.32 12.32 0 0 0 3.72-9.16c.02-4.15-1.9-5.77-4.98-8.23zm-5.13 3.1c-1.13-1.54-3.74-.05-2.6 1.5a5.17 5.17 0 0 1 .28 3.21c-.66 2.1-2.3 3-4.16 3.7-1.68.66-5.62 2.86-7.37 2.43-3.14-.78-2.4-7.6-.1-9 1.8-1.08 4 0 5.75-1.1s.13-3.6-1.52-2.6c-.63.4-1.77 0-2.5.1a11.53 11.53 0 0 0-3.33 1 4.52 4.52 0 0 0-2.8 3.39c-.9 3.13-1.37 10.48 3.06 11.28 1.83.34 4.4-.7 6-1.3a52.32 52.32 0 0 0 7-2.89c2.94-1.52 4.28-6.96 2.27-9.72zm-29.6 22.46c-7.84.83-18.3.34-25.27-3.37-1.7-.9-3.22 1.68-1.5 2.6a26.26 26.26 0 0 0 12.18 3.3c4.8.26 9.8 1 14.6.48 1.9-.2 1.92-3.2 0-3zm89.94-83.87c-1.9-.28-2.7 2.6-.8 2.9 2.26.34.4 2.8-.13 4.14l-2 5.57-2.23 7c-.73 1.8-1.18 2-2.67 1.84a1.6 1.6 0 0 0-2.45 1.6v.2a1.54 1.54 0 0 0 1.45 1.11c2.34.2 4.36.78 5.7-1.52 1.88-3.22 2.46-7.73 3.7-11.24 1.35-3.7 5.8-10.64-.58-11.6z" fill="#999"/><path d="M271.77 373.47a6.55 6.55 0 0 0-.65-1.16c-1.27-2-2.88-3.33-4-5.53-3.58-7.17-5.73-15-8.78-22.36-1.3-3.17-2.15-6.45-3.3-9.66s-2.9-6.07-4-9.25c-1-2.8-2.1-6.34-4.2-8.83a3 3 0 0 0-.2-.62 5.79 5.79 0 0 0-.36-.64 1.31 1.31 0 0 0-.28-2.24c-1.8-.8-3.9-.45-5.84-.4a1.55 1.55 0 0 0-1.14 2.51 1.46 1.46 0 0 0 .32.75c4.15 5.32 6.55 12.26 9.2 18.38q2.16 5 4.4 9.92a117.93 117.93 0 0 0 7.05 17.23c1.84 3.48 3.53 7.53 6 10.8 1.2 2.17 2.65 4 5.5 4.06 1.87.06 1.95-2.66.28-2.96zm46.87-58.82a5 5 0 0 0 0-2.78 1.5 1.5 0 0 0-1.05-1.05l-.74-.1a1.59 1.59 0 0 0-1.69.69c-2.56 3.4-4 7.67-5.78 11.5s-3.73 7.8-5.38 11.8c-.74 1.8-1.53 3.56-2.35 5.33a39.67 39.67 0 0 0-2.68 4.11c-2.13 3.92-3.95 8-6.1 11.94-2.9 5.38-5.52 11-8.2 16.5-2.38 4.3-4.73 8.62-6.75 13.1l-5.4 12.07c-.67 1.54-1.4 2.82-.2 4.2a1.53 1.53 0 0 0 1.82.24 7.43 7.43 0 0 0 2.77-3.37 12.77 12.77 0 0 0 1.42-2.32 121.53 121.53 0 0 0 4.66-11.37c3.8-9.5 9-18.7 14-27.65 4.77-8.5 8.94-17.35 13.2-26.12 2-4.08 4.33-8 6.36-12a34.42 34.42 0 0 0 1.76-3.69 1.43 1.43 0 0 0 .31-1.05zM196.4 411.82a1.51 1.51 0 0 0-2.56-1.06c-3.76 4.38-8.2 7.93-14.16 8.74a26.69 26.69 0 0 1-10.4-.59c-1.67-.9-3.23-2.37-4.74-2.88-1.7-.57-2.9-.4-3.72-2.3a1.2 1.2 0 0 0-1.68-.66l-.6-.67c-1.28-1.45-3.4.68-2.12 2.12a29.41 29.41 0 0 0 7.44 6.38A9.5 9.5 0 0 0 170 423a22.31 22.31 0 0 0 6.12 0 76.77 76.77 0 0 0 2.7-.39h.54a22.21 22.21 0 0 0 5-1.13c5.72-1.56 11.5-4.37 12.05-9.66zm-28.17-24.48a1.23 1.23 0 0 0-1.37-.91 5 5 0 0 0-.56.09 7.85 7.85 0 0 0-4.06 2.69c-1.24 1.36-2.88 3.18-3.4 5a1.59 1.59 0 0 0-.06.36 4.82 4.82 0 0 0-.51 2c-.05 1.74 2.44 2 2.94.4a9.24 9.24 0 0 1 1.53-2.79 21.77 21.77 0 0 0 1.81-1.21 16.25 16.25 0 0 0 1.58-1.14c.54-.48.9-1.2 1.42-1.7l.5-.35a1.56 1.56 0 0 0 .17-2.45zm28.04 7.26c-9.62 1-19.4 1.92-29.1 2a1.5 1.5 0 0 0 0 3c9.7-.12 19.46-1.07 29.1-2 1.9-.2 1.92-3.2 0-3zm15.96 6.22c-3.17.32-6.3.87-9.43 1.48-2.35.05-4.67.85-7 1.25-4.46.76-8.9 1.34-13.4 1.72-.27 0-.66.07-1.12.14l-12.15 1.2c-.92.1-2 .28-3 .43q-.93.06-1.86.06a11.87 11.87 0 0 1-5.77-1.46 1.78 1.78 0 0 1-.53-1 1.19 1.19 0 0 0-1.12-1.08c-1-1-3.1-.22-2.54 1.36 1.13 3.14 1.42 4.46 5.15 5 .7.1 1.43.17 2.15.2a41.24 41.24 0 0 0 9.67-.53c3.15-.23 6.3-.54 9.44-.85l5.16-.38c2.68-.18 13.5.18 17.53-2.38 3.54-.23 7.36-.57 9.93-2.62a1.51 1.51 0 0 0-1.1-2.55zm-48.7.65a1.82 1.82 0 0 0-.3-.21 1.75 1.75 0 0 0-2.57 1 1.14 1.14 0 0 0 0 .66 1.18 1.18 0 0 0 0 .72s0 .07.05.1a2.34 2.34 0 0 0 .59 1.08 2 2 0 0 0 2.16.51 1.82 1.82 0 0 0 1.18-.54c1.17-1.24.22-2.8-1.1-3.33z" fill="#bbb"/><path d="M223.85 317c.12 4.07-3.75 8.52-5.88 11.8-1.44 2.22-2.72 4.54-4.25 6.72s-2.5 4.8-4.23 6.68c-1.3 1.42.8 3.55 2.12 2.12 1.68-1.83 2.5-4.13 3.87-6.18l5.66-8.62c2.36-3.72 5.84-7.95 5.7-12.53-.06-1.9-3.06-1.9-3 0zm-18.93 34l-4.08 6.12a26.9 26.9 0 0 0-1.46 2.34c-.28.52-.8 2.2-1.32 2.48-1.72.9-.2 3.48 1.5 2.6s2.15-3.24 3.1-4.75l4.85-7.26c1.1-1.63-1.5-3.13-2.6-1.52z" fill="#fff"/><path d="M469.9 302.34c-1-2.64-.5-6.3-.68-9.06l-.45-7c-.13-2.68.27-5.3.12-8-.17-2.92-.86-6.08-.73-9 .1-1.93-2.9-1.92-3 0a68.49 68.49 0 0 0 .62 8.46c.2 2.8-.2 5.48-.06 8.27.24 5.17-.48 12.23 1.28 17.1.66 1.84 3.56 1.06 2.9-.76z" fill="#bbb"/><path d="M424 236.8a4.93 4.93 0 0 0-5.51-1.92c-5.76 1.5-12-.64-17.88.5-3 .58-3.8 3.18-3.14 5.93a3.46 3.46 0 0 0 .63 2 4 4 0 0 0 .93 1 3.1 3.1 0 0 0 1.15.69 3.23 3.23 0 0 0 .61.1h.32a1.68 1.68 0 0 0 .38.19c3.44 1.1 7.48 1.2 11.08 1.36 2.58.1 5.46.57 8.13.32a1.48 1.48 0 0 0 1.85.36c3.6-2.06 4.9-8.22 1.45-10.53zm-3.7 4.36a8.28 8.28 0 0 1 .25 1.49c-.52-.07-1.05-.08-1.57-.13-1.32-.13-2.63-.24-4-.33-3-.22-6.1-.23-9.14-.45a3 3 0 0 0-.09-2v-.08c4-.26 11.83 1.14 14.54 1.5z" fill="#444"/><path d="M421 360.1c-.28-2.22-1.9-3.85-3.1-5.64-1.42-2.1-2.34-4.56-3.85-6.62-3-4-4.72-7.26-10-8s-10.83-.7-16.2-1.07a1.42 1.42 0 0 0-1.24 2.22c0 .62-.55 1.24-.76 1.8a14.76 14.76 0 0 1-.43 1.44 7.5 7.5 0 0 0-.78 3.79 1.49 1.49 0 0 0 0 .42v.07a1.18 1.18 0 0 0 .12.33 1.43 1.43 0 0 0 .87.73c3 1 6.6.3 9.73.8 2.46.4 4.85 1 7.3 1.36a12.57 12.57 0 0 0 .7 2c.55 1.12 1.45 2 2 3.12.73 1.4 1.45 2.9 2.32 4.27-3.7 8.3-8.38 16.37-12.6 24.47-2.48 4.76-5.12 9.55-8.05 14q-2.38 3.7-4.87 7.3c-1.33 1.92-2.43 4.54-4 6.23a1.54 1.54 0 0 0-.39.73c-2-.4-4.34.38-6.34.68a80.32 80.32 0 0 1-13.24.66l-24.53-.33c-8.18-.15-16.2-.7-24.3-.8-4.15-.06-8.3.26-12.47.2-1.35 0-10.2-.74-9.95.2a1.55 1.55 0 0 0-2.07-.86c-5.2-1.54-11-4.06-14.28-8.07-3.1-3.73-4.84-8-8.73-11.08-4.5-3.53-9.65-5.77-14.88-7.94l-13.18-5.68a1.45 1.45 0 0 1-1.26.16c-4.64-1.4-9-3.42-13.53-5.2-3.92-1.57-7.9-2.82-11.87-4.25-3.42-1.23-6.57-3-9.9-4.45-5.56-2.42-11.95-4.63-16.1-9.28l-3.5-1.74c-3.47-1.64-7.52-2.5-11.13-4a.64.64 0 0 1-.58.08 17.28 17.28 0 0 1-4.29-2.16 6.47 6.47 0 0 1-1.22-.71c-3.9-.37-7.85 2.28-10.73 5.22A17.57 17.57 0 0 0 148 354a2.2 2.2 0 0 0-1.59.51 9.64 9.64 0 0 0-2.26 3.09c-.64 1-1.5 1.82-1.22 3.14a2.55 2.55 0 0 0 1.45 1.71c-1.72 3.7-2.8 8-1.65 11.3a1.64 1.64 0 0 0 .39.61 1.47 1.47 0 0 0 1 1c13.75 4.76 27.2 10.42 40.77 15.62l20.93 8.16c6.22 2.37 12.67 3.9 18.9 6.17 11.6 4.23 23 9.6 34.38 14.38 5.5 2.3 11.2 3.23 16.74 5.32a51.16 51.16 0 0 0 17.42 3.46 1.34 1.34 0 0 0 .82-.21c12.72.8 25.36 1.74 38.15 1.75 6.85 0 13.85.23 20.7.6 6.42.35 12.8-.1 19.2-.1h2.26a1.31 1.31 0 0 0 1.33-.86c4.77-1.4 9.6-3.4 12.35-7.7s5.18-8.5 7.76-12.7c6.92-11.27 13.33-22.8 19.43-34.56 2.1-4.1 6.4-9.55 5.76-14.56z" fill="#ddd"/><path d="M207.1 406.45l-.22-.06a1.51 1.51 0 0 0-1.87 1.71c-4.35 11.6-13.37 21.4-26.06 23.68-7.7 1.38-15.84-.22-21.53-5.8-4.1-4-7.92-11.83-7.88-17.64a1.5 1.5 0 0 0-3 0c0 6.36 3.44 14.3 7.9 18.82 6.2 6.3 13.77 8.58 22.55 7.9 15.18-1.16 26.3-13.24 31.15-26.77a1.52 1.52 0 0 0-1.03-1.85z" fill="#bbb"/><path d="M390.74 379.94a12.36 12.36 0 0 0-.9-2.65 3.56 3.56 0 0 0-2.14-1.72 8.4 8.4 0 0 0-2.4.16A1.55 1.55 0 0 0 384 378a7.15 7.15 0 0 0 1.48 3.55l.4 1.1a2.5 2.5 0 0 0 2.19 1.93 1.23 1.23 0 0 0 1.43-1.32l.12-.07a2 2 0 0 0 1.2-1 2.79 2.79 0 0 0-.08-2.24z" fill="#999"/><path d="M224.2 327.14l-.1-.16a1.51 1.51 0 0 0-1-.63c-4.5-1.65-6.45-8.5-6.43-12.64a1.5 1.5 0 0 0-3 0c0 5.76 2.75 13.7 8.87 15.63 1.16.37 2.47-1.13 1.67-2.2zm-5.74 5.73c-2 0-3.85-4.32-4.8-5.8-.48-.74-2.83-4.93-2.08-6 1.12-1.58-1.48-3.08-2.6-1.52-1.57 2.22.6 6.64 1.8 8.63 1.7 2.84 3.84 7.7 7.67 7.66a1.5 1.5 0 0 0 0-2.98zm-4.86 7.38c-.18.25-4.44-6.08-4.76-6.8a13.68 13.68 0 0 1-1.07-3.47c-.1-.6.18-2.12-.64-1.82 1.8-.66 1-3.56-.8-2.9-3.62 1.33-.9 8.18.2 10.35 1.3 2.56 6.4 10.72 9.64 6.14 1.12-1.58-1.48-3.08-2.6-1.5zm-3.78 6.1c0-.7-1.78-1.35-2.35-1.94a11.13 11.13 0 0 1-2-3.3 13.68 13.68 0 0 1-1.12-7.62c.27-1.9-2.62-2.7-2.9-.8-.7 4.8.5 10.7 4.22 14.13 1.32 1.2 2.76 2.17 4.6 2 1.42-.14 2.6-.92 2.54-2.46-.07-1.93-3.07-1.94-3-.01zm-2.32 5.08c-.75.57-2.2-.25-2.84-.68a7.83 7.83 0 0 1-2.61-3.41c-1.35-2.7-2.34-4.5-2-7.62.22-1.92-2.78-1.9-3 0a12.41 12.41 0 0 0 .58 5.8 23.91 23.91 0 0 0 3.12 5.64c1.6 2 5.64 4.84 8.25 2.86 1.54-1.14 0-3.75-1.5-2.6zm-3.07 6.18c-2.75-.1-4.46-2.1-5.8-4.33-1.08-1.78-3-4.83-1.83-6.94.93-1.7-1.66-3.2-2.6-1.5-1.8 3.25.1 7.08 1.83 10 2 3.27 4.47 5.66 8.4 5.82 1.93.03 1.93-2.97 0-3.04zm-5.65 4.78c-1.38 1.6-4.55-3-5.16-3.9-1.6-2.3-1.48-4.76-1-7.4.34-1.9-2.55-2.7-2.9-.8-.86 4.8-.06 8.1 2.95 11.92 1.77 2.25 5.8 5.13 8.23 2.3 1.24-1.46-.9-3.6-2.13-2.12z" fill="#444"/><path d="M508.26 336.2l-.6.08a1.44 1.44 0 0 0-.93-.34 29.42 29.42 0 0 0-7.08.34c-2.2.52-4.47.75-6.7 1.1a21.09 21.09 0 0 1-3.37.09 30.94 30.94 0 0 0-3.73.33 6.78 6.78 0 0 1-3.29 0l-.65-.3-1.4-2.84c-.82-1.56-1.16-3.55-2.45-4.84s-3-.82-4.4-.17l-5.35 2.77a73.08 73.08 0 0 0-10.05 6.15 1.65 1.65 0 0 0-1.93 1.06 1.28 1.28 0 0 0-.39 1.89 1.42 1.42 0 0 0 .1.47 22.94 22.94 0 0 1 .89 2.57 7.41 7.41 0 0 1 .54 3 5.56 5.56 0 0 1-1 2.22l-1.7 2.7c-2.43 3.25-5.74 5.75-8.83 8.33-3.3 2.75-6.53 5.55-9.6 8.54-1.56 1.52-3.07 3.07-4.58 4.63a27.38 27.38 0 0 0-3.73 4.25c-.72 1.13-1.56 3-.22 4s2.6-.2 3.33-1.18 1.28-2.14 2.08-3.1c1.2-1.47 2.68-2.7 4-4.1a40.14 40.14 0 0 1 4.19-4.16c1.7-1.37 3.28-2.86 4.93-4.27a385.46 385.46 0 0 1 9.92-8.12c1-.76 1.92-1.5 2.92-2.2a1.42 1.42 0 0 0 .75-.43.48.48 0 0 1 .09-.11 17.9 17.9 0 0 1 1.92-1.08c1.7-.82 3-1.93 2.64-4a14.22 14.22 0 0 0-2.19-4.74c-.6-1-1.36-1.88-1.93-2.9-.17-.3-.32-.6-.48-.9a65.66 65.66 0 0 1 8.65-5.35c1.75-.93 3.44-1.94 5.24-2.74.4-.2 1.56-1 2.07-.88a7.19 7.19 0 0 1 .89 1.74c.3.75.65 1.47 1 2.18a1.31 1.31 0 0 0-.24 1.77 7.24 7.24 0 0 0 2.24 2.12 8.07 8.07 0 0 0 1.45 1.83 3.06 3.06 0 0 0 .1 1.2c.5 1.67 2.36 1.72 3.77 1.35s2.84-.84 4.28-1.22l4.65-1.27a1.52 1.52 0 0 0 .79-.56 23.7 23.7 0 0 1 3-.72l3.65-.46c1.2-.16 2.5-.27 3.75-.4 1-.1 2-.26 2.94-.36 1.94-.15 1.96-3.15.04-2.96z" fill="#999"/><path d="M444 313.23c-.6-1.77-1.54-3.08-3.7-3.14h-.14c-3.17-.53-5.52.83-5 4.5s-.35 9.68 2.2 12.64c2.1 2.46 5.82 2.95 7.88.25v-.05a1.15 1.15 0 0 0 .64-.92v-.84a7 7 0 0 0 .12-1.46 24.47 24.47 0 0 0-2-10.99z" fill="#fff"/><path d="M434.8 327.33c-.8-.17-.9-6.2-.92-6.8-.14-2.38-.64-5.4.06-7.7a1.33 1.33 0 0 0-.69-1.64 1.56 1.56 0 0 0-2.33-.33c-2.67 2.33-1.6 7.85-1.37 11 .2 2.84.66 6.63 3.35 8a3.9 3.9 0 0 0 1.11.4c1.88.34 2.7-2.52.8-2.93z" fill="#444"/><path d="M387.3 420.16a1.53 1.53 0 0 0-2.05.54l-.2.28s-.2.3 0 .1a2.19 2.19 0 0 0-.34.64l-.88.84-.93 1.1-.47.55-.3.3-.05.06-.35.2a8.74 8.74 0 0 0-.78.51l-.74.58-.05.05c-3.7 0-17.23.58-18.62.57-9.14 0-18.4-1.15-27.52-.52-7.57.53-15.1-.85-22.62-.5a119.05 119.05 0 0 1-17.79-.57l-18.23-5.93c-3.36-1.05-6.8-1.86-10.23-2.77l-14.6-6.28c-8.12-3.23-16.36-6-24.63-8.66l-.44-.35a1.53 1.53 0 0 0-1.51-.28l-19.1-6.16a190.31 190.31 0 0 1-23-8.94c-6.5-3.17-13.38-5.06-19.77-8.3-3.3-1.68-6.62-2.62-10-4a49.87 49.87 0 0 1-5.74-3.32c-.2-.1-.4-.3-.65-.44.52-3.88 3.27-7.9 5.46-10.48a26.8 26.8 0 0 1 4.12-4.46c1.45-1.1 3.07-1.57 4.58-2.5s.14-3.6-1.52-2.6-3.57 1.64-5.18 3a38.11 38.11 0 0 0-5.5 6c-2.45 3.1-4.76 7.62-5 11.88-.64 1.2-.23 3.14.6 4.42a1.43 1.43 0 0 0 1.69.62c4.74 2.5 9.9 4.42 14.8 6.47 5.37 2.24 10.75 4.6 16.2 6.64 13.68 5.14 27.8 9.44 41.23 15.2 6.17 2.64 12.52 5.26 18.9 7.34 2.25.73 4.57 1.4 6.9 2.1 8.6 4.68 18.18 6.85 27.2 10.54a1.45 1.45 0 0 0 .62.12l1.9.76a49.05 49.05 0 0 0 12.81 3.26 1.15 1.15 0 0 0 1 .71 123.07 123.07 0 0 0 6.6.7 1.36 1.36 0 0 0 1.21.64l47.52.52c1.92 0 3.83 0 5.74.1l10.16.74a81 81 0 0 0 9.5.27 62.35 62.35 0 0 0 9.48-.5l.72-.1a1.35 1.35 0 0 0 1.2.18l.2-.07v.5l1.3-1.83c.33-.2.65-.42 1-.65a17.54 17.54 0 0 0 1.38-1.05l.07-.07h.07l.35-.22c.2-.12.43-.23.63-.37a13.41 13.41 0 0 0 2.33-2.43c.34-.37.73-.67 1.07-1a4.3 4.3 0 0 0 .59-.76 3.61 3.61 0 0 0 .26-.61v-.12a1.52 1.52 0 0 0-.6-2.17zm42.42-112.46a2 2 0 0 0-1.52-.18l-.47.1-7.57 1.76c.8-.22.8-1.5.16-2a3.49 3.49 0 0 0-2.41-.48l-91.52 4.2a2.87 2.87 0 0 0-2.37.88c-1.94 2.95 4.55 3.12 5.9 3.13l16.14.13q16.14 0 32.28-.32c2.4-.05 5.58.94 6.88 3.15 1.56 2.67.06 6.4.42 9.3.5 3.93 1 7.87 1.16 11.83a39.89 39.89 0 0 1-.65 8.57h-.6c-1.9-.12-1.9 2.75-.1 3a21 21 0 0 1-6.29 10.22c-5.95-3.35-12.94-4.57-19.7-4.75-1.82-.05-19.1.33-15.56 4.38 1 1.17 4.08-.63 5.65-.38a40.59 40.59 0 0 1 6.39 1.76 93.43 93.43 0 0 1 9.82 3.79c4.8 2.24 9.2 5.1 11.93 9.88 3.14 5.52 3.44 12.2-.86 17.2a42.64 42.64 0 0 1-3.59 3.77c-3.3 3-7.48 4.17-11.53 5.78-4.73 1.88-8.66 3.43-13.78 3.95-8.74.87-18 1.87-26.7.67a42.2 42.2 0 0 1-11.75-3c-2.1-.9-4.4-1.7-6.08-3.24a22.45 22.45 0 0 1-5-6.82c-.84-1.8-1.17-6.84-2.9-7.77a1.5 1.5 0 0 0-2.05 1.38 62.12 62.12 0 0 0 .9 11c.22 1.34 2.63 9 1.8 9.88a1.48 1.48 0 0 0-.35.67 3.68 3.68 0 0 1-1.5 2.47 8.75 8.75 0 0 0-2.69-.71 31.21 31.21 0 0 1-7.32-1.79c-2.48-1.08-3.66-3.1-5.86-4.42a3.65 3.65 0 0 0-3.71-.22c-.56.34-1.06.9-1.72.92-.94 0-1.54-1.1-2.47-1.25l-.06-.05-.3-.27c-.52-.47-.9-.7-1.4-1.2a8.1 8.1 0 0 0-.85-.8l-.5-.3c.18.13-.12-.12-.16-.16s-.2-.22-.3-.32a10.44 10.44 0 0 0-.83-.66 2.82 2.82 0 0 1-.79-.88c-.34-.6-.73-.94-1-1.52l-.42-.87v-.1c0-.1-.08-.2-.1-.3a4.25 4.25 0 0 0-.94-1.65 1.52 1.52 0 0 0-2.56 1.06 5.72 5.72 0 0 0 1.14 3.3c.2.3.44.56.68.84a3.36 3.36 0 0 1 .24.29l.1.15c.34.5.7 1 1.1 1.48 1.45 1.88 3 3.7 5.3 4.5a1.07 1.07 0 0 0 .3.06l.1.06a3 3 0 0 0 1.29 1.19c1.38.68 3 .5 4.26 1.54 9 7.35 21.2 5.13 31.84 5.85 11.7.8 23.4 1.32 35.12 1.46 7.95.1 15.92.2 23.85-.5 4.44-.38 9.5-.2 13.6-2.43 4.9-2.7 7.2-9.8 10.15-14.3 5-7.6 9.75-15.33 14.16-23.33 3.4-6.16 8.2-12.47 4.48-19.42a14.93 14.93 0 0 0-4.35-5.36c-2.47-1.67-4.93-1.13-7.73-1.08a9.45 9.45 0 0 1-1.41-.08 1.37 1.37 0 0 1-1.19.15 4.61 4.61 0 0 1-.59-.31 1.64 1.64 0 0 1-1.63.48 4.23 4.23 0 0 1-1.17-.68c-3.73-3.14-.37-11.77 4.75-10.06a1.46 1.46 0 0 1 .31.14 1.58 1.58 0 0 1 1.63.75 1.68 1.68 0 0 1 .3.15 3.86 3.86 0 0 0-.32-1.1c-.68-1.35-2.14-2.07-3.3-3-4.63-3.82-8.26-16.43-3.52-21.3 2.53-2.6 6.77-2.57 10.13-2.56a247.64 247.64 0 0 0 26.95-1.47 5.05 5.05 0 0 0 2.88-.94 1.77 1.77 0 0 0-.04-2.84zm-37.24 43.54c7 .88 14.67 3.26 13.88 11.5-.27 2.85-2.27 5.44-3.53 7.93a163.7 163.7 0 0 1-5.32 9.61c-2.7 4.53-5.13 9.15-8.07 13.5a2.41 2.41 0 0 0-1.71-1.08 1.6 1.6 0 0 0-1.77-.16 1.51 1.51 0 0 0-1.43 0 1.4 1.4 0 0 0-.42-.42 16.54 16.54 0 0 0 .76-3.21c.27-2.4-1-5-1.45-7.28-.64-3.26-2.1-5.47-3.5-8.35s2.4-6.1 4-8.44a158.31 158.31 0 0 0 8.56-13.61z" fill="#999"/><path d="M512.33 397.68c-2.55-4.6-5.63-9-8.26-13.6-7.5-13.13-14.26-26.76-21.3-40.14l-17.82-33.86-9.6-18.92c-1.6-3.1-3-6.4-4.64-9.45-1.17-2.13-3.53-3.86-4.54-6a1.27 1.27 0 0 0-.7-1.53c-4-2.07-8.54 1.62-11.4 4.05-1.28 1.1-3 2.9-2.76 4.78.14 1 1 1.75 1.42 2.66.2.47.4.9.6 1.3a1.47 1.47 0 0 0 .13 1c5.63 11.38 12.3 22.25 17.62 33.8 5.16 11.23 11.12 22.15 16.88 33.1l17.38 33.3 6.68 12.7c1.9 3.52 4.1 9.15 7.54 11.36a1.31 1.31 0 0 0 1.24.14 1.37 1.37 0 0 0 .94 0 40.26 40.26 0 0 0 7.74-3.31 24.78 24.78 0 0 0 3.11-1.85 1.55 1.55 0 0 0 1.27-.63c2.5-3.36.1-5.9-1.56-8.9z" fill="#bbb"/><path d="M334 472.58l-3.6.25v-.17c-1.18-3.4-3.78-6.85-5.6-10a126.68 126.68 0 0 1-5.87-12.27 63.08 63.08 0 0 0-3.54-6.59 50.91 50.91 0 0 0 4-5.31 30 30 0 0 1 3.34-4c1.1-1.23 1.7-2.74 2.76-4s-.3-3.32-1.82-2.36l-.27.2a1.42 1.42 0 0 0-.12-.13c-1.7-1.38-3.67.6-4.84 1.72a32 32 0 0 0-4 4.57c-.78 1.1-1.42 2.23-2.17 3.27-1-2-2-4-2.82-6.12a6.85 6.85 0 0 0-1.89-3.22 1.49 1.49 0 0 0-.31-.2 1.4 1.4 0 0 0-1.43-1.26h-6.72a1.36 1.36 0 0 0-1.16.58 1.41 1.41 0 0 0-.59 2c6.2 10.47 10.45 21.9 15.18 33.1 1.47 3.48 3 8.75 6 11.25 3.87 3.24 11 1.85 15.48 1.63 1.93-.02 2-3.02-.01-2.93z" fill="#999"/><path d="M210.8 314.84c-.17.75-1.44 1.87-1.87 2.55l-2.42 4.23c-1.6 2.3-2.83 5-4.68 7.18-1.26 1.46.86 3.6 2.12 2.13 2.08-2.42 3.44-5.3 5.24-7.9 1-1.45 1.68-3.13 2.7-4.57.67-.94 1.53-1.67 1.8-2.83.43-1.88-2.47-2.64-2.9-.8z" fill="#444"/><path d="M504.3 423.92c-6.68.24-11.45-1.24-16.22-6.06a14.2 14.2 0 0 1-3.42-13.13c.4-1.88-2.48-2.68-2.9-.8-1.15 5.18-.3 11.24 3.4 15.3 5.33 5.84 11.34 8 19.13 7.68 1.93-.06 1.93-3.06 0-3z" fill="#bbb"/><path d="M439.15 219.85a9.62 9.62 0 0 0-3-3.94c-1.5-1.2-4.22-1.82-5.8-3.17v-3.23c.1-2 1.1-4.1-.7-5.66-1.08-.92-3.4-1.75-4.76-1-1.55.83-1.34 2.77-1.25 4.26a1.4 1.4 0 0 0 .14.56l-.07 1.73a18.11 18.11 0 0 0-.44 7.2c-.2 1.68-.34 3.42.3 4.65a3.33 3.33 0 0 0 3.88 1.32c2-.5 2.43-2.23 2.72-4l.14-1.12c2.38 1.18 5.47 2.23 5.93 4.7.26 1.42-.1 2.94.08 4.4a15.33 15.33 0 0 1 0 2.86 8.93 8.93 0 0 0-.15 1.47 1.1 1.1 0 0 0 0 .25v.16a1.31 1.31 0 0 0 .26.93 1.23 1.23 0 0 1 0 .69c-.77 1.75 1.82 3.28 2.6 1.5 1-2.24.58-5.2.78-7.67a16.52 16.52 0 0 0-.68-6.9z" fill="#444"/><path d="M201.74 284.2c-5.1 1.14-9 4-13.23 6.74a50.26 50.26 0 0 0-11.16 10.48c-1.2 1.5.92 3.64 2.12 2.12a54.93 54.93 0 0 1 9.88-9.45c4-2.94 8.32-5.9 13.18-7 1.9-.42 1.1-3.3-.8-2.9z" fill="#fff"/><path d="M125.77 336.23c-2.87-.78-3.8.62-4.13 2.55-.88 1.46-.5 4-.23 6l.13 4.28a4 4 0 0 0 1.42 3 1.52 1.52 0 0 0 1.37 1.15c3.4.3 3.28-5.3 3.5-7.5.24-2.48 1.4-8.54-2.05-9.48z" fill="#fb0"/><g fill="#444"><path d="M133.27 337.22a1.29 1.29 0 0 0-1.18-1.07 1.55 1.55 0 0 0-2.74-.18 1.35 1.35 0 0 0-.2 1.71 1 1 0 0 1 .11.24 46.61 46.61 0 0 1-.14 9.81c-.25 1.5-1 3.78 1.27 4.08 5.04.66 3.46-12.1 2.88-14.6zM432.8 271.4v-.08c0-.03-.1-.3-.16-.44l-.33-.8c1.48-.52 1.32-3.17-.42-2.94h-.13l-.27.05a8.94 8.94 0 0 0-1.73.77l-.17.08a2.07 2.07 0 0 1-.15-.25l-1.7-3.67c-.36-.87-1.14-2.2-.38-3s2-1.07 2.24-2.3-.6-2.4-1.13-3.4a35.14 35.14 0 0 1-1.3-3.32l-1.45-3.26-.94-1.7a6 6 0 0 1-.31-.84l-.1-.35a.14.14 0 0 0 0-.07c.73-1.5-1.67-2.8-2.7-1.3-.78 1.13-.1 2.8.47 3.9l1.12 2.05c.35.7.48 1.4.83 2.05.67 1.3 1 2.73 1.65 4l.73 1.5-.24.16a8.24 8.24 0 0 0-1.09.86c-2.3 2.3-.34 5.94.92 8.26.66 1.22.95 3 2.26 3.7a1.83 1.83 0 0 0 1.35.2v.1l.15.42a.19.19 0 0 1 0 .07l-1.4.9a9.78 9.78 0 0 0-1.49 1.31l-1.47 1.32-.73.64-.36.3c.18-.15-.18.13-.2.13-1 .65-2.1 1-2.25 2.36a1.5 1.5 0 0 0 1.5 1.5 1.47 1.47 0 0 0 1.12-.55l.18-.15.5-.3a10.84 10.84 0 0 0 1.61-1.17l1.62-1.44c.54-.44.9-.87 1.36-1.3l.14-.1.5-.3.83-.54c.6-.4 1.3-.72 1.6-1.43a1.88 1.88 0 0 0-.06-1.65s.02.01.01.01z"/><path d="M516.37 398.52a56 56 0 0 0-4-6.72l-4.32-6.6-3.8-6.57-3.58-6.88-3.68-6.67c-.56-.95-1.3-1.76-1.87-2.7l-1.7-3.12-3.63-6.6a56.73 56.73 0 0 0-3.53-6.56l-1.85-3-2.1-3.35c-2.28-4.36-4.9-8.5-7.1-12.92-1.08-2.2-2.4-4.27-3.4-6.5s-1.9-4.37-3-6.45c-.9-1.64-1.7-3.33-2.57-5 4.82.33 11.52-1 15-3.75 4.75-3.78 6.7-11.34 6.57-17.12a48.28 48.28 0 0 0-5-19.31l-.4-.83a1.8 1.8 0 0 0 .22-.44c.86-2.36 2.74-2.62 2.44-5.4-.46-4.15-3.2-7.15-5.75-10.2s-.07-1.65-.5-4.67c-.27-1.9-3.47-4.07-4.64-5.4-2-2.25-4.68-6.2-7.64-7.2-2.7-.88-6 1-8.3 2.26-6.4 3.36-13.08 9.3-16.6 15.66a1.41 1.41 0 0 0 .25 1.76 3.18 3.18 0 0 0 .89 2.74c1.22 1.4 2.83 2.43 4.13 3.76a45.47 45.47 0 0 0 3.68 3.11l.43.4-.5.3a8.62 8.62 0 0 0-2 1.52c-.17.2-.32.4-.47.6-.45-.27-1-.5-1.3-.64a13.19 13.19 0 0 0-2.44-1.28c-.4-.12-.85-.13-1.23-.28 0-.16-.08-.3-.13-.45-.3-.93-.58-1.86-.92-2.77-.7-1.85-1.2-3.73-1.74-5.63a20 20 0 0 0-1.75-3.79l-.23-.3c.44-.76 1.1-1.43 1.53-2.2a12.23 12.23 0 0 0 .95-2.64 8.41 8.41 0 0 0 0-4.05c.12 0 .26-.07.38-.12a2.46 2.46 0 0 0 1.66-1.52 6.9 6.9 0 0 0 .08-2c0-2.48-.32-6.83-3.52-7.17a19 19 0 0 1-2.12-.22 14 14 0 0 0-2.42-.35c-1.58 0-3.2.26-4.77.36s-3.16 1.08-2.86 2.88a3.47 3.47 0 0 1 .1.62 3.73 3.73 0 0 1-.21.7c0 .08 0 .17-.05.25l-.55.08c-.55.07-1.1 0-1.64.14a1.44 1.44 0 0 0-1 1v.14a1.53 1.53 0 0 0 1 1.84 1.66 1.66 0 0 0 1.15-.14h.45c.28 0 .57-.1.86-.14.57-.05 1.1 0 1.68-.08a1.5 1.5 0 0 0 1.05-1.84c-.14-.35 0-.6.1-.94a4.14 4.14 0 0 0 .16-1.48 9.69 9.69 0 0 0 1.16-.17 24.29 24.29 0 0 1 3.4-.24c1.07 0 2.1.4 3.18.5a9.11 9.11 0 0 1 1.08 0c.1.06.2.37.26.57a9.32 9.32 0 0 1 .54 2.76v1.66a5.82 5.82 0 0 1-.6.14 1.68 1.68 0 0 0-1.3.16h-1.35a1.5 1.5 0 0 0 0 3h1.15a7.1 7.1 0 0 1-.57 4.71c-.8 1.6-2.88 3.08-1.68 5a21.33 21.33 0 0 1 1.51 2.63 25 25 0 0 1 .8 2.72c.62 2.1 1.33 4.16 2 6.23a5.06 5.06 0 0 0 1.06 2.24c.73.68 1.68.66 2.56 1a13.19 13.19 0 0 1 2.62 1.45c.68.48 1.12 1.17 2.08 1.13a2.39 2.39 0 0 0 1.84-1.18 5.21 5.21 0 0 1 1.68-1.72c.6-.36 1.22-.7 1.8-1.08 1.42.46 3.17-.33 4.52-.63 2.9-.64 5.9-.2 8.82 0 1.26.1 2.53.08 3.8.08v.3h.45c.8 6.8-.07 13.6.24 20.45.3 6.36 1.13 12.66.57 19a23.75 23.75 0 0 1-5.29.45 1.71 1.71 0 0 0-2-.27l-.15-.07c-.28-.57-.54-1.15-.84-1.72-.58-1.14-1.28-2.22-1.85-3.37s-1.13-2.6-1.7-3.9-1.37-2.5-2-3.76c-1.24-2.38-2.34-4.83-3.57-7.2-.6-1.16-1.32-2.27-1.9-3.45s-1.2-2.67-1.86-4a19.94 19.94 0 0 0-1.58-3.05 7.93 7.93 0 0 0-1.17-1.35 13.62 13.62 0 0 1-1.3-1 1.33 1.33 0 0 0-1-.45 2.25 2.25 0 0 0-.52-.24 2.59 2.59 0 0 0-1.46 0c-.92.22-1.85.4-2.74.68a23.89 23.89 0 0 0-5.34 2.31c-2.27 1.43-6.15 4.3-5.5 7.33a1.52 1.52 0 0 0 .18.66c5.6 11.16 11.7 22.1 17 33.38 4.63 9.93 8.36 20.2 14.14 29.53 3.44 5.55 6 11.75 8.83 17.6l10.3 20.42c3.2 6.2 6.7 12.27 10.06 18.37 2.48 4.5 6.4 15 13 11 .93-.56 2-.9 2.92-1.36s1.9-1.07 2.87-1.53a19.2 19.2 0 0 0 5.25-3.57 7.8 7.8 0 0 0 1.65-8.27zM478.3 295.66c-.16 2.6-.13 5.25-.12 7.86a17.27 17.27 0 0 1-3.18 1.21c.44-6.12-.36-12.2-.64-18.3-.3-6.83.54-13.63-.24-20.4a8 8 0 0 1 3.33.89c1.8 6-.3 12.87.1 19 .2 3.3.95 6.5.75 9.76zm6.3-9.8c.6 4.52-.24 11.06-3.4 15.08 0-2 .1-4.07.2-6.1.16-3.5-1-6.87-1-10.38-.05-4 .74-8.2.75-12.28a55.74 55.74 0 0 1 3.44 13.69zm29.17 117.66a9.09 9.09 0 0 1-1.61 1.61 9.64 9.64 0 0 1-1.72 1.33c-.67.4-1.4.83-2.1 1.18-1.4.7-2.73 1.53-4.18 2.13a15.89 15.89 0 0 0-2.27 1.11c-2.62 1.6-5.25-4.37-6.2-5.9-1.74-2.83-3.17-5.82-4.84-8.68-3.6-6.2-7-12.56-10.23-19-5.9-11.56-11-23.7-17.63-34.84-5.56-9.35-8.76-19.66-13.55-29.34-5.06-10.2-10.7-20.22-15.88-30.44a1.28 1.28 0 0 0-.21-.55c-.3-.45-.37-.4-.16-.8a5.12 5.12 0 0 1 1-1.41 17.66 17.66 0 0 1 3.4-2.63 22.64 22.64 0 0 1 3.83-1.61 16.83 16.83 0 0 1 2.11-.57 8.27 8.27 0 0 0 .9-.2 3.5 3.5 0 0 0 .42.24l.23.07a7.43 7.43 0 0 1 1.49 1.26 15.77 15.77 0 0 1 1.43 2.82c1.1 2.17 2 4.4 3.2 6.54s2.17 4.1 3.25 6.15c.5 1 .84 2 1.4 2.9a28.72 28.72 0 0 1 1.79 3.38c1.07 2.44 2.27 4.8 3.5 7.16a1.33 1.33 0 0 0-.3.87 1.51 1.51 0 0 0 1.5 1.5h.05l1.7 3.24c1.14 2.23 2.45 4.4 3.4 6.7.84 2 1.8 3.93 2.76 5.87 1.06 2.17 2.24 4.27 3.3 6.44s2.52 4.2 3.7 6.34c1.12 2 2 4.18 3.3 6.05s2.63 4.18 3.87 6.28 2.08 4.13 3.2 6.16l3.6 6.48c.5.9.9 1.8 1.45 2.67s1.4 1.87 2 2.9l3.6 6.5c1.36 2.38 2.44 4.9 3.8 7.28l4.22 7.17c1.46 2.35 3.18 4.74 4.7 7.18.7 1.17 1.46 2.33 2.13 3.52.53 1.02 1.4 3.68.67 4.9zm-96.1-52.18a25.46 25.46 0 0 0-3.13-4.18 29.93 29.93 0 0 0-3.7-3.6c-.65-.45-1.15-1.15-1.9-1.4-.13 0-1-.34-.47-.06a13.14 13.14 0 0 0-1.25-.61 48.84 48.84 0 0 0-5.73-1.53l-5.8-1.25a33.37 33.37 0 0 0-6.28-1 1.35 1.35 0 0 0-1.42 1.15 7.21 7.21 0 0 0-1.6 1.18 10.16 10.16 0 0 0-2.14 3.89 6.67 6.67 0 0 0-.23 4.21 5.81 5.81 0 0 0 2.41 3 7.57 7.57 0 0 0 4.07 1.26 25.6 25.6 0 0 1 5.4 1.22c1.44.45 3 .56 4.4 1.05a4.64 4.64 0 0 1 2.92 2.85c.52 1.13 1.53 2.3 1.25 3.6a13.12 13.12 0 0 0-.52 2.35 12.05 12.05 0 0 1-.15 2.4 15 15 0 0 1-2.18 4.47c-1 1.5-1.83 3.1-2.72 4.64l-2.36 4.06-2.1 4.64c-1.66 3.05-3.34 6.12-4.85 9.25-1.37 2.85-3.38 5.4-5 8.12s-3.36 5.6-5.17 8.36c-.36.55-.63 1.1-1.3 1.24s-1.2 0-1.76.07c-.77.13-1.5.38-2.27.44s-1.83.1-2.75.16c-3.45.28-6.88.3-10.35.38s-7.06.38-10.6.32-7.3-.08-11 .1c-1.56.07-3.14.14-4.7.06-1.86-.1-3.7-.4-5.57-.5l-10.92-.52c-3.92-.17-7.9-.36-11.8-.72-1.93-.17-3.86-.5-5.8-.55s-4 .13-6.06.05-4.06-.42-6.1-.53a13.65 13.65 0 0 1-2.56-.07 4.75 4.75 0 0 1-1.81-1.09 30.46 30.46 0 0 0-4.5-3.14c-.56-.3-1.12-.6-1.7-.86a9.67 9.67 0 0 0 1.78-3.44c1.58-4 3.42-7.68 5.2-11.6l11.68-25c7-15.67 17.53-29.44 24-45.4.75-1.52 1.46-3 2.33-4.48a9.84 9.84 0 0 0 1.44-3.91c.23-1.9-2.78-1.9-3 0a8.38 8.38 0 0 1-1.67 3.23 15.11 15.11 0 0 0-1.21 2.49 2.1 2.1 0 0 0-.13.26l-.24.62a8.75 8.75 0 0 1-.34.76 1.65 1.65 0 0 0-.16.49 121 121 0 0 1-10.5 20.42c-4.47 6.88-8.08 14.5-12.07 21.66a203.11 203.11 0 0 0-9.62 20.41c-1.85 4.43-3.86 8.77-6.07 13a38.8 38.8 0 0 0-1.59 4.34 21.57 21.57 0 0 1-1 2.48 4 4 0 0 1-1.62 1.72 1.71 1.71 0 0 0-1.4.39l-.77.16a6.52 6.52 0 0 1-4.49-1.87c-2.3-2.3-3.55-5.6-4.62-8.62-1.28-3.6-2.94-7-4.5-10.5-4.28-9.57-8.32-19.22-12.2-29-5.28-13.2-12.14-25.55-18.48-38.2h6c3.14 5.67 7.32 10.83 9.85 16.88s5.4 11.72 7.83 17.7c2.66 6.5 6.28 12.76 9.46 19 1.27 2.52 2 5.7 4.06 7.73 2.56 2.56 7.22 2.62 9.32-.42 1.3-1.9 1.82-4.14 2.5-6.32 3.12-10 9.4-19 13.9-28.38s9.42-18.55 12.92-28.34v-.17l1.06-.1a1.69 1.69 0 0 0 .48-.13c3.36-.24 6.7-.48 10.06-.55 1.93-.05 1.94-3.05 0-3h-.68a1.46 1.46 0 0 0 .74-1.7c-.75-2.48-1.48-5.48-3.4-7.34l-.1-.08 1.4-.15c1.9-.22 1.92-3.22 0-3q-4.84.58-9.74 1a10.58 10.58 0 0 1-1.42-.3 1.32 1.32 0 0 0-1.56.55 175.42 175.42 0 0 1-27.11.35 185.55 185.55 0 0 0-20.15-.25c-2.43.1-5 .2-7.56.44-10.17-2-20.2-5.5-28.65-11.45-3.25-2.3-6.53-4.43-10.63-4.34a27.85 27.85 0 0 0-12.33 3.31 61.26 61.26 0 0 0-18.22 15.1c-1.52 1.55-3.2 3.36-3.8 5.4-3.63.52-7.27 1.06-10.88 1.4-6.05.56-12.3.82-18.14 2.7a11.3 11.3 0 0 0-3.55 2 1.5 1.5 0 0 0-1.27-.2c-2.83.5-6.12-.67-8.53 1.3a13.52 13.52 0 0 0-2.49 3.18c-1.36 2-2.87 3.94-4.37 5.86-1.33 1.7-2.62 3.46-1.73 5.74a3.28 3.28 0 0 0 .48.82c-.84 1-1.55 2-2.4 3-1.56 1.7-2.92 3.5-4.37 5.3s-2.8 3.7-4.13 5.7c-.76 1.14-2.2 2.3-1.75 3.8.8 2.67 4.77 3.3 6.77 1.85 1.64-1.2 2.92-3.34 4.08-4.93 1.35-1.86 2.8-3.63 4.24-5.42 1.55 2 4.7 3 7.27 3.4a24.64 24.64 0 0 0 8.08.18c3.82-.83 7.66-3.6 11.26-5.12 8-3.4 15.7-6.18 24.58-5.62 7.48.48 14.76 1.45 22.17 2.27 2.36.25 4.5.65 6.44-1 2.38-2.05 3.6-5.9 5.5-8.42a77.5 77.5 0 0 0 5-7c.34-.55.92-1.3 1.5-2.1h8.53l4.53 9.8c1.46 3.28 3.9 6.47 5.65 9.8 5.28 10.1 9 20.86 13.5 31.3 3.8 8.8 8.06 17.5 11.54 26.45-1.77-.84-3.58-1.57-5.35-2.43-2-.95-3.88-2-5.9-2.84l-6.74-2.72a20 20 0 0 0-2.7-1.13c-1.1-.3-2-.9-3.1-1.28-2.2-.76-4.33-1.74-6.56-2.46l-6.92-2.24c-1-.35-2-.8-3-1.2s-2.2-.7-3.3-1a25.08 25.08 0 0 1-2.62-1.24c-1.13-.52-2.34-.9-3.5-1.35l-7-2.7a113.24 113.24 0 0 1-12.57-5.77c-.9-.48-1.77-1-2.7-1.45a22.11 22.11 0 0 1-3-1.52 61.61 61.61 0 0 0-5.8-3.46c-1-.54-2.16-.83-3.17-1.45a20 20 0 0 0-3.17-1.68c-2.34-.9-4.56-2-6.87-3-2.1-.9-4.17-1.66-6.32-2.38a5.85 5.85 0 0 0-3.08-.08h-.05a1.25 1.25 0 0 0-1.63-.63 16.42 16.42 0 0 0-4.07 1.9 13.44 13.44 0 0 0-1.63 1.48c-.33.34-.8.95-1.32.92-.35 0-.78-.45-1.12-.6a2.58 2.58 0 0 0-1.91-.16c-1.45.46-2.46 2-3.38 3.1a13.37 13.37 0 0 0-2.38 3.17 5.15 5.15 0 0 0-.23 4.22c.3.73 1 1.2 1.3 1.87a2.33 2.33 0 0 1 .13 1.34 34.87 34.87 0 0 0-.54 5.19c0 .7.2 1.3.3 2a6.65 6.65 0 0 0 .34 2.07 5.4 5.4 0 0 0 3 2.58c1.45.7 3 1.27 4.45 1.94 1.67.76 3.33 1.57 5 2.27 3.3 1.34 6.7 2.35 10 3.82 3 1.38 6.23 2.55 9.4 3.64 1.57.54 3.1 1.15 4.64 1.74s3.4 1.1 5.07 1.7 3 1.4 4.5 2.08 3.28 1.32 4.93 1.94l20.5 7.54c6.5 2.58 13.1 4.94 19.65 7.4l10.15 3.8c3.18 1.26 6.26 2.7 9.53 3.74 3.67 1.18 7.14 2.85 10.8 4.1s7.36 2.26 11.12 3.27c1.75.47 3.46.9 5.24 1.22s3.5 1 5.27 1.4l5.95 1.36a13.74 13.74 0 0 0 2.53.47 8.34 8.34 0 0 1 2.64.23 1.24 1.24 0 0 0 1.47-.37l1.1-.05c1.82-.1 3.65 0 5.46 0 3.82 0 7.64-.1 11.45.08l22.94.75c3.72.1 7.43.44 11.16.44 1.87 0 3.74.14 5.6.23 1.72.07 3.42-.1 5.13-.08s3.4.6 5.15.66 3.68-.12 5.53.08a20 20 0 0 0 4.7.24c.83-.1 1.65-.08 2.48-.18a13.21 13.21 0 0 0 2.62-.72 16 16 0 0 0 7.29-5.71 33.6 33.6 0 0 0 2.46-4.07c.87-1.57 1.8-3.13 2.6-4.73 1.6-3.2 3.6-6.16 5.17-9.38s3.7-6 5.4-9.08c3.4-6.15 7.76-11.77 10.57-18.25.73-1.7 1.58-3.3 2.4-5s1.46-3.3 2.32-4.9c.4-.74.95-1.38 1.34-2.12s.47-1.44.76-2.15a12.67 12.67 0 0 0 1.26-4.35 16.39 16.39 0 0 0-.93-5.45 20.65 20.65 0 0 0-2.9-5.44zm-153.1-36.87c6.24-.15 12.82-.06 19-.8 5.84-.7 11.7-.68 17.56-1a81 81 0 0 1-5.92 13.13c-2.77 4.8-4.53 10-7 15-4.3 8.7-9.4 17.14-13.23 26.08a10.03 10.03 0 0 0-.43 1c-.94 2.4-2.2 8.42-5.8 6.57-1.87-.95-2.38-3.4-3.2-5.14-1.38-3-3.14-5.83-4.55-8.82l-8.2-17.62c-2.7-5.4-4.9-11-7.54-16.44-2-4.08-4.8-7.78-7.23-11.66l26.55-.3zm-141.3 19.6a1.52 1.52 0 0 0-.25 1.52c-1.33 1.64-2.76 3.22-4 4.9-.66.88-4.3 6.76-6.16 5.4 1.6-2.95 4.16-5.6 6.18-8.18 1.12-1.42 2.2-2.8 3.42-4.14.8-.9 1.66-2.52 2.62-3.26.3.05.63.1 1 .12l-2.8 3.63zm1.65-8.6c.18-.63 1.12-1.43 1.53-2 1.16-1.5 2.35-3 3.44-4.55 1.5-2.17 2.68-3.86 5.58-3.8h1.85c-1.08 1.26-2.08 2.6-3 3.8-2.18 2.78-4.2 5.7-6.24 8.6a2.37 2.37 0 0 0-.41-.06c-1.5.02-3.44.42-2.75-2zm87.56-10.15c-1.25 2-2.66 3.78-4.1 5.65-1.6 2.1-2.74 4.55-4.32 6.6-3.2 4.14-5.2 2.6-9.4 1.93a157.53 157.53 0 0 0-16.28-1.24 55.35 55.35 0 0 0-15.68 1c-5.9 1.35-11.36 3.77-16.84 6.3-3.63 1.68-6.17 3.32-10.3 3.13-2.22-.1-10-.3-8.5-4.22a1.6 1.6 0 0 0 .1-.62c2.62-3.5 5.1-7.16 7.63-10.66 2.9-4 6.4-9.23 11.46-10.3 8.73-1.86 17.65-2.84 26.53-3.84a5.77 5.77 0 0 0 .34.89c1.65 3.4 6.56 3.54 9.8 3.9 9.9 1.1 20 1 30 .9zM417.8 364.6a18.63 18.63 0 0 0-.7 1.8 12 12 0 0 1-1.36 2.42c-.78 1.35-1.36 2.8-2 4.22-.76 1.6-1.65 3.13-2.37 4.74l-2.07 4.5c-.73 1.5-1.84 3.1-2.74 4.67-1.63 2.86-3.64 5.47-5.22 8.36l-2.45 4.3c-.85 1.42-1.9 2.93-2.8 4.42-.76 1.27-1.33 2.64-2 3.95a115.81 115.81 0 0 1-2.78 5l-4.76 8.47a19.49 19.49 0 0 1-2.37 3.58c-.58.62-1.15 1.26-1.76 1.85a11.32 11.32 0 0 1-2.13 1.36 7.92 7.92 0 0 1-3.76 1.33 22.66 22.66 0 0 1-4.87.06 28.59 28.59 0 0 0-4.71-.3c-.93 0-1.86.06-2.8 0a21.59 21.59 0 0 1-2.65-.46 21.07 21.07 0 0 0-4.56-.1c-1.64.06-3.27 0-4.9-.14s-3.53-.05-5.3-.1c-1.93 0-3.85-.23-5.77-.32l-12.2-.4c-2-.1-4.05.05-6.07-.05s-3.78-.28-5.68-.33l-11.92-.16h-6.27c-1.64 0-3.35.35-4.94-.2a1.25 1.25 0 0 0-1.47.39 6.42 6.42 0 0 1-.75-.1c-1.68-.35-3.33-.85-5-1.2a46.83 46.83 0 0 1-4.56-1.16c-1.57-.48-3.17-.6-4.73-1-6.27-1.6-12.77-3.15-18.67-5.84-3-1.35-6.06-2.22-9.1-3.34s-6.23-2.64-9.38-3.85q-9.33-3.6-18.75-6.94c-6.63-2.35-13.07-5.16-19.74-7.4-3.16-1.06-6.25-2.26-9.36-3.44-1.62-.6-3.25-1.18-4.8-1.94a44.71 44.71 0 0 0-4.41-2c-6.13-2.22-12.43-4.1-18.38-6.78-3.08-1.4-6.22-2.45-9.4-3.62s-6.2-2.65-9.24-4a8.65 8.65 0 0 1-2.3-1.19c-.5-.45-.33-1.07-.4-1.67a18.25 18.25 0 0 1 0-5.06c.18-1.42.64-3-.1-4.33-.34-.64-1-1.06-1.3-1.74a2.57 2.57 0 0 1 .32-2.1 9 9 0 0 1 1.44-1.71c.52-.6 1-1.25 1.5-1.82a4.27 4.27 0 0 1 .77-.76l.3.2a4 4 0 0 0 1.82.61 4.75 4.75 0 0 0 3.55-1.79 9.4 9.4 0 0 1 2.3-1.72 1.49 1.49 0 0 0 1.17.69 1.67 1.67 0 0 0 1.19-.29 4 4 0 0 0 .42-.39h.06a3.86 3.86 0 0 1 2.74 0c1.9.72 3.8 1.3 5.66 2.1s3.94 1.87 6 2.7a20.62 20.62 0 0 1 3 1.4 14.73 14.73 0 0 0 2.94 1.48 26.42 26.42 0 0 1 5.85 3.26 50.55 50.55 0 0 0 5.65 3.07 127.68 127.68 0 0 0 12.47 5.88c4.38 1.78 8.9 3.24 13.14 5.32 2 1 4.3 1.4 6.36 2.28a61 61 0 0 0 6.71 2.3c2.28.7 4.43 1.58 6.63 2.45 1 .4 2 .67 2.92 1.15s2.07.67 3.07 1.14c2.17 1 4.44 1.8 6.64 2.74s4.18 1.9 6.27 2.92 4.6 1.87 6.74 3.12a10.22 10.22 0 0 1 2.45 2.5 27.67 27.67 0 0 1 1.84 3.16 11.83 11.83 0 0 0 1.95 2.75 13.42 13.42 0 0 0 2.67 1.73 6.23 6.23 0 0 0 4.68.66c.24 0 .47 0 .7-.07a8.83 8.83 0 0 0 1.92.86 20.82 20.82 0 0 1 4.48 2.47 43.08 43.08 0 0 0 3.44 2.6c1.53.85 3 .64 4.7.74s3.42.35 5.13.48c1.93.15 3.87 0 5.8 0 3.6 0 7.17.63 10.77.78s7.28.47 10.93.62 7.26.24 10.84.65a73.45 73.45 0 0 0 10.8.05c3.67-.12 7.34.16 11 .05s7.33-.4 11-.33c1.6 0 3.15-.22 4.75-.27s3.46-.12 5.17-.3c.7-.07 1.38-.32 2.08-.43a15.71 15.71 0 0 1 1.68-.05c1.65-.12 2.6-1.26 3.45-2.55 1.88-2.8 3.57-5.62 5.28-8.52s3.68-5.4 5.08-8.33c1.53-3.2 3.3-6.3 4.95-9.42.73-1.38 1.25-2.86 1.9-4.26.77-1.63 1.82-3.1 2.7-4.67 1.68-3 4-5.87 4.85-9.22a9.7 9.7 0 0 0 .26-2.4 7.22 7.22 0 0 1 0-1.23c.1-.52.38-1 .5-1.52a6.74 6.74 0 0 0-1.16-4.53c-.75-1.38-1.2-2.87-2.52-3.85a12.24 12.24 0 0 0-4.63-1.9c-1.85-.44-3.68-.95-5.55-1.34a26.29 26.29 0 0 0-2.65-.49 5.08 5.08 0 0 1-2.73-.67c-1.52-1-1.7-2.33-1.08-4a11.22 11.22 0 0 1 1-2.13 2.44 2.44 0 0 1 .54-.57c.1-.07.87-.54.72-.55a1.33 1.33 0 0 0 1.24-.68 37.65 37.65 0 0 1 3.79.69l5.38 1.14 4.88 1.2a9.78 9.78 0 0 1 2 .71c.3.14.54.3.85.42a3.12 3.12 0 0 0 .36.14s0 .08.3.28a29.23 29.23 0 0 1 3.07 2.82 18.26 18.26 0 0 1 3.1 3.53c.83 1.38 1.88 2.65 2.63 4.08a15.37 15.37 0 0 1 1.37 4.6 7.19 7.19 0 0 1-.6 4.09z"/></g><path d="M471.48 250.15c-.72.62-2.17.7-3 1.2-1.47.85-2.93 1.92-4.3 2.9-2.3 1.65-4.64 3.2-6.17 5.64-1 1.64 1.57 3.15 2.6 1.5 1.52-2.43 4.68-4.35 7.06-5.87a22 22 0 0 1 3.18-2 8.56 8.56 0 0 0 2.79-1.29c1.44-1.24-.68-3.35-2.14-2.1z" fill="#fff"/><path d="M431.55 296a37.81 37.81 0 0 0-15.4-22.77 52.75 52.75 0 0 0-8.62-4.94c-4.82-2.08-11.5-1.78-16.7-1.8-5.9 0-11.7-.46-17.6-.1-6.77.43-13.52 1.28-20.27 2-12.87 1.32-26.72 2.9-37.92 10-4.2 2.63-7.37 7-10.18 11-3.63 5.2-13.7 16.14-6.6 22.35 3 2.6 8.17 1.85 11.73 1.57l36.7-3.1c12.7-1.2 25.34-1.13 38-1.9 11.9-.72 24.07 1 36 1.37 4 .12 6.13-.1 8.73-3.3s3-6.47 2.12-10.4z" fill="#ddd"/></svg>