<svg xmlns="http://www.w3.org/2000/svg" xmlns:xlink="http://www.w3.org/1999/xlink" viewBox="0 0 650 563.33"><style><![CDATA[.L{fill-rule:evenodd}.M{fill:#444}.N{fill:#999}.O{fill:#bbb}.P{fill:#fff}.Q{fill:#ddd}.R{fill:#f5f5f5}]]></style><defs><clipPath id="A"><path d="M608.84 311.26c6.1-13.1 11.72-26.25 15-40.36a123.49 123.49 0 0 0 2.07-42.52c-3.17-27.8-14.83-52.93-30.53-75.87-15-21.88-33.9-42.1-56.6-56.07a205.13 205.13 0 0 0-78.48-28.35 373 373 0 0 0-88.27-2.92C312.6 70.6 254.87 91 201.63 117.3a460.3 460.3 0 0 0-75.13 46c-22.16 16.8-43.5 36.04-60.8 57.9C57 232.2 48.1 243 41.56 255.4s-12.74 25.1-17.46 38.22c-9.6 26.7-11 57.44-2 84.48a179.5 179.5 0 0 0 17.35 36.56c6.88 11.2 16.8 20.53 26.2 29.63 18.93 18.34 45.57 34.1 72 37.77a71.53 71.53 0 0 0 8.48.66h.33c30.15.1 60.14 4.92 90.32 3.6 15.5-.67 30.9-2.38 46.4-2.78l44.38-.66q47-.75 93.94-1.8l92.54-3.17c14.87-.1 30-.05 44.33-4.4 6.18-1.88 11.9-5 17.7-7.73 6.15-2.92 12.2-6 17.67-10.05 9.48-7.08 16.7-16.7 18.86-28.5 2.26-12.34-.22-25.26-6.06-36.27-3.07-5.8-6.56-11.33-9.57-17.14-1.55-3-3.53-6.16-4.5-9.4-1.2-4.06 0-8.82.8-12.85 2.8-14.2 9.43-27.23 15.52-40.3z" fill="none" clip-rule="evenodd"/></clipPath><path id="B" d="M568.93 460.8l-1.32.34c-3.25-.58-7.06.7-10.32 1.44-5.07.34-10.2.37-15.12 1-9.6 1.15-19 3.44-28.62 4.47a3.26 3.26 0 0 0-1.12.34l-3.54.26a3.22 3.22 0 0 0-3.67-3.91c-11.5 2.14-23 0-34.6-.16s-23.4.32-35.1.7c-12.48.4-24.9 1.32-37.34 2.28l-8.25.4-52.53 1.22-38.6 2.2c-1.26 0-2.5.06-3.76.1-4.26.15-8.5.45-12.75.78q-7.5.36-15 .65c-5-1.17-11.9.1-16.1.38l-2.7.16c-8.5 0-17-.6-25.52-.14a3.38 3.38 0 0 0-1.33.33c-4.2 0-8.38.2-12.57.4a2.83 2.83 0 0 0-1.67-.5c-11.82 0-23.62.8-35.45.66-5.56-.07-11 .26-16.54.62-4.66.3-8.66 0-13 1.9a3 3 0 0 0-1.07 4.1 5.16 5.16 0 0 0 4.08 2.18l.28.25c3.08 2.42 6.62 1.62 10.3 1.93l18.74 1.33c13.33.94 27.06-.4 40.36-1.33l38.94-3a2.76 2.76 0 0 0 2 .76l79.7-.54c5.75 0 11.4-.83 17.13-.84l18.32.1c5.9 0 11.86-.94 17.78-1.2 3.55-.17 7.1-.4 10.63-.7a2.63 2.63 0 0 0 2.34 1.12c18.15-.47 36.3-1.9 54.42-2 8.4-.07 17-.4 25.54-1a87.12 87.12 0 0 0 14.2 1c6.87-.18 13.63-1.1 20.45-1.86 4-.45 8.17-.62 12.34-.78 7.35 1.44 16.44-.57 23.7-2A68.61 68.61 0 0 0 563 471c4-.92 7.8-2.47 9.28-5.76 1.07-2.3-.63-5.24-3.35-4.44z"/></defs><g class="L"><use xlink:href="#B" class="Q"/><path d="M608.84 311.26c6.1-13.1 11.72-26.25 15-40.36a123.49 123.49 0 0 0 2.07-42.52c-3.17-27.8-14.83-52.93-30.53-75.87-15-21.88-33.9-42.1-56.6-56.07a205.13 205.13 0 0 0-78.48-28.35 373 373 0 0 0-88.27-2.92C312.6 70.6 254.87 91 201.63 117.3a460.3 460.3 0 0 0-75.13 46c-22.16 16.8-43.5 36.04-60.8 57.9C57 232.2 48.1 243 41.56 255.4s-12.74 25.1-17.46 38.22c-9.6 26.7-11 57.44-2 84.48a179.5 179.5 0 0 0 17.35 36.56c6.88 11.2 16.8 20.53 26.2 29.63 18.93 18.34 45.57 34.1 72 37.77a71.53 71.53 0 0 0 8.48.66h.33c30.15.1 60.14 4.92 90.32 3.6 15.5-.67 30.9-2.38 46.4-2.78l44.38-.66q47-.75 93.94-1.8l92.54-3.17c14.87-.1 30-.05 44.33-4.4 6.18-1.88 11.9-5 17.7-7.73 6.15-2.92 12.2-6 17.67-10.05 9.48-7.08 16.7-16.7 18.86-28.5 2.26-12.34-.22-25.26-6.06-36.27-3.07-5.8-6.56-11.33-9.57-17.14-1.55-3-3.53-6.16-4.5-9.4-1.2-4.06 0-8.82.8-12.85 2.8-14.2 9.43-27.23 15.52-40.3z" class="R"/></g><g clip-path="url(#A)" class="L"><g class="Q"><use xlink:href="#B"/><path d="M510.56 182c-.88-10.3-3.07-20.44-4.22-30.7-1.1-9.8-.12-19.88-.26-29.73-.15-10.2-1-20.48-2.06-30.63a80.07 80.07 0 0 0-2.32-12.47c-1.1-4.12-1.5-8.38-3.1-12.37-2.94-7.4-8.47-11.54-16.33-12.42-20.27-2.27-41-2.42-61.4-2.93q-17.58-.44-35.17-.38c-11.56 0-23.25-.66-34.8 0a190.58 190.58 0 0 0-31.67 5c-8.2 1.9-18.4-1.13-23.1 7.64a3.37 3.37 0 0 0 .42 3.92 3.32 3.32 0 0 0-.09 2.2c1.72 6.07.95 12.33 1.52 18.64.62 6.9 1.15 13.8 1.1 20.73l-.7 41.73c0 3.56-.15 7.17 0 10.73.12 3.33.9 6.5.83 9.86a162.3 162.3 0 0 0 .69 20.57c.73 6.75.74 13.55 1.4 20.3.5 5-.7 11.18 2.9 15.15a3.15 3.15 0 0 0 4.82 0c4 1.77 9.5 1.8 13.1 1.78 10.5 0 21 .5 31.47.64 10.27.13 20.5 0 30.76.47a227.73 227.73 0 0 0 32.1-.25 118.81 118.81 0 0 1 12.66-.19c5.45.06 10.77-.7 16.2-.7 9 0 17.82-1.42 26.82-1.36 8.33 0 17.13.57 24.76-2.92 2.75-1.26 5.9-1.9 8-4.2 2.6-2.78 3-7 3.74-10.52a95.07 95.07 0 0 0 1.89-27.59zm-229.74 39c1.13-3.3 1.14-7.27 1.57-10.52.92-6.88.42-13.85.4-20.77v-21.84c0-7.28-1.3-14.2-1.35-21.36-.13-13.84-.23-27.7.7-41.46.52-7.5 0-15.18 0-22.7 0-6.63.43-13.32-.78-19.85a3.52 3.52 0 0 0-5.14-2.1 9 9 0 0 0-1.94 1.86l-.34-.2V59.5c0-4.5-7-4.5-7 0v1l-.5-.06c-1.92-.24-3.87-.46-5.82-.64a3.19 3.19 0 0 0-2.5-1.06c-6.84 0-13.57 1.32-20.4 1.4-6 .1-11.95-.8-18-.83-7.18-.05-14.35.24-21.5.68-10.53-.2-21-.54-31.58 0-14.12.7-28.27.06-42.4.54-9 .3-22.17-.5-29.8 5.34-5.47 4.18-6.9 10.7-6.55 17.2a29.86 29.86 0 0 0 0 6A48.44 48.44 0 0 0 86 99.36c-.33 3.93 0 8 0 11.9s-1 7.47-.56 11.25a181.64 181.64 0 0 1 1.24 21.12c0 7-.26 13.9.88 20.87.56 3.35.32 6.6.7 10 .4 3.6.94 6.92.43 10.57a28.44 28.44 0 0 0-.21 8.69c.52 3.6-.52 6.93-.44 10.5 0 2.12.38 4.22.57 6.33-.88 5-1 10.84 1 14.82a11.51 11.51 0 0 0 .56 4.06v.6c-.12 3.4 1 8.6 5.55 8a4.36 4.36 0 0 0 3.77-2.74c9.2 0 18.23-.33 27.44-1.2 9.64-.92 19.38-1.48 29.06-1.54a3.78 3.78 0 0 0 2.52-.91l7.6.44a251.43 251.43 0 0 0 13.73.13c3.63-.07 7.17-.83 10.8-.82l46.75-.6h25.65c5.66-.07 13.93.25 18.7-3.22a3.81 3.81 0 0 0-.9-6.61z"/></g><g class="N"><path d="M427.32 102.07l-.14-4.3.14 4.3zm80.48 31.8a20.84 20.84 0 0 1-1-5.15c-.2-3.6-4.73-4.3-6.4-2.14-12-.23-23.63 2.33-35.64 2.1-6.83-.13-13.85.54-20.67 1.05-3.85.28-7.93-.1-11.86.24-1.5.13-7.64 2.43-7.64-.43 1-11.52-.7-23.15-.67-34.7 0-12.4.05-24.76-1.37-37.08-.24-2.08 3-2.06 3.25 0l.28 2.74a1.54 1.54 0 0 1 1.25-.89c0-2.65-.45-5-.67-7.6-.16-1.87-.8-4-.7-5.48.2-2.88-2.6-3.9-4.72-3.1a3.55 3.55 0 0 0-1.52-.41 16.4 16.4 0 0 0-4.7.47 28 28 0 0 1-6.22.23c-4.15 0-8.14-.4-12.24-.65-.05-2.53-3.17-3.95-5.27-2.74l-.73.43a3.3 3.3 0 0 0-1.13 4.76 196.39 196.39 0 0 0 .14 24.39c.58 8.3 0 16.74 0 25.1 0 12.16-.36 24.25-.56 36.37-6.78.13-13.58 1.07-20.4 1.28-9 .27-17.94.3-26.9 1.2-8.57.86-17.23-.05-25.83.3-2.75.1-5.5.48-8.24.6a23.31 23.31 0 0 0 .06-3.64c0-.42.06-.83.1-1.24a2.49 2.49 0 0 0-.77-2l.27-15.67a48.05 48.05 0 0 0 .34-9.39c0-.77.06-1.54.1-2.3.37-6.57-.52-13.53-.34-20.27.5-3.5 1.26-7 1.54-10.5a3 3 0 0 0 .1-1.37v-2.14c-.15-3.85-6.15-3.87-6 0v2.45a32.59 32.59 0 0 0-1.08 5.21 5.83 5.83 0 0 0-2 .6 1.35 1.35 0 0 0-1.12-.79 38.3 38.3 0 0 1 .43-2.72c1.25-6.28-8.4-9-9.64-2.66a60.83 60.83 0 0 0-1.06 13 6.65 6.65 0 0 0-7 2.69c-2.8 3.88-1.83 9-1.72 13.43.18 7.26 0 14.54 0 21.8 0 2.8-.06 5.6.16 8.38.1 1.27 1.1 4.95 1.15 7.15a6.91 6.91 0 0 0-3.08 1.71 5 5 0 0 0 2.21 8.36 13 13 0 0 0 2.11.31 61.44 61.44 0 0 0-1.49 7.16 89.27 89.27 0 0 0 .04 14.2 4.61 4.61 0 0 0-1.86 3.84c-.06 6.9-.64 13.7.86 20.5a4.28 4.28 0 0 0 2.56 3.23c-.33 4.12-.78 8.22-1.45 12.3a70.73 70.73 0 0 0-1.27 9.82c0 1 0 2 .1 3l-.68 4.4c-.65 4.4 4.7 9.06 8.36 4.87 2.4-2.74 2.48-6 2.38-9.3l2.23-14.74.17-1.4a5.27 5.27 0 0 0 1.55-.74 5 5 0 0 0 3-.45c.5 2.95 5.06 3 5.84.1a3.3 3.3 0 0 0 4.59-3.46c-1.26-8.37.18-16.86.1-25.25-.08-8.1.78-16.18.7-24.3a2.8 2.8 0 0 0-.76-2c1.86-.06 3.7-.28 5.23-.4 8.37-.63 16.64-.63 25-.63h27c8.12.07 16.14-.55 24.2-.68v.8c0 8.7-.32 17.26.45 25.92.67 7.6.4 15 .62 22.6.1 3.48.7 7 1.1 10.4s-.2 6.63-.08 10.14c.17 5.2 1.78 10.14 7.33 11.5a3.54 3.54 0 0 0 1.24.08 3.45 3.45 0 0 0 3.27 0c5.6-.12 11.1-.67 16.7-.45a22.47 22.47 0 0 0 8.2-.78.25.25 0 0 0 0-.07c-1.72-13.68-1.25-27.63-1-41.4.25-12.94 1.7-26.05-1.34-38.8-.82-3.45 11.75-3.32 13.6-3.48 9.5-.84 19-1.08 28.55-1.58l18.38-.9c6.53-.33 13.1.16 19.54-1.1a3.53 3.53 0 0 0 2.41-4.23z"/><path d="M282.9 131.52a3.57 3.57 0 0 0-3.78 1.06c-12-.23-23.63 2.33-35.64 2.1-6.83-.13-13.85.54-20.67 1.05-9.42.7-17.8 2.9-19.88-7.1-2.4-11.55-1.23-25.5-1.38-37.3-.2-14 0-28-1.5-41.9h-.1a3.6 3.6 0 0 0-1.52-.41 16.37 16.37 0 0 0-4.7.47 28 28 0 0 1-6.22.23c-4.15 0-8.14-.4-12.24-.65 0-2.53-3.17-3.95-5.27-2.74l-.73.43a3.3 3.3 0 0 0-1.13 4.76 196.4 196.4 0 0 0 .13 24.39c.6 8.3 0 16.74 0 25.1 0 12.16-.36 24.25-.56 36.37-6.78.13-13.6 1.07-20.4 1.28-9 .27-17.94.3-26.9 1.2-8.57.86-17.23-.05-25.83.3-3.6.15-7.2.74-10.82.6-2.62-.1-5.42-.5-7.63 1.2-2.77 2.13-1.2 6.33 1.32 6.7a3.43 3.43 0 0 0 1 2.19c3 3.1 9 2 12.9 1.7 8.37-.63 16.64-.63 25-.63h27c8.1.07 16.14-.55 24.2-.68v.8c0 8.7-.3 17.26.46 25.92.66 7.6.4 15 .6 22.6.1 3.48.7 7 1.1 10.4s-.18 6.63-.07 10.14c.17 5.2 1.78 10.14 7.33 11.5a3.49 3.49 0 0 0 1.23.08 3.45 3.45 0 0 0 3.27 0c5.62-.12 11.1-.67 16.72-.45 1 0 1.92.06 2.86 0 2-26.56-1-53.1-1-79.67 0-7.27 39.82-6.12 46.1-6.45l18.38-.9c6.14-.3 12.08.07 18.05-.87.2-3.4.2-6.83.42-10.23-.07-.76-.07-1.65-.17-2.54z"/></g><path d="M171.4 52.67l.5-6.3c.08-1.94-2.92-1.93-3 0 0 .76-.1 1.5-.15 2.26a1.33 1.33 0 0 0-.54 1.16c0 1 .1 1.9.2 2.85l-.2 4.23a97.77 97.77 0 0 1-.79 10.53c-.78 7.74.1 16 .1 23.8 0 9.15-.33 18.27-.68 27.4a171.7 171.7 0 0 0-.69 20 1.5 1.5 0 0 0 3 0l.4-12.32a173.02 173.02 0 0 1 1-9.8c.85-7.23-.23-14.64.62-21.92.9-7.67.08-15.7.08-23.42 0-3.48.5-6.8.7-10.26a51.49 51.49 0 0 0-.54-8.22zm.5 174.43c-.18-1.5-.62-3.16-.7-3.62 0-.3-.06-.6-.1-.88.13-3.13.8-6.08.5-9.3l-.16-2.46a118.26 118.26 0 0 0 1.11-16.9c0-.68-.06-1.34-.1-2a91.72 91.72 0 0 0-.25-20.43l-1.1-8.7.1-11.67a1.45 1.45 0 0 0-1.83-1.41 1.47 1.47 0 0 0-1.85 1.41c0 3.5.1 7 .4 10.45l-.25 4.66c-.2 3.28.52 6.6.53 9.93a103 103 0 0 0 1.08 13c.06.47.1.93.14 1.38l-.35 5c-.37 4.54-.64 8.9-.6 13.33l-.2 3.26a62 62 0 0 0-.18 10.82v1.34a6.1 6.1 0 0 0 .23 1.59c.1 3.12.3 7.54 3.8 6.7a1.5 1.5 0 0 0 1.1-1.44 15.56 15.56 0 0 0-1.33-4.08zM391.08 43.8a1.5 1.5 0 0 0-3 0c0 3.74.9 7.6.74 11.3-.15 3.37-.73 6.58-.72 10 0 8.05.85 16.67-.28 24.63-.42 2.9.3 5.56.35 8.5.05 3.83-.93 7.47-.64 11.3.55 7.56.55 15 .55 22.65a1.5 1.5 0 0 0 3 0c0-14.55-.72-29.1 0-43.5.38-7.5 0-15.12 0-22.62 0-3.7.56-7.3.7-11s-.74-7.45-.7-11.25zm2.6 179.3c-2.85-.22-2-13.9-1.9-15.38.13-3.4.9-6.72 1-10.13s-.62-6.43-.88-9.74a89.8 89.8 0 0 1 0-10c.1-3.52-.67-6.45-.87-9.86-.46-7.6-.6-15.2-.6-22.86a1.5 1.5 0 0 0-3 0c0 8.44-.6 17.42 1 25.7.9 4.5.27 9 .35 13.62.06 3.92.9 7.74 1 11.64.14 7.2-1.47 14.24-.88 21.5.27 3.22.78 8.18 4.8 8.5 1.92.17 1.9-2.83-.01-2.98z" class="M"/><path d="M487.83 72.7c-4.12 3.67-7 8.33-10.56 12.5-4.25 4.9-8.75 9.5-13.33 14.1a57.84 57.84 0 0 0-4.86 5.51c-2.13 2.8-4.3 4.43-6.75 6.78-1.85 1.78-3.2 4-4.92 5.92s-4.4 5.22-6.54 6.33c-1.7.9-.2 3.48 1.52 2.6 2-1 3.4-3 4.95-4.54a55.09 55.09 0 0 0 4.49-5c2.14-2.7 4.84-4.36 7.08-6.9 2-2.32 3.67-5 5.83-7.2 4.75-4.93 9.64-9.65 14.13-14.83 3.73-4.33 6.8-9.3 11.08-13.1 1.45-1.33-.68-3.45-2.12-2.17zm-29 16.06c-1.38 1.88-3.3 3.24-5 4.83l-5.07 5.14a1.5 1.5 0 0 0 2.12 2.12l5.54-5.58a35.59 35.59 0 0 0 5-5c1.14-1.56-1.42-3.06-2.6-1.5zm34.77 62.7c-.48 1.8-2.92 3.58-4.1 5.08l-5.48 6.85-11.7 15.06c-4.12 5.36-7.86 11.08-12.3 16.18-4.07 4.68-8.47 9-12.16 14-1.15 1.56 1.45 3 2.6 1.52 4.2-5.72 9.5-10.5 13.9-16 4.27-5.4 8.3-11 12.43-16.55 3.2-4.3 6.48-8.45 9.82-12.64 2.3-2.9 4.54-6 7-8.76 1.2-1.33 2.42-2.13 2.88-3.9a1.5 1.5 0 0 0-2.88-.84zm-16.73 41.8c-2.87 2.85-5.5 5.92-8.22 8.9-1.3 1.43.82 3.56 2.12 2.13 2.73-3 5.35-6.06 8.22-8.9a1.5 1.5 0 0 0-2.12-2.12zM370.32 159c-.58 1.77-2.94 3.47-4.13 4.93l-5.2 6c-3.74 3.94-7 8.28-10.84 12.13-7.86 7.86-15.55 15.66-22.6 24.27-1.22 1.5.9 3.62 2.12 2.12 7.63-9.32 16.2-17.5 24.48-26.2 3.66-3.85 7-8 10.6-11.9 1.93-2.07 3.5-4.42 5.43-6.48 1.36-1.45 2.4-2.16 3-4s-2.26-2.73-2.86-.88zm-35.46 16.75c-2.1 2.9-4.85 5.3-7.3 7.9-1.33 1.4.8 3.53 2.12 2.12 2.64-2.8 5.5-5.38 7.77-8.52 1.13-1.57-1.45-3.07-2.6-1.5zm39.5-107.6c-4.52 4.35-8.6 9.38-12.9 14l-13.82 14.37c-2.1 2.24-3.8 4.82-6 7-2.44 2.43-5.08 4.63-7.5 7.1-5.12 5.24-9.84 10.86-14.83 16.23-1.32 1.4.8 3.54 2.12 2.12l14.2-15.57c2.38-2.48 4.94-4.74 7.42-7.12s4.36-5.15 6.68-7.63l13.2-13.7c4-4.3 7.88-9 12-13.15a1.3 1.3 0 0 0 1.66-1l.23-1.13a1.51 1.51 0 0 0-2.45-1.53zm-20.1 42.22l-6.17 5.48a1.503 1.503 0 0 0 2.13 2.12c1.94-2 4.1-3.67 6.16-5.48 1.46-1.27-.67-3.38-2.12-2.12zM154.8 162.8l-.45-.08a1.63 1.63 0 0 0-1.88 1.75c-1.2 1.64-2.85 2.7-4.33 4.15-1.87 1.83-3.5 4-5.23 6-3.78 4.3-7.3 8.72-11.36 12.76L107 211.78a1.5 1.5 0 0 0 2.12 2.12l25.78-25.62c4-4.1 7.6-8.63 11.4-13 2.9-3.3 7.33-6.4 9.4-10.28a1.51 1.51 0 0 0-.89-2.19zm-14.23 31.82q-5.64 5-11 10.27a1.5 1.5 0 0 0 2.12 2.12q5.33-5.3 11-10.27c1.45-1.28-.7-3.4-2.12-2.12zm121-124.35c-4.48 8.85-14.1 15.4-21.07 22.24-8.18 8-16.2 16.23-23.9 24.7-1.3 1.43.82 3.56 2.12 2.12 8.14-9 16.6-17.6 25.27-26 6.8-6.64 15.8-12.87 20.17-21.5.84-1.77-1.72-3.3-2.6-1.56zm-9.37 33.25c-4.8 4.8-10.26 8.9-15.07 13.7a1.503 1.503 0 0 0 2.13 2.12c4.8-4.8 10.25-8.9 15.06-13.7a1.503 1.503 0 0 0-2.12-2.13zm-95.88-32.2c-4.23 3.78-7.92 8.6-11.8 12.78q-6.62 7.1-13.4 14.08l-28.2 29.3c-1.3 1.42.8 3.55 2.12 2.12 9.16-10 18.73-19.6 28.2-29.3q6.8-7 13.4-14.08c3.88-4.17 7.6-9 11.8-12.78 1.45-1.3-.68-3.4-2.12-2.12zM117.28 91.2l-5.48 5.47a1.503 1.503 0 0 0 2.12 2.13l5.48-5.48a1.5 1.5 0 0 0-2.12-2.12zM276 153.14c-3.36 5.64-8.15 10.3-11.77 15.8-4.42 6.7-8.7 13.15-14.22 19l-30.62 32a1.5 1.5 0 0 0 2.12 2.12c10.9-10.87 21.4-22 31.86-33.32A120.58 120.58 0 0 0 265.8 172c3.9-6 9.07-11.14 12.74-17.3a1.5 1.5 0 0 0-2.54-1.57zm-40.9 20.93c-2.6 2.18-5 4.58-7.5 6.88-2.27 2.1-4 4.62-6.2 6.82-1.35 1.38.77 3.5 2.12 2.12 2.16-2.2 3.94-4.7 6.2-6.82 2.48-2.3 4.9-4.7 7.5-6.88 1.48-1.2-.65-3.35-2.12-2.12zm-46.16 11.03c.14-4-.58-7.75-.62-11.68 0-4.08.63-8.2.7-12.27.17-7.87 1.4-15.62 1.37-23.5 0-7 .54-13.88.7-20.87s-1.18-14-.9-21c.26-6.46.7-13.18-.33-19.47a154.85 154.85 0 0 1-1.54-27.21 1.5 1.5 0 0 0-3 0 204.86 204.86 0 0 0 1.34 26c.37 3.26-.22 6.42.15 9.58a64.77 64.77 0 0 1 .41 10.3c-.28 7.37 1 14.45.86 21.8-.16 7-.72 13.88-.7 20.87 0 7.87-1.2 15.62-1.37 23.5-.08 4.1-.74 8.2-.7 12.27 0 3.64.83 7.16.68 10.82-.68 16.2 2.08 32.24 2.08 48.42a1.5 1.5 0 0 0 3 0c0-15.9-2.67-31.68-2.14-47.57zm221.36 29.84l.14-12.56c.07-8.14-.57-16.24-.74-24.37-.08-4.1-.83-8.14-.82-12.27 0-4.62.4-9.3.13-13.9-.25-4.1-.7-7.83-.35-12s.34-8.3.34-12.48c0-7.5-.16-14.65-.83-22.08-.7-7.64.6-15.4-.56-23.2-.53-3.5-.7-6.94-1.37-10.44-.83-4.38.07-8.35 0-12.72-.08-8.16.77-16.6 1.37-24.75.15-1.92-2.85-1.92-3 0-.6 8.2-1.3 16.5-1.37 24.75 0 3.44-1 6.82-.5 10.26l1.42 11.2c.5 4.37 1.06 8.65 1.15 13.07.08 3.7-.9 7.16-.42 10.8a172.9 172.9 0 0 1 1.1 23.11c0 8.23-.6 16.25 0 24.45.32 4.27-.07 8.66-.12 12.94-.05 4.47.76 8.8.8 13.24.1 8.14.8 16.22.74 24.37l-.14 12.56c0 3.75.88 7.3.76 11-.07 1.93 2.93 1.93 3 0 .15-3.72-.7-7.2-.73-10.97z" class="R"/><path d="M618.06 248.92c-.3-5.7.58-11.4-.92-16.93-1.23-4.55-3.5-9.1-7.57-11.86a13.82 13.82 0 0 0-7.26-2c-.2-3.5-.12-7.08-.3-10.56-.44-8.57-.7-17.1-.92-25.66-.23-9.47-1.35-18.88-2.15-28.3-.74-8.65-1.35-17.3-2.66-25.9-1.7-11.1-4.76-22.73-10.3-32.8-1.7-6.22-3.88-12.28-7.8-17.36-5.84-7.58-14.4-12.15-22.9-16.16a4.12 4.12 0 0 0-5 1.18l-.56-.28a3.22 3.22 0 0 0-2.93-3.3c-10.55-1.85-21.2-2.33-31.88-2.9a3.45 3.45 0 0 0-3.17 1.47 10.57 10.57 0 0 0-2.17-2.59 4.13 4.13 0 0 0-3.89-1 4.07 4.07 0 0 0-2.69 2.27 4 4 0 0 0-.85 1.36 3.69 3.69 0 0 0-2.15 3.47 120.21 120.21 0 0 0 .22 14.08c.1 3 .24 5.9.46 8.87.1 2.72 1.3 5.06 1.48 7.74s-.1 5.66-.15 8.43c-.1 6.17.83 12.26.78 18.37 0 5.55-.45 11.06.36 16.6s.62 11 1.3 16.6c1.45 11.9 1.63 23.7 1.72 35.66l.28 19.17c-.08 5.3.3 11.1-.35 16.5l-12.68 1.07-27.65 2.64c-8.55.7-17.52-.1-26.1-.16-9.23-.06-18.4.77-27.62.78-9 0-18 .15-27 .75-4.3.28-8.4.75-12.7.66s-8.76-.37-13 .18a198.22 198.22 0 0 1-25.8 1.37c-10-.06-19.84-.7-29.76.47-7.33.85-14.56.1-21.86.24a2.56 2.56 0 0 0-3.95.18c-.37 0-.75.05-1.12.1l-13.2-.36c-7.67.44-15.32 1.2-23 1.2-3.6 0-7.2.08-10.82.17s-7.28-1-10.92-.9c-3.35.1-6.6.73-10 .7h-66.06a46.21 46.21 0 0 0-6.86-.07c-13.92-.2-27.7-.75-41.63.76a2.51 2.51 0 0 0-2 1.35 3.77 3.77 0 0 1-.77-1.18v-.2a4.11 4.11 0 0 0 .48-2.66c-.1-.8-.2-1.63-.27-2.45.23-4.56.5-9.12.47-13.7a3.88 3.88 0 0 0-.53-2v-1c0-2.5-.86-4.93-.76-7.4a45.76 45.76 0 0 0-.12-8c-.64-5-8.65-5.1-8 0 .4 3.1 0 5.94 0 9 0 2.73.92 5.3.83 8.07 0 1.1-.06 2.2-.08 3.32-1.15 5.32-1.58 12.22 0 17.7v2.3a4.31 4.31 0 0 0 .27 1.5c-2.32.77-5 .5-7.15 2a8 8 0 0 0-3.48 6.47c0 4 .17 7.93-.1 12a60.08 60.08 0 0 0 0 11.14 13.25 13.25 0 0 0-10 5q-8.33 1-16.67 1.7a4 4 0 0 0-3.69 3.11 13.23 13.23 0 0 0-.75 1.4 13.86 13.86 0 0 1-2-.63 4 4 0 0 0-4.92 2.8c-.9 5.36-.8 11.52-.9 17-4.24 2.3-7.43 5.76-8.1 11.55-.92 8-2.2 15.9-2.16 24 0 3.86-.18 9.57 4.78 10.26a19.11 19.11 0 0 0 6.27-.61c-.2 4 0 7.93-.3 11.9-.65 9.3.53 18.44 1 27.73.2 4.17 1.6 7.6 5.4 7.73l.25.88a2.57 2.57 0 0 0 2.41 1.83c7.9.34 15.77.2 23.66.16a4 4 0 0 0 3.66 5.4c32.8 1 65.58 2.15 98.4 1.73l96.28-1.85 98.7-2.7 40.5-2a2 2 0 0 0 .34.05c28 1.26 56 2.52 84 1.47l41.52-2.05c.44 0 .9 0 1.33-.06l8.88.3c8.5.26 16.76-.14 25.2-.35a3.91 3.91 0 0 0 3.86-4.12c.05-.23.1-.45.12-.67.63-4.75 3.87-12.84.34-16.16a4.1 4.1 0 0 0 1.6-2.76c.4-2.5 0-5.4 0-7.95l.16-11.56a47.62 47.62 0 0 0-.12-5.73 13.66 13.66 0 0 1-.51-2.58c.1-.46.07-.62 0-.67a1.49 1.49 0 0 0 .23-.18c.6-.5 4.26.25 5.1.2 3.95-.2 8-1.8 9.3-5.9 1.48-4.77-.2-10.6.46-15.56a24.41 24.41 0 0 0 .08-7.19c-.1-.62-.72-2.42-.46-3.06 1.13-2.84 4.64-1.73 6.8-1.95 4-.4 6.74-2.63 7.53-6.67a34 34 0 0 0 .18-6.54c0-3.68.4-7.24.63-10.9.27-4.3 0-8.64.1-12.94 0-1 .12-2 .1-3 0 0-.34-3.26-.8-3.83 1.5-.25 7.48-.5 8.23-.62 2.1-.33 4.85-.4 6.68-1.66 4.5-3.12 2.4-9.76 2.17-14.03zm-54.74 136.5a4.41 4.41 0 0 0-.43-.94l.7-.14c-.08.36-.17.72-.26 1.08z" class="P"/><g class="R"><path d="M408.15 261.15a32 32 0 0 0-5-.46 48.26 48.26 0 0 0-9.15-.43c-5.45.4-10.9.54-16.35.94-11.82.9-23.65 1.47-35.5 2h-.13c-.26-3.24-2.4-6.64-3-9.74-.73-4-.34-7.95-1.1-11.92-.3-1.66-3-1.28-2.94.4.18 4.65.53 9.3.53 14 0 2 .8 5 .77 7.3a6.14 6.14 0 0 1-3 1.61c-.14 0-.3 0-.43-.06a1.51 1.51 0 0 0-1.4.45l-3 .54h-1.14c-6.9 0-13.82-.07-20.73.05s-13.7.67-20.55.9c-5.83.2-11.6-.18-17.4.72a1.07 1.07 0 0 0-.66.37h-.52a6.26 6.26 0 0 0 .46-2.17v-.58a21.4 21.4 0 0 0-.19-6.16 32.37 32.37 0 0 0-1.27-6.59 1.5 1.5 0 0 0-2.89.8l.46 2.34c.12 1.1.15 2.22.27 3.33.07.62.33 1.75.55 2.94a9.43 9.43 0 0 1-.82 4.75c-2.5 1.46-9 1.05-11.1 1.2a123.14 123.14 0 0 1-3.86.18c-5.62-.24-11.2-.3-16.8-.2l-10.64-.2c-5 0-10-.17-15 .12-3.84.22-7.68.67-11.53.7h-2.8c-4.92-.28-9.73-.94-14.68-.8-3 .08-5.86.5-8.78.73H167a1.54 1.54 0 0 0-.63.13 10.73 10.73 0 0 0 .23-4.83c-.14-2.05-.63-4.17-.86-5.9s-3.08-2-3 0 .9 4.72 1 6.9a4.5 4.5 0 0 1-.28 1.64c-1.5 3.5-7.67 2-10.38 1.63-6.18-.8-12.3.14-18.47.46-12.5.64-25 .64-37.47.64h-1.62a1.47 1.47 0 0 0-1.37 2l-5.26.06a1.5 1.5 0 0 0 0 3c18.3 0 36.5-1.37 54.82-1.37 6.07 0 13.66 1 19.53-1.34a37.38 37.38 0 0 0 6.26 0q10.23 0 20.46-.1a63.82 63.82 0 0 0 6.78.22l10.5-.4q12.67-.15 25.36-.34c6.43.23 13.1.65 19.66.48l2.6.1c2.66.1 6 .46 8.7-.4a1.5 1.5 0 0 0 .58.11l10.92.1c1.1 0 2.22.05 3.33 0 12.53.2 25 .37 37.58-.7 4.36-.37 9.12-.65 13.67-1.4 3 .16 7.05.44 9.72-.73 2.84-.1 5.67-.4 8.53-.6l19.62-1.42 19.5-1.44c4.68-.37 9.7-1.14 14.6-1.12 2 .2 4.07.43 6.18.54 1.67.01 2.08-2.72.4-3.03zM104.1 302a1.75 1.75 0 0 0-.24-.73c0-2.26-.3-4.4-1.43-5.8a1.51 1.51 0 0 0-2.56 1.06 29.33 29.33 0 0 0 .72 4.29l-.14 1.3v6.55a1.36 1.36 0 0 0 .69 1.24v.58a4.15 4.15 0 0 1-2.62 1.88 26.13 26.13 0 0 1-2.64.5 106.88 106.88 0 0 1-17 1.16c-9.9.05-19.76.74-29.7.68a1.5 1.5 0 0 0 0 3c13.54.1 27.24.06 40.74-1.1 3.47-.3 8.54-.3 11.9-2.16a1.52 1.52 0 0 0 2.29-1.26v-.77c2.08-2.96.3-6.94 0-10.4z"/><path d="M167.8 292.84v-7.74a1.4 1.4 0 0 0-1.35-1.44v-.34c-.1-1.92-3.1-1.93-3 0 .16 3.74.54 7.46.9 11.18q-.13 1.3-.24 2.6a3.13 3.13 0 0 0 .7 2.74v.05c.14 1.9 3 2 3 0v-7.05zm-47.5 19.36c-2.4-1.1-4.73-.9-7.34-.9H102.6a1.51 1.51 0 0 0-.34 3 1.15 1.15 0 0 0 1 .82 111 111 0 0 0 15.8.58 1.37 1.37 0 0 0 1.36-1 1.47 1.47 0 0 0-.11-2.5zm-3.3 42.25h-1.63a1.51 1.51 0 0 0-.55-.65c-2-1.3-4.23-.95-6.46-.57a48.65 48.65 0 0 1-5.7.62l-3.18-.1H84.3c-10.13 0-20.2-.37-30.33-.7C52 353 52 356 54 356.08l6.35.2a1.36 1.36 0 0 0 1.41 1.17H117a1.5 1.5 0 0 0-.01-3zm416-102.9a13 13 0 0 0-1-5.15 1.65 1.65 0 0 0-1.19-1c0-.28 0-.56-.05-.84a1.5 1.5 0 0 0-3 0 27.67 27.67 0 0 0 .43 6.44c.1 1.47-.1 2.13-1.52 3.9-.45 0-.86-.05-1.17 0l-5.87.23-14.25.82a1.46 1.46 0 0 0-1.22 2.25 113.23 113.23 0 0 1-9.14-.35c-1.92-.15-1.9 2.85 0 3a110.66 110.66 0 0 0 15.34.44c4.45-.3 9.2 0 13.6-.77a9.23 9.23 0 0 0 5.29-2.47 10.54 10.54 0 0 0 1.69-.34 1.6 1.6 0 0 0 2.58-1.1 17.78 17.78 0 0 0-.51-5.06zm51.24 2.65c-3.56-.42-7.6.82-11.18 1.16h-.6l-9.75.25-20.4.8a1.43 1.43 0 0 0-1.32.92l-5.5.5c-1.83.2-2 3.05 0 3 7.63-.2 15.3-1.12 23-1.34s15.72.72 23.3-.82a1.26 1.26 0 0 0 1.08-1.24l1.8-.33c1.74-.33 1.1-2.7-.45-2.9zm-4.34 38.9a469.23 469.23 0 0 0-16.35.28 1.49 1.49 0 0 0-1.16-2.7l-2.92.56-4.26.2-7.73.87h-.4a7.09 7.09 0 0 0-.21-.95 1.47 1.47 0 0 0-.06-2 9.76 9.76 0 0 1-2-3.4l-.55-2.7a1.18 1.18 0 0 0-.24-.49c0-.26-.1-.52-.13-.8-.25-1.55-2.5-1.3-2.9 0-1 3.07.23 7.16.58 10.28a1.93 1.93 0 0 0 .17.56l-.64.06c-.27 0-.53 0-.77.05l-.85.07-13.8.58-2.38.13c-11 .16-22 .56-33 1.42-1.9.15-2 3.06 0 3l13.24-.47a1.44 1.44 0 0 0 1.44 1.69c2.16-.05 4.33-.18 6.5-.35a1.39 1.39 0 0 0 1.39 1.84l34.9-1.74q8.22-.5 16.46-1.13c5.17-.4 10.54-1.75 15.68-1.92a1.5 1.5 0 0 0-.03-2.93zm-9.05 35.97a56.74 56.74 0 0 1-12.52 1.19l-6.8-.2c-4.46-.22-8.94-.5-13.45-.37a1.5 1.5 0 0 0 0 3c1.3 0 2.57.05 3.86.1 8.1.43 16.17.6 24.27.6a1.36 1.36 0 0 0 1.24-.69c1.4-.18 2.8-.42 4.2-.74 1.88-.42 1.08-3.3-.8-2.9zM564.52 139a21 21 0 0 0-1-4.68 4 4 0 0 0-1.42-1.79v-.75a1.52 1.52 0 0 0-2.86-.65 1.25 1.25 0 0 0-.52-.64c.35-2.47-.4-5.5-.64-7.8v-1.02a1.38 1.38 0 0 0-.75-1.24h-.17l-.18-.07h-.47a1.37 1.37 0 0 0-1 .35 1.39 1.39 0 0 0-.45 1.1v.5c-.1 1.63-.06 4.33-.52 5-1.26 1.88-3.6 1.3-5.43 1.44-4.62.34-9.2 1-13.85 1.37l-14.46 1.07c-2.5.2-5.7-.4-7.86 1a1.4 1.4 0 0 0-.69 1.32h-.1a1.5 1.5 0 0 0 0 3c12.37-.08 24.75-.7 37.1-1a21.72 21.72 0 0 0 5.7-.59 1.47 1.47 0 0 0 1.47.5 12.94 12.94 0 0 1 2.74-.5c.2 3.15.8 6.5 2.6 8.9a1.52 1.52 0 0 0 2.74-.36 8.18 8.18 0 0 0 0-4.46z"/><path d="M590.1 159.85l-19.68.86c-.3-3.25-.83-7.2-2.44-9.55a1.53 1.53 0 0 0-2.05-.54c-1.73 1-2 2.68-2.3 4.56-.37 2.35-.38 4-2.9 5.17-1 .48-2.07.45-3.07 1-13.3.64-26.6 1.18-39.94 1.08a1.5 1.5 0 0 0 0 3c13.54.1 27.06-.46 40.57-1.1q2.75 0 5.5-.1a22 22 0 0 0 .92 5.76v1.84c0 1.56-.06 3.15 1.52 3.88a1.51 1.51 0 0 0 2.2-.9 27.46 27.46 0 0 0 .41-2.2 1.37 1.37 0 0 0 .42-1c1.3-1.5 1.5-5.47 1.44-7.64l19.45-1.07c1.88-.12 1.88-3.1-.03-3.05zM566.65 156a1.34 1.34 0 0 0-.43.79 15.84 15.84 0 0 1 .21-1.67c.07.3.15.6.22.88zm33.1 61.3c-10.24-.05-20.36 1.17-30.54 1.94a25.23 25.23 0 0 0-.59-3.72c0-.16.06-.32.1-.48a1.4 1.4 0 0 0 1-1.38l-.22-6.58a17.1 17.1 0 0 1 .65-2.68 2.14 2.14 0 0 0 .08-.32l-4 .27v5.47a8.21 8.21 0 0 0-.36 4.52c-.5 1.86-1.3 3.72-1.3 5.2-1 0-2 .12-3 .16-6.6.27-13.15.75-19.73 1.28s-13.05.3-19.56.9c-1.9.18-1.93 3.2 0 3 6.5-.62 13-.4 19.56-.9l19.73-1.28 6.43-.38h.2c4.8.43 10.06-.53 14.85-1 5.57-.5 11.12-1 16.7-1.08a1.5 1.5 0 0 0 .01-2.93zm-12.27-88.46a1.59 1.59 0 0 0-2.17-1.94c-3 1.45-7.38.94-10.6 1l-5.8.13c-1.93.04-3.68 0-5.53.2a1.48 1.48 0 0 0-1.19.72c-1.23.07-2.45.16-3.68.27-1.9.17-1.92 3.17 0 3 8.47-.74 17-.6 25.5-.52h3a1.51 1.51 0 0 0 .46-2.85zm-82.28 95.3c-3.5 2.55-8.92 2.8-13.06 2.87-4.5.07-8.95.48-13.43.77-9.4.6-18.9.14-28.3.24-18.07.17-36.18 1.68-54.26 2.13s-36.38 1.7-54.48 3.2c-9.1.76-18.33.3-27.46.28-9.72 0-19.44-.1-29.16-.5a1.55 1.55 0 0 0-.63.1 1.32 1.32 0 0 0-1.41-1.12c-8 .22-15.42 2.63-23.45 1.95-7.73-.65-15.43-.86-23.18-1.15-8-.3-15.84.44-23.8.7-8.56.28-17.12.1-25.7 0s-16.86.63-25.33.52c-8-.1-15.75-1.4-23.77-.9-7.7.5-15.24-.33-22.92-.2q-6 .1-12 .06c-2.87 0-5.83-.56-8.54.56-1.76.73-1 3.63.8 2.9 3.06-1.25 7.86-.45 11.15-.45l10.35-.1c7.74 0 15.27.56 23 .1 7.94-.45 15.77 1 23.7 1 8.5.05 16.93-.6 25.42-.5 8.24.08 16.5.2 24.73-.1 7.94-.3 15.8-1 23.74-.63 7.76.34 15.46.5 23.2 1.22s14.87-1.85 22.52-2.06a1.55 1.55 0 0 0 .64-.16 1.46 1.46 0 0 0 1.4 1.18c9.72.4 19.44.5 29.16.5s19.6.47 29.33-.45c18.7-1.77 37.77-2.9 56.57-3.1s37.45-2 56.2-2.06c9.76 0 19.4-.1 29.13-.74 6.73-.44 15.5.66 21.3-3.55 1.6-1.08.1-3.7-1.47-2.54z"/></g><g class="P"><path d="M623.1 415.43c-.2-5.5-2.08-11.54-4.16-16.6-1.72-4.18-2.4-8.08-5.82-10.7a2.49 2.49 0 0 0-2.57-1.41l-.82.06c-8.57.63-17.06 1.82-25.66 2.27q-14 .74-27.95 1.42c-18.25.92-36.48 1.7-54.76 1.84-37.2.3-74.36-.27-111.55-.58l-110.35-1.38-112.48 3-126.82 5.14a2.83 2.83 0 0 0-1.88.72 35.6 35.6 0 0 0-12.09 3.74c-3.63 2.07-4.4 5.24-4.35 9.3.08 5.06 1.07 10.2 1.4 15.26.26 4.1-.3 10.38 1.8 14.07 1.6 2.84 5.2 3.1 8.17 3.1 5.34 0 10.77-.74 16.1-1.1q18.5-1.24 37-1.8l145.53-5.33c49.38-.77 98.68-3.3 148-5.08 24.27-.87 48.52-1.6 72.8-1.32l72.27.4c26.83-.27 53.7-2.3 80.52-2 3.93.05 10.22 1.3 13.9-.5 4.08-1.98 3.9-8.75 3.76-12.55z"/><path d="M126.28 412.3a12 12 0 0 1-.2-4.19 1.5 1.5 0 0 0-3 0c0 1.66-.27 3.38.3 5 .66 1.8 3.6 1 2.9-.8z"/></g><path d="M594.9 191.3c-24.17.18-48.27 5.08-72.45 3.4-1.93-.13-1.92 2.87 0 3 24.18 1.68 48.28-3.22 72.45-3.4a1.5 1.5 0 0 0 0-3z" class="R"/><path d="M335.9 228c-1.65-7.3-4.3-15.44-9-21.37-4.3-5.47-10-7.17-16.74-7.84a1.27 1.27 0 0 0-1 .34 1.48 1.48 0 0 0-.71.06c-3.13 1-6.17 2.26-9.2 3.55a1.3 1.3 0 0 0-.67.58c-10.1 5.88-11.8 19-10.86 29.7.58 6.67 3.12 13 5.2 19.3a54.47 54.47 0 0 0 9 17c3.13 3.94 7.15 7.16 12.46 6.3s8.65-4.9 11.16-9.4c6.12-11 13.24-25.37 10.35-38.22z" class="P"/><path d="M341.47 268c-2.63.1-5.26.38-7.88.72h-1.94a32.84 32.84 0 0 0-5.68.61l.45-.55c2.54-3.44 2.62-7.84 3-12a59.9 59.9 0 0 0 4.71-6.38 28.63 28.63 0 0 0 3.31-5.39 29.18 29.18 0 0 0 1.89-6.47 30 30 0 0 0 .18-14c-.28-1.23-.63-2.52-1-3.85a57 57 0 0 0-9.1-18.06c-5.7-7.63-13.15-10.84-22.74-9.7-1.1.13-2.18.33-3.26.57-.8.17-1.6.38-2.4.6l.52.5-.86.3a6.25 6.25 0 0 0-2.24 0c-2 .57-4.76 2.05-4.7 4.45a73.46 73.46 0 0 0-6.07 8.46c-3.2 4.67-5.45 9.42-6.07 15.1a27.23 27.23 0 0 0 .46 8.49c1.33 8.56 4.93 17 10.86 23.2a2.69 2.69 0 0 0 .44 1.87 2.78 2.78 0 0 1 .25.55v.32a2.94 2.94 0 0 0 .22 1c.1.52.2 1 .3 1.56.07 1.3 0 2.6.13 3.54s.26 2 .36 3v.54l-.18.05c-7.1 2.47-13.3.68-20.5.93-3.6.12-7.18.5-10.78.68-2.62.13-5.07.2-7.43 1.5A25.89 25.89 0 0 0 245 281.6c-1 2.4-1.38 4.93-2 7.44-.6 2.27-1.93 4.5-1.72 6.9a3.45 3.45 0 0 0 .25 1 1.47 1.47 0 0 1 .41 0l.56.1a1.64 1.64 0 0 0 .71 1.06 10.55 10.55 0 0 0 5.47 1.73c2.26.1 4.52 0 6.77 0a1.37 1.37 0 0 0 1.27-.74l5.8.52c10.57-.35 21.14-.3 31.7-.43 1-.47 2-.88 3-1.26 0 .1-.08.18-.1.27a1.5 1.5 0 0 0 1 1.84 1.53 1.53 0 0 0 1.85-1c.25-.68.54-1.34.82-2a1.35 1.35 0 0 0 1.34-.4c1.94-2.43 3.7-5 5.66-7.4a65.47 65.47 0 0 1 6.59-6.63 1.44 1.44 0 0 0-.62-2.44l.26-.18a35 35 0 0 1 5.22-3.76c5.32-3.1 11.83-4.72 17.78-6.08a54.61 54.61 0 0 1 10.81-1.49 23.19 23.19 0 0 0-6.36-.65zm-21.92-1.4l-1.18 1.23c-.4.4-.83.78-1.27 1.16-.3.17-.6.35-.94.52a22.25 22.25 0 0 1-9.12 2.07c-1.82-1.7-3.8-3.28-5.53-5a3 3 0 0 0-1-.7.49.49 0 0 0 0-.12 58.6 58.6 0 0 0-.71-8.15c0-.22-.06-.44-.1-.65a2.4 2.4 0 0 0 .43-3.51l-1.32-1.8c.3-3.75-1.38-7-3-10.56-2.42-5.35-5-11.4-4.5-17.4v-.25a16.2 16.2 0 0 1 1.14-4l.87-2.1c1.3-2.5 3-4.9 4.48-7.22q2.42-1.82 4.66-3.8a.93.93 0 0 0 .23 0c2.76.2 4.9 2.32 7.85 2.08a6.64 6.64 0 0 0 2.68-.78c.63-.36 1.54-1.94 2.1-2a1.74 1.74 0 0 1 1 .32 45.26 45.26 0 0 0 3.82 4.51 65.25 65.25 0 0 1 8 10.62c.12.3.25.6.35.92 2.3 6.6 2.64 13.4.05 20l-.2.5c-1.55 2.93-3.34 5.75-4.72 8.42a2.93 2.93 0 0 0 .32 3.36 2.57 2.57 0 0 0-.3 1.29 2.93 2.93 0 0 0-.11.53l-.3 2.3a7.28 7.28 0 0 0-1.45 2.68c-.27.9-.42 1.86-.7 2.77a1.47 1.47 0 0 0 .2 1.22 9.92 9.92 0 0 1-.52.8 2.87 2.87 0 0 0-1.23.76z" class="N"/><path d="M327.7 232.18c-1.62-2.52-7.78-1.92-10.17-2a25 25 0 0 0-8.86.85c-3.34 1-6.7 2.8-10.28 2.37a33.25 33.25 0 0 1 .5-15.28 7.18 7.18 0 0 0 3.59-2.65c2.56 1.16 4.65 3.43 7.8 3.12a3.05 3.05 0 0 0 3-2.81 27.93 27.93 0 0 0 3.77 0c1.9-.2 1.92-3.2 0-3s-3.5-.07-5.34 0a1.51 1.51 0 0 0-1.44 1.9c.47 2-7.18-2.28-8.07-2.53a1.54 1.54 0 0 0-1.85 1c-.43 1.34-2.17 2.13-3.42 2.32a1.28 1.28 0 0 0-.94 1.91 29.62 29.62 0 0 0-.89 14c.16.9.36 1.8.54 2.7a1.45 1.45 0 0 0 .34 1.66c.95 4.3 2.1 8.54 3.35 12.8a40.71 40.71 0 0 1 2 9.24c.1 2.07-.3 4.58.4 6.58.9 2.63 4 5 6.45 6a1.17 1.17 0 0 0 1.51-.41 12.08 12.08 0 0 0 5.28-1.51c2.27-1.07 3.44-2.2 4-4.76a4.94 4.94 0 0 0-.1-3.31 172.36 172.36 0 0 0 6.71-16.51c.78-2.25 3.78-9.14 2.13-11.7zm-3.27 4.12a41.52 41.52 0 0 1-2.08 7.66c-1.94 5.3-4 10.53-6.4 15.6-.15.05-.3.1-.43.15a31 31 0 0 1-4.33 1c-1.88.4-1.08 3.3.8 2.9l2.74-.56a6.06 6.06 0 0 0 1.3-.29c-.08.34-.14.8-.17.92a2.9 2.9 0 0 1-1.61 1.84 1.56 1.56 0 0 0-2 0 4.46 4.46 0 0 1-3.56 1.4 1.56 1.56 0 0 0-.53 0c-.38-.35-.76-.77-1-1-2.44-2.25-2.77-3.46-2.82-6.6-.07-4.3-1.15-8.2-2.32-12.33-1-3.52-2.14-7.06-3-10.65 3.06.1 6-1 9-2a28.12 28.12 0 0 1 5.2-1.18 49.67 49.67 0 0 0 1.52 8.16c0 .1.05.2.07.3h-.15c-.37 0-.74 0-1.12-.08-1-.13-.74-.46-.77.5.06-1.93-2.94-1.93-3 0-.08 2.58 4.63 3 6.5 2.68s1.8-2.3 1.5-3.7a58.15 58.15 0 0 1-1.56-8.12 29.62 29.62 0 0 1 6.63.48c2.5.6 1.94.78 1.6 2.9z" class="R"/><path d="M330.42 226.28a7.79 7.79 0 0 0-.23-2.63c-.46-1.57-1.66-4.1-3-5.1a3.23 3.23 0 0 0-1.6-.61 4.25 4.25 0 0 0-3.49-.59.86.86 0 0 0-.59.44 6.24 6.24 0 0 0-1.14 0c-4.12.25-8.05 1.95-12.2 2.4-3.5 0-7-.24-10.47-.27l-2.38-.3c-.43-.06-.85-.12-1.24-.14h-.26a3.34 3.34 0 0 0-.84 0 1 1 0 0 0-1.24.6 3.31 3.31 0 0 0 0 4.22 2.54 2.54 0 0 0-.52 1.7 14.86 14.86 0 0 0 .51 3.1 8.94 8.94 0 0 0 1.07 5c1.15 1.85 2.4 1.53 3.86.48 3.74 1.1 8.08-1.2 11.7-2a39.76 39.76 0 0 1 15.1-.26 15.11 15.11 0 0 0 2.86.35 1 1 0 0 0 .55.23c1.4.1 3.1.3 3.4-1.5a7.33 7.33 0 0 0 .07-1.34v-.05a6.91 6.91 0 0 0 .08-3.7z" class="M"/><path d="M306.78 225.4l-.2-.22c-1.24-1.13-3.95-1.44-5.55-1.4-2.37.08-8 2-5.2 5.23 2 2.3 6 1.6 8.68.23 1.45-.4 2.65-1.08 3-2s-.04-1.6-.74-1.85zm19.94-.12a2.92 2.92 0 0 0-2.49-1.74 3.86 3.86 0 0 0-1.16-.24 2.83 2.83 0 0 0-1.66 0 12.55 12.55 0 0 0-2.44.66l-.18.1c-1.47.57-2.58 1.68-1.38 3a3.43 3.43 0 0 0 2.4.94h.17a7.06 7.06 0 0 0 1.49.11 9.36 9.36 0 0 0 3.6-.58c.93-.36 2-1.1 1.65-2.26z" class="R"/><g class="M"><path d="M326.72 216.64l-6.47-7.24c-1.36-1.5-2.35-2.8-3.9-3.07a.87.87 0 0 0-1.11-.51l-.2.08a3.42 3.42 0 0 0-.93.19c-2.17.7-3.4 1.48-5.92 1.08a17.06 17.06 0 0 0-4.24-.57.93.93 0 0 0-.73-.58.77.77 0 0 0-1.09-.06 23.72 23.72 0 0 0-4.95 5.57 30.57 30.57 0 0 0-4.25 6.74l-.27.62a3.87 3.87 0 0 0-.21.34 8.67 8.67 0 0 0-.76 1.82c-1.08 3.48-.53 7.77.43 11.3v.15c0 .34.07.68.1 1a1 1 0 0 0 .49.79l.06.2a1.009 1.009 0 0 0 2-.27c-.05-5.3-2.06-9.44-.16-14.47v-.07a60.78 60.78 0 0 1 3-5.36 32.24 32.24 0 0 1 2.3-2.88 1 1 0 0 0 1-.18 5.71 5.71 0 0 1 3-1.14 13.26 13.26 0 0 1 3.45.5 6.42 6.42 0 0 0 3.28.3 9.85 9.85 0 0 0 4.69-2.42l.37-.2c2.87.66 9.32 9.2 10.52 10.7 3.9 4.85 3 11.33 1.94 17.08-.85 4.56-2.67 8.3-4.3 12.55-.5 1.28-.87 2.64-1.32 4a.94.94 0 0 0-.19.47.52.52 0 0 0 0 .11 14.63 14.63 0 0 1-1.48 3.09c-2.22 3.38-5.32 2.67-8.7 3.54-1.15.3-.8 1.86.27 2a11.48 11.48 0 0 0 5.66-.7 8.71 8.71 0 0 0 1.36-.33c0 1.36-.07 2.7-.12 4.07a.6.6 0 0 0 0 .19v.93a1.57 1.57 0 0 0 0 .23v.1a1.07 1.07 0 0 0 1.54.47v-.14l.2-1.1c1.56-2.75 1.48-6.34 2.35-9.38s2.85-6 3.53-9.22a.94.94 0 0 0-.1-.67c1.75-4.74 3.4-9.32 3.95-14.7.62-5.8-.2-10.6-4.1-14.97zm-9.72 20.7a36 36 0 0 1-1.24-5.27c-.13-1.27-2.13-1.3-2 0a36.07 36.07 0 0 0 1.62 6.77 5 5 0 0 1 .45 1.64c-.07.66.1.46-.86.47l-3.78.15a1 1 0 0 0 0 2 30.69 30.69 0 0 0 4.89-.2c.92-.14 1.7-.52 1.87-1.52.27-1.28-.58-2.84-.95-4.04zm.64 10.55h-.15c-2.84.07-5.64.53-8.47.67-1.28.07-1.3 2.07 0 2l8.62-.68a1 1 0 0 0 0-1.99zm-16.06-22.26a2 2 0 0 0-1.23.36 1.14 1.14 0 0 0-.26 0 1 1 0 0 0-.7.7 1.56 1.56 0 0 0 1.38 2.11 2.39 2.39 0 0 0 2.09-1 1.5 1.5 0 0 0-1.28-2.17z"/><path d="M324 225.3a2 2 0 0 0-1.53-.85 1.24 1.24 0 0 0-.74.29 1.29 1.29 0 0 0-.61.13 1.19 1.19 0 0 0-.56 1.5c.47 1.2 2.34 1.08 3.23.5a1 1 0 0 0 .21-1.57zm-4.12 39.9c-2.45 2-7.3 5.18-10.44 5.48s-5.7-3.64-7.45-5.87c0-.66-.05-1.3-.1-2a23.81 23.81 0 0 0-.58-5.88.79.79 0 0 0 0-.09 41.82 41.82 0 0 0-1.14-5.18c-.85-2.9-1.05-5.88-2.14-8.74-1.28-3.36-2.76-6.5-3.82-10-.38-1.23-2.3-.7-1.93.53 1.8 5.82 4.4 11.16 5.62 17.17a107.12 107.12 0 0 1 2.06 12.95c0 .63.05 1.27.1 1.9a1 1 0 0 0 .72.9c2 2.6 4.72 6.35 8.36 6.4 1.56 0 4-1.44 5.47-2.15a36 36 0 0 0 6.71-4.07c.97-.73-.45-2.14-1.45-1.35zm-.38-53.8a1.06 1.06 0 0 0-.26-.91l-3.18-3.27a1 1 0 0 0-1.69.44 1 1 0 0 0-.46.51 1 1 0 0 0-1.16.57 2.32 2.32 0 0 0-.7 0 1 1 0 0 0-1.35 1.37.84.84 0 0 0-1 .4 9.52 9.52 0 0 0-1.09-.56 18.76 18.76 0 0 0-2.46-.83l-.4-.34a1 1 0 0 0-1.57.25l-.32.05a1 1 0 0 0-.7.67l-.74-.37a1 1 0 0 0-1.46.84h-.1a2.3 2.3 0 0 0-1 .75 6.9 6.9 0 0 0-2.12 1.47 1.18 1.18 0 0 0-.22.92c-.88.3-1.12 1.72 0 1.87s2.22.57 3.12 0a1.42 1.42 0 0 0 .66-1.33 3.69 3.69 0 0 1-.07-1.1l.16-.18h.35c1.92 1.4 6.54 4.73 8.3 2.95.72-.74.43-1.77-.27-2.8 1.57 1 3.13 2.06 4.84 1.93a1.06 1.06 0 0 0 1-.74 1.8 1.8 0 0 0 0-1.21 25.62 25.62 0 0 0 3.87 1c1.42.23 2.06-.47 2-1.9a1.02 1.02 0 0 0-1.99-.45z"/></g><path d="M299 429.6c-1.25-1.35-4.13-.8-5.7-.87a41.33 41.33 0 0 1-12.6-2.79c-3.53-1.3-7.13-2.28-10.66-3.56-2.08-.75-3.92-1.8-5.94-2.38v-.18c.2-1.85-2.6-1.9-3-.17a1.53 1.53 0 0 0-.27 2.75 82.27 82.27 0 0 0-.15 11.11c.12 2.23 0 4.47.2 6.7.1 1.15.56 2.37.8 3.56-3.86.47-7.72.16-11.6.9a10.13 10.13 0 0 0-3.84.11 12.38 12.38 0 0 0-2 .48 3.27 3.27 0 0 0-1.57 1.46 6 6 0 0 0-1.23 3.14l-.7.74c-3 3.37-5.72 7-8.93 10.22-3.6 3.62-7.53 6.84-11.28 10.28a1.51 1.51 0 0 0 1.06 2.56c4-.13 8.28-.92 12.3-.57a21.19 21.19 0 0 0 6.65 0c4.22-.9 8-1.85 12.33-1.7l10.8.3c7 .2 13.6 1.62 20.57.36 4.48-.8 12.1-.9 13.45-6.67 1.45-6.17.7-13.1 1.65-19.37.54-3.56.24-6.88.2-10.46-.02-1.7.76-4.56-.55-5.95z" class="O"/><path d="M298.45 429.88c-.9-1.65-2.92-1.64-4.58-2.13-3.34-1-6.48-2.63-9.77-3.8-6.64-2.37-13.46-5-20.35-6.45a1.56 1.56 0 0 0-1.7.69 9.75 9.75 0 0 0-.87 3.56 1.21 1.21 0 0 0 .27.93 1.35 1.35 0 0 0 .34 1.53c2.7 2.65 5.52 5.16 8.13 7.88 1.58 1.65 3.5 3.42 4.38 5.55 1 2.32.67 5 .82 7.5.25 4.26 2 8.06 1.6 12.37-.46 4.53-2.38 4.9-6.66 5-7.45.08-15.12 1-22.54.26-4-.4-7.65-1-11.68-1.05a45.83 45.83 0 0 0-6 .47c-3.8 3.45-7.84 6.6-11.93 9.68a1.55 1.55 0 0 0 1 1.06c3.37 1.3 6.68.9 10.22.63l12.86-1c7.45-.74 14.88-1.3 22.34-1.78 4.14-.26 8.23-.9 12.38-.94 3.85 0 7.6.8 11.43.9 2.54.06 9.74.5 9.9-3.32 0-.64-.57-1.42-.64-2.07a19.52 19.52 0 0 1 .44-3.86 102.72 102.72 0 0 0 .71-13.12c-.06-3.2-.14-6.34 0-9.54.18-2.5 1.17-6.65-.1-8.96z" class="N"/><path d="M306.13 278a10.65 10.65 0 0 1-5.37-2 8.88 8.88 0 0 1-2.71-4.37c-.65-1.8-3.55-1-2.9.8.78 2.17 1.77 4.44 3.67 5.86a13.57 13.57 0 0 0 7.3 2.73 1.51 1.51 0 0 0 0-3.02zm-45.83.57a1.502 1.502 0 0 0-1.52 2.59c4.67 2.8 2.15 12.6 2.48 17.24a1.51 1.51 0 0 0 2.95.4l.18-.5a1.25 1.25 0 0 0-.17-1.25c-.04-6.34 2.2-14.78-3.92-18.47zM282.86 85.4c-.12-1.92-3.12-1.94-3 0 .24 4 .72 7.46.3 11.5l-1.2 12.6a92.7 92.7 0 0 0-.62 11.17c.18 4 .9 8.53-.2 12.45-.46 1.6 2 2.73 2.74 1.15l.4-.85a1.47 1.47 0 0 0 .1-1.06c.54-3.1.2-6.28.08-9.43a92.78 92.78 0 0 1 .41-11.67l1.07-12.58a81.64 81.64 0 0 0-.08-13.27zm.56 67.6c.38-3.15-.47-5.67-.56-8.73-.06-1.93-3.06-1.93-3 0 .1 3.48.9 6.4.36 10a69.83 69.83 0 0 0-1 8.66c-.23 7.26 0 14.55 0 21.82 0 14.18 0 28.3-.68 42.44-.1 1.93 2.9 1.92 3 0 .65-14.14.68-28.26.68-42.44v-20.87c.02-3.68.78-7.2 1.2-10.88z" class="M"/><path d="M432.23 427.2c-1.62-.7-2.18-2.83-2.9-4.26-1.08-2.08-2.4-4-3.66-6l-8.2-12.66c-1-1.64-3.62-.13-2.6 1.5l10.1 15.66c1.63 2.64 2.72 7 5.75 8.35 1.75.76 3.3-1.8 1.52-2.6z" class="R"/><path d="M115 394.35c-.92 0-1.84-.14-2.76-.18a15.82 15.82 0 0 0-2.72.24l-2.74.26h-.43a3.93 3.93 0 0 0-.84.09c-.13 0-.27.1-.4.14a3.43 3.43 0 0 0-.48 0 1.7 1.7 0 0 0-.5.09c-4.45.3-8.83 1.17-13.3 1.4-5.25.27-10.56 0-15.82 0H47.25a1.39 1.39 0 0 0-.95-.34c-3.5 0-7.22.33-10.8.33a13.18 13.18 0 0 0-2 .14 6.62 6.62 0 0 1-1.52.21 1.5 1.5 0 0 0 0 3 6.41 6.41 0 0 0 1.79-.22 8.16 8.16 0 0 1 1.71-.13h31.77l.12.2c.15.24.32.46.45.7 1.86 3.5 5 6.68 7.54 9.78 3.13 3.8 6.16 7.7 9.2 11.56l10 12.42 5.24 6c2.1 2.3 4.1 3.33 4.22 6.63.47 12.85-.37 25.8-.38 38.64a1.5 1.5 0 0 0 3 0c0-7 .2-14 .43-21.06.23-6.83-.1-13.6-.1-20.44 0-1.4-2.83-3.5-3.7-4.4a152.35 152.35 0 0 1-5.34-6c-3.48-4.07-6.8-8.26-10.1-12.46-5.45-6.95-10.7-14.75-16.83-21.2l-.2-.33H75c5.26 0 10.57.24 15.82 0 5.08-.25 10.06-1.34 15.15-1.48a1.52 1.52 0 0 0 .73-.2h.2c.8-.07 1.7-.13 2.6-.24a15 15 0 0 1 2.62-.24c1 0 1.9.17 2.86.18a1.5 1.5 0 1 0 0-3zm502-6.12l-10.42.1a1.52 1.52 0 0 0-2.37 0c-4 .53-8.05 1.13-12.1 1.36-4.9.28-9.78-.6-14.63.16-1.38.23-1.33 1.82-.47 2.55a18.19 18.19 0 0 0 3.79 5.8 125 125 0 0 1 8 10.62c2.45 3.6 4.68 7.3 6.9 11 1.74 2.9 4.08 5.58 5.78 8.48a1.51 1.51 0 0 0 .38.77l.3.33a1.21 1.21 0 0 0 .36.29 2.45 2.45 0 0 0-.08.29 1.29 1.29 0 0 0-.32 1.84v.1c-.67 4.9-1.6 9.8-2.66 14.63a1.43 1.43 0 0 0 .42 1.43c-.07.5-.14 1-.25 1.52-.26 1.2-.5 2.38-.67 3.6a8.46 8.46 0 0 0-.1 1.51v.67c0-.07-.1.23.05.07a1.5 1.5 0 1 0 2.12 2.12 4.65 4.65 0 0 0 .82-3.33 17 17 0 0 1 .62-3.59c.3-1.3.37-2.64.6-4 .28-1.5.58-3 .77-4.48a1.14 1.14 0 0 0-.16-.7c.24-1.52.46-3.05.78-4.54.38-1.86 1.23-3.7.72-5.46l.2-1.37a1.17 1.17 0 0 0-.8-1.35 1.49 1.49 0 0 0-.12-1.12c-1.6-3-4-5.55-5.75-8.48-2.07-3.46-4.1-6.93-6.33-10.27-2.08-3.1-4.27-6.14-6.5-9.13-1.76-2.35-4.3-4.54-5.6-7.2 4.45-.32 9 .44 13.5 0 2.94-.26 5.86-.64 8.8-1a1.25 1.25 0 0 0 .47.07c4.65-.4 9.28-.34 13.94-.34a1.5 1.5 0 0 0 .01-2.95z" class="Q"/></g><g class="L"><path d="M292.45 185.92c0 4.07.8 9 .28 13.2a1.47 1.47 0 0 0-.76 2.11l.55 1a48.27 48.27 0 0 1 3.12-2.6c.3-3.24-.2-6.7-.2-9.86 0-5.43-.05-10.85-.36-16.28-.66-11.28-1.63-22.53-1.72-34a101.93 101.93 0 0 1 1-13.4c.62-5.1.42-10.3.85-15.4.94-11.16 1.54-22.26 1.57-33.46a1.5 1.5 0 0 0-3 0c0 10.56-.47 21.06-1.4 31.6-.45 5-.45 10-.82 15.07-.35 4.76-1.28 9.2-1.25 14 .08 10.6.8 21.25 1.5 31.83.38 5.4.62 10.8.63 16.2z" class="P"/><path d="M503.52 117.16l-1.3-13.12c-.86-8.22-1.57-16.48-1.75-24.75-.05-1.93-3.05-1.94-3 0 .17 7.86.72 15.75 1.6 23.55l1.3 13.22c.18 2.27.76 4.28.43 6.6a29 29 0 0 0-.56 4.9c0 1.93 3 1.94 3 0-.06-3.63.7-6.72.3-10.4z" class="M"/><path d="M414 378.08a1.53 1.53 0 0 0-2.36-.31c-2.77 2.27-4.25 6.35-5.9 9.43-2.67 5-5.7 9.72-8.2 14.78-2.34 4.72-4.82 9.3-7.3 13.93-2.6 4.9-4.78 11.22-9.93 14a1.47 1.47 0 0 0-.89.43h-.07a1.68 1.68 0 0 0-.83 2.28c-1.66 6.05-1.4 13.58-1.56 19.6a118.16 118.16 0 0 1-.71 13c-.27 2-1 4.4-.47 6.42 1.06 4.47 4.6 2.08 7.34.56 7.32-4.08 14.77-8.12 21.75-12.77 2-1.3 4.5-2.37 5.35-4.65 1.2-3.2.73-7.68.65-11-.1-3.76.24-7.5.23-11.24 0-4-.46-8 0-12s1.8-7.87 2.4-11.86a56.08 56.08 0 0 0 0-11.44 47 47 0 0 1 1-11.95c.4-2.5.84-4.92-.48-7.22z" class="O"/><path d="M412.83 378l-.67.95a1.62 1.62 0 0 0-.86.65c-4.94 8.06-9.72 16.55-14.2 24.88-2.26 4.2-4.4 8.33-7 12.34-.6.95-2.33 4.14-4 6.6-.68.85-1.4 1.7-2.14 2.52l-.07.07a1.62 1.62 0 0 1-1.08.48c-1.2-.12-1.65 1-1.34 1.94a8.07 8.07 0 0 0-2.67 4.85 21 21 0 0 0 .23 3.88 26.44 26.44 0 0 1-.72 6.23c-.78 4.66.1 9.58 0 14.3-.06 3.9-1.32 8.32-.58 12.17a1.49 1.49 0 0 0 1 1.05l.43.12a1.49 1.49 0 0 0 1 1 3.79 3.79 0 0 0 2.44-.21 1.55 1.55 0 0 0 1.05-1.85 1.59 1.59 0 0 0-.57-.8 1.29 1.29 0 0 0-.18-.52 3.68 3.68 0 0 0-.69-.78 33.15 33.15 0 0 0 .4-4.49l.85-11a117.94 117.94 0 0 1 1.81-12.46 20.86 20.86 0 0 0-.3-5.75 18 18 0 0 1 3.31-5.93c1.7-2 3.54-3.94 5.14-6.05A102.51 102.51 0 0 0 404 403.88c2.64-5.7 6.2-11.16 8.57-16.95.6-1.5 1.74-3.8 1.68-5.74a23.56 23.56 0 0 1 1.15-1.67c1.18-1.52-1.4-3.04-2.57-1.52z" class="N"/><path d="M507.85 194.86c-.15-3.9.46-7.86.13-11.75-1.2-14.22-.7-28.8-3.43-42.84-.37-1.9-3.26-1.1-2.9.8a129 129 0 0 1 2 21.05c.18 6.17.1 12.7.9 18.82.9 6.85.3 13.87.95 20.8.33 3.6-.17 6.56-.5 10.13-.27 2.85 1.14 7.57-.45 10.1-1 1.64 1.56 3.15 2.6 1.5 1.26-2 1-4 .94-6.3-.16-3.5.48-6.74.67-10.18.24-4.06-.76-8.1-.9-12.14zM300.34 450.3c0-1-.22-2-.28-3-.06-1.18 0-2.37 0-3.55a18 18 0 0 0-.49-3.1 18 18 0 0 1 0-3.36 67.65 67.65 0 0 0-.25-7.26c-.2-1.9-3.2-1.93-3 0a58 58 0 0 1 .25 5.9 26 26 0 0 0 .14 5.51 30.6 30.6 0 0 1 .37 5.66c0 .86.23 1.68.27 2.53v2.9a48.32 48.32 0 0 1-.17 6c-.28 2 .26 4.1-.23 6-.1.4-.27.78-.4 1.17s-.1 1-.17 1.08c-.24.4-1.4.72-2 .83l-5.57 1.12a50.55 50.55 0 0 1-11.65 1.06l-5.9.28c-1.97-.01-4-.14-6 0-4.12.3-8.25.22-12.4.22s-8.25.15-12.4.25c-2.43.06-4.86.35-7.3.2a45.94 45.94 0 0 0-6.53-.14c-1.74.16-3.44.17-5.17.2.77-.52 1.54-1 2.3-1.6a75.84 75.84 0 0 0 20.94-24.23c.66 0 1.28-.14 2-.22a20 20 0 0 1 3 0c2 .07 3.9-.38 5.88-.34 1 0 1.9.2 2.85.26s1.77 0 2.65 0l.57.8c.8 1.17 1.47 2.43 2.32 3.58.38.52.77 1 1.15 1.57.22.3.63.7.86 1.07a1.57 1.57 0 0 0 1.06 1.27h.13a1.51 1.51 0 0 0 1.8-1.67 10.33 10.33 0 0 0-1.8-2.76c-.82-1.1-1.56-2.2-2.28-3.37-.58-.92-1.8-2-1.73-3.14.1-1.32-.14-2.5-.17-3.8-.06-2.92 0-5.86 0-8.78a31.24 31.24 0 0 0-.12-4.33 19.53 19.53 0 0 1-.13-2.29c0-.75-.22-1.44-.26-2.17-.13-1.9-3.07-1.95-3 0v.18a3.48 3.48 0 0 0 .05.36 14.82 14.82 0 0 1 .21 1.63 18.77 18.77 0 0 0 .11 2.24 27.81 27.81 0 0 1 .14 4.38c0 3.06-.2 6.2 0 9.25 0 .6.2 1.2.26 1.8a7.55 7.55 0 0 1-.07 1.26c-1.42 0-2.82-.16-4.25-.25-2-.1-3.9.35-5.87.34-1 0-1.9-.1-2.87-.07a7.71 7.71 0 0 0-.84.09 75.11 75.11 0 0 0 7.08-23.2 66.87 66.87 0 0 0 0-17c-3.85-31-26.76-56.85-57.64-62.84-42.46-8.23-83.88 23.5-89.64 65.72a67.5 67.5 0 0 0 7 40.7c18.7 35.24 68.65 47.53 102.88 28.9.4 0 .8 0 1.2-.07 2.1-.13 4.12-.23 6.22-.2s4-.35 6-.3 4.22.33 6.35.25c4.53-.18 9-.56 13.58-.5h13.16c2.1 0 4.2-.26 6.3-.26 1.12 0 2.24.05 3.35 0s2.06-.26 3.1-.27c4.17-.08 8.38 0 12.5-.77 2-.4 4-1 6-1.3a8.16 8.16 0 0 0 4.75-1.88c.64-.65.6-1.23.75-2a24.58 24.58 0 0 0 .72-3c.08-1 0-2 0-3 0-1.17.16-2.24.25-3.4.2-2.3.08-4.76.05-7.12zm-106.53 2.44a76.38 76.38 0 0 1-12.19 3.58c-10 1.3-20.3.16-29.1-3.82a37.86 37.86 0 0 1-9.17-5.92c-21.33-18.44-15.55-52.52 2.08-71.36 12.63-13.5 34-21.44 52-15.23 12.84 4.43 23.16 15.1 28.14 27.45a44.75 44.75 0 0 1 2.63 9.63c0 .18.05.36.07.54a47.83 47.83 0 0 1-.37 3.5c-.5 3.58-.68 7.2-1.1 10.8-.9 7.65-4.68 14.14-8 20.82-2.54 2.58-4.58 6-7.18 8.43a47.86 47.86 0 0 1-4.13 3.22c-4.23 2.9-8.9 6.55-13.68 8.36z" class="M"/><path d="M518.66 453.6a61.73 61.73 0 0 1-7.15 1.36 1.56 1.56 0 0 0-.4.12 36.64 36.64 0 0 1-9.79-.92 1.28 1.28 0 0 0-1-.72q-.84-.17-1.7-.3a1.29 1.29 0 0 0-.38-.08c-4.15-.9-8-2.65-12-4.1-4.28-1.55-8.55-3.06-12.68-5a34 34 0 0 1-19.07-22.5c-2.8-11.46-.44-22.28 4.77-32.64 3.73-7.38 9.48-12.8 15.3-18.44 1.38-1.35-.74-3.47-2.12-2.12-6.92 6.73-13 13.06-17.17 21.92-5 10.5-6.37 21.6-3.45 32.9a36.26 36.26 0 0 0 17 21.86 27.43 27.43 0 0 0 1.19.65 1.43 1.43 0 0 0 .66.88 77.56 77.56 0 0 0 13.92 7.08c4.16 1.5 8.5 1.73 12.8 2.4l.4.07c4.48 2.15 10 2.06 14.8 2.06a1.39 1.39 0 0 0 1-.42 56 56 0 0 0 5.82-1.17 1.5 1.5 0 0 0-.72-2.87z" class="O"/><path d="M555.1 407.85l-.12-2.64a37.52 37.52 0 0 0-.57-4.4 1.56 1.56 0 0 0 .37-1.28c-.4-2.64-.52-5.44-1.42-8s-2.4-4.44-3.76-6.6a58.07 58.07 0 0 0-4.71-6.63c-1.75-2.1-3.9-3.6-5.84-5.5l-5-5.13a21.91 21.91 0 0 0-6.91-3.8l-8.07-2.93a42.38 42.38 0 0 0-8.49-1.74 71.35 71.35 0 0 0-9.58-.51l-8.8.52c-1.92.1-1.93 3.1 0 3h.1a1.44 1.44 0 0 0 .69 1.24c1.34.88 3.4-.4 4.85-.57a42.09 42.09 0 0 1 5.83-.15 1.92 1.92 0 0 0 .17.53c.87 1.6 1 3.7 1.34 5.47l.06.23a47.74 47.74 0 0 0-3 4.6 52.92 52.92 0 0 0-12.94 1.24c-4.32 1-7.37 3.86-10.84 6.47a30.25 30.25 0 0 0-6.58 5.34 1.4 1.4 0 0 0-1.59-.63c-1.13.28-2.2.72-3.3 1.1a58.59 58.59 0 0 1-2.51-6c-.58-1.84-3.48-1.05-2.9.8A54.5 54.5 0 0 0 464 388l-4.35 1.27a1.86 1.86 0 0 0-.51.25h-.07c-.3.07-.57.18-.87.25s-.57.18-.86.24l-.45.1a2 2 0 0 0-.38.14h-.14a2.05 2.05 0 0 0-.74.12 1.64 1.64 0 0 0-.9.69 1.5 1.5 0 0 0 .54 2 1.42 1.42 0 0 0 1.15.15h.1a5.35 5.35 0 0 0 .55 0 4.34 4.34 0 0 0 .47-.16c.27-.1.55-.13.83-.2l.9-.25a12.4 12.4 0 0 0 1.57-.49 1.33 1.33 0 0 0 .42-.19l3.9-1.14a31 31 0 0 0 1.41 3.91 29.09 29.09 0 0 0-1.94 6.61 1.19 1.19 0 0 0-.69.94 40.72 40.72 0 0 0-.58 8.34 1.62 1.62 0 0 0-1.48 1.1 14.36 14.36 0 0 1-1.55 1.57l-.7-.26c-2.15-.7-4.6-1.25-6.54-2.46-1.64-1-3.15 1.56-1.52 2.6a26.08 26.08 0 0 0 6.06 2.38c-1.6 1.3-3.1 2.73-4.57 4.2a1.5 1.5 0 0 0 2.12 2.12c1.78-1.77 3.82-3.33 5.73-5a20.47 20.47 0 0 0 3.77 1.43c.07.2.14.4.22.6a13 13 0 0 0 1.22 4.08 30 30 0 0 0 6.79 8.63c0 2.52-.13 5-.3 7.5l-.18.06a35.88 35.88 0 0 0-3.86 1.34 1.26 1.26 0 0 0-.47.17l-.22.13a2.85 2.85 0 0 0-.31.12c-.24.1-.47.2-.7.3l-.26.1a2.87 2.87 0 0 0-.51.21l-.12.08a1.11 1.11 0 0 0-.43.28 1.52 1.52 0 0 0-.44 1.06 1.5 1.5 0 0 0 .44 1.06 1.44 1.44 0 0 0 1.06.44 1.93 1.93 0 0 0 .85-.23l.12-.08.43-.1.52-.23.22-.1a1.57 1.57 0 0 0 .81-.33 9.94 9.94 0 0 1 2.87-1l-.32 5.2v.27a1.5 1.5 0 0 0 3 0l.4-6.55h.08c2-.67 3.85-1.27 5.75-2.1a1.16 1.16 0 0 0 .78-1.09 41.63 41.63 0 0 0 13.89 4.78c1 1.45 1.88 2.9 2.8 4.37-1 2.06-1.95 4.1-2.83 6.22a.83.83 0 0 0-.06.21l-.06.14a6.8 6.8 0 0 0-.45 1l-.1.25v.12a1.43 1.43 0 0 0 0 .82 1.58 1.58 0 0 0 .53.78.79.79 0 0 0 .34.2 1.22 1.22 0 0 0 .57.13 1.56 1.56 0 0 0 .77-.21 1.13 1.13 0 0 0 .42-.39 1.06 1.06 0 0 0 .27-.51.5.5 0 0 0 0-.12.49.49 0 0 0 0-.11c0-.07.05-.15.07-.23l.1-.2c.07-.15.13-.3.2-.47l.4-.85-.08.2a1.51 1.51 0 0 1 .15-.28 1.4 1.4 0 0 0 .25-.74l1.35-3 2.12 3.4c-1.4.28-1.83 2.56-.17 2.9 4.95 1 11.8-.35 16.64-1.87 5.43-1.7 9.83-4.87 14-8.64 7.33-6.65 14.64-13.8 17.55-23.5a1.53 1.53 0 0 0 2.61-1c0-.46.1-.9.07-1.35a3.88 3.88 0 0 1 0-1.27c.22-.9.56-1.73.7-2.67s.44-1.86.52-2.82a28.13 28.13 0 0 1 .35-2.89 10.29 10.29 0 0 0 .02-2.59zM468.54 391l-.44-1.06 1.5-.55c-.38.5-.74 1.02-1.07 1.6zm7.16 47.1l.18-4.07c1.24.92 2.5 1.8 3.8 2.6-1.3.52-2.67.97-3.97 1.42zm24.62 5.9l-.48-.75h.78zm39.2-66.15c.87 1 1.7 2 2.46 3.1-1.37.26-2.72.55-4.06.88a18.82 18.82 0 0 1 1.6-3.99zm-29.75-14.8l-2.12 2.7a16.79 16.79 0 0 0-.75-2.91c.98.02 1.93.14 2.87.2zm-3.6 9.8c.08.32.15.64.22 1l-.77-.08.55-.93zm15 77.83a38.33 38.33 0 0 1-14.56 3.2l-4.33-6.92a84.12 84.12 0 0 0 1.64-3.77c6.9-.58 12.8-3.63 18.47-7.35l.66-.4a1.28 1.28 0 0 0 .22.17l3.5 1.8v.3c.13 2.84 0 5.67.3 8.5v.23a1.6 1.6 0 0 0 .19.57 35.27 35.27 0 0 1-6.13 3.65zm-11.64-76.45c-.28-1.55-.68-3.06-1.05-4.6 1.55-2.08 3.2-4.1 4.7-6.1a49.52 49.52 0 0 1 13.15 4.54 1.51 1.51 0 0 0 .56.15c2.7 1.48 5.32 3.77 7.85 5.34a18.58 18.58 0 0 1 2.71 2.08 20.43 20.43 0 0 0-2.21 5.12 32.96 32.96 0 0 1-.71 1.95l-4.92 1.38c-.54-.5-1.1-1-1.7-1.45a39.46 39.46 0 0 0-18.43-8.42zm23.35 12.06c-.14.26-.3.52-.45.77l-.44-.52zm.8 55.4c-1.24 1.13-2.45 2.2-3.68 3.23-.14-2-.15-3.93-.18-5.9l.27.14c1.27.7 2.54 1.62 3.9 2.24zm2.8-2.64c-2.06-.3-4.1-2.08-5.9-3l-1-.5a24.11 24.11 0 0 1-.14-4.95 28.9 28.9 0 0 0 2.92-3.32c2.25-2.68 4.1-5.68 4.25-8.35a47.11 47.11 0 0 0 1.32-5.13 70.28 70.28 0 0 0 3-1c.2.2.4.4.58.6a37.27 37.27 0 0 0 2.78 3c1.16 1 2.53 2.88 4.23 2.83C547 427 541.9 433.6 536.4 439zM549 416.18a10.13 10.13 0 0 0-1.4-1.07 18.39 18.39 0 0 1-3.5-3.27l-.22-.23 1.85-.8c1.2-.53 2.65-1 4-1.54-.15 2.3-.42 4.62-.73 6.9zm.9-10.24c-1.64 1-4.12 1.6-5.68 2.3-.86.38-1.72.73-2.6 1.08l-2.9-2.72a30.06 30.06 0 0 0-4.45-16.94 32.8 32.8 0 0 0 2.39-4.41c2.38-.63 4.78-1.2 7.24-1.62 4.7 6.7 6.1 14.46 5.97 22.32z" class="Q"/><path d="M235.2 332.55l-4.4-10.62c-.7-1.55-1.26-3.26-2.64-4.36a1.55 1.55 0 0 0-2.36.31l-5.2 7.4c-1.43 2-2.75 6.1-4.68 7.54a1.52 1.52 0 0 0-.63 1.05 1.62 1.62 0 0 0 .48 2.71c8.42 3.2 15.68 9 24.22 11.86a1.5 1.5 0 0 0 1.89-1.45c-.2-4.9-4.88-10-6.68-14.44z" class="M"/><path d="M206.9 398.26a1.59 1.59 0 0 0-3 0l-1.72-.5c-4.36-1.53-8.38-3.9-12.66-5.57-8.56-3.34-17.36-6.16-25.95-9.45a1.32 1.32 0 0 0-2-.65c-4 2.7-7.17 5-9.73 9.16-2.73 4.46-4.85 9.94-4.83 15.2 0 10.48 7.9 20.6 17.2 25.08 8.83 4.23 22.34.25 29.55-5.84 4.55-3.84 7.68-9.18 11-14 2.6-3.76 3.74-9.12 2.13-13.43z" class="Q"/><path d="M179.8 358.37c-3.3-1.1-7.65-.1-11.22 1.23a1.29 1.29 0 0 0-.66-.16c-4.24.12-7.57 3.82-10.73 6.3-.26.2-.53.4-.8.6l-1.85 1.33c-3.5 2.45-7.2 4.7-10 7.92a61.54 61.54 0 0 0-7.38 10.2 53.08 53.08 0 0 0-6 12.4c-3.8 11.84-2.2 23.73 2 35.17 1.64 4.53 3.15 8 6.88 11.17a50.54 50.54 0 0 0 5.49 4.1 7.69 7.69 0 0 0 2.93 2 1.57 1.57 0 0 0 .54.09 77.35 77.35 0 0 0 7.21 3.51 1.64 1.64 0 0 0 1.07.05 27 27 0 0 0 11.73 3c1.93 0 1.93-3 0-3-5-.07-9.83-2.08-14.18-5l-4.33-3.3a67.66 67.66 0 0 1-7.5-7.57c-8.63-10.12-9.1-22.47-7-35a57.33 57.33 0 0 1 3.33-12.37 63.41 63.41 0 0 1 9.25-13.03l1.76-1.84A93.4 93.4 0 0 1 160 368a44.13 44.13 0 0 1 19.39-6.72 1.51 1.51 0 0 0 .4-2.91z" class="O"/><path d="M189.52 358.44a6.24 6.24 0 0 0-1.32-.21 1.44 1.44 0 0 0-1.44-1.38 14.81 14.81 0 0 1-2.48-.35 1.49 1.49 0 0 0-2.08 0l-.17.2c-.62.78-.58 2.3.66 2.5l.37.06a50.63 50.63 0 0 1-6.1 1.47 1.59 1.59 0 0 0-.59-.1c-10 .14-17.6 6.15-24.8 12.34-6.73 5.8-11.7 15.25-15.1 23.37-3.9 9.35-3.4 21-1 30.56 2.26 9.06 8.37 16.2 15.66 21.73a1.33 1.33 0 0 0 .7.28c5.07 3.4 11.35 5.46 17.25 7.24 2 .22 4 .44 6 .56a1.5 1.5 0 0 0-.88-2.15c-7.88-2.4-17.73-4.77-23.83-10.58a1.46 1.46 0 0 0-.73-.39c-5.65-5-10-11.35-11.64-18.85-2.07-9.23-1.94-19.9 2-28.62 3.33-7.4 7.6-16 14-21.2 6.12-5 12.18-10.22 20.23-11.14a1.43 1.43 0 0 0 1.28.3c2.25-.47 4.55-.88 6.78-1.46 2-.52 4.34-1.92 6.45-1.34a1.5 1.5 0 0 0 .78-2.86z" class="Q"/><path d="M212.6 314.26a1.54 1.54 0 0 0-1.5-1.5c-12.88-1.1-25-1.28-37.38-5.6a1.39 1.39 0 0 0-1.83 1.5c-12.5 1.65-27.23.18-35.84 10.84a88.53 88.53 0 0 0-5.41 8.15c-1.36 2.12-4 4.68-4.38 7.4-.57 4.74 7.7 5.16 10.85 4.84 8-.82 15.4-6.13 23-8.44 7.95-2.44 16.3-2.78 24.57-2.76h.22a1.18 1.18 0 0 0 1.08 1.24c3.06.47 6.06.14 9.12.4 2.45.2 3.93 1 6.08 0 4.82-2.25 7.34-8.53 10.22-12.6a1.41 1.41 0 0 0 .26-.68 5.35 5.35 0 0 0 .94-2.8zm105.68-3.08c-1.5-.8-4-.54-5.6-.72l-7.7-.92c-13-1.13-26.47 1.23-39.5 1.85a156.26 156.26 0 0 1-20.3 0c-2.68-.22-5.13-1.3-7.78-1.63-1.44-.18-6.58 1.2-7.44.57-1.5-1.08-2.94 1.27-1.67 2.45a1.65 1.65 0 0 0 .13.63c1.93 4.53 3.44 9.26 5 13.88s4.06 8.7 6.25 12.9c4.6 8.82 8.4 18 12.36 27.16l13.1 30.15c2.08 5.1 7.1 8.86 11.47 3.32 6.15-7.8 9.16-19.32 12.5-28.5 4.05-11.14 12.17-20.14 17.45-30.7 2.4-4.8 4.9-9.47 7.68-14.05 2.18-3.56 5.32-7.2 6.13-11.4.5-2.38.14-3.78-2.04-4.98z" class="N"/><path d="M431.85 310.57c-3.88-5.68-14.54-5.08-20.43-5.23-10-.26-19.93 0-29.9.23l-27.66.76c-4.74.06-9.5.34-14.22.53-3.6.15-8.18 0-11.7.8-5.2 1.23-6.94 5.62-9 9.94-1.7 3.52-3.48 7.07-4.93 10.7-1.74 4.33-4.3 8.15-6.35 12.34-4.2 8.53-9.12 16.93-13.9 25.17s-8.44 16.75-12.24 25.38c-1.35 3.08-3 9.28-6.06 11.12-2 1.22-5.56.42-6.2 3.46-1.06 5.1 9.47 7.37 12.7 8 4.4.8 8.43 2.66 12.94 2.9 5.28.26 10.62.33 15.9.13l13.54-.32c5 0 10 1 14.94.58s9.78-.56 14.66-.82 9.85-1.1 14.82-1c3.14.1 7.7-.22 10.18-2.28.07-.05.13-.12.2-.18a1.6 1.6 0 0 0 2.86.68c2.27-3.2 3.7-6.66 5.67-10 1.46-2.5 3.14-4.83 4.5-7.37 4.06-7.5 9.07-14.6 12.95-22.15 2.3-4.5 7.68-12.15 4.5-17.27-1.92-3.1-5.17-5.62-2.2-9.7s6.26-.4 10.26-.86c6.67-.75 7.62-11.72 9.6-16.34a96 96 0 0 0 4.17-12.06c.67-2.5 1.97-4.8.38-7.1z" class="Q"/><path d="M178.3 308.9c-1.4 0-2.8-.23-4.22-.25-.18 0-.47 0-.78.06a1.78 1.78 0 0 0-1-.51 28.74 28.74 0 0 0-8.49.84 1.61 1.61 0 0 0-.8-.03l-7.06 1.48-2.63.43a26.8 26.8 0 0 0-4.74.7 6.85 6.85 0 0 0-1.66.77 22.46 22.46 0 0 0-3.77 1.51c-7.8 4.1-11.8 13.24-16.75 20a1.21 1.21 0 0 0 .18 1.73 1.62 1.62 0 0 0 .37.74 6.07 6.07 0 0 0 2.9 1.75 1.5 1.5 0 0 0 1.69-.69c2-3 2.75-6.57 4.85-9.57 2-2.8 4.1-4.7 5.8-7.68A9 9 0 0 1 143 319c.27-.12.53-.23.83-.33 2.14-.7 4.8-1.5 7-2s4.36 0 6.52-.72a41.6 41.6 0 0 1 7.51-1.66 18.26 18.26 0 0 0 6.68-2.29l2.88.43a6 6 0 0 0 2.07 0 8.93 8.93 0 0 1 1.8-.5 1.5 1.5 0 0 0 0-3.04z" class="O"/><path d="M577.64 404.68a61.37 61.37 0 0 0-2.81-17c-8.13-25.55-31.93-43.37-57.48-49.33-17.56-4.1-35.3.4-50.85 8.93a107.38 107.38 0 0 0-31.87 26.33c-8.4 10-9.47 25.62-8.3 38.1a73.68 73.68 0 0 0 25 49c25.2 21.62 64.52 23.85 93.17 7.85a64.27 64.27 0 0 0 20.87-18.24c8.65-11.95 11.86-25.82 12.27-40.35.07-1.74.07-3.52.01-5.3zm-62.57 50.58c-21.4 4.52-47.74-6-58.47-25.54a44.21 44.21 0 0 1-5-26.65c1.4-11.74 9.4-22.75 17.4-31.13q1.7-1.38 3.46-2.7a2.14 2.14 0 0 0 .35-.16c7.75-5 16.48-8.6 25.86-9 15-.62 28.83 2.77 40.28 12.92a45.23 45.23 0 0 1 13.53 44.29c-3.62 14.44-13.48 27.72-27 34.36a45.13 45.13 0 0 1-10.41 3.6zM204.68 317.3c-13.38 0-26.7-1.17-40.07-.38-6.35.37-11.75.14-17.55 3.23-5.07 2.7-10.72 7.9-13.06 13.2-.77 1.75 1.8 3.28 2.6 1.5 2.5-5.64 8.83-11 14.47-13.23s12.1-1.56 18.16-2.1c6.6-.6 13.14.6 19.73.86 5.2.2 10.5-.1 15.73-.1a1.5 1.5 0 0 0 0-3z" class="M"/><path d="M222.9 312.25c-5.08-1.73-6.58-.17-9.23 3.94-4.23 6.55-7.7 13.53-11.93 20.07-2.2 3.4-4.3 6.83-6.32 10.34-.77 1.35-1.8 2.84-2.7 4.37a1.24 1.24 0 0 0-1.06.76c-2.34 4.7-5 9.2.35 12.8 4 2.64 7.46.82 9.7-2.88l24-40.18c2.5-4.38 2.85-7.28-2.83-9.2z" class="O"/><path d="M408.45 361.53c-.13-1.9-1.12-3.5-2-5.16s-1.36-3.63-2.57-5.05c-1.88-2.2-5.62-2.54-8.3-2.07h-.06a1.35 1.35 0 0 0-1.6.67c-1.86 3.27-4.18 6.3-6.12 9.56-.83 1.4-1.5 2.94-2.4 4.3-.64.95-1.44 1.37-1.72 2.53-.75 3.12 2.2 5 4.73 5.84 3.2 1 8.32 2.67 11.7 2.24 2.28-.3 3.33-2.24 4.5-4.07 1.6-2.44 4-5.73 3.82-8.78z" class="P"/><path d="M314 366.6c-5.85 1.45-4.75 10.27-5.8 14.9-.95 4.23-2 11.57 2.13 14.3a1.46 1.46 0 0 0 1.52 0l.24-.16c1.6-1.08.1-3.68-1.5-2.6.8-.54.13-4 0-5a20.31 20.31 0 0 1 .74-6.68c.56-2.54.3-11.12 3.44-11.9 1.9-.45 1.1-3.32-.76-2.85z" class="M"/><path d="M400.48 312.7c-1.42-1.7-7.12-.58-8.56.77-1.82 1.7-2.47 4.73-3.2 7-1.5 4.68-.1 5 1.13 9.72.52 2 2.07 9.4 5.6 6.14 1.82-1.68 1.47-5.58 1.92-7.75.92-4.46 2.37-8.76 3.38-13.2a1.44 1.44 0 0 0 0-.88 1.65 1.65 0 0 0-.29-1.8zm1.38 56.63l-.32.6a1.44 1.44 0 0 0-1.54-.06 14.68 14.68 0 0 0-4.49 3.59c-.77-2-2.22-3.33-3.56-5.14-1.14-1.54-3.74 0-2.6 1.5 1.75 2.36 3.48 3.66 3.68 6.86a29.63 29.63 0 0 1-.49 8 1.16 1.16 0 0 0 0 .37l-1 1.84c-.77 1.45 1.16 3.12 2.35 1.82 2.22-2.42 3.5-5.54 5.06-8.38 1.76-3.2 3.85-6.23 5.5-9.48.86-1.72-1.72-3.24-2.6-1.52z" class="P"/><path d="M387 327.06c-12.92-3.33-26.38-4.3-39.68-4.4a1.5 1.5 0 0 0 0 3c13 .1 26.23 1 38.88 4.28 1.8.48 2.64-2.4.8-2.9zm1.52 9.1c-6-2.87-12.9-3.46-19.38-4.46a216.82 216.82 0 0 0-21.85-2.39c-1.93-.1-1.93 2.9 0 3a206.74 206.74 0 0 1 21 2.29c6.08.93 12.85 1.42 18.5 4.07a1.42 1.42 0 0 0 .76.27h.18a1.51 1.51 0 0 0 .8-2.78zm-4.07 7.33c-6.07-2.82-13.38-3.63-19.93-4.53a146.36 146.36 0 0 0-20-1.74 1.5 1.5 0 0 0 0 3 142.55 142.55 0 0 1 19.24 1.63c6.06.83 13 1.52 18.72 4a1.3 1.3 0 0 0 1.47.41l.18-.06c1.1-.32 1.56-2.14.32-2.7zm2.8 10.65c-1.37-3.3-4.12-3.27-7.32-4.14-4.95-1.35-9.86-2.4-14.9-3.44-5.6-1.15-20-5-23.12 1.86-.8 1.75 1.8 3.27 2.6 1.52 2.3-5.1 17.58-.86 21.45-.13l7.9 1.58c2 .48 9.76 1.73 10.52 3.54s3.64 1 2.9-.8zm-6.25 3.5c-3.93-.4-8.07-2.35-12-3.06a77.36 77.36 0 0 0-15.34-1.56 1.5 1.5 0 0 0 0 3 78.52 78.52 0 0 1 16.8 1.83c3.53.7 7 2.4 10.5 2.76 1.92.23 1.9-2.77.04-2.97z" class="N"/><path d="M509.72 326.28a1.55 1.55 0 0 0 .1-2.2 1.45 1.45 0 0 0-.95-.8 34.9 34.9 0 0 0-13.51.21h-.13a33.1 33.1 0 0 0-5.17.56c-4.67-.2-10.75 2.2-14 3.58a98.65 98.65 0 0 0-20.29 11.16 109.26 109.26 0 0 0-15.37 12.86 72.35 72.35 0 0 0-8.48 11.22 20 20 0 0 0-2 2.88l-1.53 2.9-1 1.68a1.41 1.41 0 0 0-.19 1 30.75 30.75 0 0 0-1.87 6.5c-.3 1.8-.68 4.44 1.5 5.18 2.88 1 5.27-3.77 6.56-5.45 4-5.25 8.84-9.2 13.9-13.4 3-2.48 6.25-4.53 9.4-6.8 2.5-1.8 5.13-4.24 8.1-5.24a1.41 1.41 0 0 0 .84-.69A105.67 105.67 0 0 1 489.2 342c4.4-1.1 9.6-1.5 13.87-3.33A19.85 19.85 0 0 0 507 338a3.52 3.52 0 0 0 2.87-3.47 39.59 39.59 0 0 0-.09-4.49c-.1-1.3-.02-2.5-.06-3.76z" class="O"/><path d="M368 374.13c-1.5-1.2-3.63.9-2.12 2.12 2.66 2.13 4.48 3.95 3.94 7.67-.78 5.32-5.16 7.2-9.63 8.9l-10.12 3.7c-2.32.78-4.87.4-7 1.22-1.78.7-1 3.6.8 2.9 1.14-.44 2.88 0 4.07-.24a56.55 56.55 0 0 0 7.32-2.43c4.45-1.67 10.4-3.16 14-6.42a12.32 12.32 0 0 0 3.72-9.16c.02-4.15-1.9-5.77-4.98-8.23zm-5.13 3.1c-1.13-1.54-3.74-.05-2.6 1.5a5.17 5.17 0 0 1 .28 3.21c-.66 2.1-2.3 3-4.16 3.7-1.68.66-5.62 2.86-7.37 2.43-3.14-.78-2.4-7.6-.1-9 1.8-1.08 4 0 5.75-1.1s.13-3.6-1.52-2.6c-.63.4-1.77 0-2.5.1a11.53 11.53 0 0 0-3.33 1 4.52 4.52 0 0 0-2.8 3.39c-.9 3.13-1.37 10.48 3.06 11.28 1.83.34 4.4-.7 6-1.3a52.32 52.32 0 0 0 7-2.89c2.94-1.52 4.28-6.96 2.27-9.72zm-29.6 22.46c-7.84.83-18.3.34-25.27-3.37-1.7-.9-3.22 1.68-1.5 2.6a26.26 26.26 0 0 0 12.18 3.3c4.8.26 9.8 1 14.6.48 1.9-.2 1.92-3.2 0-3zm89.94-83.87c-1.9-.28-2.7 2.6-.8 2.9 2.26.34.4 2.8-.13 4.14l-2 5.57-2.23 7c-.73 1.8-1.18 2-2.67 1.84a1.6 1.6 0 0 0-2.45 1.6v.2a1.54 1.54 0 0 0 1.45 1.11c2.34.2 4.36.78 5.7-1.52 1.88-3.22 2.46-7.73 3.7-11.24 1.35-3.7 5.8-10.64-.58-11.6z" class="N"/><path d="M271.77 373.47a6.55 6.55 0 0 0-.65-1.16c-1.27-2-2.88-3.33-4-5.53-3.58-7.17-5.73-15-8.78-22.36-1.3-3.17-2.15-6.45-3.3-9.66s-2.9-6.07-4-9.25c-1-2.8-2.1-6.34-4.2-8.83a3 3 0 0 0-.2-.62 5.79 5.79 0 0 0-.36-.64 1.31 1.31 0 0 0-.28-2.24c-1.8-.8-3.9-.45-5.84-.4a1.55 1.55 0 0 0-1.14 2.51 1.46 1.46 0 0 0 .32.75c4.15 5.32 6.55 12.26 9.2 18.38q2.16 5 4.4 9.92a117.93 117.93 0 0 0 7.05 17.23c1.84 3.48 3.53 7.53 6 10.8 1.2 2.17 2.65 4 5.5 4.06 1.87.06 1.95-2.66.28-2.96zm46.87-58.82a5 5 0 0 0 0-2.78 1.5 1.5 0 0 0-1.05-1.05l-.74-.1a1.59 1.59 0 0 0-1.69.69c-2.56 3.4-4 7.67-5.78 11.5s-3.73 7.8-5.38 11.8c-.74 1.8-1.53 3.56-2.35 5.33a39.67 39.67 0 0 0-2.68 4.11c-2.13 3.92-3.95 8-6.1 11.94-2.9 5.38-5.52 11-8.2 16.5-2.38 4.3-4.73 8.62-6.75 13.1l-5.4 12.07c-.67 1.54-1.4 2.82-.2 4.2a1.53 1.53 0 0 0 1.82.24 7.43 7.43 0 0 0 2.77-3.37 12.77 12.77 0 0 0 1.42-2.32 121.53 121.53 0 0 0 4.66-11.37c3.8-9.5 9-18.7 14-27.65 4.77-8.5 8.94-17.35 13.2-26.12 2-4.08 4.33-8 6.36-12a34.42 34.42 0 0 0 1.76-3.69 1.43 1.43 0 0 0 .31-1.05zM196.4 411.82a1.51 1.51 0 0 0-2.56-1.06c-3.76 4.38-8.2 7.93-14.16 8.74a26.69 26.69 0 0 1-10.4-.59c-1.67-.9-3.23-2.37-4.74-2.88-1.7-.57-2.9-.4-3.72-2.3a1.2 1.2 0 0 0-1.68-.66l-.6-.67c-1.28-1.45-3.4.68-2.12 2.12a29.41 29.41 0 0 0 7.44 6.38A9.5 9.5 0 0 0 170 423a22.31 22.31 0 0 0 6.12 0 76.77 76.77 0 0 0 2.7-.39h.54a22.21 22.21 0 0 0 5-1.13c5.72-1.56 11.5-4.37 12.05-9.66zm-28.17-24.48a1.23 1.23 0 0 0-1.37-.91 5 5 0 0 0-.56.09 7.85 7.85 0 0 0-4.06 2.69c-1.24 1.36-2.88 3.18-3.4 5a1.59 1.59 0 0 0-.06.36 4.82 4.82 0 0 0-.51 2c-.05 1.74 2.44 2 2.94.4a9.24 9.24 0 0 1 1.53-2.79 21.77 21.77 0 0 0 1.81-1.21 16.25 16.25 0 0 0 1.58-1.14c.54-.48.9-1.2 1.42-1.7l.5-.35a1.56 1.56 0 0 0 .17-2.45zm28.04 7.26c-9.62 1-19.4 1.92-29.1 2a1.5 1.5 0 0 0 0 3c9.7-.12 19.46-1.07 29.1-2 1.9-.2 1.92-3.2 0-3zm15.96 6.22c-3.17.32-6.3.87-9.43 1.48-2.35.05-4.67.85-7 1.25-4.46.76-8.9 1.34-13.4 1.72-.27 0-.66.07-1.12.14l-12.15 1.2c-.92.1-2 .28-3 .43q-.93.06-1.86.06a11.87 11.87 0 0 1-5.77-1.46 1.78 1.78 0 0 1-.53-1 1.19 1.19 0 0 0-1.12-1.08c-1-1-3.1-.22-2.54 1.36 1.13 3.14 1.42 4.46 5.15 5 .7.1 1.43.17 2.15.2a41.24 41.24 0 0 0 9.67-.53c3.15-.23 6.3-.54 9.44-.85l5.16-.38c2.68-.18 13.5.18 17.53-2.38 3.54-.23 7.36-.57 9.93-2.62a1.51 1.51 0 0 0-1.1-2.55zm-48.7.65a1.82 1.82 0 0 0-.3-.21 1.75 1.75 0 0 0-2.57 1 1.14 1.14 0 0 0 0 .66 1.18 1.18 0 0 0 0 .72s0 .07.05.1a2.34 2.34 0 0 0 .59 1.08 2 2 0 0 0 2.16.51 1.82 1.82 0 0 0 1.18-.54c1.17-1.24.22-2.8-1.1-3.33z" class="O"/><path d="M223.85 317c.12 4.07-3.75 8.52-5.88 11.8-1.44 2.22-2.72 4.54-4.25 6.72s-2.5 4.8-4.23 6.68c-1.3 1.42.8 3.55 2.12 2.12 1.68-1.83 2.5-4.13 3.87-6.18l5.66-8.62c2.36-3.72 5.84-7.95 5.7-12.53-.06-1.9-3.06-1.9-3 0z" class="P"/><path d="M480.16 286.48l.26-20.22a1.38 1.38 0 0 0-.62-1.18A1.56 1.56 0 0 0 478 263c-7.63 1.77-25-5.82-28.95 4.4a14.35 14.35 0 0 0-.47 1.45l-.75-.2c-1.92-.48-3.8-1.1-5.68-1.73l-.24-.5-1.55-3.06a219.91 219.91 0 0 1-3.4-8.16 13.15 13.15 0 0 1-.45-3l.2-.06a1.54 1.54 0 0 0 1-1.8c1.35-2.45 2.33-5.87 1.26-8.4a1.17 1.17 0 0 0 .05-.2h.28c.74 0 1.3.17 1.9-.44s.48-1.65.48-2.45c0-1.06-.18-2.14-.26-3.2a2.3 2.3 0 0 0-1.27-2c-.75-.4-1.6-.54-2.38-.87a6.81 6.81 0 0 0-2.45-.69 1.29 1.29 0 0 0-1.17.53c-1.88-.28-4.7-.47-5.7 1.17a6.23 6.23 0 0 0-.51 3.57v.48c-1.1-.06-2.18-.1-3.23-.1a1.51 1.51 0 0 0-1.29 2.25l.1.22a1.3 1.3 0 0 0 1.93.54h.4a1.47 1.47 0 0 0-.23.26c-.65 1-1.45 1.9-2.12 2.92a1.27 1.27 0 0 0-1.16 1.78c1.64 4.1 2.88 8.32 4.77 12.32a22.22 22.22 0 0 1 .8 2.1 2.9 2.9 0 0 0-.8.31c-1.6 1-1.42 2.42-.78 4s2 4.76 3.62 5.47a2.61 2.61 0 0 0 .75.2 20.5 20.5 0 0 0 1.36 2.64c-1.45 1-2.83 2.12-4.3 3.05-1.87 1.18-3.28 2-4.43 3.86a1.43 1.43 0 0 0 1.28 2.19c.26.73.65 1.46 1 2.27a111.72 111.72 0 0 1 6 17.66c-.15.16-.3.3-.46.46-.7.7-1.36 1.43-2 2.15l-.13.12a5 5 0 0 0-.77-.49 1.61 1.61 0 0 0-1.16-.15 1.49 1.49 0 0 0-.89.69 1.41 1.41 0 0 0 .08 1.6 1.22 1.22 0 0 0-.44.31 1.63 1.63 0 0 0-.41.83h-5.1a3.49 3.49 0 0 0-2.41-.48L326.4 311a2.87 2.87 0 0 0-2.37.88 2.06 2.06 0 0 0-.33.79h-1.4a1.51 1.51 0 0 0-1.5 1.5 1.55 1.55 0 0 0 .62 1.2 3.67 3.67 0 0 0-.51.33c-1.7 1.3-2.3 4.74-3.33 6.6l-5.25 9.6c-3.23 5.9-6.7 11.5-9.16 17.76-1.9 4.87-.64 6.4 2.72 8.7l-.5.44c-5.6 5.27-11.3 12.75-13.13 20.34-1.75 7.3-2.6 15.76-.37 23.13a1.42 1.42 0 0 0-.42 1v2.36c0 .34 0 .68-.08 1v.06c0 .1 0 .18-.05.28s-.07.36-.1.55a11.02 11.02 0 0 1-.23 1c0 .07-.05.13-.07.2l-.68.24c-.9.27-1.75.62-2.63.9a19.08 19.08 0 0 1-3.27-1c-2.48-1.08-3.66-3.1-5.86-4.42a3.65 3.65 0 0 0-3.71-.22c-.56.34-1.06.9-1.72.92-.94 0-1.54-1.1-2.47-1.25l-.06-.05-.3-.27c-.52-.47-.9-.7-1.4-1.2a8.1 8.1 0 0 0-.85-.8l-.5-.3c.18.13-.12-.12-.16-.16s-.2-.22-.3-.32a10.44 10.44 0 0 0-.83-.66 2.82 2.82 0 0 1-.79-.88c-.34-.6-.73-.94-1-1.52-.15-.3-.28-.58-.42-.87v-.1c0-.1-.08-.2-.1-.3a4.25 4.25 0 0 0-.94-1.65 1.52 1.52 0 0 0-2.56 1.06 5.72 5.72 0 0 0 1.14 3.3c.2.3.44.56.68.84a3.36 3.36 0 0 1 .24.29l.1.15c.34.5.7 1 1.1 1.48 1.45 1.88 3 3.7 5.3 4.5a1.07 1.07 0 0 0 .3.06l.1.06a3 3 0 0 0 1.29 1.19c1.38.68 3 .5 4.26 1.54 9 7.35 21.2 5.13 31.84 5.85 11.7.8 23.4 1.32 35.12 1.46 7.95.1 15.92.2 23.85-.5 4.44-.38 9.5-.2 13.6-2.43 4.9-2.7 7.2-9.8 10.15-14.3 5-7.6 9.75-15.33 14.16-23.33 3.4-6.16 8.2-12.47 4.48-19.42a14.93 14.93 0 0 0-4.35-5.36c-2.47-1.67-4.93-1.13-7.73-1.08a9.45 9.45 0 0 1-1.41-.08 1.37 1.37 0 0 1-1.19.15 4.61 4.61 0 0 1-.59-.31 1.64 1.64 0 0 1-1.63.48 4.23 4.23 0 0 1-1.17-.68c-3.73-3.14-.37-11.77 4.75-10.06a1.46 1.46 0 0 1 .31.14 1.58 1.58 0 0 1 1.63.75 1.68 1.68 0 0 1 .3.15 3.86 3.86 0 0 0-.32-1.1c-.68-1.35-2.14-2.07-3.3-3-4.63-3.82-8.26-16.43-3.52-21.3 2.53-2.6 6.77-2.57 10.13-2.56a247.64 247.64 0 0 0 26.95-1.47 11.7 11.7 0 0 0 1.32-.21 2 2 0 0 0 1.07.28 1.55 1.55 0 0 0 1.44-1.1 2.94 2.94 0 0 0-.06-1.92c-.1-.3-.22-.56-.34-.84.27-.2.54-.42.8-.65.7-.67 1.33-1.42 2-2.12l.4-.4a25.1 25.1 0 0 0 3.9-.92 1.63 1.63 0 0 0 .58-.08 2.73 2.73 0 0 0 .5.05 11.38 11.38 0 0 0 1.31-.06 9.56 9.56 0 0 1 1.07 0 2.54 2.54 0 0 0 2.08-.66 1.59 1.59 0 0 0 .44-1.06 1.53 1.53 0 0 0-.44-1.06 1.63 1.63 0 0 0-1.75-.28 2.56 2.56 0 0 0-.11-.24 4.81 4.81 0 0 0-.51-.76 9.36 9.36 0 0 1-.7-1.07.54.54 0 0 0-.05-.11 1.33 1.33 0 0 0 .27-1.3 28.79 28.79 0 0 1-1.36-4.25 1.47 1.47 0 0 0-.69-.89 1.5 1.5 0 0 0-.77-.2 1.34 1.34 0 0 0-.22-1c-1.1-1.72-2.25-3.4-3.2-5.22a8.4 8.4 0 0 1-1-2.44 2.77 2.77 0 0 0 0-.5 9.34 9.34 0 0 1 .65-.95 4.56 4.56 0 0 1 .8-.7h.18c2.7-1 5.37-2.12 8-3.26l3-1.22 1.16 1.4c.5.6.85 1 1.25 1.6 1.1 2.13 2.28 4.2 3.5 6.3 1.43 2.44 2.5 5.06 3.8 7.56l1.78 3.4a31.05 31.05 0 0 0 2.06 2.94 19.12 19.12 0 0 1 2 3.46c.4 1 .74 2.36 1.58 3.07a1.51 1.51 0 0 0 1.85.15 5.15 5.15 0 0 0 3.77 2.48c2.9.17 9.58-2.4 10.9-5.26.8-1.7.35-4.38.45-6.2-.05-3.5.43-7 .52-10.53zm-146.58 54.84c.76-2.72 1.17-5.55 1.87-8.3a149.9 149.9 0 0 1 4.36-15.44 17.31 17.31 0 0 0 2.11-.93 18.81 18.81 0 0 0 2.94-1.48h1.2q16.14 0 32.28-.32c2.4-.05 5.58.94 6.88 3.15 1.56 2.67.06 6.4.42 9.3.5 3.93 1 7.87 1.16 11.83a39.89 39.89 0 0 1-.65 8.57h-.6c-1.9-.12-1.9 2.75-.1 3a22 22 0 0 1-4.49 8.4 1.45 1.45 0 0 0-1-.41c-.94 0-1.87.12-2.8.2a5 5 0 0 0-1.79-.29c-.35 0-.7-.07-1-.1h-.06l-.33-.06a5.56 5.56 0 0 1-.7-.19 1.25 1.25 0 0 0-.54-.05 49.38 49.38 0 0 0-13.2-2 65.85 65.85 0 0 0-12.1 1.07h-.6l-.38-.2c-.34-.2-.7-.4-1-.62l-.2-.13-.13-.1-.23-.2a14.59 14.59 0 0 1-1.5-1.64c0-.1.07-.23.12-.34s0 0 0 0a1.59 1.59 0 0 0-.81-2.3c-3.84-1.4-8.26-5.2-9.34-9.4.05-.54.18-.84.23-1zm43.25 51.42a42.64 42.64 0 0 1-3.59 3.77c-3.3 3-7.48 4.17-11.53 5.78-4.73 1.88-8.66 3.43-13.78 3.95-8.74.87-18 1.87-26.7.67a42.2 42.2 0 0 1-11.75-3c-2.1-.9-4.4-1.7-6.08-3.24a22.45 22.45 0 0 1-5-6.82c-.78-1.67-1.12-6.2-2.57-7.53-.05-.2-.08-.4-.1-.6a24.12 24.12 0 0 1 0-4.88c.07-.7.2-1.44.3-2.14a6.36 6.36 0 0 1 1-2.2 1.36 1.36 0 0 0 .08-1.33 45.23 45.23 0 0 1 10.7-14.74 1.46 1.46 0 0 0 .75.21c8.4-.1 16.7-.36 25.1-.15 1.84 0 5 .44 7 .07a8.77 8.77 0 0 0 1.62-.11 18.87 18.87 0 0 1 1.44-.11l.15.2c.57.66 1.78.38 3 .05a1.44 1.44 0 0 0 1.39-.33 4.8 4.8 0 0 0 1.07-.11h.18a40.59 40.59 0 0 1 6.39 1.76 93.43 93.43 0 0 1 9.82 3.79c4.8 2.24 9.2 5.1 11.92 9.88 3.2 5.5 3.5 12.17-.8 17.17zm15.65-41.5c7 .88 14.67 3.26 13.88 11.5-.27 2.85-2.27 5.44-3.53 7.93a163.7 163.7 0 0 1-5.32 9.61c-2.7 4.53-5.13 9.15-8.07 13.5a2.41 2.41 0 0 0-1.71-1.08 1.6 1.6 0 0 0-1.77-.16 1.51 1.51 0 0 0-1.43 0 1.4 1.4 0 0 0-.42-.42 16.54 16.54 0 0 0 .76-3.21c.27-2.4-1-5-1.45-7.28-.64-3.26-2.1-5.47-3.5-8.35s2.4-6.1 4-8.44a158.31 158.31 0 0 0 8.56-13.61z" class="N"/><path d="M204.92 351l-4.08 6.12a26.9 26.9 0 0 0-1.46 2.34c-.28.52-.8 2.2-1.32 2.48-1.72.9-.2 3.48 1.5 2.6s2.15-3.24 3.1-4.75l4.85-7.26c1.1-1.63-1.5-3.13-2.6-1.52z" class="P"/><path d="M469.9 302.34c-1-2.64-.5-6.3-.68-9.06l-.45-7c-.13-2.68.27-5.3.12-8-.17-2.92-.86-6.08-.73-9 .1-1.93-2.9-1.92-3 0a68.49 68.49 0 0 0 .62 8.46c.2 2.8-.2 5.48-.06 8.27.24 5.17-.48 12.23 1.28 17.1.66 1.84 3.56 1.06 2.9-.76z" class="O"/><path d="M424 236.8a4.93 4.93 0 0 0-5.51-1.92c-5.76 1.5-12-.64-17.88.5-3 .58-3.8 3.18-3.14 5.93a3.46 3.46 0 0 0 .63 2 4 4 0 0 0 .93 1 3.1 3.1 0 0 0 1.15.69 3.23 3.23 0 0 0 .61.1h.32a1.68 1.68 0 0 0 .38.19c3.44 1.1 7.48 1.2 11.08 1.36 2.58.1 5.46.57 8.13.32a1.48 1.48 0 0 0 1.85.36c3.6-2.06 4.9-8.22 1.45-10.53zm-3.7 4.36a8.28 8.28 0 0 1 .25 1.49c-.52-.07-1.05-.08-1.57-.13-1.32-.13-2.63-.24-4-.33-3-.22-6.1-.23-9.14-.45a3 3 0 0 0-.09-2v-.08c4-.26 11.83 1.14 14.54 1.5z" class="M"/><path d="M421 360.1c-.28-2.22-1.9-3.85-3.1-5.64-1.42-2.1-2.34-4.56-3.85-6.62-3-4-4.72-7.26-10-8s-10.83-.7-16.2-1.07a1.42 1.42 0 0 0-1.24 2.22c0 .62-.55 1.24-.76 1.8a14.76 14.76 0 0 1-.43 1.44 7.5 7.5 0 0 0-.78 3.79 1.49 1.49 0 0 0 0 .42v.07a1.18 1.18 0 0 0 .12.33 1.43 1.43 0 0 0 .87.73c3 1 6.6.3 9.73.8 2.46.4 4.85 1 7.3 1.36a12.57 12.57 0 0 0 .7 2c.55 1.12 1.45 2 2 3.12.73 1.4 1.45 2.9 2.32 4.27-3.7 8.3-8.38 16.37-12.6 24.47-2.48 4.76-5.12 9.55-8.05 14q-2.38 3.7-4.87 7.3c-1.33 1.92-2.43 4.54-4 6.23a1.54 1.54 0 0 0-.39.73c-2-.4-4.34.38-6.34.68a80.32 80.32 0 0 1-13.24.66l-24.53-.33c-8.18-.15-16.2-.7-24.3-.8-4.15-.06-8.3.26-12.47.2-1.35 0-10.2-.74-9.95.2a1.55 1.55 0 0 0-2.07-.86c-5.2-1.54-11-4.06-14.28-8.07-3.1-3.73-4.84-8-8.73-11.08-4.5-3.53-9.65-5.77-14.88-7.94l-13.18-5.68a1.45 1.45 0 0 1-1.26.16c-4.64-1.4-9-3.42-13.53-5.2-3.92-1.57-7.9-2.82-11.87-4.25-3.42-1.23-6.57-3-9.9-4.45-5.56-2.42-11.95-4.63-16.1-9.28l-3.5-1.74c-3.47-1.64-7.52-2.5-11.13-4a.64.64 0 0 1-.58.08 17.28 17.28 0 0 1-4.29-2.16 6.47 6.47 0 0 1-1.22-.71c-3.9-.37-7.85 2.28-10.73 5.22A17.57 17.57 0 0 0 148 354a2.2 2.2 0 0 0-1.59.51 9.64 9.64 0 0 0-2.26 3.09c-.64 1-1.5 1.82-1.22 3.14a2.55 2.55 0 0 0 1.45 1.71c-1.72 3.7-2.8 8-1.65 11.3a1.64 1.64 0 0 0 .39.61 1.47 1.47 0 0 0 1 1c13.75 4.76 27.2 10.42 40.77 15.62l20.93 8.16c6.22 2.37 12.67 3.9 18.9 6.17 11.6 4.23 23 9.6 34.38 14.38 5.5 2.3 11.2 3.23 16.74 5.32a51.16 51.16 0 0 0 17.42 3.46 1.34 1.34 0 0 0 .82-.21c12.72.8 25.36 1.74 38.15 1.75 6.85 0 13.85.23 20.7.6 6.42.35 12.8-.1 19.2-.1h2.26a1.31 1.31 0 0 0 1.33-.86c4.77-1.4 9.6-3.4 12.35-7.7s5.18-8.5 7.76-12.7c6.92-11.27 13.33-22.8 19.43-34.56 2.1-4.1 6.4-9.55 5.76-14.56z" class="Q"/><path d="M213.84 422.8l-1.2-2.16 12.44-1.57a25.75 25.75 0 0 1 .65-3 1.61 1.61 0 0 0-.38 0c-4.82.48-9.62 1.24-14.43 1.8-1.37-2.13-2.8-4.24-4-6.45.45-1 .87-2.06 1.24-3.1a1.52 1.52 0 0 0-1-1.85l-.22-.06a1.51 1.51 0 0 0-1.94 1.69c-.33.87-.7 1.72-1.07 2.57a1.76 1.76 0 0 0-.17.37c-4.7 10.28-13.22 18.65-24.82 20.74-7.7 1.38-15.84-.22-21.53-5.8-4.1-4-7.92-11.83-7.88-17.64a1.34 1.34 0 0 0-.68-1.24c-.83-2.53-3.37-4.25-5.18-6-2.3-2.25-4.34-4.76-6.82-6.8-1.48-1.22-3.6.9-2.12 2.12a69.05 69.05 0 0 1 5.88 5.85c1.25 1.32 3.43 2.72 4.66 4.4-2.23.5-4.42 1.43-6.57 2.1l-8.34 2.7a1.52 1.52 0 0 0 0 2.9l.18.06a1.25 1.25 0 0 0 1.4-.31l6.6-2.15c2.47-.85 5.4-2.15 8-2.52a30.08 30.08 0 0 0 7 16.78.69.69 0 0 0 0 .13 34.35 34.35 0 0 1-.42 1.68 153.71 153.71 0 0 1-16.5.79c-1.93 0-1.93 3 0 3a147.83 147.83 0 0 0 15.64-.72c-1.67 5.46-4 10.83-6.08 16-.66 1.6 1.9 2.6 2.74 1.16l.22-.4a1.42 1.42 0 0 0 .21-.65 163.82 163.82 0 0 0 6.12-16.45l2.84-.27h.1a25.11 25.11 0 0 0 7.36 3.54 1.39 1.39 0 0 0-.24 1.25 87.26 87.26 0 0 1 2 9.7c-2.27 2.6-4.65 5-7.2 7.46-1.4 1.36.74 3.48 2.12 2.13 1.92-1.88 3.8-3.68 5.6-5.6l.76 6.82c.2 1.9 3.2 1.92 3 0l-1.14-9.8.82-1a102.25 102.25 0 0 1 8.81-10 1.27 1.27 0 0 0 .24-.33 28.58 28.58 0 0 0 2.8-.68l9.9 8.28c.05 1 .1 2 .1 3.07 0 1.44.45 5.34 0 6.57a1.26 1.26 0 0 0 .22 1.3 2.71 2.71 0 0 0 .3-.13h-.05l.26-.12.4-.17 2-.92a22.69 22.69 0 0 0 .14-6.92 94.88 94.88 0 0 0 4.83 3.53l.12.07a31.36 31.36 0 0 1 2.05-1.6 1.47 1.47 0 0 0-.66-1.05c-2.33-1.6-4.56-3.3-6.74-5.06 0-.23 0-.47-.06-.7a83.16 83.16 0 0 1 .15-13.11 1.55 1.55 0 0 0 0-.44 41.32 41.32 0 0 0 4.8-5.18 1.47 1.47 0 0 0 .87.24c2.5-.1 5-.3 7.48-.57.43.68.86 1.37 1.26 2.08a90.16 90.16 0 0 1 4.77 10.85 1.57 1.57 0 0 0 1.31 1 18.85 18.85 0 0 0 1.6-1.74.08.08 0 0 1 0 0c-1.4-3.6-2.8-7.06-4.55-10.47zm-43.62 18.84l-.24.3c-.42-2.43-.92-4.84-1.56-7.24a33 33 0 0 0 7.43.46 85.74 85.74 0 0 0-5.63 6.49zm22.78-3.48l-6.42-5.4a32.65 32.65 0 0 0 6.52-3.68 86 86 0 0 0-.1 9.08zm10-19.62a44.29 44.29 0 0 0 2.3-3.87c.72 1.2 1.48 2.38 2.24 3.54a92.23 92.23 0 0 1-4.54.33zm-58.66-38.84l3.17 1c1 3.3 2.26 6.5 2.36 10.06 0 1.93 3 1.93 3 0a32.69 32.69 0 0 0-1.93-9c.52.17 1.05.34 1.57.54a85.44 85.44 0 0 0 8.41 2.8 1.5 1.5 0 0 0 .8-2.89 85.44 85.44 0 0 1-8.41-2.8c-1.13-.44-2.27-.78-3.42-1.1-.24-.88-.47-1.78-.65-2.7-.36-1.9-3.25-1.1-2.9.8.06.3.14.6.2.92-.48-.15-.95-.3-1.43-.47-1.8-.7-2.6 2.2-.8 2.85z" class="O"/><path d="M390.74 379.94a12.36 12.36 0 0 0-.9-2.65 3.56 3.56 0 0 0-2.14-1.72 8.4 8.4 0 0 0-2.4.16A1.55 1.55 0 0 0 384 378a7.15 7.15 0 0 0 1.48 3.55l.4 1.1a2.5 2.5 0 0 0 2.19 1.93 1.23 1.23 0 0 0 1.43-1.32l.12-.07a2 2 0 0 0 1.2-1 2.79 2.79 0 0 0-.08-2.24z" class="N"/><path d="M224.2 327.14l-.1-.16a1.51 1.51 0 0 0-1-.63c-4.5-1.65-6.45-8.5-6.43-12.64a1.5 1.5 0 0 0-3 0c0 5.76 2.75 13.7 8.87 15.63 1.16.37 2.47-1.13 1.67-2.2zm-5.74 5.73c-2 0-3.85-4.32-4.8-5.8-.48-.74-2.83-4.93-2.08-6 1.12-1.58-1.48-3.08-2.6-1.52-1.57 2.22.6 6.64 1.8 8.63 1.7 2.84 3.84 7.7 7.67 7.66a1.5 1.5 0 0 0 0-2.98zm-4.86 7.38c-.18.25-4.44-6.08-4.76-6.8a13.68 13.68 0 0 1-1.07-3.47c-.1-.6.18-2.12-.64-1.82 1.8-.66 1-3.56-.8-2.9-3.62 1.33-.9 8.18.2 10.35 1.3 2.56 6.4 10.72 9.64 6.14 1.12-1.58-1.48-3.08-2.6-1.5zm-3.78 6.1c0-.7-1.78-1.35-2.35-1.94a11.13 11.13 0 0 1-2-3.3 13.68 13.68 0 0 1-1.12-7.62c.27-1.9-2.62-2.7-2.9-.8-.7 4.8.5 10.7 4.22 14.13 1.32 1.2 2.76 2.17 4.6 2 1.42-.14 2.6-.92 2.54-2.46-.07-1.93-3.07-1.94-3-.01zm-2.32 5.08c-.75.57-2.2-.25-2.84-.68a7.83 7.83 0 0 1-2.61-3.41c-1.35-2.7-2.34-4.5-2-7.62.22-1.92-2.78-1.9-3 0a12.41 12.41 0 0 0 .58 5.8 23.91 23.91 0 0 0 3.12 5.64c1.6 2 5.64 4.84 8.25 2.86 1.54-1.14 0-3.75-1.5-2.6zm-3.07 6.18c-2.75-.1-4.46-2.1-5.8-4.33-1.08-1.78-3-4.83-1.83-6.94.93-1.7-1.66-3.2-2.6-1.5-1.8 3.25.1 7.08 1.83 10 2 3.27 4.47 5.66 8.4 5.82 1.93.03 1.93-2.97 0-3.04zm-5.65 4.78c-1.38 1.6-4.55-3-5.16-3.9-1.6-2.3-1.48-4.76-1-7.4.34-1.9-2.55-2.7-2.9-.8-.86 4.8-.06 8.1 2.95 11.92 1.77 2.25 5.8 5.13 8.23 2.3 1.24-1.46-.9-3.6-2.13-2.12z" class="M"/><path d="M508.26 336.2l-.6.08a1.44 1.44 0 0 0-.93-.34 29.42 29.42 0 0 0-7.08.34c-2.2.52-4.47.75-6.7 1.1a21.09 21.09 0 0 1-3.37.09 30.94 30.94 0 0 0-3.73.33 6.78 6.78 0 0 1-3.29 0l-.65-.3-1.4-2.84c-.82-1.56-1.16-3.55-2.45-4.84s-3-.82-4.4-.17l-5.35 2.77a73.08 73.08 0 0 0-10.05 6.15 1.65 1.65 0 0 0-1.93 1.06 1.28 1.28 0 0 0-.39 1.89 1.42 1.42 0 0 0 .1.47 22.94 22.94 0 0 1 .89 2.57 7.41 7.41 0 0 1 .54 3 5.56 5.56 0 0 1-1 2.22l-1.7 2.7c-2.43 3.25-5.74 5.75-8.83 8.33-3.3 2.75-6.53 5.55-9.6 8.54-1.56 1.52-3.07 3.07-4.58 4.63a27.38 27.38 0 0 0-3.73 4.25c-.72 1.13-1.56 3-.22 4s2.6-.2 3.33-1.18 1.28-2.14 2.08-3.1c1.2-1.47 2.68-2.7 4-4.1a40.14 40.14 0 0 1 4.19-4.16c1.7-1.37 3.28-2.86 4.93-4.27a385.46 385.46 0 0 1 9.92-8.12c1-.76 1.92-1.5 2.92-2.2a1.42 1.42 0 0 0 .75-.43.48.48 0 0 1 .09-.11 17.9 17.9 0 0 1 1.92-1.08c1.7-.82 3-1.93 2.64-4a14.22 14.22 0 0 0-2.19-4.74c-.6-1-1.36-1.88-1.93-2.9-.17-.3-.32-.6-.48-.9a65.66 65.66 0 0 1 8.65-5.35c1.75-.93 3.44-1.94 5.24-2.74.4-.2 1.56-1 2.07-.88a7.19 7.19 0 0 1 .89 1.74c.3.75.65 1.47 1 2.18a1.31 1.31 0 0 0-.24 1.77 7.24 7.24 0 0 0 2.24 2.12 8.07 8.07 0 0 0 1.45 1.83 3.06 3.06 0 0 0 .1 1.2c.5 1.67 2.36 1.72 3.77 1.35s2.84-.84 4.28-1.22l4.65-1.27a1.52 1.52 0 0 0 .79-.56 23.7 23.7 0 0 1 3-.72l3.65-.46c1.2-.16 2.5-.27 3.75-.4 1-.1 2-.26 2.94-.36 1.94-.15 1.96-3.15.04-2.96z" class="N"/><path d="M444 313.23c-.6-1.77-1.54-3.08-3.7-3.14h-.14c-3.17-.53-5.52.83-5 4.5s-.35 9.68 2.2 12.64c2.1 2.46 5.82 2.95 7.88.25v-.05a1.15 1.15 0 0 0 .64-.92v-.84a7 7 0 0 0 .12-1.46 24.47 24.47 0 0 0-2-10.99z" fill="#fb0"/><path d="M434.8 327.33c-.8-.17-.9-6.2-.92-6.8-.14-2.38-.64-5.4.06-7.7a1.33 1.33 0 0 0-.69-1.64 1.56 1.56 0 0 0-2.33-.33c-2.67 2.33-1.6 7.85-1.37 11 .2 2.84.66 6.63 3.35 8a3.9 3.9 0 0 0 1.11.4c1.88.34 2.7-2.52.8-2.93z" class="M"/><path d="M387.3 420.16a1.53 1.53 0 0 0-2.05.54l-.2.28s-.2.3 0 .1a2.19 2.19 0 0 0-.34.64l-.88.84c-.28.3-.62.74-.93 1.1l-.47.55-.3.3-.05.06-.35.2a8.74 8.74 0 0 0-.78.51l-.74.58-.05.05c-3.7 0-17.23.58-18.62.57-9.14 0-18.4-1.15-27.52-.52-7.57.53-15.1-.85-22.62-.5a119.05 119.05 0 0 1-17.79-.57l-18.23-5.93c-3.36-1.05-6.8-1.86-10.23-2.77l-14.6-6.28c-8.12-3.23-16.36-6-24.63-8.66l-.44-.35a1.53 1.53 0 0 0-1.51-.28l-19.1-6.16a190.31 190.31 0 0 1-23-8.94c-6.5-3.17-13.38-5.06-19.77-8.3-3.3-1.68-6.62-2.62-10-4a49.87 49.87 0 0 1-5.74-3.32c-.2-.1-.4-.3-.65-.44.52-3.88 3.27-7.9 5.46-10.48a26.8 26.8 0 0 1 4.12-4.46c1.45-1.1 3.07-1.57 4.58-2.5s.14-3.6-1.52-2.6-3.57 1.64-5.18 3a38.11 38.11 0 0 0-5.5 6c-2.45 3.1-4.76 7.62-5 11.88-.64 1.2-.23 3.14.6 4.42a1.43 1.43 0 0 0 1.69.62c4.74 2.5 9.9 4.42 14.8 6.47 5.37 2.24 10.75 4.6 16.2 6.64 13.68 5.14 27.8 9.44 41.23 15.2 6.17 2.64 12.52 5.26 18.9 7.34 2.25.73 4.57 1.4 6.9 2.1 8.6 4.68 18.18 6.85 27.2 10.54a1.45 1.45 0 0 0 .62.12l1.9.76a49.05 49.05 0 0 0 12.81 3.26 1.15 1.15 0 0 0 1 .71c2.2.3 4.4.52 6.6.7a1.36 1.36 0 0 0 1.21.64l47.52.52c1.92 0 3.83 0 5.74.1l10.16.74a81 81 0 0 0 9.5.27 62.35 62.35 0 0 0 9.48-.5l.72-.1a1.35 1.35 0 0 0 1.2.18l.2-.07v.5l1.3-1.83c.33-.2.65-.42 1-.65a17.54 17.54 0 0 0 1.38-1.05l.07-.07h.07l.35-.22c.2-.12.43-.23.63-.37a13.41 13.41 0 0 0 2.33-2.43c.34-.37.73-.67 1.07-1a4.3 4.3 0 0 0 .59-.76 3.61 3.61 0 0 0 .26-.61v-.12a1.52 1.52 0 0 0-.6-2.17z" class="N"/><path d="M512.33 397.68c-2.55-4.6-5.63-9-8.26-13.6-7.5-13.13-14.26-26.76-21.3-40.14l-17.82-33.86-9.6-18.92c-1.6-3.1-3-6.4-4.64-9.45-1.17-2.13-3.53-3.86-4.54-6a1.27 1.27 0 0 0-.7-1.53c-4-2.07-8.54 1.62-11.4 4.05-1.28 1.1-3 2.9-2.76 4.78.14 1 1 1.75 1.42 2.66.2.47.4.9.6 1.3a1.47 1.47 0 0 0 .13 1c5.63 11.38 12.3 22.25 17.62 33.8 5.16 11.23 11.12 22.15 16.88 33.1l17.38 33.3 6.68 12.7c1.9 3.52 4.1 9.15 7.54 11.36a1.31 1.31 0 0 0 1.24.14 1.37 1.37 0 0 0 .94 0 40.26 40.26 0 0 0 7.74-3.31 24.78 24.78 0 0 0 3.11-1.85 1.55 1.55 0 0 0 1.27-.63c2.5-3.36.1-5.9-1.56-8.9z" class="O"/><path d="M334 472.58l-3.6.25v-.17c-1.18-3.4-3.78-6.85-5.6-10a126.68 126.68 0 0 1-5.87-12.27 63.08 63.08 0 0 0-3.54-6.59 50.91 50.91 0 0 0 4-5.31 30 30 0 0 1 3.34-4c1.1-1.23 1.7-2.74 2.76-4s-.3-3.32-1.82-2.36l-.27.2a1.42 1.42 0 0 0-.12-.13c-1.7-1.38-3.67.6-4.84 1.72a32 32 0 0 0-4 4.57c-.78 1.1-1.42 2.23-2.17 3.27-1-2-2-4-2.82-6.12a6.85 6.85 0 0 0-1.89-3.22 1.49 1.49 0 0 0-.31-.2 1.4 1.4 0 0 0-1.43-1.26h-6.72a1.36 1.36 0 0 0-1.16.58 1.41 1.41 0 0 0-.59 2c6.2 10.47 10.45 21.9 15.18 33.1 1.47 3.48 3 8.75 6 11.25 3.87 3.24 11 1.85 15.48 1.63 1.93-.02 2-3.02-.01-2.93z" class="N"/><path d="M210.8 314.84c-.17.75-1.44 1.87-1.87 2.55l-2.42 4.23c-1.6 2.3-2.83 5-4.68 7.18-1.26 1.46.86 3.6 2.12 2.13 2.08-2.42 3.44-5.3 5.24-7.9 1-1.45 1.68-3.13 2.7-4.57.67-.94 1.53-1.67 1.8-2.83.43-1.88-2.47-2.64-2.9-.8z" class="M"/><path d="M504.3 423.92c-6.68.24-11.45-1.24-16.22-6.06a14.2 14.2 0 0 1-3.42-13.13c.4-1.88-2.48-2.68-2.9-.8-1.15 5.18-.3 11.24 3.4 15.3 5.33 5.84 11.34 8 19.13 7.68 1.93-.06 1.93-3.06 0-3z" class="O"/><path d="M439.15 219.85a9.62 9.62 0 0 0-3-3.94c-1.5-1.2-4.22-1.82-5.8-3.17v-3.23c.1-2 1.1-4.1-.7-5.66-1.08-.92-3.4-1.75-4.76-1-1.55.83-1.34 2.77-1.25 4.26a1.4 1.4 0 0 0 .14.56l-.07 1.73a18.11 18.11 0 0 0-.44 7.2c-.2 1.68-.34 3.42.3 4.65a3.33 3.33 0 0 0 3.88 1.32c2-.5 2.43-2.23 2.72-4l.14-1.12c2.38 1.18 5.47 2.23 5.93 4.7.26 1.42-.1 2.94.08 4.4a15.33 15.33 0 0 1 0 2.86 8.93 8.93 0 0 0-.15 1.47 1.1 1.1 0 0 0 0 .25v.16a1.31 1.31 0 0 0 .26.93 1.23 1.23 0 0 1 0 .69c-.77 1.75 1.82 3.28 2.6 1.5 1-2.24.58-5.2.78-7.67a16.52 16.52 0 0 0-.68-6.9z" class="M"/><path d="M201.74 284.2c-5.1 1.14-9 4-13.23 6.74a50.26 50.26 0 0 0-11.16 10.48c-1.2 1.5.92 3.64 2.12 2.12a54.93 54.93 0 0 1 9.88-9.45c4-2.94 8.32-5.9 13.18-7 1.9-.42 1.1-3.3-.8-2.9z" class="P"/><path d="M432.8 271.4v-.08c0-.03-.1-.3-.16-.44l-.33-.8c1.48-.52 1.32-3.17-.42-2.94h-.13l-.27.05a8.94 8.94 0 0 0-1.73.77l-.17.08a2.07 2.07 0 0 1-.15-.25l-1.7-3.67c-.36-.87-1.14-2.2-.38-3s2-1.07 2.24-2.3-.6-2.4-1.13-3.4a35.14 35.14 0 0 1-1.3-3.32l-1.45-3.26-.94-1.7a6 6 0 0 1-.31-.84l-.1-.35a.14.14 0 0 0 0-.07c.73-1.5-1.67-2.8-2.7-1.3-.78 1.13-.1 2.8.47 3.9l1.12 2.05c.35.7.48 1.4.83 2.05.67 1.3 1 2.73 1.65 4l.73 1.5-.24.16a8.24 8.24 0 0 0-1.09.86c-2.3 2.3-.34 5.94.92 8.26.66 1.22.95 3 2.26 3.7a1.83 1.83 0 0 0 1.35.2v.1l.15.42a.19.19 0 0 1 0 .07l-1.4.9a9.78 9.78 0 0 0-1.49 1.31l-1.47 1.32-.73.64-.36.3c.18-.15-.18.13-.2.13-1 .65-2.1 1-2.25 2.36a1.5 1.5 0 0 0 1.5 1.5 1.47 1.47 0 0 0 1.12-.55l.18-.15.5-.3a10.84 10.84 0 0 0 1.61-1.17l1.62-1.44c.54-.44.9-.87 1.36-1.3l.14-.1.5-.3.83-.54c.6-.4 1.3-.72 1.6-1.43a1.88 1.88 0 0 0-.06-1.65s.02.01.01.01z" class="M"/></g><path d="M442.36 470.43a11 11 0 0 0-3.39-2.37l-5-2.72-5.86-2.63-6.1-2.83-10.46-4.88a4.23 4.23 0 0 0 .24-1.09l.26-4 .1-8.55.4-8.82c0-1.3.23-2.6.28-3.9l.2-4.55.3-3.58c.05-.6.25-1.18.28-1.8a16.53 16.53 0 0 1 0-2c.5-3.06.12-6.25.32-9.36l.65-8.8c0-1.43.3-2.9.45-4.32.08-.8-.05-1.67.1-2.47a15.27 15.27 0 0 0 .28-2.23l-.05-4.65c0-.76.08-1.53 0-2.3a1.49 1.49 0 0 0 .21-.76 14.73 14.73 0 0 1 .06-1.49 12.88 12.88 0 0 0 .27-1.95l-.07-1.92a1.39 1.39 0 0 0-.18-.66l.1-.2 2.32-4.9c.4-.74.95-1.38 1.34-2.12s.47-1.44.76-2.15a12.67 12.67 0 0 0 1.26-4.35 16.39 16.39 0 0 0-.93-5.45 20.65 20.65 0 0 0-2.9-5.29 25.46 25.46 0 0 0-3.13-4.18 29.93 29.93 0 0 0-3.7-3.6c-.65-.45-1.15-1.15-1.9-1.4-.13 0-1-.34-.47-.06a13.14 13.14 0 0 0-1.25-.61 48.84 48.84 0 0 0-5.73-1.53l-5.8-1.25a33.37 33.37 0 0 0-6.28-1 1.35 1.35 0 0 0-1.42 1.15 7.21 7.21 0 0 0-1.6 1.18 10.16 10.16 0 0 0-2.14 3.89 6.67 6.67 0 0 0-.23 4.21 5.81 5.81 0 0 0 2.41 3 7.57 7.57 0 0 0 4.07 1.26 25.6 25.6 0 0 1 5.4 1.22c1.44.45 3 .56 4.4 1.05a4.64 4.64 0 0 1 2.92 2.85c.52 1.13 1.53 2.3 1.25 3.6a13.12 13.12 0 0 0-.52 2.35 12.05 12.05 0 0 1-.15 2.4 15 15 0 0 1-2.18 4.47c-1 1.5-1.83 3.1-2.72 4.64l-2.36 4.06-2.1 4.64c-1.66 3.05-3.34 6.12-4.85 9.25-1.37 2.85-3.38 5.4-5 8.12s-3.36 5.6-5.17 8.36c-.36.55-.63 1.1-1.3 1.24s-1.2 0-1.76.07c-.77.13-1.5.38-2.27.44s-1.83.1-2.75.16c-3.45.28-6.88.3-10.35.38s-7.06.38-10.6.32-7.3-.08-11 .1c-1.56.07-3.14.14-4.7.06-1.86-.1-3.7-.4-5.57-.5l-10.92-.52c-3.92-.17-7.9-.36-11.8-.72-1.93-.17-3.86-.5-5.8-.55s-4 .13-6.06.05-4.06-.42-6.1-.53a13.65 13.65 0 0 1-2.56-.07 4.75 4.75 0 0 1-1.81-1.09 30.46 30.46 0 0 0-4.5-3.14c-.56-.3-1.12-.6-1.7-.86a9.67 9.67 0 0 0 1.78-3.44c1.58-4 3.42-7.68 5.2-11.6l11.68-25c7-15.67 17.53-29.44 24-45.4.75-1.52 1.46-3 2.33-4.48a9.84 9.84 0 0 0 1.44-3.91c.23-1.9-2.78-1.9-3 0a8.38 8.38 0 0 1-1.67 3.23 15.11 15.11 0 0 0-1.21 2.49 2.1 2.1 0 0 0-.13.26l-.16.6c-.1.26-.22.52-.34.76a1.65 1.65 0 0 0-.16.49 121 121 0 0 1-10.5 20.42c-4.47 6.88-8.08 14.5-12.07 21.66a203.11 203.11 0 0 0-9.62 20.41c-1.85 4.43-3.86 8.77-6.07 13a38.8 38.8 0 0 0-1.59 4.34 21.57 21.57 0 0 1-1 2.48 4 4 0 0 1-1.62 1.72 1.71 1.71 0 0 0-1.4.39l-.77.16a6.52 6.52 0 0 1-4.49-1.87c-2.3-2.3-3.55-5.6-4.62-8.62-1.28-3.6-2.94-7-4.5-10.5-4.28-9.57-8.32-19.22-12.2-29-5.28-13.2-12.14-25.55-18.48-38.2h6c3.14 5.67 7.32 10.83 9.85 16.88s5.4 11.72 7.83 17.7c2.66 6.5 6.28 12.76 9.46 19 1.27 2.52 2 5.7 4.06 7.73 2.56 2.56 7.22 2.62 9.32-.42 1.3-1.9 1.82-4.14 2.5-6.32 3.12-10 9.4-19 13.9-28.38s9.42-18.55 12.92-28.34v-.17l1.06-.1a1.69 1.69 0 0 0 .48-.13c3.36-.24 6.7-.48 10.06-.55 1.93-.05 1.94-3.05 0-3h-.68a1.46 1.46 0 0 0 .74-1.7c-.75-2.48-1.48-5.48-3.4-7.34l-.1-.08 1.4-.15c1.9-.22 1.92-3.22 0-3q-4.84.58-9.74 1a10.58 10.58 0 0 1-1.42-.3 1.32 1.32 0 0 0-1.56.55 175.42 175.42 0 0 1-27.11.35 185.55 185.55 0 0 0-20.15-.25c-2.43.1-5 .2-7.56.44-1.3-.25-2.6-.53-3.88-.83.06-.38.12-.75.15-1.1.1-1.2.48-2.4.7-3.6.43-2.34 1.27-4.6 1.55-7a18.43 18.43 0 0 1 2.46-6.49 16 16 0 0 1 4.44-5.05l2.74-1.9a11 11 0 0 1 3.12-1.2c2.44-.7 5-.5 7.48-.85 1.28-.17 2.54-.4 3.83-.45s2.68 0 4 0a74.22 74.22 0 0 0 7.57-.71c2.74-.37 5.5-.46 8.25-.8a19.32 19.32 0 0 1 2-.25 9.61 9.61 0 0 0 1.93-.09c1.13-.25 2.07-.1 3-.86a1.27 1.27 0 0 0 0-2l.2-2a9.62 9.62 0 0 0-.37-3.33 4.83 4.83 0 0 1-.14-1.21 5.52 5.52 0 0 0-.15-.92l-.1-.38a.2.2 0 0 1 0-.09v-.73a1.52 1.52 0 0 0-.75-2.8c-.56 0-1.28-1.8-1.6-2.17-.88-1.07-2-1.92-2.8-3a16.1 16.1 0 0 1-2-3.05l-1.83-3.9a51.27 51.27 0 0 1-2.79-7.14 29.56 29.56 0 0 1-1-8.82c.05-2.7-.23-5.3 1-7.8 1.1-2.22 1.94-4.6 3.68-6.46 1.9-2 3.63-4.15 5.63-6 2.15-2 4.48-3.82 6.78-5.68a25.32 25.32 0 0 1 3.19-2.46 19.26 19.26 0 0 1 3.93-1.69 10.28 10.28 0 0 1 3.87-.67 13.47 13.47 0 0 1 4.41.83 51.58 51.58 0 0 1 7.67 4.33 20.09 20.09 0 0 1 3 2.17 29 29 0 0 1 2.59 3.14 44.8 44.8 0 0 1 4.7 6.42c1.27 2.33 2.1 4.8 3.25 7.2s1.58 5.43 2.07 8.13a25.2 25.2 0 0 1-.34 9.2c-.3 1.64-.73 3.25-1 4.9a14.83 14.83 0 0 1-1.19 4.44 38.41 38.41 0 0 1-5 6.94c-.9 1.1-1.9 2.23-2.76 3.36a6.54 6.54 0 0 0-1.2 3.55c-.1 1.56-.4 3-.62 4.58-.2 1.34-.18 2.67-.33 4a2 2 0 0 0-.1.52v.38a1.3 1.3 0 0 0 .24.79 1.6 1.6 0 0 0 2.39 1h.08a5.68 5.68 0 0 1 .59 0h.92c1 0 1.93-.2 2.9-.24l5.82-.23c1.94-.06 4 0 6 0 1.5 0 2.95-.13 4.42-.2a12.9 12.9 0 0 0 2.64.23 15.23 15.23 0 0 1 2.66.48l.58.17.28.1c-.12 0-.1 0 .07 0l.6.32c.15.1.18.12.08 0l.23.2a8.8 8.8 0 0 0 1.15.95c.18.12.37.2.56.32l.27.17c-.08-.08-.06-.06.08.06a1.5 1.5 0 0 0 2.12-2.12 7.2 7.2 0 0 0-1.31-.89 6.33 6.33 0 0 1-.87-.71 7.48 7.48 0 0 0-2.74-1.46 20 20 0 0 0-3-.59c-.22 0-.45 0-.67-.06a1.43 1.43 0 0 0-.9-.3h-1.5a1.17 1.17 0 0 0-.76 0c-1.5.08-3 .2-4.46.2l-6.7.08c-2.23.08-4.26.1-6.37.3-.7.07-1.46 0-2.22.05v-.2c.05-.74 0-1.48 0-2.2.12-1.65.65-3.24.75-4.9a4.41 4.41 0 0 1 1.12-3.25c1-1.07 1.85-2.3 2.8-3.43a34.86 34.86 0 0 0 4.81-6.82 11.88 11.88 0 0 0 1.25-3.83c.22-1.73.66-3.4 1-5.1a30.59 30.59 0 0 0 .8-9.9c-.2-1.56-.55-3.1-.87-4.64a25.16 25.16 0 0 0-1.14-4.62c-1-2.57-2.1-5.22-3.4-7.67a20.75 20.75 0 0 0-2.2-3.54c-1-1.18-1.8-2.45-2.78-3.6s-1.74-2.3-2.7-3.35a17.18 17.18 0 0 0-3.5-2.79 61.31 61.31 0 0 0-8.14-4.68 10 10 0 0 0-4-1.15c-.72 0-1.4-.15-2.12-.2a9.57 9.57 0 0 0-2.5.25 20.26 20.26 0 0 0-8.25 3.51c-2.45 1.88-4.88 3.88-7.22 5.9a76.66 76.66 0 0 0-6.48 6.64 26.43 26.43 0 0 0-2.64 3.14 23.14 23.14 0 0 0-2 3.84 35.94 35.94 0 0 0-1.52 3.62 15.23 15.23 0 0 0-.52 4.61c0 1.68-.13 3.4 0 5.06a43.89 43.89 0 0 0 .82 5.48 45.42 45.42 0 0 0 3.26 8.83 35.34 35.34 0 0 0 4.73 8.36 27.85 27.85 0 0 1 3 3.57 4.72 4.72 0 0 0 .73 1 1.35 1.35 0 0 0 .16.42.33.33 0 0 0 .07.11 1.05 1.05 0 0 0 0 .12v.53a5.66 5.66 0 0 0 .09 1.36 3.8 3.8 0 0 1 .14.91 6.53 6.53 0 0 0 .26 1.65 7.28 7.28 0 0 1 .25 2.63l-.17 1.73a8.31 8.31 0 0 1-1.52.2c-1.3 0-2.54.27-3.82.37-2.5.2-5 .43-7.46.73a63.79 63.79 0 0 1-8.16.65 64.18 64.18 0 0 0-7.83.6 37.23 37.23 0 0 1-3.81.17 13.49 13.49 0 0 0-3.9.81 17.93 17.93 0 0 0-3 1.14 32 32 0 0 0-2.84 2c-4 2.73-6.32 6.86-7.92 11.3a34.26 34.26 0 0 0-.82 3.85c-.33 1.4-.8 2.73-1.07 4.14s-.5 2.67-.8 4c-.14.6-.22 1.24-.3 1.86a68.71 68.71 0 0 1-21.82-9.86c-3.25-2.3-6.53-4.43-10.63-4.34a27.85 27.85 0 0 0-12.33 3.31 61.26 61.26 0 0 0-18.22 15.1c-1.52 1.55-3.2 3.36-3.8 5.4-3.63.52-7.27 1.06-10.88 1.4-6.05.56-12.3.82-18.14 2.7a11.3 11.3 0 0 0-3.55 2A1.5 1.5 0 0 0 139 312c-2.83.5-6.12-.67-8.53 1.3a13.52 13.52 0 0 0-2.49 3.18c-1.36 2-2.87 3.94-4.37 5.86-1.33 1.7-2.62 3.46-1.73 5.74a3.28 3.28 0 0 0 .48.82c-.84 1-1.55 2-2.4 3-1.56 1.7-2.92 3.5-4.37 5.3s-2.8 3.7-4.13 5.7c-.76 1.14-2.2 2.3-1.75 3.8.8 2.67 4.77 3.3 6.77 1.85 1.64-1.2 2.92-3.34 4.08-4.93 1.35-1.86 2.8-3.63 4.24-5.42 1.55 2 4.7 3 7.27 3.4a24.64 24.64 0 0 0 8.08.18c3.82-.83 7.66-3.6 11.26-5.12 8-3.4 15.7-6.18 24.58-5.62 7.48.48 14.76 1.45 22.17 2.27 2.36.25 4.5.65 6.44-1 2.38-2.05 3.6-5.9 5.5-8.42a77.5 77.5 0 0 0 5-7c.34-.55.92-1.3 1.5-2.1h8.53l4.53 9.8c1.46 3.28 3.9 6.47 5.65 9.8 5.28 10.1 9 20.86 13.5 31.3 3.8 8.8 8.06 17.5 11.54 26.45-1.77-.84-3.58-1.57-5.35-2.43-2-.95-3.88-2-5.9-2.84l-6.74-2.72a20 20 0 0 0-2.7-1.13c-1.1-.3-2-.9-3.1-1.28-2.2-.76-4.33-1.74-6.56-2.46l-6.92-2.24c-1-.35-2-.8-3-1.2s-2.2-.7-3.3-1a25.08 25.08 0 0 1-2.62-1.24c-1.13-.52-2.34-.9-3.5-1.35l-7-2.7a113.24 113.24 0 0 1-12.57-5.77c-.9-.48-1.77-1-2.7-1.45a22.11 22.11 0 0 1-3-1.52 61.61 61.61 0 0 0-5.8-3.46c-1-.54-2.16-.83-3.17-1.45a20 20 0 0 0-3.17-1.68c-2.34-.9-4.56-2-6.87-3-2.1-.9-4.17-1.66-6.32-2.38a5.85 5.85 0 0 0-3.08-.08h-.05a1.25 1.25 0 0 0-1.63-.63 16.42 16.42 0 0 0-4.07 1.9 13.44 13.44 0 0 0-1.63 1.48c-.33.34-.8.95-1.32.92-.35 0-.78-.45-1.12-.6a2.58 2.58 0 0 0-1.91-.16c-1.45.46-2.46 2-3.38 3.1a13.37 13.37 0 0 0-2.38 3.17 5.15 5.15 0 0 0-.23 4.22c.3.73 1 1.2 1.3 1.87a2.33 2.33 0 0 1 .13 1.34 34.87 34.87 0 0 0-.54 5.19c0 .7.2 1.3.3 2a6.65 6.65 0 0 0 .34 2.07 5.4 5.4 0 0 0 3 2.58c1.45.7 3 1.27 4.45 1.94 1.67.76 3.33 1.57 5 2.27 3.3 1.34 6.7 2.35 10 3.82 3 1.38 6.23 2.55 9.4 3.64 1.57.54 3.1 1.15 4.64 1.74s3.4 1.1 5.07 1.7 3 1.4 4.5 2.08 3.28 1.32 4.93 1.94l20.5 7.54c6.5 2.58 13.1 4.94 19.65 7.4l10.15 3.8c3.18 1.26 6.26 2.7 9.53 3.74 3.67 1.18 7.14 2.85 10.8 4.1s7.36 2.26 11.12 3.27c1.75.47 3.46.9 5.24 1.22s3.5 1 5.27 1.4l5.95 1.36a13.74 13.74 0 0 0 2.53.47 8.34 8.34 0 0 1 2.64.23 1.24 1.24 0 0 0 1.47-.37l1.1-.05c1.82-.1 3.65 0 5.46 0 3.82 0 7.64-.1 11.45.08l22.94.75c3.72.1 7.43.44 11.16.44 1.87 0 3.74.14 5.6.23 1.72.07 3.42-.1 5.13-.08s3.4.6 5.15.66 3.68-.12 5.53.08a20 20 0 0 0 4.7.24c.46-.06.92-.08 1.38-.1.07 2.15.2 4.3.2 6.46 0 2.9.05 5.74-.22 8.6-.13 1.3 0 2.65 0 4s-.18 2.7-.26 4.07.05 2.93-.14 4.4 0 2.82-.1 4.23c-.13 1.22-.33 2.43-.47 3.65a14.75 14.75 0 0 0 0 1.88c0 .75-.2 1.44-.22 2.2a2.59 2.59 0 0 0 1.49 2.52 4.23 4.23 0 0 0 1.41 3.46c1.4 1.15 3.6.75 5.28.73l12.22-.25c4.07-.02 8-.36 12-.23l12.1.23 5.78-.08c1.93 0 4.08.25 6.12.35a49.15 49.15 0 0 0 5.15 0c1.63-.1 3.6-.06 5.1-.8a3.37 3.37 0 0 0 1.9-3.28 6.19 6.19 0 0 0-1.18-4.45zm-177.8-156c6.24-.15 12.82-.06 19-.8 5.84-.7 11.7-.68 17.56-1a81 81 0 0 1-5.92 13.13c-2.77 4.8-4.53 10-7 15-4.3 8.7-9.4 17.14-13.23 26.08a10.03 10.03 0 0 0-.43 1c-.94 2.4-2.2 8.42-5.8 6.57-1.87-.95-2.38-3.4-3.2-5.14-1.38-3-3.14-5.83-4.55-8.82l-8.2-17.62c-2.7-5.4-4.9-11-7.54-16.44-2-4.08-4.8-7.78-7.23-11.66l26.55-.27zm-141.3 19.65a1.52 1.52 0 0 0-.25 1.52c-1.33 1.64-2.76 3.22-4 4.9-.66.88-4.3 6.76-6.16 5.4 1.6-2.95 4.16-5.6 6.18-8.18 1.12-1.42 2.2-2.8 3.42-4.14.8-.9 1.66-2.52 2.62-3.26.3.05.63.1 1 .12l-2.8 3.63zm1.65-8.6c.18-.63 1.12-1.43 1.53-2 1.16-1.5 2.35-3 3.44-4.55 1.5-2.17 2.68-3.86 5.58-3.8h1.85c-1.08 1.26-2.08 2.6-3 3.8-2.18 2.78-4.2 5.7-6.24 8.6a2.37 2.37 0 0 0-.41-.06c-1.5.02-3.44.42-2.75-2zm87.56-10.15c-1.25 2-2.66 3.78-4.1 5.65-1.6 2.1-2.74 4.55-4.32 6.6-3.2 4.14-5.2 2.6-9.4 1.93a157.53 157.53 0 0 0-16.28-1.24 55.35 55.35 0 0 0-15.68 1c-5.9 1.35-11.36 3.77-16.84 6.3-3.63 1.68-6.17 3.32-10.3 3.13-2.22-.1-10-.3-8.5-4.22a1.6 1.6 0 0 0 .1-.62c2.62-3.5 5.1-7.16 7.63-10.66 2.9-4 6.4-9.23 11.46-10.3 8.73-1.86 17.65-2.84 26.53-3.84a5.77 5.77 0 0 0 .34.89c1.65 3.4 6.56 3.54 9.8 3.9 9.9 1.1 20 1 30 .9zm215 150.38c1.38.65 2.74 1.38 4.17 1.92a39.42 39.42 0 0 1 4.39 2.24l.48.25h-12.97a25.55 25.55 0 0 0-5.23.45 34.48 34.48 0 0 1-5.66.08h-6.26a38 38 0 0 1-5.94-.17 43 43 0 0 0-5.79-.11c-1.77 0-3.6-.1-5.4-.14a17.78 17.78 0 0 1 1.23-.63c2.57-1.18 4.63-3 7.05-4.45s4.84-2.27 7.06-3.74a38.07 38.07 0 0 0 5.07-4q8.9 4.1 17.78 8.3zm-51.12-36.15a21.2 21.2 0 0 1-4.71.05 28.59 28.59 0 0 0-4.71-.3c-.93 0-1.86.06-2.8 0a21.59 21.59 0 0 1-2.65-.46 21.07 21.07 0 0 0-4.56-.1c-1.64.06-3.27 0-4.9-.14s-3.53-.05-5.3-.1c-1.93 0-3.85-.23-5.77-.32l-12.2-.4c-2-.1-4.05.05-6.07-.05s-3.78-.28-5.68-.33l-11.92-.16h-6.27a54 54 0 0 1-12.18-1.1c-1.55-.32-3.06-.7-4.57-1.16s-3.16-.6-4.72-1c-6.27-1.6-12.77-3.15-18.67-5.84-3-1.35-6.06-2.22-9.1-3.34s-6.23-2.64-9.38-3.85q-9.33-3.6-18.75-6.94c-6.63-2.35-13.07-5.16-19.74-7.4-3.16-1.06-6.25-2.26-9.36-3.44-1.62-.6-3.25-1.18-4.8-1.94a44.71 44.71 0 0 0-4.41-2c-6.13-2.22-12.43-4.1-18.38-6.78-3.08-1.4-6.22-2.45-9.4-3.62s-6.2-2.65-9.24-4a8.65 8.65 0 0 1-2.3-1.19c-.5-.45-.33-1.07-.4-1.67a18.25 18.25 0 0 1 0-5.06c.18-1.42.64-3-.1-4.33-.34-.64-1-1.06-1.3-1.74a2.57 2.57 0 0 1 .32-2.1 9 9 0 0 1 1.44-1.71c.52-.6 1-1.25 1.5-1.82a4.27 4.27 0 0 1 .77-.76l.3.2a4 4 0 0 0 1.82.61 4.75 4.75 0 0 0 3.55-1.79 9.4 9.4 0 0 1 2.3-1.72 1.49 1.49 0 0 0 1.17.69 1.67 1.67 0 0 0 1.19-.29 4.07 4.07 0 0 0 .43-.4h.05a3.86 3.86 0 0 1 2.74 0c1.9.72 3.8 1.3 5.66 2.1s3.94 1.87 6 2.7a20.62 20.62 0 0 1 3 1.4 14.73 14.73 0 0 0 2.94 1.48 26.42 26.42 0 0 1 5.85 3.26 50.55 50.55 0 0 0 5.65 3.07 127.68 127.68 0 0 0 12.47 5.88c4.38 1.78 8.9 3.24 13.14 5.32 2 1 4.3 1.4 6.36 2.28a61 61 0 0 0 6.71 2.3c2.28.7 4.43 1.58 6.63 2.45 1 .4 2 .67 2.92 1.15s2.07.67 3.07 1.14c2.17 1 4.44 1.8 6.64 2.74s4.18 1.9 6.27 2.92 4.6 1.87 6.74 3.12a10.22 10.22 0 0 1 2.45 2.5 27.67 27.67 0 0 1 1.84 3.16 11.83 11.83 0 0 0 1.95 2.75 13.42 13.42 0 0 0 2.67 1.73 6.23 6.23 0 0 0 4.68.66c.24 0 .47 0 .7-.07a8.83 8.83 0 0 0 1.92.86 20.82 20.82 0 0 1 4.48 2.47 43.08 43.08 0 0 0 3.44 2.6c1.53.85 3 .64 4.7.74s3.42.35 5.13.48c1.93.15 3.87 0 5.8 0 3.6 0 7.17.63 10.77.78s7.28.47 10.93.62 7.26.24 10.84.65a73.45 73.45 0 0 0 10.8.05c3.67-.12 7.34.16 11 .05s7.33-.4 11-.33c1.6 0 3.15-.22 4.75-.27s3.46-.12 5.17-.3c.7-.07 1.38-.32 2.08-.43a15.71 15.71 0 0 1 1.68-.05c1.65-.12 2.6-1.26 3.45-2.55 1.88-2.8 3.57-5.62 5.28-8.52s3.68-5.4 5.08-8.33c1.53-3.2 3.3-6.3 4.95-9.42.73-1.38 1.25-2.86 1.9-4.26.77-1.63 1.82-3.1 2.7-4.67 1.68-3 4-5.87 4.85-9.22a9.7 9.7 0 0 0 .26-2.4 7.22 7.22 0 0 1 0-1.23c.1-.52.38-1 .5-1.52a6.74 6.74 0 0 0-1.16-4.53c-.75-1.38-1.2-2.87-2.52-3.85a12.24 12.24 0 0 0-4.63-1.9c-1.85-.44-3.68-.95-5.55-1.34a26.29 26.29 0 0 0-2.65-.49 5.08 5.08 0 0 1-2.73-.67c-1.52-1-1.7-2.33-1.08-4a11.22 11.22 0 0 1 1-2.13 2.44 2.44 0 0 1 .54-.57c.1-.07.87-.54.72-.55a1.33 1.33 0 0 0 1.24-.68 37.65 37.65 0 0 1 3.79.69l5.38 1.14 4.88 1.2a9.78 9.78 0 0 1 2 .71c.3.14.54.3.85.42a3.12 3.12 0 0 0 .36.14s0 .08.3.28a29.23 29.23 0 0 1 3.07 2.82 18.26 18.26 0 0 1 3.1 3.53c.83 1.38 1.88 2.65 2.63 4.08a15.37 15.37 0 0 1 1.37 4.6 7.19 7.19 0 0 1-.57 4.19 18.63 18.63 0 0 0-.7 1.8 12 12 0 0 1-1.36 2.42c-.78 1.35-1.36 2.8-2 4.22-.76 1.6-1.65 3.13-2.37 4.74l-2.07 4.5c-.73 1.5-1.84 3.1-2.74 4.67-1.63 2.86-3.64 5.47-5.22 8.36l-2.45 4.3c-.85 1.42-1.9 2.93-2.8 4.42-.76 1.27-1.33 2.64-2 3.95a115.81 115.81 0 0 1-2.78 5l-4.76 8.47a19.49 19.49 0 0 1-2.37 3.58c-.58.62-1.15 1.26-1.76 1.85a11.32 11.32 0 0 1-2.13 1.36 9.08 9.08 0 0 1-1.73.88 1.58 1.58 0 0 0-2.23.37zm1.64 42.3c0-.17 0-.35.05-.46a12.78 12.78 0 0 0 .07-2.05 33.72 33.72 0 0 1 .35-3.87c.14-1.35.13-2.6.14-4s.26-2.9.25-4.4.28-2.9.3-4.38-.06-2.82 0-4.23.27-3 .27-4.5v-4.52c0-2.5-.16-5-.22-7.5l.74-.25a16 16 0 0 0 7.29-5.71 33.6 33.6 0 0 0 2.46-4.07c.87-1.57 1.8-3.13 2.6-4.73 1.6-3.2 3.6-6.16 5.17-9.38s3.7-6 5.4-9.08c3-5.46 6.8-10.5 9.56-16.1a13.5 13.5 0 0 1 0 2c-.05 1.37.05 2.74 0 4.1 0 1.2-.3 2.35-.33 3.56 0 1.37-.13 2.72-.26 4.08l-.54 6.75c-.24 2.7-.45 5.38-.45 8.1 0 1.3.1 2.63 0 3.92 0 .5-.17 1-.22 1.45-.1.68 0 1.35 0 2s-.24 1.06-.28 1.6 0 1 0 1.56c-.1 1.3-.34 2.6-.42 3.9-.15 2.6-.37 5.27-.33 7.88s-.3 5.44-.45 8.17.07 5.4-.06 8.08c-.05 1.2-.1 2.5-.24 3.7-.12.92-1.17 1.5-1.83 2.08a27.88 27.88 0 0 1-6 4.35 46.88 46.88 0 0 0-6.6 3.61c-1 .74-2 1.48-3.08 2.14s-2.38 1.16-3.5 1.85a68.89 68.89 0 0 1-6.53 3.45 8.58 8.58 0 0 1-2.12.78c-.28.13-.83.08-1.18.1zm62.5 3.15c-.38.78-2.62.64-3.32.7a48.11 48.11 0 0 1-5.37.07c-1.56-.07-3.1-.27-4.67-.34-1.85-.1-3.7 0-5.54 0-3.47.08-7 .14-10.42 0s-7-.13-10.58 0l-11.64.18-5.87.15c-.9 0-1.84.08-2.75 0-.7 0-.92-.37-.95-.93a12.17 12.17 0 0 0 3-1 23.45 23.45 0 0 1 7.24-.49c2.38.07 4.78.08 7.16 0s4.95.35 7.45.34l7.4-.06a45.65 45.65 0 0 0 7-.11 19.23 19.23 0 0 1 3.38-.47c1.1 0 2.2.07 3.3.07h7.37c2.3 0 4.77-.27 7 .2a1.53 1.53 0 0 0 .71 0 4.76 4.76 0 0 1 .09 1.7z" class="M"/><g class="L"><path d="M516.37 398.52a56 56 0 0 0-4-6.72l-4.32-6.6-3.8-6.57-3.58-6.88-3.68-6.67c-.56-.95-1.3-1.76-1.87-2.7l-1.7-3.12-3.63-6.6a56.73 56.73 0 0 0-3.53-6.56l-1.85-3-2.1-3.35c-2.28-4.36-4.9-8.5-7.1-12.92-1.08-2.2-2.4-4.27-3.4-6.5s-1.9-4.37-3-6.45c-.9-1.64-1.7-3.33-2.57-5 4.82.33 11.52-1 15-3.75 4.75-3.78 6.7-11.34 6.57-17.12a48.28 48.28 0 0 0-5-19.31l-.4-.83a1.8 1.8 0 0 0 .22-.44c.86-2.36 2.74-2.62 2.44-5.4-.46-4.15-3.2-7.15-5.75-10.2s-.07-1.65-.5-4.67c-.27-1.9-3.47-4.07-4.64-5.4-2-2.25-4.68-6.2-7.64-7.2-2.7-.88-6 1-8.3 2.26-6.4 3.36-13.08 9.3-16.6 15.66a1.41 1.41 0 0 0 .25 1.76 3.18 3.18 0 0 0 .89 2.74c1.22 1.4 2.83 2.43 4.13 3.76a45.47 45.47 0 0 0 3.68 3.11l.43.4c-.17.1-.33.2-.5.3a8.62 8.62 0 0 0-2 1.52c-.17.2-.32.4-.47.6-.45-.27-1-.5-1.3-.64a13.19 13.19 0 0 0-2.44-1.28c-.4-.12-.85-.13-1.23-.28 0-.16-.08-.3-.13-.45-.3-.93-.58-1.86-.92-2.77-.7-1.85-1.2-3.73-1.74-5.63a20 20 0 0 0-1.75-3.79l-.23-.3c.44-.76 1.1-1.43 1.53-2.2a12.23 12.23 0 0 0 .95-2.64 8.41 8.41 0 0 0 0-4.05c.12 0 .26-.07.38-.12a2.46 2.46 0 0 0 1.66-1.52 6.9 6.9 0 0 0 .08-2c0-2.48-.32-6.83-3.52-7.17a19 19 0 0 1-2.12-.22 14 14 0 0 0-2.42-.35c-1.58 0-3.2.26-4.77.36s-3.16 1.08-2.86 2.88a3.47 3.47 0 0 1 .1.62 3.73 3.73 0 0 1-.21.7c0 .08 0 .17-.05.25l-.55.08c-.55.07-1.1 0-1.64.14a1.44 1.44 0 0 0-1 1v.14a1.53 1.53 0 0 0 1 1.84 1.66 1.66 0 0 0 1.15-.14h.45c.28 0 .57-.1.86-.14.57-.05 1.1 0 1.68-.08a1.5 1.5 0 0 0 1.05-1.84c-.14-.35 0-.6.1-.94a4.14 4.14 0 0 0 .16-1.48 9.69 9.69 0 0 0 1.16-.17 24.29 24.29 0 0 1 3.4-.24c1.07 0 2.1.4 3.18.5a9.11 9.11 0 0 1 1.08 0c.1.06.2.37.26.57a9.32 9.32 0 0 1 .54 2.76v1.66a5.82 5.82 0 0 1-.6.14 1.68 1.68 0 0 0-1.3.16h-1.35a1.5 1.5 0 0 0 0 3h1.15a7.1 7.1 0 0 1-.57 4.71c-.8 1.6-2.88 3.08-1.68 5a21.33 21.33 0 0 1 1.51 2.63 25 25 0 0 1 .8 2.72c.62 2.1 1.33 4.16 2 6.23a5.06 5.06 0 0 0 1.06 2.24c.73.68 1.68.66 2.56 1a13.19 13.19 0 0 1 2.62 1.45c.68.48 1.12 1.17 2.08 1.13a2.39 2.39 0 0 0 1.84-1.18 5.21 5.21 0 0 1 1.68-1.72c.6-.36 1.22-.7 1.8-1.08 1.42.46 3.17-.33 4.52-.63 2.9-.64 5.9-.2 8.82 0 1.26.1 2.53.08 3.8.08v.3h.45c.8 6.8-.07 13.6.24 20.45.3 6.36 1.13 12.66.57 19a23.75 23.75 0 0 1-5.29.45 1.71 1.71 0 0 0-2-.27l-.15-.07c-.28-.57-.54-1.15-.84-1.72-.58-1.14-1.28-2.22-1.85-3.37s-1.13-2.6-1.7-3.9-1.37-2.5-2-3.76c-1.24-2.38-2.34-4.83-3.57-7.2-.6-1.16-1.32-2.27-1.9-3.45s-1.2-2.67-1.86-4a19.94 19.94 0 0 0-1.58-3.05 7.93 7.93 0 0 0-1.17-1.35 13.62 13.62 0 0 1-1.3-1 1.33 1.33 0 0 0-1-.45 2.25 2.25 0 0 0-.52-.24 2.59 2.59 0 0 0-1.46 0c-.92.22-1.85.4-2.74.68a23.89 23.89 0 0 0-5.34 2.31c-2.27 1.43-6.15 4.3-5.5 7.33a1.52 1.52 0 0 0 .18.66c5.6 11.16 11.7 22.1 17 33.38 4.63 9.93 8.36 20.2 14.14 29.53 3.44 5.55 6 11.75 8.83 17.6l10.3 20.42c3.2 6.2 6.7 12.27 10.06 18.37 2.48 4.5 6.4 15 13 11 .93-.56 2-.9 2.92-1.36s1.9-1.07 2.87-1.53a19.2 19.2 0 0 0 5.25-3.57 7.8 7.8 0 0 0 1.65-8.27zm-35.24-126.36a55.74 55.74 0 0 1 3.48 13.69c.6 4.52-.24 11.06-3.4 15.08 0-2 .1-4.07.2-6.1.16-3.5-1-6.87-1-10.38-.1-4 .7-8.2.7-12.28zm-3.68-5.26c1.8 6-.3 12.87.1 19 .2 3.3.95 6.48.75 9.75-.16 2.6-.13 5.25-.12 7.86a17.27 17.27 0 0 1-3.18 1.21c.44-6.12-.36-12.2-.64-18.3-.3-6.83.54-13.63-.24-20.4a8 8 0 0 1 3.33.9zm36.33 136.6a9.09 9.09 0 0 1-1.61 1.61 9.64 9.64 0 0 1-1.72 1.33c-.67.4-1.4.83-2.1 1.18-1.4.7-2.73 1.53-4.18 2.13a15.89 15.89 0 0 0-2.27 1.11c-2.62 1.6-5.25-4.37-6.2-5.9-1.74-2.83-3.17-5.82-4.84-8.68-3.6-6.2-7-12.56-10.23-19-5.9-11.56-11-23.7-17.63-34.84-5.56-9.35-8.76-19.66-13.55-29.34-5.06-10.2-10.7-20.22-15.88-30.44a1.28 1.28 0 0 0-.21-.55c-.3-.45-.37-.4-.16-.8a5.12 5.12 0 0 1 1-1.41 17.66 17.66 0 0 1 3.4-2.63 22.64 22.64 0 0 1 3.83-1.61 16.83 16.83 0 0 1 2.11-.57c.07 0 .67-.13.9-.2a3.5 3.5 0 0 0 .42.24l.23.07a7.43 7.43 0 0 1 1.49 1.26 15.77 15.77 0 0 1 1.43 2.82c1.1 2.17 2 4.4 3.2 6.54s2.17 4.1 3.25 6.15c.5 1 .84 2 1.4 2.9a28.72 28.72 0 0 1 1.79 3.38c1.07 2.44 2.27 4.8 3.5 7.16a1.33 1.33 0 0 0-.3.87 1.51 1.51 0 0 0 1.5 1.5h.05l1.7 3.24c1.14 2.23 2.45 4.4 3.4 6.7.84 2 1.8 3.93 2.76 5.87 1.06 2.17 2.24 4.27 3.3 6.44s2.52 4.2 3.7 6.34c1.12 2 2 4.18 3.3 6.05s2.63 4.18 3.87 6.28 2.08 4.13 3.2 6.16l3.6 6.48c.5.9.9 1.8 1.45 2.67s1.4 1.87 2 2.9l3.6 6.5c1.36 2.38 2.44 4.9 3.8 7.28s2.76 4.82 4.22 7.17 3.18 4.74 4.7 7.18c.7 1.17 1.46 2.33 2.13 3.52.53 1.02 1.4 3.68.67 4.9z" class="M"/><path d="M471.48 250.15c-.72.62-2.17.7-3 1.2-1.47.85-2.93 1.92-4.3 2.9-2.3 1.65-4.64 3.2-6.17 5.64-1 1.64 1.57 3.15 2.6 1.5 1.52-2.43 4.68-4.35 7.06-5.87a22 22 0 0 1 3.18-2 8.56 8.56 0 0 0 2.79-1.29c1.44-1.24-.68-3.35-2.14-2.1z" class="P"/><path d="M431.55 296a37.81 37.81 0 0 0-15.4-22.77 52.75 52.75 0 0 0-8.62-4.94c-4.82-2.08-11.5-1.78-16.7-1.8-5.9 0-11.7-.46-17.6-.1-6.77.43-13.52 1.28-20.27 2-12.87 1.32-26.72 2.9-37.92 10-4.2 2.63-7.37 7-10.18 11-3.63 5.2-13.7 16.14-6.6 22.35 3 2.6 8.17 1.85 11.73 1.57l36.7-3.1c12.7-1.2 25.34-1.13 38-1.9 11.9-.72 24.07 1 36 1.37 4 .12 6.13-.1 8.73-3.3s3-6.47 2.12-10.4z" fill="#fb0"/></g><path d="M331.1 225.44a28.16 28.16 0 0 0-3.6-8.53c-1.7-2.6-4.16-4.45-6-6.9l-2.17-2.6a8.11 8.11 0 0 0-2.24-2.28 3.41 3.41 0 0 0-3.41 0 9.61 9.61 0 0 1-1.68 1.08 7.84 7.84 0 0 1-2.27.17c-1.67.05-2.84-.6-4.4-1a4.9 4.9 0 0 0-2.89 0 2 2 0 0 0-.42 0c-1.27.23-1.92 1.66-2.53 2.66-.84 1.36-2 2.5-2.77 3.9l-4.56 8.26a14.19 14.19 0 0 0-.8 9.2 32.73 32.73 0 0 0 .95 4.81l2 4.84a45.66 45.66 0 0 1 1.5 4.69l1.2 5.7 2.1 10.75a21.06 21.06 0 0 1 .51 4.47c0 1.5 1.47 2.3 2.26 3.4a18.91 18.91 0 0 0 2.59 3.31 7 7 0 0 0 3.87 1.57 10.91 10.91 0 0 0 5.19-1.12 18.66 18.66 0 0 0 4.79-2.74c1.22-.95 2.8-2.12 3.2-3.7a11.15 11.15 0 0 0 0-2.77v-2.06a8.67 8.67 0 0 0 1.68-2.3 23.85 23.85 0 0 0 1.87-4.67c1-3.13 2.45-6.12 3.47-9.24l1.27-4.38a33.75 33.75 0 0 0 1.33-5.07 20.8 20.8 0 0 0-.03-9.44zm-2.9 8.66c-.55 2.78-1.52 5.4-2.2 8.15a32.36 32.36 0 0 1-1.35 3.84l-1.6 4.4s-1 3-1.6 4.46a12.34 12.34 0 0 1-1.53 3 1.46 1.46 0 0 0-1.31.86 13.23 13.23 0 0 1-3.7.36c-1 0-2.67 0-3.5.65a1.52 1.52 0 0 0 .36 2.74l.17.06a1.19 1.19 0 0 0 1.44-.35c.3 0 .64 0 .86-.06.8-.08 1.6 0 2.4-.1a15.57 15.57 0 0 0 1.83-.27v2.05a1.49 1.49 0 0 1-.52 1.48 14.18 14.18 0 0 1-1.71 1.48 15.51 15.51 0 0 1-3.61 2.09c-1.27.52-2.82 1.23-4.2 1-2.8-.4-3.5-3.1-5.2-4.95a3 3 0 0 0-.52-.48l-.14-.1a3.83 3.83 0 0 0-.05-1.51 39.15 39.15 0 0 0-.86-4.57c-1.4-6.07-1.8-12.55-4-18.4-.5-1.36-.94-2.73-1.52-4.07a20.78 20.78 0 0 1-1.52-4.12c-.27-1.34-.44-2.72-.67-4.08a10.31 10.31 0 0 1 .15-4.14c.74-2.95 2.58-5.53 4.05-8.16a27.31 27.31 0 0 1 2.47-3.87 19.88 19.88 0 0 0 1.36-1.94l.4-.63c.1-.1.17-.23.25-.35a1.84 1.84 0 0 0 .25-.17c.86-.7 2.26.08 3.14.4a9.17 9.17 0 0 0 3.63.58 9.86 9.86 0 0 0 3.55-.46c.62-.25 1.64-1.37 2.26-1.24s1.14 1.15 1.46 1.57c.7.9 1.48 1.7 2.17 2.6 1.64 2.17 3.84 3.8 5.4 6a25.21 25.21 0 0 1 3.36 7.32 17.47 17.47 0 0 1 .36 8.91zm-10 13.57a2 2 0 0 0-.77.07l-.24.08-.3.13h.08-.1a.75.75 0 0 1-.15 0h-.56a8.41 8.41 0 0 0-2.69.23h-.9c-.35 0-.7-.05-1.06-.08a7.48 7.48 0 0 0-2.58.15 1.47 1.47 0 0 0-1.05 1v.2a1.53 1.53 0 0 0 1.05 1.85 1.68 1.68 0 0 0 1.35-.29h.37c.35 0 .7 0 1.06.07a7.53 7.53 0 0 0 2.46-.07c.18 0 .36-.1.54-.15h1.64a4.24 4.24 0 0 0 1.23-.05 3.77 3.77 0 0 0 .59-.22h.1a1.51 1.51 0 0 0 1.5-1.5 1.55 1.55 0 0 0-1.54-1.43zm-.77-8.27c-.05-.13-.12-.25-.18-.38l-.08-.2a6 6 0 0 1-.28-1c-.16-.78-.22-1.58-.35-2.36s-.43-1.62-.54-2.46a16.22 16.22 0 0 1-.12-2.41 1.5 1.5 0 0 0-3 0 19.83 19.83 0 0 0 .61 4.85 31.53 31.53 0 0 0 .87 4.45l.2.42h-.32c-.6 0-1.36.3-1.74.28a2.53 2.53 0 0 0-2.23.67 1.51 1.51 0 0 0 1.91 2.3h.4a5.07 5.07 0 0 0 1.22-.18c.63-.15 1.3-.1 2-.2a2.31 2.31 0 0 0 2-1.49 3.21 3.21 0 0 0-.35-2.28z" class="M"/><g class="L"><path d="M125.77 336.23c-2.87-.78-3.8.62-4.13 2.55-.88 1.46-.5 4-.23 6l.13 4.28a4 4 0 0 0 1.42 3 1.52 1.52 0 0 0 1.37 1.15c3.4.3 3.28-5.3 3.5-7.5.24-2.48 1.4-8.54-2.05-9.48z" fill="#fb0"/><path d="M133.27 337.22a1.29 1.29 0 0 0-1.18-1.07 1.55 1.55 0 0 0-2.74-.18 1.35 1.35 0 0 0-.2 1.71 1 1 0 0 1 .11.24 46.61 46.61 0 0 1-.14 9.81c-.25 1.5-1 3.78 1.27 4.08 5.04.66 3.46-12.1 2.88-14.6z" class="M"/></g></svg>