<svg id="Layer_1" data-name="Layer 1" xmlns="http://www.w3.org/2000/svg" viewBox="0 0 206.18 131.04"><defs><style>.cls-1,.cls-2{fill:#e6e7e8}.cls-2{fill-rule:evenodd}</style></defs><path class="cls-1" d="M31.88 95.37c-.72.54-1.13 1.44-1.92 1.92.54 1.41.65 2.82 1.92 3.48.87.45 2.38.08 3.24.6.83-.38 1.43-1.29 2.16-1.8 1.16-.82 3-1.42 3.84-2.52.21-.08.12 0 .24-.12l-8-2.64a6.78 6.78 0 0 1-1.48 1.08zm54.36-61.56c.68.19 2.88.8 3.72.24a3.2 3.2 0 0 1 2.16.48c.07 1.77 1.24 7.09 2.28 7.68s3.21.36 4.8.36l9.24-.12h4c.42.19.63.8 1.2 1 1.6.46 5.56-.12 6.24-.72.24.08.49.41.72.48h2.28a13.56 13.56 0 0 0 4.08 0h8.16c7.77 0 16-.12 24-.12a32.53 32.53 0 0 0 9-.84c.73-.22 1.69.2 2.28-.12a13.22 13.22 0 0 0 1.8-1.92l.48-1.32c0-1.92-.51-1.4-1.08-2.4-.22-.38-.12-.76-.36-1.08l-.72-.48c-.32-.55-.23-1.24-.48-1.8-.33-.71-1.16-1.36-1.44-2s0-1.18-.36-1.68-1.28-.8-1.56-1.44v-1.4a8.61 8.61 0 0 0-1.44-2.4c-.6-.77-1.93-1.16-2.4-2s-.29-2.18-.84-3l-1-.72-.12-.84a32.37 32.37 0 0 0-3.72-3.24c.23 1.09.16 2.27.48 3.48.44 1.7 1.69 4.22 1 6.6a10 10 0 0 1-1.2 2.16 5.22 5.22 0 0 1-.84 1.32c-2.17 1.84-6.43 1.68-10.44 1.68H142a11.7 11.7 0 0 0-2.88-.36c-6.55.07-13.27.84-20 .84-2.72 0-6.16-.42-8.64.12-1.36.3-3.12-.14-4.32.12-1.92.42-4-.14-5.76.24H98c-2.74.61-6.81-.25-9.36.12-.94.14-1.66-.34-2.28.12s-.88.9-.84 2a6.17 6.17 0 0 1 .72.96zM72 24.52a4.3 4.3 0 0 1-1.54-3.44v-.14a1.34 1.34 0 0 1 0-.52 2.79 2.79 0 0 1 .89-2 1.56 1.56 0 0 1-1.51-1.25A1.24 1.24 0 0 1 71 15.69a2.9 2.9 0 0 1 1-.7h.1-.41c-.61-.17-.82-.63-1.56-.72-1.91 1.45-4.47.19-5.28 3.12-.44 1.6.75 2.23 1.08 3v1.44a11.68 11.68 0 0 0 .48 1.8 13.08 13.08 0 0 0 5.76 5.64 4.67 4.67 0 0 0 3 0c1-.42 1.17-1.23 1.8-2v-.48c-1.97.6-3.81-.79-4.97-2.27zM41.72 39.93a30.58 30.58 0 0 0 5 1.56l5.88.24c1.87.41 4.26.29 6 .72a3.06 3.06 0 0 0 2.16-.12c.56-.2.61-.58 1-1a2.14 2.14 0 0 0-.24-1.44c-.37-1-1.4-.67-2.28-1.2-.84 0-.73-.37-1.2-.72.29-.51 2.06-.67 2.76-.72v-.24l-.8-.32a1.88 1.88 0 0 1 0-1.8c.31-.85.88-.39 1.56-.84l.36-.6c.33-.24.68-.21 1-.48s.06-.92.24-1.2c.52-.8 2.9-.57 3.48 0a2.68 2.68 0 0 0 .84-.12 1.78 1.78 0 0 0-.24-1.2c-.2-.56-.58-.61-1-1-.9.18-1.61.81-2.52 1.08l-4.08.6v-.12a7.63 7.63 0 0 1 0-1.2h-1.72c-1.75.3-9.46.57-11.28-.36A4 4 0 0 1 45 27.33a4.11 4.11 0 0 1-.6-2.76c.33-1.49 1-3.09 1.2-4.68-1.63 0-2.74 2.64-3.48 3.72-.98 1.39-2.46 2.69-3.12 4.2-1.43 3.09-1.44 8.28.36 10.92.45.72 1.49.84 2.36 1.2zM23 37.77c1.35-.27 4.77.32 5.64-.24l1.2-1.32c.28-.72-.05-1.3.36-1.8v-.24h.12a1.43 1.43 0 0 1-.24.6v1h.12c.66-1.56.6-2.67 2.64-2.88a1.21 1.21 0 0 0-1.08 0c-.87.08-.89.49-1.32 1v.24h-.12c.11-.4.44-1.09.12-1.56v-2.24c-1.55 1-9.37 1.65-11.88.84A7.43 7.43 0 0 1 16.64 30a20.52 20.52 0 0 0-.24-2 14.43 14.43 0 0 0-1.92 3.12c-1 2.88.24 5.69 2 6.6 1.02.43 5.27.28 6.52.05zm51.16-22.12a2.51 2.51 0 0 1 1.35.69l.12.13.08-.06a2.74 2.74 0 0 1 .08-1.21 2.4 2.4 0 0 1 .11-.2h-3.07a3.91 3.91 0 0 1 1.33.65zm88.28 51.88c-.43.27-1.22 0-1.8.12s-1 .7-1.56 1.08l.12.12c1 .72 2.75.49 3.72 1.2h.08a1.48 1.48 0 0 1 .24-.6 2.65 2.65 0 0 0-.48-1.92z"/><path class="cls-1" d="M193.16 32.37c-.13-.56-.34-1.27-.48-1.8l-3.6.84h-2.16a30.4 30.4 0 0 1-5.52-.12c-1.09-.23-2 0-2.64-.6-.83-.32-.57-1.52-1.32-1.92a12.12 12.12 0 0 0-.36 5.28H177c-.18-.65-.5-.76-.84-1.2-.28 0-.34 0-.48-.12a3.19 3.19 0 0 0-1.92.36 2.11 2.11 0 0 0 .24 1.2c-.5-.35-.71-1-1.2-1.32v-.24h-.12a6.52 6.52 0 0 0 .84 1.8c.92 2.16 2 4.18 2.76 6.36 1.17 3.34-1.93 8.35-3.12 10a12.53 12.53 0 0 1-3.88 3.11l-1.2.24c-.38.19-.78.66-1.2.84-1.21.53-2.52.53-3.84 1-3.83 1.24-8.46 1.63-12.72 2.64l-4.44.48c-2.6.6-5.6.6-8.28 1.2-1.34.3-2.73.09-4 .36H128c-1.82.4-4 .19-5.88.6h-2.4c-1.78.39-3.92-.18-5.88.24a23 23 0 0 1-4.2.12l-9.72-.12c-13.21 0-28.4 1.16-39.72-1.44L58 60c-2.26-.5-4.49-.54-6.84-1.08l-4.92-1-2.88-.24c-5.33-1.37-9.75-3.59-13.08-7-1.55-1.56-2.05-3.14-2-6.36a4.76 4.76 0 0 1 .36-2.4v-.24h-.12c-.68 1.28-1.77 2.4-2.52 3.6-1.19 1.88-2.26 3.87-3.36 5.76-1.58 2.71-2.13 6.19-3 9.6L18.92 66v4.44c-.41 1.84.18 4.19-.24 6.12-.57 2.6-.24 6.14-.24 9.12s-.24 6.08-.24 9.32v3.72a46.58 46.58 0 0 0 1.32 4.56c.73 2 1.07 4.39 2.64 5.52a22.6 22.6 0 0 0 7.44 3.24l2.88.24 4.08.84c2.06.46 4.1.16 6.12.6h10a24.54 24.54 0 0 0 3.6.12c2 .07 4 0 6.48 0h3a26 26 0 0 0 4.8.12h9.72c9.67 0 19.8-.24 30-.24 7.31 0 14.08.24 21.48.24 2.89 0 7.41.43 10-.12h3c2.47 0 4.46.07 6.48 0a24.54 24.54 0 0 0 3.6-.12h10c2-.44 4.05-.14 6.12-.6l4.08-.84 2.88-.24a22.6 22.6 0 0 0 7.44-3.24c1.36-1 1.81-3 2.4-4.8.53-1.6 1.11-3.45 1.56-5.28v-3.6c0-3-.15-5.87-.24-8.64-.37-10.9.28-22.57-2.4-31.2a29.37 29.37 0 0 0-1.32-2.76 57.33 57.33 0 0 0-6.72-11c-.94-1.28-1.65-3-2.76-4.08v-.12l.36.36a2.11 2.11 0 0 0 1.2-.24c0-.93.18-2.46-.24-3v-.24h.12l.36 1.08a5.28 5.28 0 0 0 .24 2.28c3 .06 6 .36 9.12.36 1.28 0 3.05.22 4-.24a4.67 4.67 0 0 0 2.12-5.31zM174.92 36a2.23 2.23 0 0 1 .6.84 2.15 2.15 0 0 1-.6-.84zm-73.44 27a17.29 17.29 0 0 0 2-.48c1.91 0 2.08.45 2.88 1.44 0 .42 0 .51-.24.72-.77 2-4.2.55-5.16-.12a2.21 2.21 0 0 1 .52-1.56zm-52.92 38.61l-.12.12c-.24-.6-.46-1.81-1-2.16-1.13-.79-2.7-.91-3.72-1.8-1.87.13-4.2 2.45-5.52 3.36-.49.34-1.07.26-1.44.48h-.12v.12c3 .16 6.25.82 9.6.84a9 9 0 0 1-3.84.12c-3.15-.68-9.47-.08-11.52-1.56a4.29 4.29 0 0 1-1.32-2c-.31-1.15.32-1.4-.48-2.16.22-1.34 1.94-2.16 2.76-3l.12-.12-1.44-.48h-.12a2.32 2.32 0 0 1 1.44-1.56c.1-.08.38-.16.48-.24 2.5 0 3.68 1.36 5.52 2 3.34 1.23 6.85 1.89 9.36 3.72.95.7 1 2 1.8 2.88a2.28 2.28 0 0 1-.44 1.44zm11.28-20.76c-1.07 2.9-7.65.58-9.36 0-.74-.25-1.37-.79-2-1.08-1.13-.49-2.12-.71-3.24-1.2-1.88-.81-3.77-2.06-5.64-2.88l-.24-.11c.78.34 1.61.64 2 .83 3.51 1.55 7.15 3.27 11 4.56.9.3 4.46 1.26 5.28.6l.24-.12v-.36a2.6 2.6 0 0 0 1.2-.12h.24c.06-.33.14-.35 0-.6-.26-.59-1.49-.67-2-1-1.35-.7-3-1.41-4.44-2a9 9 0 0 1-2.52-1.08c-.1-.12 0 0-.12-.24a7.08 7.08 0 0 0 3.12-3.84c.21-.59 0-1.41.36-1.92 0-.25 0-.23-.12-.36-.76-.33-2.59.52-3.6.6a6.34 6.34 0 0 1-.6 1.32c-.9 1.25-4.18 2.2-5.28.48-2.4.24-4.25 1.69-6.48 2.16a3.15 3.15 0 0 0 1.36.94c-1.1-.52-2.12-1.09-3.16-1.54l-1.56-.48c-.11-.11 0-.38-.12-.48-1.13-1-2.65-1.22-4-2A30.65 30.65 0 0 0 27.32 69c-.06-.09-.49.14-.6.12-.57-.27-.3-1.29-.6-1.8a10 10 0 0 1-1.32-2.52c-.43-1.57.73-5.51 1.08-6.6a3.15 3.15 0 0 1 .72 1h2.88c.55.18 1 .67 1.68.84-.29.51-1.09.62-1.56 1a4.81 4.81 0 0 0-1.6 2.77 2.83 2.83 0 0 0 0 1.68v.6a14.18 14.18 0 0 0-2.28-1.32c-.19.22-.24.15-.36.48-.27.63.56.55.72 1l-.12.84c.07.2.36.41.48.6.83-.28 1.35-1 2-1.44a11 11 0 0 0 1.8-1c.6-1-.11-2.09 1.08-2.52a2.91 2.91 0 0 1 3.24.48 3.81 3.81 0 0 0 2-.72c.1-.12 0 0 .12-.24-.31-.3-.48-.7-.84-1v-.12c.88.06 2.49.74 3.12.6a31.77 31.77 0 0 1 3.48-1.08c-.27-.49-.9-.48-1.44-.72-1.16-.51-2.25-1.53-3.72-1.68 1-.56 4.33 1.13 5.16 1.44 1.93.73 3.63 1.42 5.4 2.16.31.13.63.24.95.34h.24a11.36 11.36 0 0 1 2.77 1c1.66 1 3.15 2.76 4.56 3.6.87.74.44 2.24.84 3.24 1 2.44 1.72 5.2 2.64 7.68a3.88 3.88 0 0 1 0 3.14zM138 106.17c-4.59 2.32-9.63 2.76-16.68 2.76l-12.72.12c-2.45-.53-5.31 0-8-.24a76.92 76.92 0 0 0-8.4-.24c-4.16.09-9.09 1-13.08.12l-2.64-.12a31.68 31.68 0 0 1-7.56-2.52 9.38 9.38 0 0 1-2.76-2.28c-.28-.39-.32-.93-.6-1.32 0-2.29 1.58-2.55 3.36-3.12a24.32 24.32 0 0 1 9-.36h10.6l4.2-.12a5.35 5.35 0 0 0 2-.12 24.64 24.64 0 0 0 4.08.12h7.44c6.78 0 14 .12 21 .12 4.22 0 9.65-.69 12.84.72.93.41 1.15 1.24 1.8 1.92.03 2.64-2.14 3.66-3.88 4.56zm7-34.8a16.22 16.22 0 0 1-2.16 4.44l-.84 1.92a9.48 9.48 0 0 1-5.76 4.56c-2.68.82-6.84.22-9.72.12-2.5-.08-5.53.44-7.8-.12s-3.89-2-6-2.64c-1.66-.54-3.62.07-5.52-.36-1.66-.37-3.77.18-5.64-.24a14 14 0 0 0-4.68-.12 24.1 24.1 0 0 0-2.88.36c-1.81.68-2.82 2.28-4.8 2.88s-4.7.24-7 .24c-3.67 0-8.86.87-11.88-.36-4-1.64-5-4.28-6.84-8-.57-1.16-1.72-2.77-1-4.56a4.86 4.86 0 0 1 2.64-2.4c.57-.22 1.31-.07 1.8-.36 3 0 6.48-.22 9.12.36 1.39.31 2.9-.13 4.08.36a33.5 33.5 0 0 1 4.44 1.8 18.09 18.09 0 0 0 5.76 2.64l3.24-.12c2.5 0 5.42.22 7.56-.24a13.38 13.38 0 0 1 4.44.12h2.88c2.36.53 7.94.55 10.08-.12a14 14 0 0 0 3-1.68 23.09 23.09 0 0 1 6.6-2.64l3-.12c.59-.13 1.66 0 2.4-.12 3.34-.75 8.81-.52 10.32 1.44a3.39 3.39 0 0 1 1.16 2.96zm3.72 10.56c-.21-.08-.12 0-.24-.12.84-.32 1.22.32 2.28 0 .87-.26 2-.4 3-.72a67.65 67.65 0 0 0 10.56-4.44c1.29-.67 3-1.09 4.08-2 .21-.08.12 0 .24-.12l-5.28-1.92c-.45 0-.82.49-1.2.6a3.9 3.9 0 0 1-4.56-2.28 21.25 21.25 0 0 1-4.68-1l-.12.12a7.36 7.36 0 0 0 3.48 6.36c-.69.67-1.92.8-2.88 1.2-1.65.68-3.23 2-5.16 2.16a4.61 4.61 0 0 0-.48 1.32l-.12-.12c-.43-.39-.54-2.17-.24-3 .78-2.21 1.38-4.51 2.16-6.84a8.06 8.06 0 0 0 .6-1.68h-.36c0-.91.38-1.35.48-2.16 1.58-.57 1.63-1.44 2.76-2.28a13.17 13.17 0 0 1 4.8-2.64v.12c-1.73.49-5.48 3.21-6.24 4.68l-.12.12 6 1.2a4.3 4.3 0 0 1 1.2-1.68c1.57-1.14 5.19-1.68 5.88.6a3.77 3.77 0 0 1-.12 3c.39.31.92.27 1.44.48 1.54.63 3.27 1.3 4.8 1.92.55.23 1.22.18 1.68.48l.36.12c-.28.54-1 .47-1.56.72-1.09.47-2.18 1-3.36 1.56-1.88.83-3.77 2.06-5.64 2.88-2.44 1.07-4.8 2-7.2 3-.77.35-5.17 1.18-6.2.36zm29 17.16c-.15.53-.55 1-.72 1.44-.28-.12-.26-.21-.48-.36a8.63 8.63 0 0 0 .84-2.64c-.38 0-.63 0-.84-.24-.53-.49-.86-1.24-1.44-1.68a8.52 8.52 0 0 1-1.8-1.32c-3 .22-5.31 2.15-8.16 2.52.4.56 1.08.71 1.68 1.08 1.1.69 4.55 2.79 4.92 4l3.48-.24c-.57.39-1.45 0-2.28.24-.39.09-1.13.38-1.44.48-.48.16-.8-.19-1-.24l-1 .12c.1-.08.38-.16.48-.24s.12 0 .24-.12c-.4-.13-.53.06-1-.12s-.9-.78-1.32-1.08c-.88-.63-1.87-1.24-2.76-1.8a12.71 12.71 0 0 1-1.92-1.08 9.9 9.9 0 0 0-3.48 1.68c-.51.72-.37 1.75-1.2 2.16l.12.36c2.85.59 6.75-.32 9.84-.36v.35a1.14 1.14 0 0 0 .72.24c-.71.46-2.07 0-3 .24-2.19.48-7.41.51-8.4-1a3 3 0 0 1-.24-2c2.5-2.64 5.65-4.17 9.36-5.64l2.64-.36c1.93-.7 3.17-2 5.76-1.8a10.18 10.18 0 0 0 1.2 1.08c-.22.56-1.53.85-2.16 1 1.42 1.49 4.36 2 3.44 5.33zm1.2-42.6a3.76 3.76 0 0 1 3 2.76l.24 2.4a6.47 6.47 0 0 1 .36 3.12c-.44 1.67-1.87 2.52-1.92 4.44l-.36.12c-.18.15-.86-.34-1.56-.36v-.12a2.13 2.13 0 0 0 .6-.36l.12-.12h-.12a6.47 6.47 0 0 0-2.64-1.68c-.37-.08-.82.46-1.32.6a2.89 2.89 0 0 1-3.48-2.88 9.13 9.13 0 0 1-2.84-1.08h-.24a5.51 5.51 0 0 0 4.2 5.4c-.22.44-3.58 1.73-4.32 1.8.1-4.27-1.08-4.94-3.24-7.2l-.12-.12a2.78 2.78 0 0 0 1.2-.6h.12a20 20 0 0 0-4.44-1.32 12.5 12.5 0 0 0-2.52 1c-.28 0-.34 0-.48-.12h-.12c.41-.74 1.93-.85 2.76-1.2 1.81-.77 5.13-2.55 7.32-2.64-1.39 1.15-3.59 1.3-5 2.4H164a18.58 18.58 0 0 0 4.2 1.2 4.61 4.61 0 0 0 1.08-.6h.12a1.53 1.53 0 0 1-.4.67v.36a8.56 8.56 0 0 1 2.88 1.08c1-.3 2.6-2.44 4.32-1.08a2.28 2.28 0 0 1 .84 2.88c.11.87 2.47 1.88 3.12 2.52a1.72 1.72 0 0 0 1.32-1.32l-.08-.44c.22-.41.68-.32.84-1-.22-.19-.15-.24-.48-.36s-1.8.84-2.16 1.2h-.12c.18-3-.55-5.26-3-5.88v-.24a6.31 6.31 0 0 0 1.56-.84 6.94 6.94 0 0 0 3.24-.36c-.25-1.36-3.22-2.2-5-2.16.54-.36 2.12-.02 2.72.13z"/><path class="cls-1" d="M44.6 61.29c-1.13-.3-3.45.84-4.44 1.08.42.53 1.3.63 1.8 1.08.21.08.12 0 .24.12-2.33 1.16-3.51 3.91-3.36 7.2a13.21 13.21 0 0 1-4.08-1.56h-.24c.26-.44.83-.51 1.2-.84 1.29-1.13 1.75-2.61 1.56-4.92a3.78 3.78 0 0 0-1.8.72c-.11.16.16 1 0 1.44-.42 1.27-2.06 1.82-3.6 1.68a4.3 4.3 0 0 0-1.32-1.08l-3 1.92c.26.72 1 .71 1.56 1.08a38.63 38.63 0 0 0 4.44 2.28A9.08 9.08 0 0 1 36 72.57c2.44-.42 4.43-2.11 7-2.4v-2.4l1-1.08c.36-.26.85-.33 1.2-.6a6.3 6.3 0 0 1 4.44 2c.49.21 5-.95 6.12-1.08-1.21-1.93-3.45-2.75-5.4-4a11.76 11.76 0 0 0-1.09-.79l-.24-.07c-.5-.07-.53.37-1.07.26-1.16-.13-2.34-.85-3.36-1.12z"/><path class="cls-1" d="M48.2 68.37l-1.08-.6c-.81-.23-1.71 0-2.28-.24l-.72.6a8.12 8.12 0 0 0 0 1.56l4.08-1.08zm-2.77 3.2l.78.36c.57.12 1.18-.09 1.59 0l.47-.45a5.05 5.05 0 0 0-.08-1.08l-2.77 1zM31.89 66l.61.28c.44.09.92-.07 1.24 0l.37-.36a5 5 0 0 0-.06-.84l-2.17.75zm1.62-2.38l-.6-.29c-.45-.1-.93.05-1.25-.06l-.37.35a4.16 4.16 0 0 0 .05.85l2.18-.72z"/><path class="cls-2" d="M64.16 32.49h.24l-.12.12v.12c-.1-.12-.04-.03-.12-.24zM174 34.41l.24.24zm.92 1.44a1.09 1.09 0 0 1-.36-.48 1.17 1.17 0 0 1 .36.48zm.84 1.32l-.24-.24zM174 65.37h.24v.12c-.24-.07-.16-.02-.24-.12z"/><path class="cls-2" d="M174.2 65.49h.24v.12c-.21-.08-.12-.02-.24-.12zm.24.12c.25 0 .23 0 .36.12-.25-.04-.23-.03-.36-.12z"/><path class="cls-1" d="M161.83 71.63l-.8.22c-.58.06-1.18-.08-1.59 0l-.44-.31a2 2 0 0 1 .14-.7l2.71.68zM175.55 66l-.62.26c-.45.07-.92-.12-1.25 0l-.35-.37a4.31 4.31 0 0 1 .11-.84l2.13.86zM174 63.55l.62-.26c.45-.08.92.1 1.25 0l.35.37a3.59 3.59 0 0 1-.09.84l-2.13-.82z"/><path d="M78.2 13.64a6.26 6.26 0 0 1 1.32.12 3.8 3.8 0 0 0 .24 1.92h-.12c-.44-.56-2.59-.53-2.88.12v1.08c.1.12 0 0 .12.24.51.25 1.54.95 2.52.6.23-.08.66-.76.72-.6a6.54 6.54 0 0 1 .36 1.8 2.88 2.88 0 0 1-1 .12c-.28-.17-.75-.09-1.08-.24a5 5 0 0 1-1.32-1.08c-2.63 0-3.43 1.11-5.64 1.68-.61.16-2.41.55-3.12.12a1.27 1.27 0 0 1-1-1.2c1.06-.4 1.28-3 1.68-4.2a11.56 11.56 0 0 0 1.2-.24 6.07 6.07 0 0 1 2 .12c1.25.24 5.41 0 6-.36zM74 15.56c.36.14.33.28.6.48.18 3-4.77 1.89-3.48.36.25-.73.88-.67 1.44-1.08a2.14 2.14 0 0 1 1.44.24z" fill="#fdb913" fill-rule="evenodd"/><path d="M103.8 4.61a3.79 3.79 0 0 1 1.2.24 2.47 2.47 0 0 1 .36 1.2 9.27 9.27 0 0 0-.6.84c2.15.21 5.24-.12 7.44.36.76.17 1.4-.09 1.92.24 2 1.32 2.56 5.95-.12 7-1.74.66-4.49.36-6.72.36-3.41 0-7.45.62-10.56-.12-1.12-.26-2.09.12-2.88-.36-2-1.2-2.22-6 .24-6.84.69-.52 1.68-.3 2.76-.48a53.54 53.54 0 0 1 6.72-.12v-.16c-1.1-.67-.38-1.59.24-2.16zm28.08 13.08c5.86-.09 11.18-.81 12.72 3.6.32.91.75 3.56.12 4.56a6.07 6.07 0 0 1-3 2.4 25.15 25.15 0 0 1-7.92.24H131c-1.41-.35-3.08-1.17-3.48-2.52l-.12-1.68a5.8 5.8 0 0 1-.12-2 7.42 7.42 0 0 1 .72-2.16 5.38 5.38 0 0 1 2.4-2c.49-.25 1.09-.19 1.48-.44zm-68.64 2.16a8 8 0 0 1 1.56.15v.84c.48.8.12 2.27.36 3.24a28.91 28.91 0 0 1 1.08 3.12c-.25.27-.25.65-.48 1l-.84.6h-2.16c-1.71-.57-2.7-4.25-1.8-6.6.45-1.2 1.48-1.56 2.28-2.35zm16.2 0a8.17 8.17 0 0 1 1.92.48c1.31 2 2.32 4.6.12 6.48a2.7 2.7 0 0 1-2.64.72c-.22-.07-.41-.27-.72-.36a3 3 0 0 1-.48-1.08h-.12l.12-.12c.18-.13.51-.1.72-.24.41-.26.62-.85 1-1.2l-.12-1.92a5.42 5.42 0 0 0 .2-2.76zm74.28 23.64h-3.48V43a1.84 1.84 0 0 0-.48-.12 7.09 7.09 0 0 1-4 .72c-.46-.15-.71-.8-1.08-1 0 0-4.23.08-4.44.12-2.58.57-5.72 0-8.28.6h-1.92c-1.46.32-3.21-.1-4.8.24a6.85 6.85 0 0 1-1.56.24c-.09 0-.48-.32-.6-.36a20.55 20.55 0 0 0-5-.36c.51-5.3 1.92-10.72 6.24-12.6 2.64-1.14 5.79-1.32 9.6-1.32 2.93 0 6.6-.34 9.12.24l1.8.12c5.22 1.73 8.89 7.09 8.88 13.97zm27.6 14.88c1.27.9.93 3 .6 4.56l.12 1.8c-.89-.09-1.68.79-2.52 1.2v-.6a2.83 2.83 0 0 0 0-1.68 4.83 4.83 0 0 0-1.52-2.88c-.47-.33-1.27-.45-1.56-1 .65-.17 1.12-.66 1.68-.84H181a2 2 0 0 0 .32-.56zm-155.16.24c.83.8 1.76.64 3.36.6.47.42 1.39.5 1.68 1.08-2.56.56-3.3 2.86-3.12 5.88H28a6.48 6.48 0 0 0-2.16-1.32s-.09.27-.24.12v-1.08c.53-.91-.69-2.42-.24-3.84a9.62 9.62 0 0 1 .8-1.44zm145 2.4h.48v.12c-.59.45-.71 1.55-1.56 1.68a5.8 5.8 0 0 0-1.92-.72l.12-.12c.72-.69 2.02-.42 2.84-.97zM36 61.25a12.63 12.63 0 0 1 2.76.6V62c-.57.08-1.49.67-1.8.48a4.7 4.7 0 0 1-.96-1.23zm2.88 9.6c-.74-.07-4.1-1.35-4.32-1.8 2.2-.38 3-3 2.76-5.64 1.14-.14 1.75-.76 3-.84a5 5 0 0 0 1.92 1l-.12.12c-2.12 2.22-3.34 2.89-3.24 7.16zm129.84-.24a8.67 8.67 0 0 0-1.72-5.88c-.44-.58-1.23-.87-1.68-1.44.66-.17.9-.52 1.68-.6a9.17 9.17 0 0 0 3 1.08c.45 1.42.21 2.52 1 3.6.48.7 1.63 1 2 1.68h-.24a13.31 13.31 0 0 1-4.04 1.56zM102 63.05c1.13 0 2.26.08 3.24.12a2.54 2.54 0 0 1 .48 1.44c-2.13 1.46-3.17 1.38-4.92-.36v-.84l.12-.12a2.08 2.08 0 0 0 1.08-.24zm86.28 2.64a.85.85 0 0 1 .12 1zm-6.72.24h.24l-.12.36h-.24zm-155.76.24l.36.12v.24h-.24zm41.76.72a41.42 41.42 0 0 1 9.72.84c1.59.37 2.09-.79 3.6-.36 1.15.33 2.06 1.55 3 2.16a7.86 7.86 0 0 0 2.28 1l1.32.12c1.16.44 2 1.34 3.24 1.68a11.53 11.53 0 0 0 3.36.24c.42-.19.65-.77 1.2-1a14.74 14.74 0 0 1 4.2-.24 9.39 9.39 0 0 1 2.88.6c.93.24 2 .08 2.88.24a11.47 11.47 0 0 0 3-.12l8.76-.24c1.45 0 2-.69 3-1.08l1.56-.36c1.56-.77 3.26-1.78 4.92-2.4 2.52-.93 6.61-.48 9.84-.48 2.41 0 5.13-.23 6.6.72l1.68 1.68c1.23 2.44-1.77 4.84-2.28 6.36-.26.79.11 1.57-.24 2.16-.52.88-1.48 1-1.92 2-2.26.28-4.37 1.33-6.36 1.92-1.35.41-2.6-.21-4 0a54.05 54.05 0 0 1-8.16 0 15.92 15.92 0 0 1-3.48-.12 21.28 21.28 0 0 1-2.76-.72c-.56-.22-1.25-.86-1.8-1.08l-2.6-.32c-1.93-.55-4.38-1.22-6.36-1.68a9.08 9.08 0 0 0-2.76.24h-1.32c-2.12.47-4.65.21-6.6 1-.53.21-.79.88-1.2 1.2l-2.28 1.08c-.85.25-1.83-.13-2.52 0a47.31 47.31 0 0 1-8.28.6c-1.11 0-3.24.5-4.08.12a9.6 9.6 0 0 1-3.36.12c-.26-.08-.58-.46-.84-.6a12.9 12.9 0 0 0-4.8-1.68c-.61-2.22-2.5-4-3.36-6.12-.33-.8.15-2 0-2.76a4.39 4.39 0 0 1 .48-3.24c.87-1.21 2.69-.72 3.84-1.48zM58 81.17a6.2 6.2 0 0 0 1.44-.12v-.24c.36-.85-1.45-1-2-1.32-1.53-.79-3.39-1.58-5-2.28-.72-.3-1.74-.36-2-1.08a7.16 7.16 0 0 0 3.12-3.84c.25-.68 0-2 .6-2.4s2-.18 2.64-.36a17.51 17.51 0 0 0 1.2 3.12 46.81 46.81 0 0 1 2.28 6 2 2 0 0 1-.36 1.56v.72c-.3.93-1 1.33-2.28 1.32-.17-.14-.44-.21-.6-.36.56-.05.82-.13.96-.72zm92.6-11.52c.1.13 0 0 .12.24h-.12zm.84.24a10.55 10.55 0 0 1 2.52.36 6.46 6.46 0 0 0 3.36 5.64c-.08.21 0 .12-.12.24a9 9 0 0 1-2.52 1.08c-1.73.75-3.54 1.63-5.16 2.4-.39.19-.9.12-1.2.36a3 3 0 0 0-.36.84l-.12-.12-.24-2.16c.06-.23.41-.44.48-.6.32-.75.07-1.89.36-2.64a40.76 40.76 0 0 0 1.92-4.56h.12c0 .25 0 .23.12.36v-.24a1.85 1.85 0 0 0 .84-.96zm37 .48c.51.47.26 2.57.24 3.48.39.63-.06 1.93.12 2.76a38 38 0 0 1 .24 7.08l.24 10.68v4.44c-.45 1.83-1 3.68-1.56 5.28-.59 1.78-1 3.82-2.4 4.8a22.19 22.19 0 0 1-7.44 3.24l-2.88.24-4.08.84c-2.06.46-4.1.16-6.12.6l-14 .12c-1.8.39-4.54 0-7 0h-2c-2.61.57-7.24.12-10.2.12-7.64 0-14.62-.24-22.2-.24-12.25 0-23.54.24-35.52.24l-11-.12c-2.16 0-4.39.36-6 0l-10.92-.12a66.43 66.43 0 0 1-19-2.64 13 13 0 0 1-1.68-.36 21.05 21.05 0 0 1-4-2.88 15.12 15.12 0 0 1-1.44-3.84c-.53-1.6-1.11-3.45-1.56-5.28v-3.6c0-3 .18-5.94.24-8.76s-.48-7.78.24-10c.1.13 0 0 .12.24.75 1 .74 2.61 1.32 3.72a11.63 11.63 0 0 0 3.36 4 17.86 17.86 0 0 0 4.56 2.28c.72.21 1.28 0 1.92.24 1.45.55 3.12 1.39 4.56 1.92 1.25.47 2.48.31 3.84.72.75.23 1.59.71 2.28 1a42.38 42.38 0 0 0 4.56 1.08l2.76.24a16 16 0 0 0 3 .36h2.4c2.06.46 4.3.36 6.48.84H66a39.17 39.17 0 0 1 8.16.48h2c1.46 0 2.45 0 3.72.12l1.2-.12c2.43.5 5.46-.06 7.92.48h2.2c2.53.56 5.52.36 8.4.36h3.12a17.84 17.84 0 0 0 4.08.12 40.55 40.55 0 0 0 7.32-.36h16.44a23.45 23.45 0 0 0 4.32-.12c1.3-.28 2.69 0 3.84-.24H141c1.13-.25 2.72-.11 3.84-.36 2-.45 4.42.23 6.36-.24 1.35-.32 3-.52 4.32-.84l2.64-.24c1.9-.51 4.38-.79 6.36-1.32l2.64-.36c10.24-3 18.22-4.55 21.12-15 .42-1.55.1-3.61.12-5.08zm-128.16 7c.1.13 0 0 .12.24h-.12zm.12.24a.52.52 0 0 1 .12.72zm88.6 4.04a2.14 2.14 0 0 1 .84.36H149l-.24-.24c.24-.07.16-.02.24-.12zm-11.16.6c.25 0 .23 0 .36.12h-.2c-.21.11-.15.11-.36 0 .21-.07.12-.02.24-.12zM37.32 93.41c1.44.61 2.86.71 4.32 1.32.65.28 1.35.85 2 1.08s1.07 0 1.44.12A30.45 30.45 0 0 1 48 98.09a8.4 8.4 0 0 1 1.08 2.16c.24.92-.95 1.43-.12 1.92l-.12.36a17 17 0 0 1-6.12-.12h-3.24a22.07 22.07 0 0 1-5-.48c-1.58-.36-2.37.09-3.48-.72a4.25 4.25 0 0 1-1.32-2c-.31-1.15.32-1.4-.48-2.16.11-.66.35-.46.48-.72.25-.48-.43-1.9.24-2.76.42-.45.33.09.6-.12.61-.46.39-1.24 1.44-1.56.1-.08.38-.16.48-.24 2.25-.03 3.29 1.09 4.88 1.76zm127.56 8.64h-2.64c-2.17.51-1.77 1.55-4.08 0-.12-.48-.55-1.14-.36-1.8.72-2.54 2.62-3.56 5-4.44 1-.38 2.35-.19 3.12-.84h.12c.24-.06-.24-.12-.24-.12a15.51 15.51 0 0 1 9.72-3.12l1 .72c.15.2.15.48.36.6h.48l.12.48c.74 1.15.67 1.41.36 2.76l.12 1c-.06.21-.4.24-.48.36-.5.79-.06 1.78-.84 2.4.13.45.19.49.48.48a1.33 1.33 0 0 1-.24.36c-.51 1.28-2.33.73-3.84 1.08-.39.1-1.13.38-1.44.48-.7.24-.86-.33-1.44-.24a18.33 18.33 0 0 1-3.24.36 4 4 0 0 1 1.8-.36v-.48a22.93 22.93 0 0 0-3.84.32zm-74.76-3v.12c-.46.14-.61.49-1 .6a4.66 4.66 0 0 1-1.92-.24 22.33 22.33 0 0 0-4.44-.24 79.27 79.27 0 0 1-13.44 0c.29-.2.89-.16 1.2-.36zm-22.56.84c-1.15.57-1.46 1.57-1.32 3.12.78.82 1.34 2 2.28 2.64.46.31 1.11.47 1.56.72v.24a10.1 10.1 0 0 1-4-2.76c-.28-.38-.32-.92-.6-1.32 0-1.73 1-1.92 1.8-2.76.25.08.16.03.28.12zm74.4 1.8v.72a6.72 6.72 0 0 1-.84-1.92c.4.31.51.84.88 1.2zm19.8 1a.34.34 0 0 1-.48 0zm1.44.12a1.64 1.64 0 0 1-1.32 0zm-22.68 1.56l.12.12c-1.24 1.88-4.42 2.57-6.84 3.36-3.93 1.3-9.43 1.2-14.76 1.2l-7.68.12h-2.76c-.75-.16-2 .08-2.88-.12a23.57 23.57 0 0 0-4.08-.12l-4.92-.12c.67-.5 2.63-.24 3.72-.24h20.28a31.09 31.09 0 0 0 6.12-.24c2.08-.45 4.3.23 6.24-.36a15.09 15.09 0 0 0 3.12-1.68c1.17-.71 2.63-1 3.6-1.92zM3.24 107.69c.49.13.54.32.84.6l-.24.84a.81.81 0 0 0-.48.24 2 2 0 0 1-.48-.24c-.53-.56 0-1.07.36-1.44zm77.4 1.08c-.76.49-5.79-.36-6.24-.72 2.05.17 4.07.73 6.24.72zm-70 3.36a7 7 0 0 1 1.32.12 2.27 2.27 0 0 1 .48 1.44c-.88 1.13-1.39 1.12-2.4.12a9.73 9.73 0 0 1 0-1.08zM197.4 115c.52.21.68.26.72 1a.61.61 0 0 1-1.2-.24.55.55 0 0 1 .12-.48v-.12c.25-.07.23-.06.36-.16zm7.68 3.72h.72a1.33 1.33 0 0 1 .24.84c-.1.13 0 0-.12.24a4.54 4.54 0 0 1-1.8.72 1.31 1.31 0 0 1-.36-1 7 7 0 0 0 1.32-.79zm-198.84.6h.6l2 2c-.08.21 0 .12-.12.24-.15.46-.24.47-.84.48-.36-.34-.8-.53-1.2-.84l-.84-1.08.12-.72c.25-.02.16.03.28-.07zm186.12 1.8a1.7 1.7 0 0 1 .84.24 1 1 0 0 1 .72.72c.39.48.14 1 0 1.56a2.33 2.33 0 0 1-1.68.6c-.7-.55-1.19-.63-1.2-1.92l.48-.84c.23-.17.61-.18.84-.35zm-191.88 3l.72.12a1.63 1.63 0 0 1 .24 1 1.56 1.56 0 0 1-1 .24c-.32-.33-.45-.27-.48-1a1.89 1.89 0 0 0 .52-.35z" fill="#d7d7d7" fill-rule="evenodd"/><path d="M43.47 114.36a2.59 2.59 0 0 0-2.64-1.44c-.36.07-1.61.44-2 .24-.15-.07-.3-.52-.48-.6l-4.56-.36c-2.59-.58-5.23-.91-7.56-1.56a24.63 24.63 0 0 1-2.64-.48c-1.95-.79-2.24-4.4-4.08-4.44a1.33 1.33 0 0 1-.36.24 14.21 14.21 0 0 0 .12 5.28v3.36c.2.87.4 1.86.6 2.52l-.12 4.68c.13.62-.2 1.41 0 2.16a6.27 6.27 0 0 0 4.44 4.32 20.23 20.23 0 0 0 7.44 0c1-.18 1.37.7 2.52.72 4 .06 7.82-1.74 8.88-4.56.49-1.3 0-3.2.12-4.56.03-.54.4-5.39.32-5.52zm23.4-71.52c.79.17 2.07-.08 3 .12 2.31.49 5.51.12 8 .12h3.36c.1 0 .39-.33.48-.36a4.92 4.92 0 0 1 2.16.36l1.72-.08c.28-.27.75-.41 1-.72s.11-.44.24-.6l.12-.12c.22.49.5.75.72 1.2a20.89 20.89 0 0 0 4.44.12l.84-.12.24.36a1.1 1.1 0 0 0 1-.24l.36-.12c-.07-2-1.28-2.94-1.92-4.32-.28-.61-.22-1.19-.48-1.8a14.78 14.78 0 0 0-1.32-1.92c-.19-.32-.08-.56-.24-1a10.54 10.54 0 0 0-2-2.64c-1-.73-2.3-1-3.36-1.68l-.72-.84c-1-.75-2.1-.85-4-.84V27c-.7 0-2.19 1-3.12.6a1.34 1.34 0 0 1-.6-.24V27h-.66a3.52 3.52 0 0 1-2.2.31c-.89.21-1.79-.54-2.42-.18-1-.09-1-1.19-1.44-1.8l-1.56-1.2c-.46-.63-.27-1.31-.6-2.16-.13-.35-.58-.56-.72-1-.33-1-.2-4.89.24-5.52.23-2.29 4.11-3.27 6.24-3.84.86-.23 1.93.29 2.64-.12.37-.13.36-.11.48-.48.1-.13.05 0 .12-.24-.39-.39-.36-.6-1.2-.6.08-.21 0-.12.12-.24a2.37 2.37 0 0 0-.12-.84c-4.78-1-8.88.08-10.44 3.84-.15.36-.54 1.59-.6 1.8l.12 1.44a12.15 12.15 0 0 0-.36 5 10.51 10.51 0 0 0 1.32 2.88c-.7 1.31.19 2.13.36 3.48a14.31 14.31 0 0 0-3.72 1.32l-4.44 1.32c-.52.24-.65.88-1.08 1.2s-1 .41-1.44.72a21.2 21.2 0 0 0-3.84 3.48 17.06 17.06 0 0 0-1.68 2.64c-.32.7-.36 1.51-.84 2 0 1.34.42 1.47 1 2.16a7 7 0 0 0 2.4.12c.26-.07.67-.54 1-.48s.69.52 1 .6c1.9.52 4-1 4.92-1.56.28-1.45.42-2.69.72-4.08.16-.72-.2-1.75.12-2.28.35-.75 1.38-1 2-1.44 1.75-1.17 3.86-2.62 6.6-2.76a2.42 2.42 0 0 0 1.68 2.16 1.49 1.49 0 0 0 1.56-.24h1.32l-.36.72c-1.53.52-2.75.71-3.12 2.4l-2.4.36c-.25.09-.52.51-.72.6-.67.28-1.39-.1-1.92.24s-.97 1.27-1.72 1.55c-1.76.75-3.47.67-3.48 3.24.43.44.68 1 1.32 1.2 1.64.61 4.01-.28 5.88.12zM78.51 30.6h1.8l.24.72c.21.08.12 0 .24.12.56-.08.64-.19.84-.6a1.7 1.7 0 0 1 .84.24c1 .25 1.36 1.57 1.8 2.4.54 1 1.59 1.84 2 2.88s.27 2.56.84 3.48a1.59 1.59 0 0 1-.12.48c-1.13-.16-1.62-1.28-2.4-1.8-.42-.29-.92-.3-1.32-.6s-.87-1.18-1.44-1.56c-1-.67-2.77-.74-3.48-1.68-.5-.68-2.08-3.62-3.48-2.76h-.36c.84-1.19 2.75-.58 4-1.32zm-7.92.4h-.24v-.12a1.32 1.32 0 0 0 .72-.12c.66 0 .7.22 1.2.36a2.23 2.23 0 0 1-1.68-.12zm64.32 67.76l-1.2-.12c-2.84.57-6.73-.42-9.6.12l-2.4-.12a27 27 0 0 1-3.84.12l-1-.12a5.44 5.44 0 0 1-1.8.12 5.44 5.44 0 0 0-1.8-.12c-1.46.29-3.33-.16-4.8.12l-1.2-.12a14.62 14.62 0 0 1-3.24 0c-3.51-.21-7.11-.26-11.28-.24-.66.41-1.7.12-2.52.36-.51.15-.89.7-1.32.84l-4.2-.36a36.75 36.75 0 0 0-5.76 0c-2 .34-4.41-.28-6.24.12-1.58.35-3.31-.64-4.56-.24-1.53.49-2.3 1.81-2.16 3.72.78.81 1.34 2 2.28 2.64l1.32.48c.28.2.2.78.48 1 .59.37 1.49.22 2 .6h.6c-.07-.21 0-.12-.12-.24v-.36a2 2 0 0 0 .48.12c.22.46.49.9.72 1.32a18.75 18.75 0 0 0 4.8.12c1.73-.23 3.52.43 5.28.12a16.58 16.58 0 0 1 4.56 0c.78.13 1.36-.21 2-.12a93 93 0 0 0 11.16.24c2.41 0 5.13.21 7.2-.24 1.59-.35 4.09 1.15 5.29 1 .83-.14 2.17-1.27 2.63-1.2 1.88-.08 3.83.36 5.71.28l2.33.08c1.4 0 3.14-.13 4.33-.08a22.51 22.51 0 0 0 3.83-.76l1.92-.12c2-.72 3.79-2.29 5.52-3.36.19.38.15.3.12.72l.12-.12c1.35-1.07 1-3.57.12-4.8-.85-1.51-3.95-1.73-5.76-1.4zm53.09 6a37.53 37.53 0 0 1-2.52 4.08c-1.05 1.24-5.18 3.07-7.08 3.6a22.17 22.17 0 0 1-5.28.36 8.74 8.74 0 0 0-3.48-.24 17.64 17.64 0 0 0-2.4.72c-.26.11-.55.5-.84.6-.57.19-1 0-1.44.24l-.84.84c-.07.54-.71 4.36-.36 5.16.17.37.81.61 1 1.08.51 1.56-.76 3 0 4.2.57.93 1.27 1.17 2.16 1.8l.72 1c1.13.53 2.4.3 3.72.6a21.29 21.29 0 0 0 4.08.36h2.28a14.12 14.12 0 0 0 3.6.12l.84-.6c.18-.23.18-.52.36-.72v-.12l.84.12c.68-.6 2.3 0 3-.57 2.16-3 1.82-10.5 1.82-15.63v-4.96a5.32 5.32 0 0 0-.18-2.04zm-47.21-37.44H129c-.82.19-1.8.2-2.64.48a40.93 40.93 0 0 0-5 2.4c-.9.45-1.86.43-2.76.84-.23.1-.5.51-.72.6h-4.68c-.7.16-1.9-.08-2.76.12-3.92.9-7.33-.36-11.16-.36h-4.2c-.57.16-.78.77-1.2 1l-2.64-.12c-1.6-.39-2.41-1.15-3.72-1.68-1-.4-2.15-.23-3-.72-1.08-.64-2-1.72-3.12-2.28-1.63-.84-2.52.42-4.32 0a39.83 39.83 0 0 0-9.72-.84c-.84.54-2.55.4-3.48 1.08-1.46 1.07-1.26 6.27-.12 7.68v.12c.61-.38.39-1.74.6-2.52A8.09 8.09 0 0 1 66 70.2a27.25 27.25 0 0 1 7.56.12l3.48.12a35.07 35.07 0 0 1 4.56 1.92 58.45 58.45 0 0 0 8.16 2.4c2.66.66 5.81.48 9 .48a28.73 28.73 0 0 0 5-.12h3.48c2.9 0 6.06.19 8.64-.36h2c1.43-.32 3.1-.4 4.44-.84 1.77-.59 3.43-1.51 5.16-2 3.24-1 8.13-.84 10.56-.6 1.12.11 3.3-.36 4.32.48.62.29.87 2 .36 2.64v.24h.24a11 11 0 0 0 1.2-1.92c1.22-3.09-1-4.82-3.37-5.44z" fill="gray"/><path d="M178.05 38.38c-.06.39-.21.56-.12.72.83 1.75 2.38 3.22 3.48 4.8a55.67 55.67 0 0 1 5.88 10.92l.36 1.92c.79 2.63 1 5.69 1.68 8.64v4.2c.35 1.6.1 3.83.36 5.52v2.52c.59 2.69.24 6.4.24 9.48 0 2.73.24 5.35.24 8.28v2.76c-.32 1.37-.75 3-1.08 4.2v6.6a19.56 19.56 0 0 1-.36 4v2.28c-.13.85-.17 2.13-.36 3v2.4c-.74 3.26-.75 6.35-3.36 7.68v.12h2.52c.88-.55 2.82.12 4-.12 1.32-.28 3.21.19 4.68-.12a17.22 17.22 0 0 1 5.64 0c1.4.3 3.09-.21 4.2 0 .31.63.27 1.19-.72 1.2a6.65 6.65 0 0 1-2.4.12l-6.12-.12c-1.4.3-3.38-.22-4.92.12-1 .22-2.64-.14-3.84.12s-2.85-.09-4.2.12c-2.71.41-6.54-.1-9.24.48h-7.8a21.21 21.21 0 0 1-6.84 0h-4.8c-6.29 0-11.77.48-18.12.48h-9.36c-2.22.47-5.31.24-7.8.24h-14.2c-4 0-8.4.12-12.6.12a33.08 33.08 0 0 1-6.24-.24h-9.48l-9.6-.36c-2.89 0-6.38.3-8.88-.24h-2c-2.21 0-5 .3-7-.12l-10.32.12H29.13a36.11 36.11 0 0 0-6.84-.24h-2.64a11.11 11.11 0 0 1-2.4.24c-2.82 0-5.4-.28-8.16-.12-1.06.06-2.64.2-3-.48-.1-.14-.09-.2-.12-.48a1.33 1.33 0 0 0 .24-.36l7.68-.12a15.5 15.5 0 0 0 5.64 0c1.06-.25 2.45.18 3.36-.12-1-1-2.21-1.77-2.76-3.24-1.58-4.21-.53-10.49-1.56-15.24v-7.68c-.33-1.21-.77-2.83-1.08-4.2v-2.8c0-2.93.24-5.55.24-8.28 0-3.08-.35-6.79.24-9.48V75.1c.25-1.69 0-3.92.36-5.52v-4.2c.65-2.95.89-6 1.68-8.64l.36-1.92a63.71 63.71 0 0 1 7.08-12.72c.74-1.06 1.7-2 2.4-3.12-.18-.2-.19-.25-.24-.6a23.43 23.43 0 0 0-4.32.24H21c-4 .37-6.3-.58-7.2-3.72a7.06 7.06 0 0 1 0-3.48A8.12 8.12 0 0 1 16.65 27c3.35-2.08 10.43-1.65 13.35.46a6 6 0 0 1 1.44 2.88c.16.67-.24 1.46.24 1.8.84-.61 2 0 2.64.24.36-1.39 1.57-2.7 2.28-3.84 1.34-2.17 2.13-4.54 3.48-6.72.35-.56 1-1 1.32-1.56.79-1.12 1.15-2.43 1.92-3.6.42-.66 1.18-1.26 1.68-1.92.6-.86 1-1.79 1.56-2.64a32.1 32.1 0 0 1 9.24-7.92c1.86-1 4.6-1.46 6.72-2l5.28-.84c1.52-.34 3.18.06 4.56-.24 2.08-.46 5 .19 7-.24s4.28.14 6.05-.28l5.4-.12C92.34.13 94.24.59 96 .22a16.13 16.13 0 0 1 5.28 0c1.35.29 3.11-.14 4.32.12h2c2.16 0 4.9-.3 6.84.12h2.28l6.6.24c2.14.47 5 0 7.2.48h2.76c1.55.34 3.34.1 5 .48 2.14.47 4.66.19 7 .72a32.41 32.41 0 0 1 6 1.8c2.45 1.07 4.45 3.25 6.24 5l5.16 5.16c.85 1.15 1.39 2.5 2.16 3.72s2 2.44 2.76 3.72 1.06 2.51 1.8 3.72 1.71 2.77 2.52 4.08c.5.81.83 2.33 1.68 2.76.61-.65 1.73-.45 2.64-.24-.07-5.29 2.71-5.44 7-6.36a12.05 12.05 0 0 1 4.44 0c3.18.88 5.06 2.19 6.12 5.16l.36 2.16c.38 1.76-.7 3-1.32 3.84a4.62 4.62 0 0 1-2.4 1.68 10.36 10.36 0 0 1-3.6 0h-4.44a23.43 23.43 0 0 0-4.35-.2zm-66.24-36.6h4a21.2 21.2 0 0 1 4.32.24c1.57.34 3.3-.06 4.68.24h3.48c2.56.55 5.74.19 8.16.72h1.68c2.45.53 5.39.23 7.92.84a28.94 28.94 0 0 1 5 1.68c2.22 1 4.57 3.73 6.24 5.4l4.56 4.56c.34.47.4 1.05.72 1.56 1.14 1.84 2.71 3.58 3.84 5.4.65 1 .92 2.18 1.56 3.24 1.45 2.38 2.7 4.92 4.2 7.32 4.54 7.27 10.16 13.51 13.68 21.84 1.35 3.19 1.34 7.11 2.16 10.8v4.32c.35 1.63.1 3.82.36 5.52V78c.51 2.35.24 5.55.24 8.28 0 2.31.24 4.18.24 6.36v5.26c-.49 2.17-1.08 4.15-1.68 6-.51 1.55-.95 3.6-2.16 4.44a24.57 24.57 0 0 1-7.08 3.12l-3.6.36c-5.42 1.3-11.76 1.44-18.6 1.44l-11.16.12c-1.51-.33-3.31 0-5 0l-11.64.12h-4.44c-2.18-.47-4.87-.24-7.32-.24h-24.4a34 34 0 0 0-6.48.24h-3.12c-2 0-4.48.26-6.24-.12H61.77c-9.67 0-20.53.34-28.44-1.56l-3-.24a25.71 25.71 0 0 1-5.28-1.68l-.72-.72c-.8-.53-1.87-.78-2.4-1.56a14.62 14.62 0 0 1-1.44-3.72 61.17 61.17 0 0 1-1.68-6v-3.72c0-3.16.24-5.78.24-9s-.25-7 .36-9.84v-3.12c.42-1.93-.2-4.61.24-6.6.65-3 .89-6 1.68-8.64l.24-1.56a59.62 59.62 0 0 1 7.08-12.72c.47-.66 1.21-1.25 1.68-1.92 3.11-4.44 5.8-9.15 8.64-13.8.9-1.48 1.37-3.1 2.28-4.56.72-1.15 1.8-2.19 2.52-3.36l.48-1.44c.39-.66 1.12-1.18 1.56-1.8.71-1 1.19-2.11 1.92-3.12a21.81 21.81 0 0 1 4.92-4.56c1.2-.89 2.25-2.12 3.72-2.76C59.5 4 63.12 3.57 66.81 2.74c1.81-.41 4.06 0 5.76-.36h4.08a14.77 14.77 0 0 0 3-.24c1.88-.41 4.28.13 6-.24h2.52a47.09 47.09 0 0 1 5.16-.36c1-.1 2.94.35 3.72-.12zM92 2.62c4.41 0 8.15.24 12.48.24 2.48 0 5.67-.4 7.92.12h3a26.59 26.59 0 0 1 5.64.48c2.43.56 5.29-.07 7.68.48l8.28.12c1.44.32 3.17 0 4.68.36 2.83.65 5.55 1 7.92 2 3.31 1.43 5.52 3.9 7.56 6.6l1.56 1.44c.47.63.85 1.18 1.32 1.8l1.32 1.2c1.51 2 3 3.92 4.32 6.12 2.35 3.78 4.52 7.63 6.6 11.64.78 1.5 2.09 3.48 1.08 5.76s-6.52 2.87-10.2 2.88h-23.4c-3.62 0-7.88.45-9.84.12-3.16-.53-6.88.56-9.84-.12h-6.84c-3-.66-7.17-.24-10.56-.24h-5.15c-2.24.49-5.38.24-7.92.24h-2.52a26.59 26.59 0 0 1-7.56 0H77a40.5 40.5 0 0 1-7.2-.24l-1 .12-5-.12c-1.28-.29-3 .06-4.32-.24-.88-.2-2.3-.17-3.24-.36l-1.08.12c-4-.74-8.42-.48-11.64-1.92-1.28-.58-2.52-.53-3.6-1.2a7.77 7.77 0 0 1-2-1.92c-.79-1.22-.91-4.85-.36-6.48.83-2.45 2.46-4.47 3.72-6.48 2.31-3.72 4.63-7.53 7.2-11 .88-1.21 2.35-2 3.24-3.12a13.85 13.85 0 0 1 3.6-3.48c2.62-1.63 6.64-2.5 10-3.36 1.42-.37 3-.29 4.32-.6L85 2.74h5a5.34 5.34 0 0 0 2-.12zM44.25 40.06c-3.58-1.24-5.65-1.05-5.64-6l.12-1.8c1-3.22 3.49-6.21 5.28-8.76 1.18-1.69 2-3.56 3.12-5.28A46.65 46.65 0 0 1 53 11.5a18.66 18.66 0 0 1 2.16-2.28 19.17 19.17 0 0 1 4.8-2c1.49-.55 3.12-1.12 4.8-1.56s3.47-.37 5-.72h1.44c2.58-.57 5.65-.05 8.16-.6l7.08-.12c1.59-.15 4.22.24 5.88-.12a18.73 18.73 0 0 1 6.48.12h2.4c2.57 0 5.82-.39 8.16.12h6.24a28.63 28.63 0 0 1 5.28.48c1.61.35 3.33 0 4.8.36l8.28.24h2.64c1.11.24 2.46 0 3.72.24 3.11.68 6.07.93 8.64 2a14 14 0 0 1 5.88 4.92l1.8 1.68c1.21 1.6 2.63 2.94 3.84 4.56 1.44 1.93 3.13 3.78 4.44 5.88.7 1.12 1 2.44 1.68 3.6 1.22 2 2.75 3.92 3.84 6 .64 1.23 2.6 4.57 1.56 6.12-.45 1.25-2.71 1.48-4.08 1.8h-1.2c-3.54 1-9 .24-13.08.24l-23.28.24c-3.75 0-8.39.41-11.4-.24-2.16-.47-4.84.31-6.84-.12h-11.23c-1 0-3.22-.34-4 .12a3 3 0 0 1-1.32-.12c-.25-.36-.18-.87-.36-1.32a12.36 12.36 0 0 0-1.2-2.16l-.48-.36-.12-1a15.29 15.29 0 0 0-1.2-2.64c-.3-.48-.89-.86-1.2-1.32-.49-.74-.74-1.43-1.2-2.16-1.43-2.3-7.56-4.76-11.4-4.8a14.33 14.33 0 0 0 2-4.68v-3.08c0-5.06-1.31-7.54-4.32-9.6l-.48-.6A8.62 8.62 0 0 0 70.53 8c-4.44 1-7.83 4.89-6.6 10.68l.12 2.4c.22.85.6 1.94.84 2.76s.24 2.95.72 3.72c-.28.42-.77.19-1.32.36s-1.36.55-1.92.72a25.63 25.63 0 0 0-2.52.48 17.61 17.61 0 0 0-9 7.8 10.21 10.21 0 0 0-1.92 4.2 17 17 0 0 1-4.68-1.06zm9.12-2A7.16 7.16 0 0 0 51 39.7h-.12c1-4 5.66-7.73 9.36-9.24.88-.36 1.78-.31 2.76-.6l2-.72c.91-.23 1.12 0 1.8-.36a5.32 5.32 0 0 0-.24-.84c.07-.26.43-.52.36-1-.65-4.09-3.16-9.55-1.2-14a6.49 6.49 0 0 1 2.52-2.52 7.11 7.11 0 0 1 4.44-1.08H74c.51.18.74.66 1.44.84-.7.42-2.1-.11-3 .12a7.78 7.78 0 0 0-4.32 2.64 8.11 8.11 0 0 0-1.2 4.56c0 5.42 1.62 9.33 6 10.68a7.2 7.2 0 0 0 3.36 0c.31-.12.57-.52 1-.6.61.48 1.59.22 2.52.48a40.43 40.43 0 0 1 5.16 1.44c2.73 1.17 4.69 3.52 6.24 5.88.31.47.35 1 .72 1.44v.24l-3-1.8-2.76-.84a17.15 17.15 0 0 1-.84-1.56 3 3 0 0 1-.84-.24c-.39-.23-.67-1.51-.84-1.92a3.3 3.3 0 0 0-2.52.36 1.83 1.83 0 0 0-1.12-1.2c-.12-.09-.48-.16-.6-.24-.83.11-.92.61-1.44.84a6.07 6.07 0 0 1-1.44-.36c-1.69-.4-6.08.4-6.6 1.08a4.84 4.84 0 0 1-1.2-.72 2.79 2.79 0 0 0-1.44.48c-.11.13-1.23-.64-2-.36-.41.14-1.14 1.06-1.2 1.08l-.48-.12c-1.11 0-1.79.27-2 1.08a2.1 2.1 0 0 0-.12 1.08 2 2 0 0 0-1.2.36 1.22 1.22 0 0 0-.6 1.08c-2.55.22-4.59 1.79-6.31 2.86zm24-25.92c1 .76 1.34 2.55 1.68 4v1.36c.85 3.81-.82 10.5-5.28 9.5a7 7 0 0 1-4.32-2.88l-.6-2.16c-.24-.63-1-1.89-.6-3 .17-.51.89-.78 1.08-1.32.41-1.18 0-2.49.6-3.36.83-1.23 2.65-1.4 3.84-2.28a16.62 16.62 0 0 1 3.6.1zm.12 3.72h.6a1.32 1.32 0 0 1 .36.84 1.33 1.33 0 0 0-.24.36c-.52 0-.75.17-1-.36-.17-.27-.07-.4 0-.72.25-.12.16-.07.28-.16zm-4.68.12l.84.12v.24a1 1 0 0 1 .12.6c-.43.28-.43.46-1.2.48-.12-.1 0-.05-.24-.12V17a1 1 0 0 1-.12-.6 3.09 3.09 0 0 0 .6-.46zm3.12 1.56l.72.12c.7 1.1 1.66 2.44 1.32 4.2a3.14 3.14 0 0 1-1.8.48c-.21-.33-.31-.3-.36-.84.09-.13 0 0 .12-.24.29-.12.68-.21.84-.48 0-.06-1.2-2.28-1.2-2.28-.18-.56.22-.77.36-1zM75.09 23c1.46-.07 1.87.62 1.56 1.92-1.09.74-1.22.79-2.16-.12a4.63 4.63 0 0 1 0-1.44 2.23 2.23 0 0 0 .6-.36zM20.85 37.3a9.83 9.83 0 0 1-3.72-.12A4 4 0 0 1 15 34.66a6 6 0 0 1 .12-2.28c.34-1.52.81-3.16 1.8-4 2.56-2.1 9.62-1.88 12.12.12 2.25 1.6.38 5.82.36 8.52-2.85.07-5.59.11-8.55.28zm157.68-8.76a25 25 0 0 1 3.24-1.32c3-.8 7.32-.17 9 1.2a6.17 6.17 0 0 1 1.32 2.28 6.61 6.61 0 0 1 .6 4 4 4 0 0 1-2.16 2.52 9.84 9.84 0 0 1-3.72.12c-3-.17-5.7-.2-8.52-.24-.03-3.86-1.71-5.23.24-8.56zm-99 2.52l.24.24c0 1.37-.1 2.42-.84 3l-.12.12a.63.63 0 0 0-.48-.36 6.08 6.08 0 0 1 .84-3zM65.13 33l.12-.84a1.33 1.33 0 0 0 .36-.24c1.57.06 2.22 2.23 2.16 4-1.46-.16-1.84-2.12-2.64-2.92zm3.12-.72l.12-.36c.86.17.88 1 1.32 1.56a4.84 4.84 0 0 1-.12 1.44h-.48c-.09-1-.83-2.16-.84-2.66zm14.52-.36l.12 1.56c-.57.55-1 1.34-1.56 1.92a1.84 1.84 0 0 1-.48-.12 7.5 7.5 0 0 1 1.2-3.28.87.87 0 0 0 .48-.12zm-19.32 1c.54.84 1.06 1.79 1.68 2.64a1.63 1.63 0 0 1-.24 1h-.24a7.14 7.14 0 0 0-2-2.16l.24-1.44zm-30.24.6l.12.12h-.12a15 15 0 0 1-2.4 3.84l-.12-.12c0-1.58 0-3.45 1.2-3.84.12-.09.48-.16.6-.24a1.23 1.23 0 0 1 .72.18zm142.56-.12a3.84 3.84 0 0 1 1.08 1.56c.1.32 0 .63.12.84a3.66 3.66 0 0 1-.12 1.56 23.66 23.66 0 0 1-2.52-3.84 3.07 3.07 0 0 0 .48-.24zM70.89 35.62A2.08 2.08 0 0 0 71 34.3a16.17 16.17 0 0 1 6-.84v1.08l1.2 1.2c1.18 0 1.48.18 1.92.84l1.2.12a1.41 1.41 0 0 0 .24 1c.54.8.61.09 1.32.48s.29.83 1.56 1c.18 1.2.71 2.24.84 3.6-1.74 0-3.73 0-5.28-.12s-3.1.14-4.32-.12c-1.59-.34-3.61.18-5-.12s-2.81.27-4.08 0-4.2.35-5.16-.24c-.27-.47.58-2.29 1-2.64s1.1.1 1.56-.24c1.06-.36.55-1.2 1.08-1.56s.93 0 1.2-.72c.75.21 1.68.59 2.4 0l.36-.12.12-.6a3.34 3.34 0 0 0 1.73-.68zm13.68-.48a15.1 15.1 0 0 0-1.8 1.68h-.12a4.67 4.67 0 0 1 1.44-2.76c.15-.09.11 0 .48 0zm-23-.12c.43.63 2.46 1.73 1.92 2.76V38c-1.28-.06-1.61-1.08-2.52-1.56a2.33 2.33 0 0 1 .2-1.44zm25.56 3.24c.09-.44.47-1.46.12-2V36c2.62.58 7 3.48 7.08 6.48-1.84 0-3.88.12-5.88.12a10.78 10.78 0 0 0-1.36-4.34zm-2.88-1a13.6 13.6 0 0 0 1.2-1.08v-.08a1.65 1.65 0 0 1 .48.24c.08.2 0 .11.12.24v1a9.81 9.81 0 0 1-1.8.12zm-31.12 2.32c1.76-1.18 3.94-3 6.48-3.24 0 .51.4.72.36 1.08s-.57.82-.72 1.08a7.52 7.52 0 0 0-1 3.36l-7.08-.36c.2-1.12 1.19-1.41 1.96-1.92zM30.21 55.66c2.73-.07 5 1.19 7.08 1.8.94.27 1.72.17 2.64.48 2.9 1 5.87 2.33 8.64 3.48l2.16.6a16.36 16.36 0 0 1 5.88 4.32c1 1.39 1.27 3.36 1.92 5.16.81 2.25 1.79 4.72 2.4 7.08a4.62 4.62 0 0 1-.48 2.88c-1.85 2.75-8.78.71-10.92-.36-5.65-2.82-11.72-5.2-16.8-8.52a12.6 12.6 0 0 0-1.56-.6c-1.49-.74-4.24-2.33-5.16-3.6a8 8 0 0 1-1.2-7.32c.47-1.88.23-2.65 1.2-4 .61-.83 1.69-1.05 2.88-1.32.46-.07 1 .11 1.32-.08zm146.16 0c1.79 0 3.75.17 4.8 1a5.63 5.63 0 0 1 1.32 1.8c.3.78 1.07 5.23.84 6.24a11.08 11.08 0 0 1-1.44 3.3c-.95 1.48-3.75 3.14-5.4 4a12 12 0 0 0-1.56.6 99.68 99.68 0 0 1-15.12 7.56c-.76.32-1.49.93-2.28 1.2-2.31.77-8.45 2.94-10.32.12-1.45-2.19 1-7.32 1.68-9.24.64-1.74.8-4 1.8-5.4 2.67-3.91 7.14-4.77 11.76-6.72 1.62-.69 3.56-1.6 5.28-2.16 1.06-.35 2.05-.25 3.12-.6.73-.25 1.48-.74 2.28-1 1.09-.29 2.4-.13 3.24-.7zM36.21 58.54l3.48.72c2.77 1 5.61 2.28 8.28 3.36.77.31 1.42.29 2.16.6a14.1 14.1 0 0 1 4.56 3.24l1.08 1a20.45 20.45 0 0 1 1.32 4c.62 1.89 1.26 3.88 1.92 5.88a6.35 6.35 0 0 1 .48 1.56c0 .71.07 1.39-.24 1.8-.33.79-1.92 1.14-3.24.84-.43-.1-1.36 0-1.92-.12a44.76 44.76 0 0 1-5.52-2.16 120.42 120.42 0 0 1-15.24-7.8 17.3 17.3 0 0 0-2.16-.84 27.55 27.55 0 0 1-4-2.76c-1.35-1.85-1.75-3.77-1.08-6.6.22-.92 0-1.64.36-2.4.22-.48.79-.88 1.08-1.32a7.06 7.06 0 0 0 1.56-.36 18.19 18.19 0 0 1 7.12 1.36zm143.64-1.08c1.29.45 2.63 5.25 2 7.56a9.19 9.19 0 0 1-1.44 2.76 28.37 28.37 0 0 1-4 2.76 17.3 17.3 0 0 0-2.16.84c-.38.23-.71.72-1.08 1a48.1 48.1 0 0 1-7 3.36c-2.93 1.29-6 3-9 4.32-2.21.93-6.29 2.22-8.88.84-.49-2.5.34-3.88 1.08-6.12s1.22-5.32 2.4-7.32l1.08-1a14.25 14.25 0 0 1 4.56-3.24c.73-.31 1.39-.29 2.16-.6 2.66-1.09 5.52-2.34 8.28-3.36l3.48-.72c.56-.21 1.2-.66 1.8-.84 1-.3 2.05-.09 2.76-.6 1.34-.02 3.23-.2 3.96.36zm-76 4.44c1.94 0 2.23.61 3.12 1.56a6 6 0 0 1-.24 1.8 4.64 4.64 0 0 1-6.24-.6 2.46 2.46 0 0 1 .12-1.2c.64-1.87 1.93-.75 3.28-1.56zm1.32 1.44l.48.48a2.19 2.19 0 0 1-.12.72c-.81.33-2.71.42-3.36-.12l-.36-.12c.05-.54.15-.52.36-.84a1.7 1.7 0 0 0 .84-.12zM68.49 66.1c4.64-.08 11 .14 14.16 1.44 2.74 1.13 4.68 2.95 7.8 3.72l16.8-.24c.94.2 2.39-.12 3.48.12a23.67 23.67 0 0 0 7.08 0c2.28-.69 3.78-2.12 5.76-3a26.71 26.71 0 0 1 5.4-1.56c1.84-.39 3.71.18 5.64-.24 3.5-.77 8.6-.33 10.08 1.8.48.69 1.45 1.79 1.08 3.24a17 17 0 0 1-1.8 4c-2 3.68-2.71 6-7.08 7.44-2.93 1-7.12.24-10.44.24-2.54 0-5.88.32-8-.24s-3.85-2-6-2.64c-1.32-.39-2.73.08-4.2-.24-1.7-.38-3.85.18-5.76-.24a19.87 19.87 0 0 0-5.52-.12 18.26 18.26 0 0 0-2.64.36c-1.65.69-2.6 2.19-4.44 2.76-2.06.63-5.37.36-7.92.36-3.93 0-8.67.83-11.88-.48-4.3-1.77-4.29-3.82-6.48-7.44-1.35-2.22-2.5-4.65-.6-7.2a6.25 6.25 0 0 1 3.36-1.68c.63-.26 1.63.14 2.12-.16zm13.92 2.76c2.71 1.14 4.65 3 7.8 3.72l16.56-.24c.93.21 2.39-.13 3.48.12a32.31 32.31 0 0 0 7.8 0 22.16 22.16 0 0 0 5.16-2.64 21.52 21.52 0 0 1 5.16-1.8c1.28-.37 2.56.07 4-.24.67-.15 1.82.06 2.64-.12 3.2-.73 10.44-.34 9.48 3.6a12.92 12.92 0 0 1-1.68 3.48c-1.92 3.17-2.19 5.42-6.12 6.72-2.84.93-6.91.24-10.2.24a33.56 33.56 0 0 1-4.32-.12l-3.6-.12c-2-.52-3.53-1.85-5.4-2.52a19.94 19.94 0 0 0-4.44-.48h-2c-2.21-.5-5-.24-7.56-.24h-3.56A10.11 10.11 0 0 0 92 79.66a9.36 9.36 0 0 1-2.4 1.68c-1.23.4-2.75-.09-4.2.24-1.81.4-4.28-.32-6.24.12s-6.79.33-8.52-.36c-3.71-1.49-4.47-4.11-6.24-7.44-.74-1.39-1.76-3.23-.6-4.92a4.84 4.84 0 0 1 2.76-1.44c.85-.21 2.1.26 2.76-.12 4.05.01 10.16.2 13.09 1.44zm-50.52 22.2c2.83-.08 3.81.9 5.64 1.68 1.45.61 2.83.75 4.32 1.32.66.25 1.38.8 2 1.08 1.57.66 3.43 1 4.44 2.16a4.41 4.41 0 0 1 1 4.68c-2.21 1.42-5.86 1.7-9.24 1-3.62-.8-8.37.4-10.2-2.16-.69-1-.33-1.94-.6-3.48a9.16 9.16 0 0 1 .36-3.72 7.1 7.1 0 0 1 2.28-2.56zm141.6 0h2.28c2.19.72 2.77 3.91 2.64 6.6a8.34 8.34 0 0 1-.12 2.28c-1.57 3.79-9.31 2.38-13.8 3.36-2.29.49-5.34-.29-6.12-1.44-1.24-1.61.41-3.94 1.44-4.8 2.13-1.78 6.05-2.91 8.88-4 1.47-.51 3.78-1.06 4.8-2zm-136.2 3c3.17 1.3 7.31 2.06 9.84 4 .7.52.67 1.56 1.2 2.28 0 1.52-3 2.09-4.92 1.68-2.93-.63-6.45-.34-9.24-1-1.89-.42-3 .26-3.48-1.68a5.35 5.35 0 0 1-.12-2c0-3 .42-3.25 1.56-4.92 2.37-.01 3.5.96 5.16 1.64zm138.24-1.68c.39.58 1.07 1.08 1.32 1.8.47 1.37.27 3.46.24 5.16-.43.45-.63 1.14-1.2 1.44-1.08.56-2.79.19-4.08.48s-3 0-4.56.36a17.87 17.87 0 0 1-5.76.36 8 8 0 0 1-2.16-1c0-3.35 2.64-3.66 5-4.68.46-.2 1-.65 1.44-.84 2.27-1 4.68-1.47 6.72-2.52.5-.26 1.34-.28 1.8-.6zm-103.8 5.88a30.84 30.84 0 0 1 5.64.12c1.09.23 2.54-.08 3.48.12a14.74 14.74 0 0 0 4.8-.12l3.35.12c1.73 0 3.29-.24 5.16-.24l27.72.24c5.47 0 14.37-1.14 18.48.6 1.06.45 1.43 1.27 2.16 2a4.77 4.77 0 0 1 0 1.92c-1 3.15-6.65 4.93-10.08 5.88l-1.68.12c-2.48.54-5.69.36-8.64.36H119a30.45 30.45 0 0 1-9 .12c-1.05-.23-2.46.07-3.36-.12h-2.52a43.64 43.64 0 0 1-7.44-.24H92c-4.87 0-10.58.89-15.12-.12-4.3-1-7.74-1.64-10.32-4.2-.66-.66-2.26-2.32-1.32-3.72.51-1.8 2.82-2.33 4.68-2.76.6-.1 1.39.18 1.81-.08zm8 1.56l14.4-.12 30.72.12h3a29.32 29.32 0 0 1 10.68.24c1 .29 2.09.41 2.52 1.2l.12 1.44c-.32.34-.47.91-.84 1.2a23.49 23.49 0 0 1-8.64 3.84c-1.34.34-2.83.07-4.08.36h-9.12c-.6.14-1.65 0-2.4.12a37 37 0 0 1-8.76-.12c-1.39-.31-3.2.15-4.44-.12h-5.6a24.88 24.88 0 0 0-4.92-.12c-4.41 0-9.82.91-13.92 0l-2.52-.12a23.9 23.9 0 0 1-8.64-3.84c-.37-.29-.51-.87-.84-1.2a2.22 2.22 0 0 1 .24-1.44c.63-1 2.22-1.26 3.48-1.56.72-.17 1.74.19 2.28-.12 2.45 0 5.15-.23 7.32.24zM41.61 126.1c-1.9 2.62-6.26 1.2-10.32 1.8a14.55 14.55 0 0 1-4.32 0h-1.56a7.87 7.87 0 0 1-2.52-1c-3.21-2.33-1.73-10.25-2.88-14.76-.34-1.33.21-3.32-.12-3.84v-1.8H20c.51 2.08 1.77 2.6 3.36 3.6.38.24.69.72 1.08 1 1.3.81 4.05 1.38 5.64 1.8l3.72.36a37.57 37.57 0 0 0 8.88 1.2c.03 3.2.19 9.9-1.07 11.64zm133-13l2.16-.12c2-.44 5-1 6.48-1.92a22.15 22.15 0 0 0 3.6-2.64c.35-.49.43-1.24.84-1.68v-.24h.12a49.4 49.4 0 0 1-.6 9.84c-.43 2-.07 4.19-.48 5.88-.48 2-.55 3.68-1.92 4.68a7.23 7.23 0 0 1-2.52 1h-1.56a14.89 14.89 0 0 1-4.32 0c-4.07-.6-8.36.9-10.32-1.8-1.25-1.73-1.11-8.45-1.08-11.64a46.14 46.14 0 0 0 9.56-1.32zM44 114.58c0 3.67.33 9.33-1 11.76a6.23 6.23 0 0 1-3.36 2.4v.12h2.16c1-.63 4.23.18 5.64-.12s2.54.12 4 .12c2.84 0 6.31-.31 8.76.24h2c2.27 0 5.16-.33 7.2.12h3.84c3.07.67 7.12.24 10.56.24h3.24a32.59 32.59 0 0 0 6.12.24c4 0 8.28-.12 12.12-.12h11.28a42 42 0 0 0 5.76-.12h4.8a26 26 0 0 1 4.8-.12c4.65 0 10.59.53 14.64-.36h4a20 20 0 0 1 3.6-.12l8 .12c1.19 0 5.25.15 5.88-.24-5.18-1.19-4.49-7.88-4.44-14.16-13.06 0-24.93.24-38 .24a27.26 27.26 0 0 1-5.64-.24H94.89c-3.14 0-6.72-.34-9.24.24l-13.32-.12c-9.76 0-18.33-.12-28.33-.12z" fill="#59595a" fill-rule="evenodd"/></svg>