<svg version="1.1" id="Layer_1" xmlns="http://www.w3.org/2000/svg" x="0" y="0" viewBox="0 0 180 59.1" xml:space="preserve"><style>.st0{fill:#444445}</style><path class="st0" d="M39 59.1c-7.4 0-13.3-5.8-13.3-12.9s6-12.9 13.3-12.9 13.4 5.8 13.4 12.9-6 12.9-13.4 12.9zm0-21.8c-5.2 0-9.4 4-9.4 8.9s4.2 8.9 9.4 8.9 9.4-4 9.4-8.9-4.2-8.9-9.4-8.9zm112.7 21.8c-7.4 0-13.4-5.8-13.4-12.9s6-12.9 13.4-12.9 13.4 5.8 13.4 12.9-6 12.9-13.4 12.9zm0-21.8c-5.2 0-9.4 4-9.4 8.9s4.2 8.9 9.4 8.9 9.4-4 9.4-8.9-4.2-8.9-9.4-8.9z"/><path d="M6.9 21.5s34.6 4 65.3 4c0 0 26.7 0 27.7 2s5.9 5.9-24.7 4.9H46.4s-5.9-4-14.8 0l-28-.7.5-4.2c0-.1 1.8-7 2.8-6z" fill="#fb0"/><path class="st0" d="M82.5 17.8c0 .2 0 .2 0 0zm96.4 9c-2.9-4.7-10.7-4.4-15.4-5.3-8.8-1.5-17.6-3.2-26.6-3.4-3.7-.1-7.4 0-11.1.2-.1-.1-.1-.2-.2-.2C109.9.8 80.5-1.7 58.7.8c-6.1.7-12.4 1.7-18.2 3.9-6.6 2.6-12.6 6.5-19.3 9-3.2 1.3-6.5 2.3-9.9 2.9-1.6.3-3.8.1-5.3.7-1.2.5-2.1 1.4-2.6 2.6-.4 1-.5 2-.5 3-.1 1.5-.5 3.1-1.1 4.5-.6 1.2-1.2 2.3-1.5 3.7-.1.3-.1.6-.1.9-.4 3.5.1 7.9 2.6 10.7 5.2 5.9 16.4 3.6 23.1 4.6 2.7.4 3.1-3.8.4-4.2-5.5-.8-17.6 1.5-20.9-4.3-.7-1.2-1-2.6-1.1-4 0-.7 0-1.4.1-2.1 0-.3.1-.7.1-1 0-.4 0-.8.2-1.1l-.1.1c.1-.3.3-.5.4-.8.2-.3.4-.7.5-1 .2-.3.3-.6.4-.9 0-.1 0-.2.1-.3 0 0 0-.1.1-.1.1-.4.4-.8.6-1.2.2-.5.3-1 .4-1.5 0-4.3.2-3.5 4.4-4.2 5-.9 9.9-2.4 14.5-4.5 3.7-1.6 7.2-3.6 10.9-5.4-.4 3.2.4 6.6 3 8.8 4.3 3.6 11.8 3.3 17.1 3.3 7.2 0 14.4-.4 21.6-.2 8.4.2 16.5 1.3 24.9.8 18.3-1 36.5-2.3 54.7 1 3.8.7 7.6 1.3 11.3 2 1.4.3 3.4.2 4.5 1.2 4 3.5.4 6.6-.4 9.8-.5 1.9.9 3.8.6 5.5-.8 3.7-6.7 2.5-9.8 3-2.7.4-1.9 4.6.7 4.1 5.1-.9 12.4.6 13.1-6.2.1-.9-.1-1.7-.1-2.6 0-2.4.5-3.7 1.1-6 .9-2.5 1.3-6-.3-8.5zM57.6 18.9c-6.9-.1-20.1-.2-15.9-10C47.4 6.7 53.4 5.7 59.5 5c5.2-.6 11-.9 16.9-.7.1.9.3 1.7.5 2.6.3 1.7.3 3.3.6 5 .4 2 .2 4.9 1 6.9-7.1-.1-14 .1-20.9.1zm49.3.4c-4.6.1-9.2.8-13.8.6-3.6-.2-7-.8-10.5-1 .1-.4 0-.8-.2-1.3.1.1.1.2.1.2 0-.1 0-.2-.1-.3-.1-.6-.1-1.2-.2-1.7-.2-1.4-.4-2.9-.7-4.3-.2-1.2-.3-2.3-.4-3.5-.1-1.2-.5-2.4-.6-3.6 14.6 1 29.7 4.9 39.8 14.2-4.4.3-8.9.6-13.4.7z"/><path class="st0" d="M139.3 45.8c-15.4 0-30.9 0-46.3-.1-8 0-16 .1-24 .2-5.8.1-12.4 1.4-18.1.5-2.7-.4-3 3.7-.4 4.2 5.7.9 12.3-.4 18.1-.5 7.8-.2 15.6-.1 23.5-.1 15.6-.1 31.2 0 46.8 0 2.7 0 3.1-4.2.4-4.2z"/></svg>