<svg xmlns="http://www.w3.org/2000/svg" viewBox="0 0 1116.2 550"><style>.st1{fill:#e6e7e8}.st2{fill:#fdb913}.st3{fill:#bfbfbf}.st4{fill:gray}.st5{fill:#59595a}</style><g id="Layer_1"><path d="M1078.7 205.5c-7.5-20.4-15.4-32.1-32.6-42.7-9.5-5.8-21.2-8.4-32.6-12.2-31.4-10.4-68.4-15-101.9-23.5-13.7-3.5-28.2-4-40.9-7.8-2.9-.9-11.4-1.5-12.6-3.5-.9-1.5-.6-4.2-1.3-5.7-3.6-7.3-8.5-12.4-17-14.8-2.7-.8-15.4.2-17.8.9-1.2.3-4.3 1.8-4.8 1.3-8.6-3.9-16.6-10.7-24.4-15.7-9.7-6.1-19.9-11.5-29.6-17.4-6.7-4.1-15.4-6.8-22.6-10-5.2-2.3-10.4-6-15.7-8.3-5.2-2.3-10.4-3.4-15.7-5.7-5.9-2.6-12.3-5.8-18.3-8.3-9-3.7-19.7-5.5-28.7-8.7-4.6-1.6-9.1-1-13.9-2.2-13.6-3.4-29.8-2.5-44-5.7h-6.1c-3.8-.9-8.9-.9-12.6-1.7h-7c-5.7-1.3-13-.5-18.7-1.7L522 10.4h-29.6c-5 0-11.4-.5-15.7.4-3 .6-7.1-.1-9.6.4h-7.8c-6 1.3-14 .7-19.6 2.2h-13.1l-33.1 3c-13.6 3.2-29.4 2.6-43.1 6.1-6.5 1.7-12.9 3.4-19.3 5.2-2.3.3-4.4 1-6.5 1.9-12.4 3.5-24.5 7.7-36.4 12.6-11.1 4.6-21.5 11.4-31.3 17.4-6.9 4.2-15 6.2-21.8 10.4-11 6.9-22 15-35.7 19.2-8.5 2.6-17 3.1-26.1 5.7-8.5 2.4-17.5 5-26.1 7.4-7.5 2.1-15.3 2.9-22.2 4.8-3.8 1.1-7.1.7-10.9 1.7-5.4 1.5-11.3 3.5-16.5 5.2-3.6 1.2-7.1 1.2-10 3-12.9 8-20.2 21.4-24.4 38.3-1 5.6-1 11.4 0 17l.4 15.7c1.6 6.2 3.5 11.5 3.5 20 0 8.7-1.3 14-2.8 20.5 6.1 4.8 12.1 9.9 18.3 14.6 6.7.6 13.6 0 20-1.1 13.8-2.4 26.5-7.9 39.7-12.2 13.6-4.5 27.6-7.8 42-7.6 15.5.2 30.4 4.6 44.7 10.2 12.5 4.9 24.6 10.7 37.3 15 6.1 2.1 12.5 4.3 19.1 3.9 5.3-.3 10.2-2 15-4.1 11-4.9 21.1-11.8 32.9-14.9 11.6-3 23.3-1.6 34.6 2.2 11.8 4 22.7 10.4 34.1 15.2 12.2 5.2 25.6 8.4 38.9 8.1 13.9-.2 27.5-4.1 39.3-11.4 10.9-6.7 21.6-12.5 34.4-14.5 26.4-4.2 49.6 8.3 73.1 18.3 21.9 9.3 47.8 17.3 70.8 7.2 20-8.7 39.5-23.9 62.2-14.7 5.7 2.3 10.7 5.8 16.1 8.6 5.7 3 11.6 5.1 17.9 6.5 13 2.8 25.6 1.5 38.4-.6 11.1-4.4 21-11 31.8-15.8 11.2-5 22.8-6.9 34.9-4.4 19.7 4.1 38.4 18 59.1 15.5 11.4-1.4 21-8.6 30.3-14.8 9.3-6.2 18.7-11.7 29.7-14.1 11.5-2.5 23.1-1.4 34.3 2 11.9 3.6 22.5 9.9 33.9 14.7 10.2 4.3 20.5 6.9 30.9 8 .7-2 1.4-3.8 1.9-5.2.9-2.8 1.1-6 1.7-8.7v-7c.1-9.2-.6-15.8-2.9-21.9z" fill="#fff"/><path class="st1" d="M860.5 214.1c2.8 5.7 8.9 9.4 12.2 14.8 2.3 3.9 3.8 9.3 5.6 14.1 4.4 1.8 8.9 3.6 13.3 5.2 2.5-4-2.4-11.9-3.7-14.9-2.3-5.4-5.4-8.9-7.4-13.5-2.7-6.1-4.2-12.4-9.1-16.1-3.1-2.3-7.1-3-10.4-5.2-.3 1.3 2.1 3.2 2.6 5.2v7.8c-1 .9-2 1.7-3.1 2.6zm212.2 33.3c2.4-.7 4.7-1.6 5.5-3.7 2.1-3.1 2.8-15.5.9-18.7-6.1.3-8.2 4.1-10.9 7.8-2.7 3.8-6 7.5-8.8 11.7 4.4 1.2 8.8 2.2 13.3 2.9zm-242.2-61.6c5.8 1.9 12.2 4.6 19.2 4.8l.4-1.3c-4.6-1-9-3.9-13.1-5.7-7.9-3.4-16.7-6-24.8-8.7-16.7-5.5-33.4-8.8-50.1-14.4-10.9-3.6-22.2-7.8-33.1-11.3s-21.8-4.3-32.6-7.8c-14.2-4.6-28.8-8-43.5-10v1.7c5.2.9 10.1 3.9 14.8 5.7 9.9 3.7 20.5 5.9 30.5 9.1 9.3 3.1 18.6 3.8 27.9 7 15.5 5.2 32.9 10.9 48.8 16.1l27 6.5c9.1 3 18.8 5.1 28.6 8.3zm223.7 68.6c-.3.9-.6 1.8-.8 2.7h.4c.9-.7 1.9-1.3 2.9-2-.9-.2-1.7-.4-2.5-.7z"/><path class="st1" d="M800.9 230.6l-15.7-3.5c-12.1-3.9-24.4-7.6-35.7-12.2-4.7-1.9-9.9-2.3-13.9-4.8-20.9-13-38.2-29.6-57.5-44-21.1-15.6-42.6-30.7-63.6-46.6L601 105.6c-7.7-5.7-14.6-12.4-20.5-20-3.1-4.1-9.7-9.4-13.9-12.6l-10.4-10.9c-7.6-5.8-14.9-12.7-23.1-17.8-4-2.5-8.1-4-12.2-6.5-4.7-2.9-9.5-6.5-14.8-8.7-4.2-1.8-9.4-2.4-13.9-3.5l-44.4-5.2c-17.8-.1-33.4 0-50.9 0h-25.2c-8.7 1.9-18.3 3-26.6 5.2-6.1 1.6-17.3 1.6-21.8 4.8-1 1.5-.2 4.8-1.7 5.7-.5.3-3.8-.2-5.2.4-4.4 1.9-9.1 4.6-13.5 6.5-4.6 2-9.1 3.1-13.1 5.7-7.8 4.9-16.6 10.6-25.2 14.4-6.1 2.5-12.1 5.4-17.8 8.7-7.3 4.5-14 10.3-21.3 14.8-4 2.4-8.2 3.7-12.6 5.7-12.6 5.5-25.5 10.2-38.7 13.9-6.8 1.9-13.4 1.3-20.5 3-15.9 3.9-31.8 5.4-45.7 11.3-6 2.5-11.5 6.7-16.5 10.4-1.9 1.4-3.3 4.4-5.2 5.7l-3 .4-1.5 1.5c-2.4 14-4.4 28-6.6 42-.1 6.8-.4 13.6.7 18.3 1.3 5.4 1 8.8 2.3 13.5 1.6 6-1.7 16.5-2.7 20.6-.4 1.6.2 3.5.9 5.3 2.1 1.7 4.2 3.4 6.4 5 6.7.6 13.6 0 20-1.1 13.8-2.4 26.5-7.9 39.7-12.2 4.4-1.4 8.8-2.8 13.2-3.9 7.1-8.7 15.8-15.6 26.2-19.4.6-.2 1.2-.3 1.9-.1.1-.7.2-1.4.6-2 3.1-2.1 14.7-1.4 20-1.3 5.9.1 11.9 2.1 17 3.5 8.4 2.3 16.7 3.4 24.8 5.2 1 5.7 12.8 13.1 15.2 19.2 1.8 4.5 1.9 8.8 3.5 13.5l.9 2.7c.3.1.5.2.8.3 6.1 2.1 12.5 4.3 19.1 3.9 5.3-.3 10.2-2 15-4.1 11-4.9 21.1-11.8 32.9-14.9 11.6-3 23.3-1.6 34.6 2.2 11.8 4 22.7 10.4 34.1 15.2 12.2 5.2 25.6 8.4 38.9 8.1 13.9-.2 27.5-4.1 39.3-11.4 10.9-6.7 21.6-12.5 34.4-14.5 26.4-4.2 49.6 8.3 73.1 18.3 2.8 1.2 5.7 2.4 8.6 3.5 2.5-8.1 14.4-27.8 20.5-32.2 6.4-4.7 14.7-7.6 22.2-10.9 3.8-1.7 8.1-5.4 12.6-6.1l4.8 1.3 13.1 1.3c4.5 1 8.5-.2 12.6.9 11.7 3 30 8.8 35.3 17.4 1 1.6 1.2 9 2.2 11.3.9 2.2 1.7 4.4 2.5 6.6 5.1 2.3 9.9 5.4 14.8 8 5.5 2.9 11.4 5 17.5 6.4.5-4.9 2.6-9.1 7-10.7 4.9-4.4 9.6-4.4 20.4-2 3.8.8 7.5-.2 10.4.9-1.4 1.3-3.3 1.8-4.8 3-2.5 2.1-3.9 5.7-4.5 9.7 3.4-.4 6.8-.9 10.2-1.5 11-4.4 21-11 31.8-15.8.8-.4 1.7-.7 2.5-1.1l-26.8-9.8zM572.8 125.3l-1.3 1.3c-2.6 2.1-4.6-.3-6.1-1.7v-2.2c-2.9-.1-2.7.8-6.1.9-3.1-5.3-5.8-11.9-9.1-17-.9-1.3-3.7-4.7-3-5.7.6-1.5 1-1.3 3-1.3 1.7.8 2.3-1 4.8-1.3 3.8 5.7 14.9 10 12.2 20.5 2.8 0 3.7.5 4.8 2.2.7.9.8 2.3.8 4.3z"/><path class="st1" d="M638.5 255.4c-.8.3-.4.1-.9.4-2.4.7-5.6 3.5-6.1 6.1.1 0 .1.1.2.1 3.8.2 7.6.1 11.3-.4-1.5-2-3.1-4-4.5-6.2zm13.9-5.2c-.5-.3-.4-.3-1.3-.4-2.1 1.3-5.8.9-7 3 .8 1.1 2.2 4.5 3.4 8.1 2.2-.4 4.3-1 6.5-1.7 0-3.4 0-6.8-1.6-9z"/><path class="st1" d="M625.1 261.5c5.4-9 16-15.1 27.3-17.8 7.5-1.8 18.4 1.7 24.1 5 2-1 4-1.9 5.9-2.8-1.9-1.4-3.9-2.6-6.1-3.5-3.1-1.2-6.3-2.3-9.6-3-2.3-.6-4.8.2-6.5-.9-14.5-.2-29.1 6.1-34.8 14.4-1 1.4-1.2 3-2.2 4.4-.9 1.2-2.1 2.3-3.1 3.5 1.7.2 3.4.4 5 .7zm221.5-54h-.4c-.2-1-.4-.5 0-1.3l.4 1.3z"/><path class="st2" d="M814.5 208.3c1.4-1.2 2.6-2.3 3.9-3.5.2-3.2.1-6.4-.4-9.6-1.1-.8-2.4-1.7-3.5-2.6-2.4.2-3.7 1.1-4.4 3-3.7 4.5-.3 12.2 4.4 12.7zm259-13.9c-2 1.4-9.4 12-9.6 14.8 4.5 2.4 9.7 3.7 14.8 5.7v-2.6c-2.1-2.9-4.8-13.5-5.2-17.9z"/><path class="st2" d="M737.5 184.4c-8.7-2.2-17.9-4.6-28.3-4.8.9 8.7 13.8 16.8 20 20.9 12.1 8 29.6 11.3 45.7 15.2l5.7-.4c2.2.5 5.8 1.2 8.3 1.7l25.2.9h8.3c6.6 1.4 13.3 2.4 20 3 1.3.1 4.2-1 5.2-1.3l14.4-.9c-.4-5.2-.6-12.9-4.8-14.4-2.6-2-6.7-1.2-10.4-2.2-8.1-2.1-16.4-3.2-24.8-3.5.5 8.2-.9 8.7-5.2 13.1-12.1 1.2-14.9-5.1-11.8-16.1-3.7-.2-7.3-.8-10.9-1.7-.1 1-.1 1.2-.4 1.7-.8-2.1-4.6-3.8-7.4-3.9-1.3 1.1-2.4 1.2-3 3-1.4 1.6-1.8 6.5-.4 8.3.3 1.3 1.3 2.3 2.6 2.6 1.7 1.4 3.4.5 5.2 0 .8-2.7 2.2-5.9 3-8.7h.9v2.2c-2.5 4.4-.4 9-5.2 12.2-6 4-13.4-.8-14.8-5.7-1.4-4.9.3-10.7 1.3-14.8-3.7-.3-7.4-1-10.9-2.2-7.2-1.9-14.7-2.2-21.3-3.9l-6.2-.3zm-667.1 2.9c0 1.1.1 2.3.1 3.4 0 .2 0 .3-.1.5 4.6-3.5 8.8-7.3 12.8-11.5.8-.9 2.1-1.2 3.2-.8 1-1.3 1.9-2.6 2.7-3.7 2.7-3.5 6.8-6.1 9.1-10 1.5-3.3 1.8-7 .9-10.4-2.8-8.3-13.5-12.7-19.8-17.7-5.6 11.7-5.7 27-7.6 39.4-.3 2.4-.2 7.1-1.3 10.8z"/><path class="st3" d="M816.5 115.8c-8.8 0-19.8.6-26.6-1.3-3.5-1-14-.2-17 .4h-6.1c-5.7 1.2-12.9 1.2-18.7 1.7l-17.4.4c-2.7.6-9 1-11.3-.4h-6.1l.4-.4c1.1-1.4 2.3-1.2 3.9-2.2 2.8-1.7 5.5-4.3 8.7-5.7 5.4-2.4 12.1-3.6 17.8-5.2 4.9-1.4 11.3-.9 15.2-3.5h.9v-.9c-8.4-8-18.5-13.6-28.3-20.5-21.4-14.9-45.1-26.7-69.2-39.2-5.1-2.6-11.1-3.2-16.5-5.7-1.7-.8-3-2.2-4.8-3 0-.9.1-1.8.4-2.6 2.6.3 3.1 1.6 4.8 2.2 5.1 1.8 11.8-.5 15.7 2.2 1.2-.8 1-1.8.4-3 4.6 1 9.3 2.7 13.5 3.9 4.1 1.2 7.9.6 11.8 2.2 19.5 7.8 36.3 18.9 53.1 29.2 13.7 8.4 27.3 15.8 40.9 24.4 11.1 7 22.3 15.2 33.5 22.2.6 1.5.9 3.2 1 4.8zM423.4 40.5c-1.9 2.9-5.5 4.9-8.3 7-4.4 3.3-8.2 7.5-12.6 10.9l-4.4 4.8c-2.7 1.8-5 4-7 6.5h-.9c1.8-4.6 1.8-14.7 3.6-19.5 1.8-4.8 5.4-4.6 6.5-9.6l23.1-.1zM372 41.8c-1.8 2.7-4.8 4.6-7.4 6.5-3.5 2.7-6.4 6.4-10 9.1l-8.7 8.7c-9.4 7.1-17.2 16.1-26.6 23.1-5.5 4.1-12.7 8.7-16.5 14.4-2.7 0-15.5-1.7-17-2.6h-.8c7.7-13.2 18.1-23.8 27-35.7 2.3-3 9.5-13.7 12.2-15.2 4.7-2.7 12.5-.6 17-3.5h1.7c-3.9 5.8-10.2 10.1-14.4 15.7-2.5 3.3-4.9 7.7-8.3 10v.9c8.1-5.4 14.4-13.3 22.2-19.2 2.8-2.1 6.4-7.8 9.6-9.1l20-3.1zm117 1.7c1.4.9 7.1 3.5 9.3 3.5-.8 2.2-2.7 2.7-3.9 4.4-4.3 5.6-10.2 10-14.4 15.6-9 12.1-20.1 22.3-29.2 34.4-4.4 5.9-10.9 10.5-14.8 17-5.7.1-11.7 1.2-16.8 1.3-2.2 0-6.5-.5-8.5-1.7h-2.6c3.8-5.9-1.2-23.9 4.4-28.2 2.9-3 17.4-1.5 20.3-4.5 10.9-8.2 20.9-18.1 31.7-26.3 5.2-3.9 9.3-8.4 14.4-12.2 1.9-1.4 5.8-1.1 7.1-3.1.6-.1 2.5-.2 3-.2zm40.2 5.7c1.1 1.1 2.2 2.1 3.5 3-3.5 5.5-9.7 8.9-13.5 13.9-11.5 15.2-26.9 27.1-38.3 42.2-3.1 4.2-8 7.3-10.9 11.8-.1 0-5.1 3.8-5.3 3.8 1.8-4.5 4-8.8 6.6-12.9 4.2-5.7 10.2-12.5 14.4-18 10.2-13.5 23.4-22.9 33.4-36.6 2.2-3 6.7-4 8.7-7.1l1.4-.1zm-278.6 55.3c-.5.3-.4.3-1.3.4.4-.3.4-.3 1.3-.4zm.8.4c-.4.3-.1.2-.9.4v-.4h.9zm1.3.4c-.5.3-.4.3-1.3.4.5-.3.4-.2 1.3-.4zm0 .9v-.4h.9c-.4.3-.1.1-.9.4zm216.8 13.9l-.4 1.3-.4.4h-.4c.3-1.1.4-1 1.2-1.7z"/><path class="st4" d="M240.8 98c.7-.4 1.6-.4 2.4-.2 5.1 1.7 10.3 3.4 15.3 5.3 2.6.8 5.1 2 7.4 3.5h6.1c-.3-6.7.5-13.4 2.2-19.8.9-3.2 1.1-6.6 1.8-9.8 1.1-4.6 3.7-8.9 5.1-13.5 0-.1.1-.1.1-.2-2.1.9-4.2 2-6.2 3.2-.6.4-1.9 2-2.6 2.2-1.8.6-5.6-.9-7.8 0-6.7 2.6-11.5 9.8-17 13.9-1.7 1.3-7.1 4.8-7.8 6.5v7.8h.4c.2.5.4.8.6 1.1zm323.3-33.8l4.9 5.4c1.1.5 2.3-.2 3.1.4 2.6 2 6.6 8 8.9 10.7 1.2 1.5 3.8 2 4.9 3.6.9 1.3 1 2.6 2.2 3.6 4.5 3.4 11.3 4.9 15.2 8.9 5.1 5.2 9.5 13.3 16.5 16.5 14.3 6.5 48.4 4 69.2 4h24.6c4.5-1.8 8.3-6 12.9-8 10.2-4.4 23.4-6.4 34.8-8.9v-.9h-.3c-2-5.2-15.6-12.2-20.5-15.6-22.2-15.4-45.4-29.1-69.6-41.1-5.7-2.9-10.5-6.2-16.4-8.2-4.7-1.6-10.8-2.2-12.6-6.5-19 .1-40.4.7-59.4.8-3.9.9-9.9-.6-14.3.4-1.6.4-4.5 1.6-5.8 1.8-.9.1-1.7-.8-2.2-.9-8.1-2.1-20 7.3-15.6 14.3 1.7 5.3 14.9 16.2 19.5 19.7zm344 173.5c2.5 1.7 9.1.8 13.1.9 7.8.1 16.4.9 25.2.9h.1c.9-.6 1.8-1.2 2.8-1.9 6.9-4.6 13.8-8.8 21.5-11.7l-34.8-.4-17.8.4c-2.8-1.1-3.4-3.4-7.8-3.5-1.6 2.2-8.8 1.4-12.6 1.3v.4c2.6 3.1 6.4 12.6 10.3 13.6zm105.2-12.3c9.1 2.8 17.4 7.1 25.9 11.1.6-2.7 1.3-5.4 2.2-8 .5-1.6 2.1-2.7 3.8-2.5v-.1c-1.5-1.5-2.2-3.5-4.4-4.4-4-1.7-15.6 1.9-20.5 2.9-4.6 1-10.9-.7-14.3-2-.1.4-.2.7-.4 1 2.6.6 5.2 1.3 7.7 2zm28.9-26.9c-3.8-1.2-7.1.9-11.3 0-6.6-1.4-19.3-2-26.6-.4l-26.6.9-9.1-.4c-.9.2-2.2 1.5-3 1.7H953c-10.1 0-21.5 1.1-30.5-.9-6-1.3-19.3 0-22.2 2.2-1.9 1.5-2.6 3.1-4.2 5-2 2.4-2 3.1-2.3 7.6 2.2-.2 4.4 0 6.5.4 6.9 1.5 14.8-.4 20.9.9h6.5c9.1 2 20.3 1.3 30.9 1.3 6.4 0 14.4.8 20-.4h12.2c4.8-1 10.4.3 15.7-.9 8.5-1.8 19.3-1.7 28.7-1.7h10.9c.6.3.7 1 1.7 1.3.9-1.3 2.6-2.4 3-3.9 2.2-6.7-4.9-11.5-8.6-12.7zm-121.5 53.6c4.5-.8 8.8-2.5 12.8-4.6-1.9-.2-3.8-.3-5.7-.4-2.5-.2-5.1 0-7.5.6-1.3.4-1.5 1.4-1.7 3 .7.4 1.4.9 2.1 1.4zm-109-4.1c-2.5-.4-5.2-.8-7.2-.3-4.9 1.3-9.1 4.4-11.8 8.7-.2.3-.3.6-.4.9.3 0 .6-.1.9-.1 6.4-2.6 12.4-5.9 18.5-9.2zm-627.5-25.7c15.5.2 30.4 4.6 44.7 10.2 11.9 4.7 23.5 10.1 35.5 14.4-1.9-4.8-4.1-9.3-6.3-13.5-2.5-4.9-7.3-9.9-6.1-16.5-6.7-4-13.1-8.6-21.3-11.3-4.4-1.4-9.3-1.6-13.9-2.6-2.1-.5-5 .5-6.5-.4-22.3-.3-42.1 9.7-55.4 23.7 9.6-2.6 19.3-4.2 29.3-4zM632 262c-.2-.3-.3-.6-.4-.8 2.2-1.5 4.2-3.3 6.1-5.2.8.3.4.1.9.4 1.8 1.3 3.2 3.2 4.4 5.2 1.2-.2 2.5-.4 3.7-.6-1.1-3.4-2.1-6.7-2.5-8.5 3-.4 5-1.7 8.3-2.2l.4.4 1.2 8.4c1.4-.5 2.9-1 4.3-1.7 6-2.6 12-5.8 18-8.8-3.1-1.5-6.9-2.7-10-3.5-17.3-4.8-32.5 4.7-40.2 16.5 2 .2 3.9.4 5.8.4z"/><path class="st4" d="M620.5 260.7c7.5-13.4 22.6-21.8 39.9-21.7 1.7 1 4.3.3 6.5.9 3.3.8 6.5 1.8 9.6 3 2 .8 3.8 1.9 5.6 3.1 12.2-5.5 24.8-8.8 38.5-3.3-4.1-9.6-9.6-18.1-19.4-24.3-13.6-8.6-31.6-10.1-49.2-9.5-26.1 5.6-46.7 24.8-53.8 45.5 7.1 2.7 14.7 5 22.3 6.3zM386.3 100.1c-.1 6.7-.8 11-.9 17.7-1.2.5.9.3.3 1.5-.4.8-.5 1.7-.4 2.6 1.9 1.2 2.6 1.4 4.8.4 0 .6.2 1.2.4 1.7 4.3.4 9.9-.9 16.1-.9l10.4.4c1.1-.3 2.6-1.5 3.5-1.7 3-.9 17.5 1.6 20.9 2.2 6 .9 20 2.8 23.9.4v.4c-.7.6-.5.3-.9 1.3h5.2c1 .6 7.3 1.5 8.7.9.7-.7 1.4-1.5 2.2-2.2h30.9c-.3-3.1-1.8-4.5-2.6-6.5-.5-1.4.3-3.6.4-4.4v-6.5c1-3.4 4-7.9 8.7-7.8 2-1.2 7.6-.4 10.4-.4 8.5 0 17.9.1 25.7-.4 2.9 4.6 11.3 12.9 15.7 16.1 1.4 1.1 3.3 1.7 4.4 3 1.7 2-.4 6 3 7.4 2 1.3 4.8-.7 6.1-.4.5.1.6 1.6.9 1.7l4.8-.2c.1-.3.3-.6.6-.9 3.3-3.3 6.9-6.4 7.4-11.3.1-1.2.8-2.3 1.9-2.8-3.1-3.5-8.3-6.6-11.2-10.4-4.4-5.8-9.7-10.6-14.8-15.7-7.2-7.2-14.2-14.6-23.1-20-2-1.2-4-1.5-6.1-2.6-2.7-1.4-5.3-3-7.8-4.8-2.3-1.7-1-4.1-4.8-4.8-.8 1.6-2.1 1.8-3 3-4.2 5.5-9.3 9.7-13.5 15.2l-6.5 6.1c-5.9 7.8-13.3 14-19.2 21.8l-8.7 8.3c-3.2 4.3-10.1 13.3-14.4 16.1 3.6-5.6 8.7-10 12.6-15.2 10.9-14.5 23.6-27.1 34.4-41.8 3.6-4.9 11.4-11.2 13.5-17-2.8-1.3-5.7-3.2-8.7-4.4-4.5-1.7-8.7-1.6-13.5-3-21.3-6.4-43.6-8.6-71-9.1-8.8-.2-23.6-2-29.6 1.7-5.2 3.2-9.1 13.3-10 20.5h.4v-.9c1.6-2.2 4.3-12.9 5.7-13.9h23.1v.4c-8.5 5.5-17 14.3-24.4 21.3-2.3 2.1-6.3 4.2-7.8 7l-.9 7.4c-1.2 5.6-3.2 16.6-3.2 23.5zm22.2 17.6l10.3-11.9c4.9-4.9 12.6-13.7 24.4-22.6l8.7-8.7c8.3-6.3 15.3-14.3 23.5-20.5 3.4-2.6 8-5.2 10.4-8.7h1.3c2.6 1.5 8.9.1 10.4 2.6-1.9 1.3-2.8 3.1-4.4 4.8-5.1 5.7-10.6 10.7-15.2 17l-4.8 4.4c-6.4 8.5-14.6 15.6-20.9 23.9-3.5 4.7-7.9 8.5-11.3 13.1-1 1.3-4.6 6.9-5.7 7.4H421c-1.1-.7-11.2-.4-13.5-.4l1-.4zm-60.2.7c5.5 1.6 18.7 7.6 24.8 3.5.7-.5 1.3-1.2 1.7-1.9-.4-.5-.7-1.2-.8-1.8-1.4-14.7.1-29 2.2-43.6 0-.2 0-.3.1-.5.4-1.5 1.9-2.3 3.4-1.9.1-3.3.5-6.6 1.2-9.9.3-1.1.8-2.2 1.3-3.3-1-.6-1.6-1.7-1.5-2.9.4-4.7 1.9-9.1 3-13.6.6-2.8 3.6-3.1 5.4-1.7.7-2.2 1.3-4 1.4-4.6l-2.2-2.2c-1.4-.9-3.4-.8-4.8-1.7-6.1-.1-10.9 2.1-15.7 3.5-11.8 3.3-23.3 4.4-34.8 8.2-4.5 1.3-9 2.3-13.6 2.9-1.5-.1-4.5 2.4-5.9 2.3-6.8 1.7-18.8 8.2-22.2 13.5-5.3 8.4-6.4 20.7-9.1 31.8-1.1 4.5.1 9.4-1.7 12.6 15.6.5 31.1 2.8 46.1 7 7.4 2 14.4 2.1 21.7 4.3zM299.5 103c-3.3-2.2-9.7-1.2-14.1-2l-.6-.7c3-2.5 4.8-5.9 7-9.1 6.6-9.4 14.9-18 21.7-27.2 1.9-2.6 8-12.4 10.5-13.8 13.7-2.4 12.9-2 16.6-3.3l1.5.1c-5.3 3.5-12.6 13.4-16.5 18.7-1.8 2.4-5 4.3-6.1 7.4h.4c1.9-.4 8.9-6.9 14.3-11 5.6-4.2 12.9-12.6 16.2-16.8 2.4-.1 17.2-3.3 20.9-3.5-1.8 2.7-4.8 4.6-7.4 6.5-3.5 2.7-6.4 6.4-10 9.1l-8.7 8.7c-9.6 7.2-17.8 15.8-27.4 23.1-4.4 3.4-13 10.9-18.3 13.8z"/><path class="st4" d="M393.5 57h-.4c.2-.9.1-.8.4-1.3V57zm-.4 1.3h-.4c.3-.8.1-.4.4-.9v.9z"/><path class="st5" d="M414.4 152.8c1.4-1.9 1-4.6-.9-6.1-4.6-4.4-17.7.7-22.6-2.2-2.7.1-4.3 1.1-6.5 1.7l-2.2 2.6c-.1 2 .1 4.1.4 6.1 5.3 3.2 29.7 3.8 31.8-2.1zm-26.6-2.6c1.8-1.1 20.4-.8 22.6 0l-.4.9c-5.9 2-16.2 1.7-23.1.9v-1.7h.9zm258.2 111c-.8-2.6-1.4-5.4-2.2-7.4-1 .7-2 1.5-3 2.2l3.2 5.5c.7-.1 1.4-.2 2-.3zm12.5-3.7c5.9-2.6 11.8-5.7 17.7-8.6-.2-.1-.4-.2-.6-.2-6.1-2-15.3 0-20.9.4.1 3.1.2 6.4.3 9.8 1.1-.5 2.3-.9 3.5-1.4zm66.3-57.7c3.4 2.3 6.8 5.2 10.4 7.4 18.4 11.2 48.2 15.2 77.5 15.2 19.2 0 48.4 6.7 54.4-9.6 1.1-3.1.5-9.4-.4-11.8-4.9-12.1-18-9.8-31.3-13.1-25.1-6.1-52.7-8.5-77.5-14.8-6.2-1.6-12.2-2.1-17.8-3.5-3.5-.8-8.6.4-11.3-1.3-12.7-.3-18.2.6-20.9 10.4-.4 1.4-.7 2.9-.9 4.4 2.3 8.7 11.1 12.3 17.8 16.7zm-10.9-23.9c4.5-2.2 8.5-2.2 15.7-2.2 2.6 1.5 6.8.5 10 1.3 6.4 1.6 13.4 2.1 20.5 3.9 21.2 5.3 45.8 7.6 67 13.1 9.4 2.4 25.5 2 32.2 6.5 1.4 1 1.9 3.1 3 4.4.4 5.5.3 11.5-4.4 13.1-6.6 5.4-32.5 1.9-42.7 1.3l-33.5-1.3c-6.1-1.4-12.6-1.6-18.7-3.5-12.4-3.6-24.2-9.2-34.8-16.5-6-4.1-15.8-6.6-15.7-16.5l1.4-3.6zm74.9 74.8c6.3-4 8.7-4.8 19.6-4.8 1.2.8 2.4 1.4 3.7 1.9 2-1.1 3.9-2.1 5.9-3.1h-.1c-1.7-.7-3.7-2.4-5.7-3-1.5-.5-3.2-.1-4.4-.9-10.3-.2-18.9.8-23.1 6.5-2.1 2.8-3.2 7.1-3.5 11.5 1.9-.2 3.8-.4 5.7-.7.5-2.2 1.1-4.6 1.9-7.4z"/><path class="st5" d="M236.8 96.6c1.7 4.4 9.5 5.6 10.4 8.7-5.4 5.3-6.5 14-8.7 22.6-1.1 4.9-1.7 9.8-1.7 14.8-.1 12-1.6 26.2 2.2 35.3 2.4 5.6 5.5 10.8 9.1 15.7l8.3 8.3c5.3 6.8 9.7 14.3 13.1 22.2 3.3 8 4.9 17.5 7 26.4 1.6.4 3.3.6 4.9.8l-5.4-22.8c-3.6-10.3-8.8-20-15.2-28.7l-8.7-8.7c-6.5-8.8-14.5-23.4-10.4-40.9l.4-16.1c1.8-7.7 3-14.9 6.1-20.9 1.4-2.8 2.8-7 6.1-7.8 2.9 1.8 7.3.4 11.3 1.3 7.5 1.7 16.3 1.1 23.1 2.6l8.7.4 18.3 3.9 15.7 6.1c5.4 1.8 10.8 1.2 17 2.6 6.5 1.7 13.3 2.5 20 2.6v.9c-7.9 5.3-8.9 17.8-11.3 28.7l-.4 8.7c-2.3 10.6-.4 30.1 1.7 40l.9 20.5c.6 2.6.8 5.5.9 8.5 1.6.4 3.2.8 4.8 1.3-.2-5.7-.2-11.5-1.4-16.8v-8.3c-1-4.6-.2-9.8-1.3-14.8-2.4-13.1-2.3-26.6.4-39.6l.9-8.3c2.4-8.6 5.6-14.4 11.8-19.2l.9-1.7h5.7c1.7 1 5-.1 7.4.4 7.3 1.6 17.9-.2 25.2.9h8.3c6.7 1.4 17.3 1.3 24.4 1.3h10c4.4.9 10.8-.6 15.7.4 8.9 1.9 36.4 2 43.5-.9h40.9v.9c-16.2 16.2-14.4 44.5-14.4 76.6 0 7.3-1 16.6.4 23.1.4 1.7.4 3.7.3 5.6 1.6.4 3.2.8 4.8 1.3-.2-12.3-.4-24.8-.4-37.8 0-12.1-1.7-28.7.9-39.2 1.4-5.7 2.9-12 5.7-16.5 2.6-4.2 5.6-7.9 7.8-12.6 2.3 1.2 6.3 2.7 10 1.3.9-.3 1.9-1.9 2.6-2.2 1.4-.5 4.8 1 7 .4 3.6-.8 9.1-.7 12.6-2.2 3.1-1.3 4-4.3 6.1-6.5.6-9.6-4.2-12-9.1-17l-13.1-13.1c-4.4-3.1-8.3-6.8-11.8-10.9-12.2-16.1-33.6-29.5-53.5-37.9-3.1-1.3-6-1.2-9.6-2.2-6.1-1.7-12.2-3.3-18.3-4.8l-11.4-.7c-13.6-3-31.7-2.2-48.3-2.2-15.2.1-30.5.3-45.7.4l-30 3.5c-15.7 4-31.7 8-45.3 13.9-21 9.1-40.8 18.3-58.3 30.9-4.8 3.4-10 5.3-10 13.5-.2 1.4-.1 2.8.4 4zm325.6 25.3H548c-1.7 1.1-6.6.5-9.1.4-6.8-.1-25.7 1-27.4-3.9-2.5-3-1.6-8.2 0-11.3 4.3-8.2 10.6-7.7 23.1-7.4 3.4 2.1 12-.3 16.5.9 7.7 1.9 13.5 8.7 13.5 18.3l-2.2 3zm4.4 3v-.4c1.5-1.2 1.6-3.6 3.5-4.4l.4 4.4c-1.3.3-2.6.5-3.9.4zM405.7 35.3H441c3.7 2.2 14.2-.7 19.2.4l29.6 3.9c12.3 3.5 26.2 6 36.1 12.2 9.8 6.1 19.2 13.2 28.3 20 7.2 5.4 11.5 14.6 18.7 20 6.3 4.7 11.5 10.6 17 16.1 2.6 2.6 5.9 3.9 6.1 9.1-1.3 1.4-1.4 2.8-3.5 3.5-3.3 2.3-10.9 1.8-16.1 1.7-.7-2-1.1-4.8-2.6-6.1-1.1-1-4-1.4-4.8-2.6-1-1.5-.6-3.6-1.3-5.2-2.6-6.2-7.9-10.8-14.4-12.6-3.8-1-8.4.4-12.6-.4-16-3.3-28.4-1-34 9.6-1.2 2.2-2.9 7.4-1.7 11.8.9 2.6 2.3 5.1 3.9 7.4h-20c-1.9-1.2-5.7.1-8.3-.4-7.3-1.6-16.1-.8-24.4-.9-22.7-.3-44.5-2.1-68.3-2.2l-.4-1.3c1.3-2.2.4-8.2.4-11.3-.2-6 .3-12 1.3-17.8v-4.8c1.9-8.7 1.3-18.7 3.9-26.6 2.2-6.6 4.9-14.2 8.7-19.6l3.9-3.9zm-7.4 0v.4c-7.7 7.9-10.2 23.7-13.1 36.6-1.7 7.6-.6 15.9-2.2 23.1l-.4 22.2c-.3.8-1.3 1.7-1.7 2.6-1.7-.3-3.5-.5-5.2-.4-.4-12.9.8-25.7 3.5-38.3l.9-11.3c3-12.7 5.8-26.4 13.5-34.4l4.7-.5zM295.6 63.1c1.8-2.4 4.7-4.5 6.5-7l.4-1.7 2.2-.4c5-2.3 10.3-4 16.1-6.1 20.8-7.6 42.7-11.6 64.9-11.8v.9c-3.7 4.1-4.6 11.1-6.5 17-5.7 17.3-8.6 43.4-8.7 65.7-24 .6-43.1-7.6-61.4-13.1L293 104c-3.1-.7-6.2.9-7.4-1.7-1.3-1.4-2-6-1.3-9.1 2-9.1 4.1-17.6 8.3-24.4 1.1-2 1.6-3.9 3-5.7zm-3.5-3.9v.9c-2.9 2-4 5.9-5.7 9.1-5.2 10.2-7.6 21.6-7 33.1h-3.5c-.3-15.4 6.3-38.5 16.2-43.1zm-47.5 27c6.5-4.8 13.8-7.8 20.9-12.2 4.5-3 9.1-5.8 13.9-8.3v.9c-2.4 2-2.7 5.9-3.9 9.1-3.1 8.4-4.7 17.2-4.8 26.1-10.8.3-29.4-.8-29.2-11.3 1.2-1.4 1.7-3.2 3.1-4.3z"/><path class="st5" d="M275.5 140.2c2.2-.5 3.6-2.6 3.5-4.8.5-.9.1-1.5 0-3-1.7-1.1-2-2-4.8-2.2-4.5-2.7-13.9.7-18.3-2.2-3.2-.2-5.7-.1-6.5 2.2-1.2 1.5-.9 4.5-.4 6.5 1.5 1 2.9 2.5 4.8 3h13.1c1.8.4 6.4 1.9 8.6.5zm-1.3-4.4h-4.8c-3.3-2.1-11.9-.5-16.1-1.3v-1.7c4.8 0 16.9.8 20.9 2.2v.8zm-5.6 112.5c-3.3-13.4-7.7-25.8-17.4-32.8-5.7-4.1-18.8-9-26.1-11.3-5.9-1.9-28.9-3.7-36.1-1.7-4.9 1.3-9 3.9-13.1 5.7-6 2.6-11.6 3.9-16.5 7.4-4.4 3.2-8.2 7.5-11.5 12.6 2.6-.8 5.2-1.5 7.8-2.2 6.8-8.1 24.8-16.1 36.3-18.7 6-1.4 17 .2 21.3 1.3 13.4 3.3 19.6 5.3 27.9 13.5l3.9 3.5c3.3 4.6 5.6 10.5 7.4 16.8 4.5 1.9 9.1 3.6 13.7 5.2.8.2 1.6.4 2.4.7zm457.1-3.2c-3.1-10.4-7.4-19.6-15.3-25.3-5.8-4.2-18.8-8.9-26.1-11.3-2.9-1-5.8-.1-9.1-.9-8.7-1.9-23.6-2.3-31.8.4-2.3.8-4.4 2.6-6.5 3.5-6.5 2.8-12.9 4.4-18.3 8.3-10 7.2-16.7 20.2-21.6 34.1 1.6.6 3.3 1.2 5 1.8 3.2-9 6.9-17.4 12.3-24.6 6.2-8.3 25.1-16.8 37-19.6 7-1.6 18.1 2 23.1 3.5 5.7 1.7 11.6 1.8 16.5 4.4 3.1 1.6 5.2 4.9 7.8 7 5 3.8 8.3 8.4 10.6 13.6 3.7.3 7.5 1.1 11.4 2.7 1.7.7 3.4 1.6 5 2.4z"/><path class="st5" d="M1078.7 205.5c-7.5-20.4-15.4-32.1-32.6-42.7-9.5-5.8-21.2-8.4-32.6-12.2-31.4-10.4-68.4-15-101.9-23.5-13.7-3.5-28.2-4-40.9-7.8-2.9-.9-11.4-1.5-12.6-3.5-.9-1.5-.6-4.2-1.3-5.7-3.6-7.3-8.5-12.4-17-14.8-2.7-.8-15.4.2-17.8.9-1.2.3-4.3 1.8-4.8 1.3-8.6-3.9-16.6-10.7-24.4-15.7-9.7-6.1-19.9-11.5-29.6-17.4-6.7-4.1-15.4-6.8-22.6-10-5.2-2.3-10.4-6-15.7-8.3-5.2-2.3-10.4-3.4-15.7-5.7-5.9-2.6-12.3-5.8-18.3-8.3-9-3.7-19.7-5.5-28.7-8.7-4.6-1.6-9.1-1-13.9-2.2-13.6-3.4-29.8-2.5-44-5.7h-6.1c-3.8-.9-8.9-.9-12.6-1.7h-7c-5.7-1.3-13-.5-18.7-1.7L522 10.4h-29.6c-5 0-11.4-.5-15.7.4-3 .6-7.1-.1-9.6.4h-7.8c-6 1.3-14 .7-19.6 2.2h-13.1l-33.1 3c-13.6 3.2-29.4 2.6-43.1 6.1-21.9 5.6-42.6 11.4-62.3 19.6-11.1 4.6-21.5 11.4-31.3 17.4-6.9 4.2-15 6.2-21.8 10.4-11 6.9-22 15-35.7 19.2-8.5 2.6-17 3.1-26.1 5.7-8.5 2.4-17.5 5-26.1 7.4-7.5 2.1-15.3 2.9-22.2 4.8-3.8 1.1-7.1.7-10.9 1.7-5.4 1.5-11.3 3.5-16.5 5.2-3.6 1.2-7.1 1.2-10 3-12.9 8-20.2 21.4-24.4 38.3-1 5.6-1 11.4 0 17l.4 15.7c1.6 6.2 3.5 11.5 3.5 20 0 8.7-1.3 14-2.8 20.5l4.5 3.6v-1.9c.9-4 2.2-8.1 3-11.8v-17.4c-.9-3.1-1.4-6.3-1.7-9.6 4.9-.7 8.2-5.4 11.8-7.8 1.6-1.1 3.3-1.5 4.8-2.6l7.8-8.3c6.7-5 11.3-12.7 5.2-22.6-3-5-8.4-9.7-13.1-13.1-2.4-1.7-6.6-2.8-7.8-5.7 5.4-2.6 7.6-8.9 13.1-11.3 1.7-.7 2.9-.3 4.8-.9 5.6-1.8 12.1-4 17.8-5.7 3.8-1.1 6.9-.7 10.9-1.7 16.6-4.5 34.2-8.2 50.1-12.6l9.1-1.3c7.9-2 16.7-3.8 23.9-7 10.6-4.6 19.8-11.1 29.2-17 7.3-4.6 16.1-6.8 23.5-11.3 8.6-5.3 18-11.9 27.9-15.7 13.3-5.1 26.8-9.9 40-14.4 11.6-3.9 25-4.5 37.4-7.4l14.8-1.3c11.4-2.6 24.5-2.1 36.6-4.8l20-.4c8.9-1.9 20.3-2.4 30-2.6 12.2-.3 25.1-.4 37.9-.4 6 0 13.5-.7 18.7.4 4.1.9 9.5-.3 13.1.4h9.6c6.2 1.4 13.9.4 20 1.7h6.1c8.3 1.8 17.7.8 25.7 2.6h6.1c8.7 1.9 18.9 1.5 27.4 3.5 4.9 1.1 11.3-.3 14.8 2.2-12.7-.1-30-1.4-39.6 0-.9.1-4-.4-5.7-.4-5.8 0-13.2.2-18.3 1.3H574c-6.6 1.5-15 .6-20.9 3-4.3 1.8-6.6 4.7-9.6 7.8 0 2.9-.5 6.9.4 9.1 2.4 5.8 11.5 11.7 16.5 15.2 5.9 4.2 10.8 10 16.5 14.4l11.3 12.2c7.7 7.4 16.2 13.9 25.2 19.6 5 3.2 10.1 7.7 16.5 9.6l8.7.4c5.9 1.3 21.7.8 27.4-.4h11.8c10.5-2.3 23.2.5 33.5-1.7H737l59.2.4c9.2 0 20.4 1.2 28.7-.4 1-1.6 2.1-3.4-.4-4.4-1.4-.9-4.9-.4-7-.4h-17.8c-3-11-19.8-9.6-34-9.6h-9.6c-4.1-.9-16.6-1.5-21.3-.4-1.6.4-4.3 1.5-6.1 1.3-15.8-2-36.2-1.1-49.6 2.2l-12.2 1.7c-2.6.7-6.5 1.6-8.7 3-1.2 1.3-2.3 2.6-3.5 3.9h-13.1c-2.2-1.3-6.3.3-9.1-.4-5.6-1.6-10.9-4.1-15.7-7.4-4-2.7-7.5-6.7-11.3-9.6-7.3-5.4-14.1-11.4-20.5-17.8-5.5-5.5-10.7-11.8-17-16.5-5.7-4.3-23.1-13.6-19.2-23.5 2.5-1.3 4.9-2.6 7.4-3.9 5.1-1.6 11.4-1 16.5-2.2h10c10.3-2.2 24-1.3 36.1-1.3l30 .4 27.9 2.6c6.4-1 14 4.4 19.2 6.5 9.5 4 18.9 6.7 28.3 10.9 6.6 2.9 13.3 7.5 20 10.4 22.4 9.9 41.2 21.5 60.9 34 10.1 6.4 20.2 12.5 31.3 18.3 2.3 1.2 5.1 3.5 7.4 4.4 4 1.4 7.5 1 11.3 2.2 15.7 4.8 33.7 6.6 50.5 10.9l9.1 1.3c5.5 1.5 11.8 2.9 17.4 4.4 4.2.6 8.4 1.2 12.6 1.7 23.8 6.2 49.7 10.6 71.8 17.8 10.2 3.4 19.7 6.4 27.9 11.8 2.5 1.6 5.9 2.2 6.1 6.1.5.7.3.2 0 .9-3.7 3.3-10.6 1.3-16.5 2.6-12.7 2.8-29.3 1.4-44.4 1.7-11.3.2-25 .4-35.3 2.6-5 1.1-10.6-.1-15.2.9h-10.4c-9.9 2.1-20.9.5-30.5 2.6-2.7.6-7.1-.1-9.1-.4-4.9-.7-13.6 1.3-19.6 0-3.9-.9-7.8-1.5-11.8-1.7-.9.9-1.4 2.2-1.3 3.5.8.6 1.7.9 2.6.9 2.4 1.6 6.3 1 9.6 1.7 6.1 1.4 17 2.3 23.5.9H906c5.8-1.3 13.6-.8 20-2.2h11.3c4.9-1.1 10.8.3 16.1-.9 9.7-2.1 21.8-1.1 32.2-2.6h15.7c13.5 0 26.1.3 37.4-2.2 4.4-1 8.1.1 11.8-1.3 2.5-.9 3.9-3.3 6.1-4.4 1.4 2.3 3.2 4.4 5.2 6.1-.5 2.6.3 6.9-.4 10-3.1 13-.9 22.8 14.4 22.6.3 8.3 1 29.1-5.7 30.5-1.4-1.1-4.5-1.6-6.9-1.1 4.7 1.1 9.4 1.9 14.1 2.4.7-2 1.5-3.8 1.9-5.2.9-2.8 1.1-6 1.7-8.7v-7c.9-8.7.1-15.3-2.2-21.4zm-996-65.3c7.3 4.9 14.9 10.7 14.8 23.1-1.9 1.5-2.8 4.2-4.8 5.7-3.3 2.5-5.5 6-8.7 8.3-2 1.4-4.1 2.1-6.1 3.5-2.7 1.9-5.1 5.3-8.7 6.1-.4-.4-.1-.2-.9-.4v-2.2c-1.6-2.4-.4-10-.4-13.5 0-11.5 1-21.4 4.8-28.7 1.1-2.1 1.4-5.1 3.5-6.1 1.6 1.8 4.3 2.7 6.5 4.2zm676-33.1c1.8 1.1 6.5.4 9.1.4 9.1 0 21.8-1.5 25.7 3.9l.4.4H746c-.8-1.7-1.8-3.4-3-4.8h15.7zm-39.6 4.3c4.2-.9 7.9-2.8 12.6-3l8.3 3v.4h-20.9v-.4zm-29.6-3c8.1-1.9 17-1.2 26.1-1.3-3 3-5.4 4.9-11.8 4.8-2 1.2-6-.1-8.7.4-6.5 1.4-15.1.9-22.2.9-2.7 0-6.4 1.2-8.3 0l24.9-4.8zm134.5-6.5v-.9h6.5c1.6-1.1 7.4-.6 9.1 0 6.1 2 12.2 6.5 12.6 13.9-10.7-1.1-19.6-8.8-28.2-13zm246.9 109.2c-1.6-2-3.3-3.9-5.2-5.7-.1-4.2.2-11 2.2-13.5 1.6 6.6 5.6 12 7.4 19.2h-4.4z"/><path class="st5" d="M893.7 222c1.2 1.9 1.4 3.8 2.6 5.7 5.8 8.7 13 16.7 19.3 25 1.1 0 2.2-.1 3.3-.3l2.1-.3c-.8-1.1-1.5-2.2-2.1-3.1h4.4c1.2.7 3.8.6 6.1.5 3.4-1.5 6.7-3.3 9.9-5.3-8.9-.1-17.6-.4-25.1-1.3-.6-1.8-2.1-2.6-3-3.9-3.3-4.5-6.7-8.7-9.6-13.5h2.2c3.9 2.4 11.6.2 16.5 1.3 14.4 3.1 32 1 47.6.3 3.6-1.5 7.3-2.8 11.2-3.6 11.2-2.4 22.6-1.5 33.5 1.8 2.8-.1 6.2.3 8.3.3 6.7 0 13.4-.6 20-1.7v.9c-1.7 1.8-3.2 6.2-4.4 10.6 1.5.7 3.1 1.5 4.6 2.2.4-1.6.9-3.1 1.5-4.5l7-15.2c1.5-3.6 4.1-10.1 2.2-15.2-1.6-3.9-5-6.9-9.1-7.8-2.1-.5-4.5.1-6.1-.9-12.3-.1-23.6.9-36.6.9-7.9 0-17.8-1.1-24.8.4-5.9 1.3-13.4-.7-18.7.4h-9.1c-7.7 0-21-.7-28.3.9l-7.4.4c-8.3 2.2-25.7 5.2-21.3 19.2.7 1.9 1.9 3.9 3.3 5.8zm2.6-14.4c2.3-.6 3.7-2.2 5.7-3 3.7-1.6 8.6-2.1 12.6-3l13.9-.4c4.9-.1 11-.4 16.5-.4h9.6c5.5-1.2 13.1.9 19.2-.4 7-1.5 17-.4 24.8-.4 13.6 0 25.3-.8 38.3-.9 1.6 1 5.6 1.3 7.4 1.7 1.2 1.9 2.4 2.7 2.6 5.7 1 1.7-.7 4.1-1.3 5.7-.7 1.9-.7 5.3-2.2 6.5-1.7 1.5-6.6-.1-9.1.4-5 1-10.1 1.4-15.2 1.3h-8.7c-2.4.5-6.7.5-8.7 1.3-2.5-1.2-13.5-2.5-17.8-1.3-.9.2-2.3 1.5-3 1.7-2 .5-9.8-.9-13.9 0-9.9 2.2-37.6 1.9-47-.4-5.1-1.3-11.5-.2-16.1-1.3-2-.5-4.4.4-5.2 0-3.5-3.5-3.6-8.3-2.4-12.8z"/></g><path class="st3" d="M1110.8 244.5c-3.4-.1-5.9 1.7-9.1 2.5-4.2 1-9.1.4-13.3.4-3.9 0-7.4-.4-11.3-.9-1.6-.2-3.6-.3-5.6-.7-.5-.5-1.2-1-1.8-1.1-.9-.2-1.7-.2-2.5-.3-.2-.1-.4-.2-.6-.4-1.2-.9-2.4-.7-3.4 0l-1.2-.3c-1.9-.6-3.7-1.5-5.6-2.3-4.6-2.2-9.4-3.9-13.9-6.4-8.1-4.4-15.4-9.2-24.1-12.4-8.7-3.3-17.5-6.2-26.9-6.6-8.9-.4-16.7 2.3-24.7 5.8-17.5 7.4-31.5 23.9-51.1 25.9-10.9 1.1-22.6-.9-33-4.2-4.1-1.3-8.1-3-12.1-4.6-4.3-1.7-8.2-4.5-12.7-5.5-16.7-3.7-36.3 1.2-50.8 9.6-7.8 4.5-14.5 12.1-23.4 14.5-8.8 2.4-18.7 2.6-27.6.9-9.6-1.9-17.8-6.8-25.4-12.7-3-2.3-5.7-5-9.3-6.1-3.6-1.2-7.8-2.3-11.6-2.6-4.7-.5-9.4.6-14 .9-4.4.3-7.5 1.7-11.3 3.9-8.3 4.6-16.7 9.1-25.2 13.4-17.9 9.1-38.7 5-57.1.2-9.1-2.4-17.4-7.9-25.8-11.8-8.6-4-17.8-7-26.7-10.4-18.1-6.9-36.9-5.6-54.9.8-8.1 2.9-16 7.1-22.8 12.4-7.9 6.2-18 9.2-28 9.4-9.8.2-20.6-2.2-30.2-4.2-9.5-2-18.2-6.3-27-10.3-16.2-7.3-34.7-14.8-52.8-12-8.3 1.3-16.5 3.4-23 9-2.9 2.6-5.8 5-8.9 7.3-4.6 3.2-10.7 3.6-16.1 3.7-9.6.2-17.9-1.7-26.5-6-8.3-4.2-15.7-9.9-24-14.2-8.2-4.2-16.4-7.1-25.4-8.6-10.4-1.7-20.6-3.7-31.2-3.5-17.7.4-36.4 3.9-51.6 13.2-3.9 2.4-8.2 3.6-12.4 5.4-4.9 2.1-9.7 3.3-15 3.6-4.9.3-10-.2-14.8-1.2-5.3-1.1-8.8-3.9-12.6-7.5-11.6-10.7-28.5-19.2-44.8-17.3-4.1.5-8.2 1-12.3 1.8-2.4.5-4.9 1-7.2 1.9-1.6.6-3.1 1.8-4.8 1.9-3.8.2-2.8 6.1 1 5.9 3.7-.2 7.3-2.8 11.1-3.6 4.6-1 9.8-1.8 14.5-2 9.6-.3 19.8 3 28 7.9 6.8 4 11.7 10.7 18.6 14.5 7.2 3.9 16.8 4.2 24.8 3.7 8.8-.6 17.9-4 25.7-7.9 3.5-1.7 6.7-4 10.2-5.8 4.6-2.4 9.4-3.3 14.4-4.7 20.7-5.9 40.9-3.5 61.6.2 18.7 3.4 32.5 17.6 49.7 24.3 8.3 3.2 16.1 4.1 24.9 3.8 3.9-.2 7.7-.5 11.4-1.7 4-1.3 6.8-3.6 10.1-6 3.5-2.5 6.3-5.6 10-7.7 4.5-2.5 9.5-3.5 14.6-4.4 10.1-1.8 20.5.3 30.1 3.4 17.6 5.7 33.4 16.1 51.7 19.3 18.4 3.3 36.8 6.5 54.1-3.1 3.4-1.9 6.2-4.6 9.4-6.8 4.2-2.8 8.9-5.3 13.5-7.2 10-4.3 21.1-7 32.1-6.6 9.8.4 18.7 2.7 27.7 6.4 8.9 3.6 17.9 6.4 26.5 10.8 8.2 4.1 16.1 8.4 25.1 10.4 9.3 2 17.9 4.4 27.5 4.5 8.4.1 17.2-.7 25.1-3.7 8.7-3.3 17-8.6 25.1-12.9 4.4-2.3 8.5-5.5 13.5-6 5.1-.5 10.7-1.6 15.7-.6 4.1.8 8.5 1.6 11.9 4.1 3.5 2.6 6.8 5.5 10.5 7.9 14.7 9.7 32.5 12.4 49.6 8.6 8.3-1.8 14.1-7 20.9-11.8 8-5.6 17-9.6 26.5-11.8 9-2.1 21.2-3.7 29.8.4 8.3 4 16.8 7.8 25.8 10 8.9 2.2 18.3 3.7 27.5 3.1 9.7-.6 18.3-4.2 26.5-9.1 15.6-9.2 31.4-23.7 50.7-22.8 10.6.5 20.5 4.3 30.3 8.1 8.5 3.3 15.9 9.4 24.2 13.2 3.7 1.7 7.5 3.3 11.3 4.9 2.9 1.2 5.4 1.6 8.1 1.9h.1c.6 2.1 3.5 3.4 5 1.3.7.1 1.4.2 2.2.4 3.8.8 8 1.4 12 1.5 4.8.1 9.7.2 14.6 0 2.1-.1 4.2-.4 6.2-1.1 1.7-.6 3.6-1.8 5.4-1.7 3.9.3 4.5-5.7.6-5.8zm2.8 74.3c-3.4-.1-5.9 1.7-9.1 2.5-4.2 1-9.1.4-13.3.4-3.9 0-7.4-.4-11.3-.9-1.6-.2-3.6-.3-5.6-.7-.5-.5-1.2-1-1.8-1.1-.9-.2-1.7-.2-2.5-.3-.2-.1-.4-.2-.6-.4-1.2-.9-2.4-.7-3.4 0l-1.2-.3c-1.9-.6-3.7-1.5-5.6-2.3-4.7-2.2-9.4-3.9-13.9-6.4-8.1-4.4-15.4-9.2-24.1-12.4-8.7-3.3-17.5-6.2-26.9-6.6-8.9-.4-16.7 2.3-24.7 5.8-17.5 7.4-31.5 23.9-51.1 25.9-10.9 1.1-22.6-.9-33-4.2-4.1-1.3-8.1-3-12.1-4.6-4.3-1.7-8.2-4.5-12.7-5.5-16.7-3.7-36.3 1.2-50.8 9.6-7.8 4.5-14.5 12.1-23.4 14.5-8.8 2.4-18.7 2.6-27.6.9-9.6-1.9-17.8-6.8-25.4-12.7-3-2.3-5.7-5-9.3-6.1-3.6-1.2-7.8-2.3-11.6-2.6-4.7-.5-9.4.6-14 .9-4.4.3-7.5 1.7-11.3 3.9-8.3 4.6-16.7 9.1-25.2 13.4-17.9 9.1-38.7 5-57.1.2-9.1-2.4-17.4-7.9-25.8-11.8-8.6-4-17.8-7-26.7-10.4-18.1-6.9-36.9-5.6-54.9.8-8.1 2.9-16 7.1-22.8 12.4-7.9 6.2-18 9.2-28 9.4-9.8.2-20.6-2.2-30.2-4.2-9.5-2-18.2-6.3-27-10.3-16.2-7.3-34.7-14.8-52.8-12-8.3 1.3-16.5 3.4-23 9-2.9 2.6-5.8 5-8.9 7.3-4.6 3.2-10.7 3.6-16.1 3.7-9.6.2-17.9-1.7-26.5-6-8.3-4.2-15.7-9.9-24-14.2-8.2-4.2-16.4-7.1-25.4-8.6-10.4-1.7-20.6-3.7-31.2-3.5-17.7.4-36.4 3.9-51.6 13.2-3.9 2.4-8.2 3.6-12.4 5.4-4.9 2.1-9.7 3.3-15 3.6-4.9.3-10-.2-14.8-1.2-5.3-1.1-8.8-3.9-12.6-7.5-11.6-10.7-28.5-19.2-44.8-17.3-4.1.5-8.2 1-12.3 1.8-2.4.5-4.9 1-7.2 1.9-1.6.6-3.1 1.8-4.8 1.9-3.8.2-2.8 6.1 1 5.9 3.7-.2 7.3-2.8 11.1-3.6 4.6-1 9.8-1.8 14.5-2 9.6-.3 19.8 3 28 7.9 6.8 4 11.7 10.7 18.6 14.5 7.2 3.9 16.8 4.2 24.8 3.7 8.8-.6 17.9-4 25.7-7.9 3.5-1.7 6.7-4 10.2-5.8 4.6-2.4 9.4-3.3 14.4-4.7 20.7-5.9 40.9-3.5 61.6.2 18.7 3.4 32.5 17.6 49.7 24.3 8.3 3.2 16.1 4.1 24.9 3.8 3.9-.2 7.7-.5 11.4-1.7 4-1.3 6.8-3.6 10.1-6 3.5-2.5 6.3-5.6 10-7.7 4.5-2.5 9.5-3.5 14.6-4.4 10.1-1.8 20.5.3 30.1 3.4 17.6 5.7 33.4 16.1 51.7 19.3 18.4 3.3 36.8 6.5 54.1-3.1 3.4-1.9 6.2-4.6 9.4-6.8 4.2-2.8 8.9-5.3 13.5-7.2 10-4.3 21.1-7 32.1-6.6 9.8.4 18.7 2.7 27.7 6.4 8.9 3.6 17.9 6.4 26.5 10.8 8.2 4.1 16.1 8.4 25.1 10.4 9.3 2 17.9 4.4 27.5 4.5 8.4.1 17.2-.7 25.1-3.7 8.7-3.3 17-8.6 25.1-12.9 4.4-2.3 8.5-5.5 13.5-6 5.1-.5 10.7-1.6 15.7-.6 4.1.8 8.5 1.6 11.9 4.1 3.5 2.6 6.8 5.5 10.5 7.9 14.7 9.7 32.5 12.4 49.6 8.6 8.3-1.8 14.1-7 20.9-11.8 8-5.6 17-9.6 26.5-11.8 9-2.1 21.2-3.7 29.8.4 8.3 4 16.8 7.8 25.8 10 8.9 2.2 18.3 3.7 27.5 3.1 9.7-.6 18.3-4.2 26.5-9.1 15.6-9.2 31.4-23.7 50.7-22.8 10.6.5 20.5 4.3 30.3 8.1 8.5 3.3 15.9 9.4 24.2 13.2 3.7 1.7 7.5 3.3 11.3 4.9 2.9 1.2 5.4 1.6 8.1 1.9h.1c.6 2.1 3.5 3.4 5 1.3.7.1 1.4.2 2.2.4 3.8.8 8 1.4 12 1.5 4.8.1 9.7.2 14.6 0 2.1-.1 4.2-.4 6.2-1.1 1.7-.6 3.6-1.8 5.4-1.7 3.9.3 4.5-5.7.6-5.8zm-3.5 74.3c-3.4-.1-5.9 1.7-9.1 2.5-4.2 1-9.1.4-13.3.4-3.9 0-7.4-.4-11.3-.9-1.6-.2-3.6-.3-5.6-.7-.5-.5-1.2-1-1.8-1.1-.9-.2-1.7-.2-2.5-.3-.2-.1-.4-.2-.6-.4-1.2-.9-2.4-.7-3.4 0l-1.2-.3c-1.9-.6-3.7-1.5-5.6-2.3-4.6-2.2-9.4-3.9-13.9-6.4-8.1-4.4-15.4-9.2-24.1-12.4-8.7-3.3-17.5-6.2-26.9-6.6-8.9-.4-16.7 2.3-24.7 5.8-17.5 7.4-31.5 23.9-51.1 25.9-10.9 1.1-22.6-.9-33-4.2-4.1-1.3-8.1-3-12.1-4.6-4.3-1.7-8.2-4.5-12.7-5.5-16.7-3.7-36.3 1.2-50.8 9.6-7.8 4.5-14.5 12.1-23.4 14.5-8.8 2.4-18.7 2.6-27.6.9-9.6-1.9-17.8-6.8-25.4-12.7-3-2.3-5.7-5-9.3-6.1-3.6-1.2-7.8-2.3-11.6-2.6-4.7-.5-9.4.6-14 .9-4.4.3-7.5 1.7-11.3 3.9-8.3 4.6-16.7 9.1-25.2 13.4-17.9 9.1-38.7 5-57.1.2-9.1-2.4-17.4-7.9-25.8-11.8-8.6-4-17.8-7-26.7-10.4-18.1-6.9-36.9-5.6-54.9.8-8.1 2.9-16 7.1-22.8 12.4-7.9 6.2-18 9.2-28 9.4-9.8.2-20.6-2.2-30.2-4.2-9.5-2-18.2-6.3-27-10.3-16.2-7.3-34.7-14.8-52.8-12-8.3 1.3-16.5 3.4-23 9-2.9 2.6-5.8 5-8.9 7.3-4.6 3.2-10.7 3.6-16.1 3.7-9.6.2-17.9-1.7-26.5-6-8.3-4.2-15.7-9.9-24-14.2-8.2-4.2-16.4-7.1-25.4-8.6-10.4-1.7-20.6-3.7-31.2-3.5-17.7.4-36.4 3.9-51.6 13.2-3.9 2.4-8.2 3.6-12.4 5.4-4.9 2.1-9.7 3.3-15 3.6-4.9.3-10-.2-14.8-1.2-5.3-1.1-8.8-3.9-12.6-7.5-11.6-10.7-28.5-19.2-44.8-17.3-4.1.5-8.2 1-12.3 1.8-2.4.5-4.9 1-7.2 1.9-1.6.6-3.1 1.8-4.8 1.9-3.8.2-2.8 6.1 1 5.9 3.7-.2 7.3-2.8 11.1-3.6 4.6-1 9.8-1.8 14.5-2 9.6-.3 19.8 3 28 7.9 6.8 4 11.7 10.7 18.6 14.5 7.2 3.9 16.8 4.2 24.8 3.7 8.8-.6 17.9-4 25.7-7.9 3.5-1.7 6.7-4 10.2-5.8 4.6-2.4 9.4-3.3 14.4-4.7 20.7-5.9 40.9-3.5 61.6.2 18.7 3.4 32.5 17.6 49.7 24.3 8.3 3.2 16.1 4.1 24.9 3.8 3.9-.2 7.7-.5 11.4-1.7 4-1.3 6.8-3.6 10.1-6 3.5-2.5 6.3-5.6 10-7.7 4.5-2.5 9.5-3.5 14.6-4.4 10.1-1.8 20.5.3 30.1 3.4 17.6 5.7 33.4 16.1 51.7 19.3 18.4 3.3 36.8 6.5 54.1-3.1 3.4-1.9 6.2-4.6 9.4-6.8 4.2-2.8 8.9-5.3 13.5-7.2 10-4.3 21.1-7 32.1-6.6 9.8.4 18.7 2.7 27.7 6.4 8.9 3.6 17.9 6.4 26.5 10.8 8.2 4.1 16.1 8.4 25.1 10.4 9.3 2 17.9 4.4 27.5 4.5 8.4.1 17.2-.7 25.1-3.7 8.7-3.3 17-8.6 25.1-12.9 4.4-2.3 8.5-5.5 13.5-6 5.1-.5 10.7-1.6 15.7-.6 4.1.8 8.5 1.6 11.9 4.1 3.5 2.6 6.8 5.5 10.5 7.9 14.7 9.7 32.5 12.4 49.6 8.6 8.3-1.8 14.1-7 20.9-11.8 8-5.6 17-9.6 26.5-11.8 9-2.1 21.2-3.7 29.8.4 8.3 4 16.8 7.8 25.8 10 8.9 2.2 18.3 3.7 27.5 3.1 9.7-.6 18.3-4.2 26.5-9.1 15.6-9.2 31.4-23.7 50.7-22.8 10.6.5 20.5 4.3 30.3 8.1 8.5 3.3 15.9 9.4 24.2 13.2 3.7 1.7 7.5 3.3 11.3 4.9 2.9 1.2 5.4 1.6 8.1 1.9h.1c.6 2.1 3.5 3.4 5 1.3.7.1 1.4.2 2.2.4 3.8.8 8 1.4 12 1.5 4.8.1 9.7.2 14.6 0 2.1-.1 4.2-.4 6.2-1.1 1.7-.6 3.6-1.8 5.4-1.7 3.9.3 4.5-5.7.6-5.8zM63.7 178.7c-1.1-1-2.2-2.1-3-2.9-2-1.7-4-3.3-6.4-4.5-6.4-3.3-13.5-6.4-20.7-7.3-8.7-1.1-29.4-1.4-31.4 10.8-.6 3.8 5.4 4.4 6 .6.3-2 4.3-3.7 5.9-4.4 2.9-1.1 6.3-1.2 9.4-1.3 7-.2 13.1.5 19.5 3.1 5 2 9.8 4 13.9 7.5 2 1.7 4.1 3.8 6.5 5-.3-2-.2-4.4.3-6.6zM1114 208.9c-1.4-4.1-8.2-6.2-12.1-5.8-3.3.4-6.5 2.1-9.4 3.7-2.5 1.4-5.5 4.6-8.5 4.6-3.8.1-4.5 6-.6 6h.9c.3 0 .5 0 .7-.1 3.8-.6 6.6-3.2 10-5.1 2.2-1.2 5.6-3.3 8.2-3.2 1.4.1 4.8 1.1 5.3 2.5 1.3 3.6 6.8 1 5.5-2.6z" id="waves"/></svg>