<svg xmlns="http://www.w3.org/2000/svg" viewBox="0 0 17.72 17.29"><path d="M17.68 7.75a1.21 1.21 0 0 1-.09.86.72.72 0 0 1-.18.21 1.33 1.33 0 0 1-.91.23 1.83 1.83 0 0 1-1.21-.54c-.21-.18-.39-.37-.6-.55-.54-.45-1-1-1.52-1.44s-.9-.75-1.35-1.12-.82-.79-1.29-1.19a2.16 2.16 0 0 0-2.07-.8 4 4 0 0 0-1.34 1l-1 .84a4.94 4.94 0 0 0-.45.35l-.46.35a9.72 9.72 0 0 0-.86.7c-.62.57-1.14 1.24-1.8 1.77A2.3 2.3 0 0 1 1 9.05a1 1 0 0 1-1-.72 1.87 1.87 0 0 1 .76-1.62 7.19 7.19 0 0 1 .8-.66c.27-.2.5-.45.76-.66.61-.49 1.15-1 1.78-1.49l2.31-2.06A3.94 3.94 0 0 1 9.06.5a3.07 3.07 0 0 1 1.65.74c.48.38.91.82 1.41 1.17V.54a.54.54 0 0 1 .06-.31.52.52 0 0 1 .35-.16 6.07 6.07 0 0 1 2 0 .42.42 0 0 1 .28.14.62.62 0 0 1 .06.3c0 1.24 0 2.47-.1 3.71a1 1 0 0 0 0 .5 1 1 0 0 0 .24.27l1.35 1.21.1.09.19.18.25.25a3.08 3.08 0 0 1 .27.24 1.84 1.84 0 0 1 .51.79z" fill="#fb0"/><path d="M9.08 7.36c1.36 0 1.15 2.11-.2 2.11s-1.16-2.11.2-2.11z" fill="#fb0"/><path d="M15.52 10.67c.06 1.51 0 3 0 4.53v.06a1.78 1.78 0 0 1-1.65 2 11.11 11.11 0 0 1-1.82.06h-.92c-.31 0-.92.1-.93-.32 0-.88 0-1.76-.07-2.64a4.41 4.41 0 0 0-.15-1 1.7 1.7 0 0 0-.52-.7.83.83 0 0 0-.62-.22 1 1 0 0 0-.48.21 1.29 1.29 0 0 0-.53.7 4.4 4.4 0 0 0-.14 1c-.06.88 0 1.76-.08 2.64 0 .42-.66.32-.93.32h-.92a11 11 0 0 1-1.81-.06 3 3 0 0 1-.52-.13 1.77 1.77 0 0 1-.68-.44 1.69 1.69 0 0 1-.37-.7 4.18 4.18 0 0 1-.08-1.06V10.7c0-1.34 1-2.26 1.92-3.15S6 6.09 6.81 5.33c.26-.23.5-.47.76-.69a3 3 0 0 1 .51-.37A2.23 2.23 0 0 1 8.69 4a1 1 0 0 1 .38 0 1.19 1.19 0 0 1 .32.1 1.59 1.59 0 0 1 .29.15 3.36 3.36 0 0 1 .54.39c.26.22.5.46.76.69.85.76 1.79 1.41 2.62 2.19s1.87 1.81 1.92 3.15zm-.61 4.73c0-1.26.07-2.5 0-3.74a4 4 0 0 0-.62-2.39A8.09 8.09 0 0 0 13.21 8c-.73-.7-1.57-1.31-2.34-2-.24-.2-.45-.43-.67-.64s-.26-.24-.39-.34a2.38 2.38 0 0 0-.54-.35.83.83 0 0 0-.6 0 1.81 1.81 0 0 0-.62.33L8 5.05a4 4 0 0 0-.38.34c-.23.21-.44.44-.67.64-.77.65-1.62 1.26-2.34 2a8.15 8.15 0 0 0-1.15 1.24 4 4 0 0 0-.62 2.39v3.46a2.39 2.39 0 0 0 .06.66 1 1 0 0 0 .45.6 1.88 1.88 0 0 0 .73.22 8 8 0 0 0 .85 0H7a17.94 17.94 0 0 1 .17-3.36 2.59 2.59 0 0 1 .21-.61A1.6 1.6 0 0 1 8 12l.27-.12a.67.67 0 0 1 .16-.06h1l.27.12a1.6 1.6 0 0 1 .67.67 2.59 2.59 0 0 1 .21.61 18.83 18.83 0 0 1 .18 3.36h2c1.03.05 2.1.03 2.15-1.18z" fill="#444"/></svg>