<svg version="1.1" id="Layer_1" xmlns="http://www.w3.org/2000/svg" x="0" y="0" viewBox="0 0 61.2 120" xml:space="preserve"><style>.st0{fill:#fff}</style><path class="st0" d="M5.3 12.4s-.7 1.3-.4 5.7l.7 90.2s.5 6.4 5.9 7.3l38.8.4s4.9-1 5.2-7.8c.3-6.9-.2-78.8-.2-78.8l-.2-16s.5-5.3-4.8-5.4c0 0-7.4-1.7-9.4 2.6 0 0 .1 3.4-8 3.8l-5.7.1s-3.5 1-6.1-2.2c0 0-2-4.5-6.3-3.5.2-.3-7.6-1.5-9.5 3.6z"/><path d="M55.5 31.6C52.7 36.2 48 40 44.1 43.4c-3.6 3.1-6.1 7.3-9.5 10.6-2.3 2.2.9 5.9 3.1 3.7 3.7-3.5 6.4-7.9 10.3-11.2 4-3.3 8.8-7.7 11.4-12.1 1.7-2.7-2.3-5.5-3.9-2.8zm-34.1 84.3h2.9-2.9zm0 0h2.9-2.9zM56.6 13.2L1.7 13 .9 75.5l3.6-3.9c-.4.7-.7 1.4-.9 2.1-.2.6-.1 1.1.2 1.5-.5.9-1 1.8-1.4 2.7-.9 2.1 2.4 3.3 3.3 1.2.7-1.6 1.6-3.1 2.7-4.5.2-.2.4-.5.5-.8.4-.5.8-1 1.1-1.5 3.2-3.5 7.4-6.3 10.4-10 2.6-3.3 4.7-5.7 7.9-8.6 2-1.8 2.3-2.7 3.4-5.2 2.4-5.5 10.1-8.3 13.7-13.1 1.9-2.6 3.6-5.7 6-7.8l4-3.1 1.5-1.2-.3-10.1m.1 5.8v-.1" fill="#f9b52e"/><path fill="#fb0" d="M3.3 99.9l55.3.7-.1 9.3-.9 3.5-1.5 2.1-1.7 1.6-2.2.8-42-.3-2.9-1.1-1.2-1.1-1.1-1.7-1-1.4-.6-2.4z"/><circle class="st0" cx="31.5" cy="108" r="3.8"/><path d="M60.9 98.3c-.5-7.2.2-14.5-.1-21.7-.3-7.3-.5-14.4-.2-21.6.2-6.8-.7-13.6-.1-20.4.6-7 0-13.8 0-20.7-.2-4.5-.4-9.9-4.8-12.5-4.1-2.4-11-1-15.5-1-9 0-18 .1-27 0C11.5.4 9.7.3 8 .5 6.3.6 4.5 1 3.1 2c-.5.3-.9.7-1.2 1.1-.3.5-.6 1-.7 1.5C1 5.2.8 5.8.6 6.3.3 7.5.2 8.7.1 10c-.1 2 0 4.1 0 6.2 0 3.8-.1 7.7 0 11.5.2 6.8-.2 13.6.1 20.3.7 13.6-.9 27.3.2 40.9.5 5.8-.6 11.4.2 17.1.8 5.9 1.1 11.6 7.9 13 2.3.5 4.9.6 7.3.7 4.4.1 8.9.4 13.3.4 4 0 8-.1 12-.1 2.2 0 5.3-.5 7.7-.4.1 0 .1-.1.2-.1 3 0 6.5-.4 9.1-2.1 3.8-4.6 3.2-13.3 2.8-19.1zM57 110.2c-.1 1.1-.2 2.1-.7 2.9-.3.8-1.1 1.3-1.9 1.6-1 .5-2.6.7-3.4.7-.3 0-.6.1-.9.2-1.5-.1-3.6.4-5 .3H34.2c-3.9.1-7.6-.2-11.5-.4-3.1-.2-6.1.3-9.2-.1-.9-.1-1.8-.3-2.7-.5-3.3-.5-4.7-1.9-5.5-5.1-.8-3-1-6.8-.8-9.9.5-5.8 0-11.3 0-17.1 0-2.7 0-5.4-.3-8.1-.3-3 .4-5.8.3-8.7-.2-5.9.2-11.7-.1-17.6-.3-6.2 0-12.4.1-18.5 0-3.8-.2-7.7-.3-11.5 0-3.5-.5-7.6.4-11 0-.4 0-.8.2-1.1.2-.4.4-.8.7-1.1.2-.2.5-.4.8-.5.7-.3 1.5-.4 2.3-.4 1.5-.1 3 0 4.5.1h9c0 .1 0 .1.1.2.4 1 .8 2 1.5 2.8 1.1 1.3 2.7 1.2 4.3 1.3 1.6 0 3.2 0 4.8-.1 1.3 0 3.2.2 4.3-.6.7-.4 1.1-1.2 1.4-1.9.2-.5.5-1.2.5-1.7h8.6c2.9 0 5.5-.4 7.5 2.3 2.1 2.8 1 7.6 1.3 10.9.6 6.6 0 13.2-.3 19.8-.4 7.2.3 14.4-.1 21.6-.3 6.4.6 12.8.7 19.2.1 6.3-.4 12.7 0 19 .2 2.6 1 8.4.3 13z" fill="#444"/></svg>