<svg version="1.1" id="Layer_1" xmlns="http://www.w3.org/2000/svg" x="0" y="0" viewBox="0 0 433.1 211.5" xml:space="preserve"><style>.st0{fill:#fb0}.st1{fill:#444}</style><path class="st0" d="M297.5 50c-1.1 9.1-4.1 17.2-13.6 19.9-7.7 2.1-15.3.8-23 1-9.9.2-19.7 0-29.6.7-7.7.6-15.8.2-23.6.1-4.4-.1-8.7-1.1-13-.9-4.9.3-9.8 1.5-14.8 1.9-8.8.8-17.5.4-26.2.7-8 .3-16.2.7-24.2-.1-7.3-.8-14.6-1.3-22-1.4-7.7-.1-14.8-1-22.4-2-6.2-.9-12.8-.7-18-4.9-10.8-8.7 4-16.1 12.4-17.3 17.6-2.4 36.8.3 54.1 3.9 19.1 3.9 38.3 8.8 57.9 4 7.4-1.8 9.1-8.5 15.3-12.4 8.6-5.4 19.1-9.2 28.5-13 8.9-3.6 17.3-6.3 27-7 5.3-.4 10.8-.3 16.2.3 3.4.3 6.7 1.6 10.1 1.8h.1c11-.2 9.8 17.1 8.8 24.7z"/><path class="st0" d="M281.5 19.9c4.3.2 8.4.9 11.9 2.7 5.3 2.7 7.8 7.9 7.9 13.7.1 17.6 0 0 0 0s1.5 27.2-12.1 35.3c0 0-8.7 3.7-24.1 3l-92.8 2H122s-27.5.5-43.1-4c-7.8-2.2-24.6-8.8-15.8-19.6 1.5-1.9 3.5-3.3 5.5-4.5 5.7-3.4 11.9-4.2 18.4-4.6 8.1-.5 16.3-.4 24.3.4 6.4.6 12.7 1.6 18.9 3.2 3.8 1 7.4 2.4 11.2 3.4 8.6 2.1 17.4 3.5 26.2 3.5 6.2.1 12.4-.2 18.5-1.5 5.8-1.2 10.5-4.6 15.6-7.5 3.8-2.3 7.7-4.4 11.7-6.5 9.3-5 18.9-9.8 29-13.1 8.2-2.7 16.7-4.6 25.4-5.3 4-.4 8.9-.9 13.7-.6z"/><path class="st1" d="M357.9 92c-6.4-11.9-12.9-23.7-19.5-35.5 5.1 1.3 10.5 1.4 13.8-1.5 3.5-3 2.9-7.6 3.6-11.8.9-5.4 1.2-10.1.6-15.5-.9-8.5-6.5-13.6-15.2-10.5-3.8 1.3-7.5 3.9-10.6 6.4-2.5 2-5.4 3.9-7.5 6.4-3.2-3.9-7.3-6.4-13.4-5.9-5.7-10.5-12.7-18.9-24.6-22-12.6-3.3-26.7-2-39.5-.6-5.5.6-4 9.1 1.5 8.5 9.7-1.1 19.9-1.9 29.6-.7 12.4 1.6 19.7 8.2 25.3 18.8-3.3 6.8 1.2 15.4 4.3 21.7 5.3 10.8 11.2 21.4 17.2 31.9 6 10.7 11.1 21.8 17.8 32.2 5 7.8 13.4 29 25.2 28.2 22.5-1.6-4.3-42.1-8.6-50.1zm-29.3-54.7c.6-2.1 3.3-4.2 4.6-5.3 2.2-1.8 4.7-3.3 7.1-4.7 1.1-.7 2.2-1.3 3.4-1.8.6-.2 1.3-.5 1.9-.5 1-.1 2 .4 2.4 1.3 1.8 2.1 1.6 6.7 1.6 8.9 0 1.3-.1 3-.2 4.7 0 2.5-.3 7.2-2.8 8.5-.2.2-.5.4-.9.5-3.1.9-6.9 0-9.8-1.2-3.4-1.4-5.4-5.3-7-8.4-.1-.2-.3-.5-.3-.7-.2-.5-.1-.9 0-1.3zm38.3 93.8c-2.3 3.4-7.7-4.8-8.3-5.7-10.3-15.8-19-32.2-28.1-48.7-3.4-6.1-21.5-33.3-21.4-42.6-.2-.8.1-1.4.8-1.7 2-1 3.7-.2 5.2 1.3.4.3.8.7 1.1 1 .9 1 1.6 2.1 2.2 3.2 5 6.5 9.3 17 11.5 21 5.7 10.7 11.8 21.2 17.6 31.9 4.1 7.5 8.2 15.1 11.9 22.9 1.4 3 3 5.9 4.3 8.9.5 1.2 3.9 7.5 3.2 8.5zM277.5 94c.8-3.1.8-6.1-1.2-8.4-4.1-4.5-13.8-2.5-19-2.3-9 .4-17.9.9-26.9.9-.8 0-1.5.2-2.1.5-1.4.5-2.6 1.6-3 3.4-.4 2.2-.4 4.6 0 7-2.4 0-4.9-.3-7.3-.6-2.7-.3-5.3.3-8 .2-.1-1.3-.3-2.6-.6-3.7-2-6.1-8.1-4.8-13.3-4.9-8.4-.2-16.8-.7-25.2-.2-1.5.1-2.9.3-4.4.4-13.4 1.1-7.1 18.5-4.1 26.1.2.5.4 1.1.6 1.6 5.4 13.8 21.8 12.2 34.2 10.2 6.1-.9 9-4.5 10.3-10.5.6-2.8 1.5-6.6 2-10.4 2.5 0 5-.5 7.6-.2 2.9.3 5.9.7 8.8.6.6 0 1.1-.1 1.6-.3.1.2.2.5.3.7 2.3 5.6 4.6 13.9 9.5 17.7 4 3.2 10.9 2.6 15.7 2.8 5.1.3 10.9 1.2 14.9-2.7 4.8-4.7 5-13.3 6.7-19.5 8.4.9 1.8 18.9.3 25.3-2.8 12.2-6.9 27.5-20.5 30.9-12.1 3-27.6 1.2-40 .9-13.6-.4-27.3-.6-40.9-.6-.4 0-.8.1-1.1.1-3.8-4.5-11-6.6-17.3-8.5-14.6-4.4-29.5-7.7-44.4-10.9-15-3.2-29.9-6.4-44.7-10.4-5.3-1.4-11.9-3-16.6.9-1.7 1.4-3 3.4-3.9 5.4-1.8 4.1-2.5 9-1.6 13.3 0 .1 0 .2.1.3 2.2 10 12.6 13.5 21.6 15.6 14.7 3.5 30 5 44.9 8 15.4 3 31.6 6.9 47.3 7.8 8.1.5 14.1-1 16.5-9.6.4-1.3.5-2.4.6-3.5 19.9.1 39.9.7 59.8.6 14.4 0 29.4 1.1 38.5-12.1 8.4-12.1 10.4-28.2 13.5-42.2 2.5-10.2 1.7-18.5-9.2-19.7zm-76.4 1.3c.1.7-.1 2.3-.1 2.8-.1 1.2-.3 2.4-.5 3.6-.4 4-.4 11.8-3.7 13.9-2.1 1.3-7.7.4-10.4.6-4.5.3-10.8 1.4-14.1-2.7-2.1-2.7-5.9-12.2-5.2-16.9-1.1-2.4 2.9-2.1 4.3-2.2 4.5-.3 9.1-.1 13.7-.1 3.1 0 8.4-.6 12.2-.1 1.2.2 3.1-.7 3.7.8 0 .2 0 .2.1.3zm67.8-2.1c-.1.5-.4 1-.5 1.4-.2 1.2-.7 2.3-1 3.5-.3 1.3-.7 2.6-1 3.9-.7 2.5-1.5 5-2.2 7.5-1.8 6.6-5.3 7.1-11.6 6.6-4.2-.3-8.5.4-11.4-3.3-2.4-3.1-4.1-8.7-5.5-12.4-.6-1.7-1.1-3.8-1.5-5.8-.1-.4-.2-.9-.3-1.3-.2-2 10.2-1.6 11.3-1.6 3.4 0 6.8.2 10.2.1 2 0 4-.3 5.9-.5 1.2-.1 2.4 0 3.7-.1 1 0 2.6-.5 3.4.2.7.6.6 1.2.5 1.8zM164 172.1c-2.6 2.4-19.1-1.9-23.2-2.5-10.3-1.7-20.6-3.5-30.8-5.5-7.5-1.5-14.8-3.3-22.4-4.4-5.5-.8-11-1.4-16.5-2.5-3.5-.7-7-1.6-10.4-2.7-3.4-1.1-7.5-3.8-8.2-7.5-.3-1.7 0-3.5.7-5.1.7-1.7 1.6-3.6 3-4.8.8-.7 1.8-1 2.9-.9 2.8.3 5.7 1.6 8.4 2.3 3.8 1 7.5 2 11.3 2.9 7.6 1.9 15.1 3.6 22.7 5.3 2.3.5 4.7 1 7 1.6 12.3 2.7 24.4 5.7 36.6 8.7 3.7 1 29.7 5.3 18.9 15.1z"/><path class="st1" d="M365.8 77.1c-5.4 0-10.6.7-15.7 1.9 1 2.6 2 5.2 3.2 7.7 4-.9 8.2-1.4 12.5-1.4 32.5 0 59 26.5 59 59s-26.5 59-59 59-59-26.5-59-59c0-20.6 10.7-38.7 26.8-49.3-1.5-2.3-3-4.7-4.3-7.1-18.4 12-30.7 32.8-30.7 56.4 0 37.1 30.2 67.2 67.2 67.2s67.2-30.2 67.2-67.2-30.1-67.2-67.2-67.2zm-259.5 92.3c-7.6 18.8-25.9 32.2-47.5 32.2-28.5 0-51.6-23.2-51.6-51.6 0-28.5 23.2-51.6 51.6-51.6 26.4 0 48 20 51.1 45.5 2.6.5 5.1 1.2 7.5 2.1-2-30.6-27.5-54.9-58.6-54.9C26.4 91.2 0 117.6 0 150s26.4 58.8 58.8 58.8c25 0 46.1-15.9 54.5-38-2.4-.2-4.7-.7-7-1.4z"/></svg>