<svg version="1.1" id="Layer_1" xmlns="http://www.w3.org/2000/svg" x="0" y="0" viewBox="0 0 200 99.4" xml:space="preserve"><style>.st2{fill:#444}</style><path d="M26.5 4.5s-3.4.3-2.2 22.1c0 0-.3 19.6 2.2 22.1s10.9 4 12.8 4.7c1.9.6 11.5 10.6 16.5 13.4s19.9 5.1 19.9 5.1l46.7-1.2s.8-1.7 1 .5 61.2 2.5 66.5-.6c5.3-3.1 6.8-8.7 1.6-10.3-5.3-1.6-13.1-4.7-13.1-4.7l-18.7-16.2s-2.8-5.6-27.4-2.5H67.9s-11.5 2.2-15.6-5L34.9 8.6s-3.7-6.9-8.4-4.1z" fill="#fff"/><path d="M192 60.2s3.4 4.5-12.5 4.5h-42.4s-5.3 0-10.6 5.3l-10.6 5.3-.3 2.5 75.1.3s10.5-1.1 7.6-9.9c0 0 .9-7.2-6.3-8zm-30.5-20.6c2.3-.3 19.3 16.6 19.3 16.6-1.9 2.5-8.3 1.3-10.6.3-3.4-1.5-6-4.1-8.9-6.3-1.8-1.4-3.7-3-4.4-5.3-1-3.2 1.7-4.8 4.5-5.2 0-.1 0-.1.1-.1z" fill="#fcb912"/><path class="st2" d="M104.5 48.3c-1.9 1.7.6 4.9 2.4 3.1 1.9-1.7-.5-4.8-2.4-3.1zM89.3 48c-2.4.9-1.4 4.7 1 3.8 2.4-.9 1.4-4.7-1-3.8zm-16.3.2c-2.1 1.4-.2 4.9 1.9 3.5 2.1-1.5.2-5-1.9-3.5zm47.7-.1c-2.1 1.4-.3 4.9 1.9 3.5 2-1.3.2-4.9-1.9-3.5zm16.5-.2c-2.5.6-1.8 4.6.6 3.9 2.5-.6 1.8-4.5-.6-3.9z"/><path d="M26.3 63H11.8c-2.5 0-2.9 4-.4 4H26c2.5 0 2.9-4 .3-4zm1.6 8.2c-6.6-.1-13.3.2-19.9.2-2.5 0-2.9 4-.4 4 6.6 0 13.3-.2 19.9-.2 2.5 0 2.9-4 .4-4zm-25.8 0c-2.5 0-2.9 4-.4 4 2.6-.1 3-4 .4-4z" fill="#444445"/><path class="st2" d="M200 66.2c-.3-4.3-2.8-8.9-6.6-11.1-3.9-2.2-8.6-1.3-12.5-3.7-2.9-1.8-5-5-7.5-7.3-5.7-5.5-12.6-9.7-20.4-11.2-2.1-.4-4.3-.6-6.4-.7-2.5 0-4.9.3-7.4.3h-22.4c-6.8 0-13.6.1-20.3.1-6.7.1-13.4.5-20.1.5-7.7 0-16 1.4-21.6-5C48.2 20.9 44.3 11 37.4 4 34.2.7 28.8-1.4 24.5 1.1c-1.4.8-2.4 2-3.2 3.4-.4.8-.8 1.7-1 2.6-.4 1.5-.4 3.3-.5 4.9 0 1.7.1 3.3.2 5 .3 3.3 1 6.5 1.3 9.8.8 7.6.3 15.9 2.4 23.2.9 3.3 3 5.4 5.9 7.1 3.5 2 6.5 1.2 8.8 5.2 1 1.8 2 3.6 3.1 5.3 4.6 7.7 12.5 8.5 20.7 9.1l-6.6 5.1c-3 2.3-8.2 5-8.6 9.3-.9 8.5 13.5 8.3 18.7 8.4 9 .2 14.6-3.5 22.8-7.5 7.3-3.6 14.5-7.4 21.6-11.3 10.2-.8 20.4-.3 30.7.1 10.9.4 21.9-.3 32.8-.3 10.6-.2 27.4 1.5 26.4-14.3zm-5.2 3.9c-2.2 6.7-10.6 5.3-16.1 5.4-8.4.2-16.8.2-25.1.3-11.3.1-22.6-.5-33.9-.3 1.5-.8 3.1-1.6 4.6-2.5 2.7-1.4.7-5.7-2-4.3-9.1 4.8-18.1 9.7-27.2 14.5-6.9 3.6-14.7 9.2-22.2 11.1-2.4.6-5.2.5-7.6.4-1.4 0-12.4-.6-13-2.1-.3-.8.2-1.8.7-2.4.8-1.2 1.8-2.2 2.9-3.1 2.7-2.4 5.7-4.5 8.7-6.6 1-.7 1.9-1.4 2.9-2 .4-.3.8-.6 1.2-.8 1.1-.8 2.5-1.5 2.5-3-.1-1.4-1.3-2.2-2.6-2.2-.8 0-1.7 0-2.5-.1-1.1-.1-2.2-.1-3.3-.2-2.3-.1-4.6-.3-6.8-.8-2.3-.4-4.6-1.1-6.5-2.4-4.2-2.8-4.6-7-7.1-10.8-1.2-1.7-2.7-2.8-4.6-3.7-2.3-1.2-6.2-1.1-8-3.4-1.4-1.7-1.3-4-1.7-6.1-1.2-6.2-1.2-12.7-1.7-19-.2-2.6-.5-5.1-.6-7.7-.1-1.6-.4-3.2-.6-4.8-.2-2-.8-5.1.7-6.8.9-1 2.3-1.6 3.7-1.8 1.6-.1 2.8.6 4 1.7.8 1 1.4 2.4 2.4 3.7 3.1 4.3 6.4 8.5 9.5 12.7 5.4 7.5 8.9 14.5 19.2 14.9 11.9.5 23.8-.6 35.7-.6 10.1 0 20.1-.1 30.2-.1 9.4 0 18.7-1.3 27.7 2.4 1.3.6 2.7 1.2 3.9 1.9 3.3 2 6.4 4.4 9.1 7.2 3.4 3.4 6.5 7.2 11.3 8.5 3.2.9 6.8.4 9.5 2.7 2.8 2.5 3.8 6.8 2.7 10.2z"/></svg>